%TF.GenerationSoftware,KiCad,Pcbnew,5.1.10*%
%TF.CreationDate,2021-10-31T19:01:46+09:00*%
%TF.ProjectId,usb_charger,7573625f-6368-4617-9267-65722e6b6963,rev?*%
%TF.SameCoordinates,Original*%
%TF.FileFunction,Profile,NP*%
%FSLAX46Y46*%
G04 Gerber Fmt 4.6, Leading zero omitted, Abs format (unit mm)*
G04 Created by KiCad (PCBNEW 5.1.10) date 2021-10-31 19:01:46*
%MOMM*%
%LPD*%
G01*
G04 APERTURE LIST*
%TA.AperFunction,Profile*%
%ADD10C,0.050000*%
%TD*%
G04 APERTURE END LIST*
D10*
X114150001Y-87900001D02*
X114150003Y-79750000D01*
X120500001Y-88999999D02*
X120500002Y-97091360D01*
X130500000Y-87900000D02*
X136250000Y-87900000D01*
X130500000Y-89000000D02*
X136250000Y-89000000D01*
X130499999Y-87900000D02*
X130499999Y-79508638D01*
X136250000Y-89000000D02*
X136250000Y-97350000D01*
X114150000Y-89000000D02*
X120500000Y-89000000D01*
X114150000Y-87900000D02*
X120500000Y-87900000D01*
X114306867Y-73899766D02*
X119693134Y-77903511D01*
X137500001Y-55300000D02*
X137499999Y-72294635D01*
X114306867Y-73899768D02*
G75*
G02*
X113499999Y-72294639I1193133J1605129D01*
G01*
X137500000Y-121300000D02*
X137499998Y-104305365D01*
X119693129Y-77903510D02*
G75*
G02*
X120500001Y-79508637I-1193129J-1605131D01*
G01*
X117500001Y-117050001D02*
G75*
G03*
X117500001Y-117050001I-1000001J0D01*
G01*
X130499999Y-97091363D02*
X130499999Y-89000000D01*
X136693134Y-73899766D02*
X131306868Y-77903510D01*
X137500001Y-72294638D02*
G75*
G02*
X136693134Y-73899766I-2000000J-1D01*
G01*
X137500001Y-55300000D02*
X113499999Y-55300001D01*
X137500000Y-121300000D02*
X113500000Y-121300000D01*
X113500000Y-104305364D02*
G75*
G02*
X114306868Y-102700234I2000002J1D01*
G01*
X113499999Y-55300001D02*
X113499999Y-72294639D01*
X135500000Y-117049999D02*
G75*
G03*
X135500000Y-117049999I-1000000J0D01*
G01*
X130499997Y-79508640D02*
G75*
G02*
X131306868Y-77903510I2000004J-2D01*
G01*
X135500000Y-59549998D02*
G75*
G03*
X135500000Y-59549998I-1000000J0D01*
G01*
X114306868Y-102700234D02*
X119693133Y-98696489D01*
X136693130Y-102700238D02*
G75*
G02*
X137499998Y-104305365I-1193131J-1605127D01*
G01*
X120500002Y-97091361D02*
G75*
G02*
X119693133Y-98696489I-2000000J1D01*
G01*
X131306869Y-98696490D02*
G75*
G02*
X130499999Y-97091363I1193130J1605130D01*
G01*
X117500003Y-59550000D02*
G75*
G03*
X117500003Y-59550000I-1000001J0D01*
G01*
X120500001Y-79508637D02*
X120500001Y-87900000D01*
X136693133Y-102700234D02*
X131306867Y-98696490D01*
X113500000Y-121300000D02*
X113500000Y-104305363D01*
X88399999Y-79750002D02*
X114150003Y-79750000D01*
X114150000Y-97499998D02*
X114150001Y-89000001D01*
X114150000Y-97499998D02*
X88400000Y-97500002D01*
X88400000Y-97500002D02*
X88399999Y-79750002D01*
X136250000Y-79600000D02*
X136250000Y-87900000D01*
X162000000Y-97350000D02*
X136250000Y-97350000D01*
X162000000Y-79600000D02*
X162000000Y-97350000D01*
X136250000Y-79600000D02*
X162000000Y-79600000D01*
M02*
