%TF.GenerationSoftware,KiCad,Pcbnew,5.1.10*%
%TF.CreationDate,2021-10-31T19:01:46+09:00*%
%TF.ProjectId,usb_charger,7573625f-6368-4617-9267-65722e6b6963,rev?*%
%TF.SameCoordinates,Original*%
%TF.FileFunction,Legend,Top*%
%TF.FilePolarity,Positive*%
%FSLAX46Y46*%
G04 Gerber Fmt 4.6, Leading zero omitted, Abs format (unit mm)*
G04 Created by KiCad (PCBNEW 5.1.10) date 2021-10-31 19:01:46*
%MOMM*%
%LPD*%
G01*
G04 APERTURE LIST*
%ADD10C,0.120000*%
%ADD11C,0.150000*%
G04 APERTURE END LIST*
D10*
%TO.C,J3*%
X89575002Y-94499997D02*
X93075002Y-94499997D01*
X93075002Y-94499997D02*
X93075002Y-89949997D01*
X93075002Y-89949997D02*
X89575002Y-89949997D01*
X89575002Y-89949997D02*
X89575002Y-94499997D01*
X92525002Y-92224997D02*
X92525002Y-93949997D01*
X92525002Y-93949997D02*
X91800002Y-93949997D01*
X91800002Y-93949997D02*
X91800002Y-94149997D01*
X91800002Y-94149997D02*
X91000002Y-94149997D01*
X91000002Y-94149997D02*
X91000002Y-93949997D01*
X91000002Y-93949997D02*
X90125002Y-93949997D01*
X90125002Y-93949997D02*
X90125002Y-92224997D01*
X92525002Y-92224997D02*
X92525002Y-90499997D01*
X92525002Y-90499997D02*
X91800002Y-90499997D01*
X91800002Y-90499997D02*
X91800002Y-90299997D01*
X91800002Y-90299997D02*
X91000002Y-90299997D01*
X91000002Y-90299997D02*
X91000002Y-90499997D01*
X91000002Y-90499997D02*
X90125002Y-90499997D01*
X90125002Y-90499997D02*
X90125002Y-92224997D01*
X93325002Y-94749997D02*
X92325002Y-94749997D01*
X93325002Y-94749997D02*
X93325002Y-93749997D01*
%TO.C,J2*%
X89574999Y-86849997D02*
X93074999Y-86849997D01*
X93074999Y-86849997D02*
X93074999Y-82299997D01*
X93074999Y-82299997D02*
X89574999Y-82299997D01*
X89574999Y-82299997D02*
X89574999Y-86849997D01*
X92524999Y-84574997D02*
X92524999Y-86299997D01*
X92524999Y-86299997D02*
X91799999Y-86299997D01*
X91799999Y-86299997D02*
X91799999Y-86499997D01*
X91799999Y-86499997D02*
X90999999Y-86499997D01*
X90999999Y-86499997D02*
X90999999Y-86299997D01*
X90999999Y-86299997D02*
X90124999Y-86299997D01*
X90124999Y-86299997D02*
X90124999Y-84574997D01*
X92524999Y-84574997D02*
X92524999Y-82849997D01*
X92524999Y-82849997D02*
X91799999Y-82849997D01*
X91799999Y-82849997D02*
X91799999Y-82649997D01*
X91799999Y-82649997D02*
X90999999Y-82649997D01*
X90999999Y-82649997D02*
X90999999Y-82849997D01*
X90999999Y-82849997D02*
X90124999Y-82849997D01*
X90124999Y-82849997D02*
X90124999Y-84574997D01*
X93324999Y-87099997D02*
X92324999Y-87099997D01*
X93324999Y-87099997D02*
X93324999Y-86099997D01*
%TO.C,J3*%
X157075000Y-82350000D02*
X157075000Y-83350000D01*
X157075000Y-82350000D02*
X158075000Y-82350000D01*
X160275000Y-86600000D02*
X160275000Y-84875000D01*
X159400000Y-86600000D02*
X160275000Y-86600000D01*
X159400000Y-86800000D02*
X159400000Y-86600000D01*
X158600000Y-86800000D02*
X159400000Y-86800000D01*
X158600000Y-86600000D02*
X158600000Y-86800000D01*
X157875000Y-86600000D02*
X158600000Y-86600000D01*
X157875000Y-84875000D02*
X157875000Y-86600000D01*
X160275000Y-83150000D02*
X160275000Y-84875000D01*
X159400000Y-83150000D02*
X160275000Y-83150000D01*
X159400000Y-82950000D02*
X159400000Y-83150000D01*
X158600000Y-82950000D02*
X159400000Y-82950000D01*
X158600000Y-83150000D02*
X158600000Y-82950000D01*
X157875000Y-83150000D02*
X158600000Y-83150000D01*
X157875000Y-84875000D02*
X157875000Y-83150000D01*
X160825000Y-87150000D02*
X160825000Y-82600000D01*
X157325000Y-87150000D02*
X160825000Y-87150000D01*
X157325000Y-82600000D02*
X157325000Y-87150000D01*
X160825000Y-82600000D02*
X157325000Y-82600000D01*
%TO.C,J2*%
X157075000Y-90000000D02*
X157075000Y-91000000D01*
X157075000Y-90000000D02*
X158075000Y-90000000D01*
X160275000Y-94250000D02*
X160275000Y-92525000D01*
X159400000Y-94250000D02*
X160275000Y-94250000D01*
X159400000Y-94450000D02*
X159400000Y-94250000D01*
X158600000Y-94450000D02*
X159400000Y-94450000D01*
X158600000Y-94250000D02*
X158600000Y-94450000D01*
X157875000Y-94250000D02*
X158600000Y-94250000D01*
X157875000Y-92525000D02*
X157875000Y-94250000D01*
X160275000Y-90800000D02*
X160275000Y-92525000D01*
X159400000Y-90800000D02*
X160275000Y-90800000D01*
X159400000Y-90600000D02*
X159400000Y-90800000D01*
X158600000Y-90600000D02*
X159400000Y-90600000D01*
X158600000Y-90800000D02*
X158600000Y-90600000D01*
X157875000Y-90800000D02*
X158600000Y-90800000D01*
X157875000Y-92525000D02*
X157875000Y-90800000D01*
X160825000Y-94800000D02*
X160825000Y-90250000D01*
X157325000Y-94800000D02*
X160825000Y-94800000D01*
X157325000Y-90250000D02*
X157325000Y-94800000D01*
X160825000Y-90250000D02*
X157325000Y-90250000D01*
%TO.C,U2*%
X100549999Y-90389998D02*
X98099999Y-90389998D01*
X98749999Y-93609998D02*
X100549999Y-93609998D01*
%TO.C,R4*%
X103900002Y-94070000D02*
X104900002Y-94070000D01*
X104900002Y-95430000D02*
X103900002Y-95430000D01*
%TO.C,R2*%
X103899996Y-82569999D02*
X104899996Y-82569999D01*
X104899996Y-83929999D02*
X103899996Y-83929999D01*
%TO.C,R3*%
X99150000Y-95070001D02*
X100150000Y-95070001D01*
X100150000Y-96430001D02*
X99150000Y-96430001D01*
%TO.C,D2*%
X102600001Y-90699998D02*
X105200001Y-90699998D01*
X102600001Y-91799998D02*
X105200001Y-91799998D01*
X102600001Y-90699998D02*
X102600001Y-91799998D01*
%TO.C,U1*%
X98500000Y-86360000D02*
X100300000Y-86360000D01*
X100300000Y-83140000D02*
X97850000Y-83140000D01*
%TO.C,R1*%
X98899999Y-80570002D02*
X99899999Y-80570002D01*
X99899999Y-81930002D02*
X98899999Y-81930002D01*
%TO.C,C1*%
X99999999Y-88849999D02*
X99299999Y-88849999D01*
X99299999Y-87649999D02*
X99999999Y-87649999D01*
%TO.C,C2*%
X95999999Y-84150005D02*
X95999999Y-84850005D01*
X94799999Y-84850005D02*
X94799999Y-84150005D01*
%TO.C,C3*%
X94800002Y-92350004D02*
X94800002Y-91650004D01*
X96000002Y-91650004D02*
X96000002Y-92350004D01*
%TO.C,D1*%
X106050000Y-86550000D02*
X106050000Y-85450000D01*
X106050000Y-85450000D02*
X103450000Y-85450000D01*
X106050000Y-86550000D02*
X103450000Y-86550000D01*
%TO.C,C1*%
X151100000Y-89450000D02*
X150400000Y-89450000D01*
X150400000Y-88250000D02*
X151100000Y-88250000D01*
%TO.C,C2*%
X155600000Y-92250000D02*
X155600000Y-92950000D01*
X154400000Y-92950000D02*
X154400000Y-92250000D01*
%TO.C,C3*%
X154400000Y-85450000D02*
X154400000Y-84750000D01*
X155600000Y-84750000D02*
X155600000Y-85450000D01*
%TO.C,D1*%
X144350000Y-90550000D02*
X146950000Y-90550000D01*
X144350000Y-91650000D02*
X146950000Y-91650000D01*
X144350000Y-90550000D02*
X144350000Y-91650000D01*
%TO.C,D2*%
X147800000Y-86400000D02*
X147800000Y-85300000D01*
X147800000Y-85300000D02*
X145200000Y-85300000D01*
X147800000Y-86400000D02*
X145200000Y-86400000D01*
%TO.C,R1*%
X150500000Y-95170000D02*
X151500000Y-95170000D01*
X151500000Y-96530000D02*
X150500000Y-96530000D01*
%TO.C,R2*%
X145500000Y-93170000D02*
X146500000Y-93170000D01*
X146500000Y-94530000D02*
X145500000Y-94530000D01*
%TO.C,R3*%
X150250000Y-80670000D02*
X151250000Y-80670000D01*
X151250000Y-82030000D02*
X150250000Y-82030000D01*
%TO.C,R4*%
X145500000Y-81670000D02*
X146500000Y-81670000D01*
X146500000Y-83030000D02*
X145500000Y-83030000D01*
%TO.C,U1*%
X150100000Y-93960000D02*
X152550000Y-93960000D01*
X151900000Y-90740000D02*
X150100000Y-90740000D01*
%TO.C,U2*%
X151650000Y-83490000D02*
X149850000Y-83490000D01*
X149850000Y-86710000D02*
X152300000Y-86710000D01*
%TO.C,J3*%
D11*
X91466668Y-88302377D02*
X91466668Y-89016663D01*
X91419049Y-89159520D01*
X91323811Y-89254758D01*
X91180954Y-89302377D01*
X91085716Y-89302377D01*
X91847621Y-88302377D02*
X92466668Y-88302377D01*
X92133335Y-88683330D01*
X92276192Y-88683330D01*
X92371430Y-88730949D01*
X92419049Y-88778568D01*
X92466668Y-88873806D01*
X92466668Y-89111901D01*
X92419049Y-89207139D01*
X92371430Y-89254758D01*
X92276192Y-89302377D01*
X91990478Y-89302377D01*
X91895240Y-89254758D01*
X91847621Y-89207139D01*
%TO.C,J2*%
X91316665Y-80652377D02*
X91316665Y-81366663D01*
X91269046Y-81509520D01*
X91173808Y-81604758D01*
X91030951Y-81652377D01*
X90935713Y-81652377D01*
X91745237Y-80747616D02*
X91792856Y-80699997D01*
X91888094Y-80652377D01*
X92126189Y-80652377D01*
X92221427Y-80699997D01*
X92269046Y-80747616D01*
X92316665Y-80842854D01*
X92316665Y-80938092D01*
X92269046Y-81080949D01*
X91697618Y-81652377D01*
X92316665Y-81652377D01*
%TO.C,J3*%
X158266666Y-87702380D02*
X158266666Y-88416666D01*
X158219047Y-88559523D01*
X158123809Y-88654761D01*
X157980952Y-88702380D01*
X157885714Y-88702380D01*
X158647619Y-87702380D02*
X159266666Y-87702380D01*
X158933333Y-88083333D01*
X159076190Y-88083333D01*
X159171428Y-88130952D01*
X159219047Y-88178571D01*
X159266666Y-88273809D01*
X159266666Y-88511904D01*
X159219047Y-88607142D01*
X159171428Y-88654761D01*
X159076190Y-88702380D01*
X158790476Y-88702380D01*
X158695238Y-88654761D01*
X158647619Y-88607142D01*
%TO.C,J2*%
X158416666Y-95352380D02*
X158416666Y-96066666D01*
X158369047Y-96209523D01*
X158273809Y-96304761D01*
X158130952Y-96352380D01*
X158035714Y-96352380D01*
X158845238Y-95447619D02*
X158892857Y-95400000D01*
X158988095Y-95352380D01*
X159226190Y-95352380D01*
X159321428Y-95400000D01*
X159369047Y-95447619D01*
X159416666Y-95542857D01*
X159416666Y-95638095D01*
X159369047Y-95780952D01*
X158797619Y-96352380D01*
X159416666Y-96352380D01*
%TO.C,J1*%
X109116666Y-82802380D02*
X109116666Y-83516666D01*
X109069047Y-83659523D01*
X108973809Y-83754761D01*
X108830952Y-83802380D01*
X108735714Y-83802380D01*
X110116666Y-83802380D02*
X109545238Y-83802380D01*
X109830952Y-83802380D02*
X109830952Y-82802380D01*
X109735714Y-82945238D01*
X109640476Y-83040476D01*
X109545238Y-83088095D01*
%TO.C,U2*%
X96788094Y-93652378D02*
X96788094Y-94461902D01*
X96835713Y-94557140D01*
X96883332Y-94604759D01*
X96978570Y-94652378D01*
X97169046Y-94652378D01*
X97264284Y-94604759D01*
X97311903Y-94557140D01*
X97359522Y-94461902D01*
X97359522Y-93652378D01*
X97788094Y-93747617D02*
X97835713Y-93699998D01*
X97930951Y-93652378D01*
X98169046Y-93652378D01*
X98264284Y-93699998D01*
X98311903Y-93747617D01*
X98359522Y-93842855D01*
X98359522Y-93938093D01*
X98311903Y-94080950D01*
X97740475Y-94652378D01*
X98359522Y-94652378D01*
%TO.C,R4*%
X104233335Y-93752380D02*
X103900002Y-93276190D01*
X103661906Y-93752380D02*
X103661906Y-92752380D01*
X104042859Y-92752380D01*
X104138097Y-92800000D01*
X104185716Y-92847619D01*
X104233335Y-92942857D01*
X104233335Y-93085714D01*
X104185716Y-93180952D01*
X104138097Y-93228571D01*
X104042859Y-93276190D01*
X103661906Y-93276190D01*
X105090478Y-93085714D02*
X105090478Y-93752380D01*
X104852382Y-92704761D02*
X104614287Y-93419047D01*
X105233335Y-93419047D01*
%TO.C,R2*%
X104283329Y-81702379D02*
X103949996Y-81226189D01*
X103711900Y-81702379D02*
X103711900Y-80702379D01*
X104092853Y-80702379D01*
X104188091Y-80749999D01*
X104235710Y-80797618D01*
X104283329Y-80892856D01*
X104283329Y-81035713D01*
X104235710Y-81130951D01*
X104188091Y-81178570D01*
X104092853Y-81226189D01*
X103711900Y-81226189D01*
X104664281Y-80797618D02*
X104711900Y-80749999D01*
X104807138Y-80702379D01*
X105045234Y-80702379D01*
X105140472Y-80749999D01*
X105188091Y-80797618D01*
X105235710Y-80892856D01*
X105235710Y-80988094D01*
X105188091Y-81130951D01*
X104616662Y-81702379D01*
X105235710Y-81702379D01*
%TO.C,R3*%
X96583333Y-96302381D02*
X96250000Y-95826191D01*
X96011904Y-96302381D02*
X96011904Y-95302381D01*
X96392857Y-95302381D01*
X96488095Y-95350001D01*
X96535714Y-95397620D01*
X96583333Y-95492858D01*
X96583333Y-95635715D01*
X96535714Y-95730953D01*
X96488095Y-95778572D01*
X96392857Y-95826191D01*
X96011904Y-95826191D01*
X96916666Y-95302381D02*
X97535714Y-95302381D01*
X97202380Y-95683334D01*
X97345238Y-95683334D01*
X97440476Y-95730953D01*
X97488095Y-95778572D01*
X97535714Y-95873810D01*
X97535714Y-96111905D01*
X97488095Y-96207143D01*
X97440476Y-96254762D01*
X97345238Y-96302381D01*
X97059523Y-96302381D01*
X96964285Y-96254762D01*
X96916666Y-96207143D01*
%TO.C,D2*%
X103661905Y-90252378D02*
X103661905Y-89252378D01*
X103900001Y-89252378D01*
X104042858Y-89299998D01*
X104138096Y-89395236D01*
X104185715Y-89490474D01*
X104233334Y-89680950D01*
X104233334Y-89823807D01*
X104185715Y-90014283D01*
X104138096Y-90109521D01*
X104042858Y-90204759D01*
X103900001Y-90252378D01*
X103661905Y-90252378D01*
X104614286Y-89347617D02*
X104661905Y-89299998D01*
X104757143Y-89252378D01*
X104995239Y-89252378D01*
X105090477Y-89299998D01*
X105138096Y-89347617D01*
X105185715Y-89442855D01*
X105185715Y-89538093D01*
X105138096Y-89680950D01*
X104566667Y-90252378D01*
X105185715Y-90252378D01*
%TO.C,U1*%
X98588095Y-86552380D02*
X98588095Y-87361904D01*
X98635714Y-87457142D01*
X98683333Y-87504761D01*
X98778571Y-87552380D01*
X98969047Y-87552380D01*
X99064285Y-87504761D01*
X99111904Y-87457142D01*
X99159523Y-87361904D01*
X99159523Y-86552380D01*
X100159523Y-87552380D02*
X99588095Y-87552380D01*
X99873809Y-87552380D02*
X99873809Y-86552380D01*
X99778571Y-86695238D01*
X99683333Y-86790476D01*
X99588095Y-86838095D01*
%TO.C,R1*%
X96083332Y-81602382D02*
X95749999Y-81126192D01*
X95511903Y-81602382D02*
X95511903Y-80602382D01*
X95892856Y-80602382D01*
X95988094Y-80650002D01*
X96035713Y-80697621D01*
X96083332Y-80792859D01*
X96083332Y-80935716D01*
X96035713Y-81030954D01*
X95988094Y-81078573D01*
X95892856Y-81126192D01*
X95511903Y-81126192D01*
X97035713Y-81602382D02*
X96464284Y-81602382D01*
X96749999Y-81602382D02*
X96749999Y-80602382D01*
X96654760Y-80745240D01*
X96559522Y-80840478D01*
X96464284Y-80888097D01*
%TO.C,C1*%
X96783332Y-88607141D02*
X96735713Y-88654760D01*
X96592856Y-88702379D01*
X96497618Y-88702379D01*
X96354760Y-88654760D01*
X96259522Y-88559522D01*
X96211903Y-88464284D01*
X96164284Y-88273808D01*
X96164284Y-88130951D01*
X96211903Y-87940475D01*
X96259522Y-87845237D01*
X96354760Y-87749999D01*
X96497618Y-87702379D01*
X96592856Y-87702379D01*
X96735713Y-87749999D01*
X96783332Y-87797618D01*
X97735713Y-88702379D02*
X97164284Y-88702379D01*
X97449999Y-88702379D02*
X97449999Y-87702379D01*
X97354760Y-87845237D01*
X97259522Y-87940475D01*
X97164284Y-87988094D01*
%TO.C,C2*%
X95333332Y-87357147D02*
X95285713Y-87404766D01*
X95142856Y-87452385D01*
X95047618Y-87452385D01*
X94904760Y-87404766D01*
X94809522Y-87309528D01*
X94761903Y-87214290D01*
X94714284Y-87023814D01*
X94714284Y-86880957D01*
X94761903Y-86690481D01*
X94809522Y-86595243D01*
X94904760Y-86500005D01*
X95047618Y-86452385D01*
X95142856Y-86452385D01*
X95285713Y-86500005D01*
X95333332Y-86547624D01*
X95714284Y-86547624D02*
X95761903Y-86500005D01*
X95857141Y-86452385D01*
X96095237Y-86452385D01*
X96190475Y-86500005D01*
X96238094Y-86547624D01*
X96285713Y-86642862D01*
X96285713Y-86738100D01*
X96238094Y-86880957D01*
X95666665Y-87452385D01*
X96285713Y-87452385D01*
%TO.C,C3*%
X95383335Y-94807146D02*
X95335716Y-94854765D01*
X95192859Y-94902384D01*
X95097621Y-94902384D01*
X94954763Y-94854765D01*
X94859525Y-94759527D01*
X94811906Y-94664289D01*
X94764287Y-94473813D01*
X94764287Y-94330956D01*
X94811906Y-94140480D01*
X94859525Y-94045242D01*
X94954763Y-93950004D01*
X95097621Y-93902384D01*
X95192859Y-93902384D01*
X95335716Y-93950004D01*
X95383335Y-93997623D01*
X95716668Y-93902384D02*
X96335716Y-93902384D01*
X96002382Y-94283337D01*
X96145240Y-94283337D01*
X96240478Y-94330956D01*
X96288097Y-94378575D01*
X96335716Y-94473813D01*
X96335716Y-94711908D01*
X96288097Y-94807146D01*
X96240478Y-94854765D01*
X96145240Y-94902384D01*
X95859525Y-94902384D01*
X95764287Y-94854765D01*
X95716668Y-94807146D01*
%TO.C,D1*%
X103511904Y-87902380D02*
X103511904Y-86902380D01*
X103750000Y-86902380D01*
X103892857Y-86950000D01*
X103988095Y-87045238D01*
X104035714Y-87140476D01*
X104083333Y-87330952D01*
X104083333Y-87473809D01*
X104035714Y-87664285D01*
X103988095Y-87759523D01*
X103892857Y-87854761D01*
X103750000Y-87902380D01*
X103511904Y-87902380D01*
X105035714Y-87902380D02*
X104464285Y-87902380D01*
X104750000Y-87902380D02*
X104750000Y-86902380D01*
X104654761Y-87045238D01*
X104559523Y-87140476D01*
X104464285Y-87188095D01*
%TO.C,J1*%
X137916666Y-91252380D02*
X137916666Y-91966666D01*
X137869047Y-92109523D01*
X137773809Y-92204761D01*
X137630952Y-92252380D01*
X137535714Y-92252380D01*
X138916666Y-92252380D02*
X138345238Y-92252380D01*
X138630952Y-92252380D02*
X138630952Y-91252380D01*
X138535714Y-91395238D01*
X138440476Y-91490476D01*
X138345238Y-91538095D01*
%TO.C,C1*%
X153283333Y-89207142D02*
X153235714Y-89254761D01*
X153092857Y-89302380D01*
X152997619Y-89302380D01*
X152854761Y-89254761D01*
X152759523Y-89159523D01*
X152711904Y-89064285D01*
X152664285Y-88873809D01*
X152664285Y-88730952D01*
X152711904Y-88540476D01*
X152759523Y-88445238D01*
X152854761Y-88350000D01*
X152997619Y-88302380D01*
X153092857Y-88302380D01*
X153235714Y-88350000D01*
X153283333Y-88397619D01*
X154235714Y-89302380D02*
X153664285Y-89302380D01*
X153950000Y-89302380D02*
X153950000Y-88302380D01*
X153854761Y-88445238D01*
X153759523Y-88540476D01*
X153664285Y-88588095D01*
%TO.C,C2*%
X154733333Y-90457142D02*
X154685714Y-90504761D01*
X154542857Y-90552380D01*
X154447619Y-90552380D01*
X154304761Y-90504761D01*
X154209523Y-90409523D01*
X154161904Y-90314285D01*
X154114285Y-90123809D01*
X154114285Y-89980952D01*
X154161904Y-89790476D01*
X154209523Y-89695238D01*
X154304761Y-89600000D01*
X154447619Y-89552380D01*
X154542857Y-89552380D01*
X154685714Y-89600000D01*
X154733333Y-89647619D01*
X155114285Y-89647619D02*
X155161904Y-89600000D01*
X155257142Y-89552380D01*
X155495238Y-89552380D01*
X155590476Y-89600000D01*
X155638095Y-89647619D01*
X155685714Y-89742857D01*
X155685714Y-89838095D01*
X155638095Y-89980952D01*
X155066666Y-90552380D01*
X155685714Y-90552380D01*
%TO.C,C3*%
X154683333Y-83007142D02*
X154635714Y-83054761D01*
X154492857Y-83102380D01*
X154397619Y-83102380D01*
X154254761Y-83054761D01*
X154159523Y-82959523D01*
X154111904Y-82864285D01*
X154064285Y-82673809D01*
X154064285Y-82530952D01*
X154111904Y-82340476D01*
X154159523Y-82245238D01*
X154254761Y-82150000D01*
X154397619Y-82102380D01*
X154492857Y-82102380D01*
X154635714Y-82150000D01*
X154683333Y-82197619D01*
X155016666Y-82102380D02*
X155635714Y-82102380D01*
X155302380Y-82483333D01*
X155445238Y-82483333D01*
X155540476Y-82530952D01*
X155588095Y-82578571D01*
X155635714Y-82673809D01*
X155635714Y-82911904D01*
X155588095Y-83007142D01*
X155540476Y-83054761D01*
X155445238Y-83102380D01*
X155159523Y-83102380D01*
X155064285Y-83054761D01*
X155016666Y-83007142D01*
%TO.C,D1*%
X145411904Y-90102380D02*
X145411904Y-89102380D01*
X145650000Y-89102380D01*
X145792857Y-89150000D01*
X145888095Y-89245238D01*
X145935714Y-89340476D01*
X145983333Y-89530952D01*
X145983333Y-89673809D01*
X145935714Y-89864285D01*
X145888095Y-89959523D01*
X145792857Y-90054761D01*
X145650000Y-90102380D01*
X145411904Y-90102380D01*
X146935714Y-90102380D02*
X146364285Y-90102380D01*
X146650000Y-90102380D02*
X146650000Y-89102380D01*
X146554761Y-89245238D01*
X146459523Y-89340476D01*
X146364285Y-89388095D01*
%TO.C,D2*%
X145261904Y-87752380D02*
X145261904Y-86752380D01*
X145500000Y-86752380D01*
X145642857Y-86800000D01*
X145738095Y-86895238D01*
X145785714Y-86990476D01*
X145833333Y-87180952D01*
X145833333Y-87323809D01*
X145785714Y-87514285D01*
X145738095Y-87609523D01*
X145642857Y-87704761D01*
X145500000Y-87752380D01*
X145261904Y-87752380D01*
X146214285Y-86847619D02*
X146261904Y-86800000D01*
X146357142Y-86752380D01*
X146595238Y-86752380D01*
X146690476Y-86800000D01*
X146738095Y-86847619D01*
X146785714Y-86942857D01*
X146785714Y-87038095D01*
X146738095Y-87180952D01*
X146166666Y-87752380D01*
X146785714Y-87752380D01*
%TO.C,R1*%
X153983333Y-96402380D02*
X153650000Y-95926190D01*
X153411904Y-96402380D02*
X153411904Y-95402380D01*
X153792857Y-95402380D01*
X153888095Y-95450000D01*
X153935714Y-95497619D01*
X153983333Y-95592857D01*
X153983333Y-95735714D01*
X153935714Y-95830952D01*
X153888095Y-95878571D01*
X153792857Y-95926190D01*
X153411904Y-95926190D01*
X154935714Y-96402380D02*
X154364285Y-96402380D01*
X154650000Y-96402380D02*
X154650000Y-95402380D01*
X154554761Y-95545238D01*
X154459523Y-95640476D01*
X154364285Y-95688095D01*
%TO.C,R2*%
X145783333Y-96302380D02*
X145450000Y-95826190D01*
X145211904Y-96302380D02*
X145211904Y-95302380D01*
X145592857Y-95302380D01*
X145688095Y-95350000D01*
X145735714Y-95397619D01*
X145783333Y-95492857D01*
X145783333Y-95635714D01*
X145735714Y-95730952D01*
X145688095Y-95778571D01*
X145592857Y-95826190D01*
X145211904Y-95826190D01*
X146164285Y-95397619D02*
X146211904Y-95350000D01*
X146307142Y-95302380D01*
X146545238Y-95302380D01*
X146640476Y-95350000D01*
X146688095Y-95397619D01*
X146735714Y-95492857D01*
X146735714Y-95588095D01*
X146688095Y-95730952D01*
X146116666Y-96302380D01*
X146735714Y-96302380D01*
%TO.C,R3*%
X153483333Y-81702380D02*
X153150000Y-81226190D01*
X152911904Y-81702380D02*
X152911904Y-80702380D01*
X153292857Y-80702380D01*
X153388095Y-80750000D01*
X153435714Y-80797619D01*
X153483333Y-80892857D01*
X153483333Y-81035714D01*
X153435714Y-81130952D01*
X153388095Y-81178571D01*
X153292857Y-81226190D01*
X152911904Y-81226190D01*
X153816666Y-80702380D02*
X154435714Y-80702380D01*
X154102380Y-81083333D01*
X154245238Y-81083333D01*
X154340476Y-81130952D01*
X154388095Y-81178571D01*
X154435714Y-81273809D01*
X154435714Y-81511904D01*
X154388095Y-81607142D01*
X154340476Y-81654761D01*
X154245238Y-81702380D01*
X153959523Y-81702380D01*
X153864285Y-81654761D01*
X153816666Y-81607142D01*
%TO.C,R4*%
X145833333Y-84252380D02*
X145500000Y-83776190D01*
X145261904Y-84252380D02*
X145261904Y-83252380D01*
X145642857Y-83252380D01*
X145738095Y-83300000D01*
X145785714Y-83347619D01*
X145833333Y-83442857D01*
X145833333Y-83585714D01*
X145785714Y-83680952D01*
X145738095Y-83728571D01*
X145642857Y-83776190D01*
X145261904Y-83776190D01*
X146690476Y-83585714D02*
X146690476Y-84252380D01*
X146452380Y-83204761D02*
X146214285Y-83919047D01*
X146833333Y-83919047D01*
%TO.C,U1*%
X150288095Y-89452380D02*
X150288095Y-90261904D01*
X150335714Y-90357142D01*
X150383333Y-90404761D01*
X150478571Y-90452380D01*
X150669047Y-90452380D01*
X150764285Y-90404761D01*
X150811904Y-90357142D01*
X150859523Y-90261904D01*
X150859523Y-89452380D01*
X151859523Y-90452380D02*
X151288095Y-90452380D01*
X151573809Y-90452380D02*
X151573809Y-89452380D01*
X151478571Y-89595238D01*
X151383333Y-89690476D01*
X151288095Y-89738095D01*
%TO.C,U2*%
X152088095Y-82352380D02*
X152088095Y-83161904D01*
X152135714Y-83257142D01*
X152183333Y-83304761D01*
X152278571Y-83352380D01*
X152469047Y-83352380D01*
X152564285Y-83304761D01*
X152611904Y-83257142D01*
X152659523Y-83161904D01*
X152659523Y-82352380D01*
X153088095Y-82447619D02*
X153135714Y-82400000D01*
X153230952Y-82352380D01*
X153469047Y-82352380D01*
X153564285Y-82400000D01*
X153611904Y-82447619D01*
X153659523Y-82542857D01*
X153659523Y-82638095D01*
X153611904Y-82780952D01*
X153040476Y-83352380D01*
X153659523Y-83352380D01*
%TD*%
M02*
