%TF.GenerationSoftware,KiCad,Pcbnew,5.1.10*%
%TF.CreationDate,2021-10-31T19:01:46+09:00*%
%TF.ProjectId,usb_charger,7573625f-6368-4617-9267-65722e6b6963,rev?*%
%TF.SameCoordinates,Original*%
%TF.FileFunction,Copper,L2,Bot*%
%TF.FilePolarity,Positive*%
%FSLAX46Y46*%
G04 Gerber Fmt 4.6, Leading zero omitted, Abs format (unit mm)*
G04 Created by KiCad (PCBNEW 5.1.10) date 2021-10-31 19:01:46*
%MOMM*%
%LPD*%
G01*
G04 APERTURE LIST*
%TA.AperFunction,ComponentPad*%
%ADD10R,0.850000X0.850000*%
%TD*%
%TA.AperFunction,ComponentPad*%
%ADD11O,1.700000X0.850000*%
%TD*%
%TA.AperFunction,ComponentPad*%
%ADD12C,1.500000*%
%TD*%
%TA.AperFunction,ComponentPad*%
%ADD13C,3.000000*%
%TD*%
%TA.AperFunction,Conductor*%
%ADD14C,0.254000*%
%TD*%
%TA.AperFunction,Conductor*%
%ADD15C,0.100000*%
%TD*%
G04 APERTURE END LIST*
D10*
%TO.P,J3,1*%
%TO.N,Net-(C3-Pad1)*%
X91800002Y-92849997D03*
D11*
%TO.P,J3,2*%
%TO.N,GND*%
X91800002Y-91599997D03*
%TD*%
D10*
%TO.P,J2,1*%
%TO.N,Net-(C2-Pad1)*%
X91799999Y-85199997D03*
D11*
%TO.P,J2,2*%
%TO.N,GND*%
X91799999Y-83949997D03*
%TD*%
%TO.P,J3,2*%
%TO.N,GND*%
X158600000Y-85500000D03*
D10*
%TO.P,J3,1*%
%TO.N,Net-(C3-Pad1)*%
X158600000Y-84250000D03*
%TD*%
D11*
%TO.P,J2,2*%
%TO.N,GND*%
X158600000Y-93150000D03*
D10*
%TO.P,J2,1*%
%TO.N,Net-(C2-Pad1)*%
X158600000Y-91900000D03*
%TD*%
D12*
%TO.P,J1,4*%
%TO.N,GND*%
X109550002Y-92360005D03*
%TO.P,J1,3*%
%TO.N,N/C*%
X109550002Y-89820005D03*
%TO.P,J1,2*%
X109550002Y-87790005D03*
%TO.P,J1,1*%
%TO.N,Net-(C1-Pad1)*%
X109550002Y-85250005D03*
D13*
%TO.P,J1,5*%
%TO.N,GND*%
X112220002Y-95410005D03*
X112220002Y-81690005D03*
%TD*%
%TO.P,J1,5*%
%TO.N,GND*%
X138180000Y-95410000D03*
X138180000Y-81690000D03*
D12*
%TO.P,J1,1*%
%TO.N,Net-(C1-Pad1)*%
X140850000Y-91850000D03*
%TO.P,J1,2*%
%TO.N,N/C*%
X140850000Y-89310000D03*
%TO.P,J1,3*%
X140850000Y-87280000D03*
%TO.P,J1,4*%
%TO.N,GND*%
X140850000Y-84740000D03*
%TD*%
D14*
%TO.N,GND*%
X110412788Y-80533967D02*
X110221982Y-80908750D01*
X110107958Y-81313556D01*
X110075100Y-81732829D01*
X110124668Y-82150456D01*
X110254759Y-82550388D01*
X110412788Y-82846043D01*
X110728349Y-83002053D01*
X112040397Y-81690005D01*
X112026255Y-81675863D01*
X112205860Y-81496258D01*
X112220002Y-81510400D01*
X112234145Y-81496258D01*
X112413750Y-81675863D01*
X112399607Y-81690005D01*
X112413750Y-81704148D01*
X112234145Y-81883753D01*
X112220002Y-81869610D01*
X110907954Y-83181658D01*
X111063964Y-83497219D01*
X111438747Y-83688025D01*
X111843553Y-83802049D01*
X112262826Y-83834907D01*
X112680453Y-83785339D01*
X113080385Y-83655248D01*
X113376040Y-83497219D01*
X113490003Y-83266707D01*
X113490001Y-87867570D01*
X113486807Y-87900000D01*
X113499550Y-88029383D01*
X113537290Y-88153793D01*
X113598575Y-88268450D01*
X113681052Y-88368948D01*
X113779814Y-88450000D01*
X113681052Y-88531052D01*
X113598575Y-88631550D01*
X113537290Y-88746207D01*
X113499550Y-88870617D01*
X113486807Y-89000000D01*
X113490002Y-89032440D01*
X113490001Y-93833299D01*
X113376040Y-93602791D01*
X113001257Y-93411985D01*
X112596451Y-93297961D01*
X112177178Y-93265103D01*
X111759551Y-93314671D01*
X111359619Y-93444762D01*
X111063964Y-93602791D01*
X110907954Y-93918352D01*
X112220002Y-95230400D01*
X112234145Y-95216258D01*
X112413750Y-95395863D01*
X112399607Y-95410005D01*
X112413750Y-95424148D01*
X112234145Y-95603753D01*
X112220002Y-95589610D01*
X112205860Y-95603753D01*
X112026255Y-95424148D01*
X112040397Y-95410005D01*
X110728349Y-94097957D01*
X110412788Y-94253967D01*
X110221982Y-94628750D01*
X110107958Y-95033556D01*
X110075100Y-95452829D01*
X110124668Y-95870456D01*
X110254759Y-96270388D01*
X110412788Y-96566043D01*
X110728347Y-96722052D01*
X110613655Y-96836744D01*
X110616910Y-96839999D01*
X89060000Y-96840003D01*
X89060000Y-91890059D01*
X90355462Y-91890059D01*
X90423086Y-92083305D01*
X90535666Y-92259728D01*
X90680501Y-92410798D01*
X90736930Y-92450247D01*
X90736930Y-93274997D01*
X90749190Y-93399479D01*
X90785500Y-93519177D01*
X90844465Y-93629491D01*
X90923817Y-93726182D01*
X91020508Y-93805534D01*
X91130822Y-93864499D01*
X91250520Y-93900809D01*
X91375002Y-93913069D01*
X92225002Y-93913069D01*
X92349484Y-93900809D01*
X92469182Y-93864499D01*
X92579496Y-93805534D01*
X92676187Y-93726182D01*
X92755539Y-93629491D01*
X92814504Y-93519177D01*
X92850814Y-93399479D01*
X92858937Y-93316998D01*
X108772614Y-93316998D01*
X108838139Y-93555865D01*
X109085118Y-93671765D01*
X109349962Y-93737255D01*
X109622494Y-93749817D01*
X109892240Y-93708970D01*
X110148834Y-93616282D01*
X110261865Y-93555865D01*
X110327390Y-93316998D01*
X109550002Y-92539610D01*
X108772614Y-93316998D01*
X92858937Y-93316998D01*
X92863074Y-93274997D01*
X92863074Y-92450247D01*
X92888464Y-92432497D01*
X108160190Y-92432497D01*
X108201037Y-92702243D01*
X108293725Y-92958837D01*
X108354142Y-93071868D01*
X108593009Y-93137393D01*
X109370397Y-92360005D01*
X109729607Y-92360005D01*
X110506995Y-93137393D01*
X110745862Y-93071868D01*
X110861762Y-92824889D01*
X110927252Y-92560045D01*
X110939814Y-92287513D01*
X110898967Y-92017767D01*
X110806279Y-91761173D01*
X110745862Y-91648142D01*
X110506995Y-91582617D01*
X109729607Y-92360005D01*
X109370397Y-92360005D01*
X108593009Y-91582617D01*
X108354142Y-91648142D01*
X108238242Y-91895121D01*
X108172752Y-92159965D01*
X108160190Y-92432497D01*
X92888464Y-92432497D01*
X92919503Y-92410798D01*
X93064338Y-92259728D01*
X93176918Y-92083305D01*
X93244542Y-91890059D01*
X93117259Y-91726997D01*
X91927002Y-91726997D01*
X91927002Y-91746997D01*
X91673002Y-91746997D01*
X91673002Y-91726997D01*
X90482745Y-91726997D01*
X90355462Y-91890059D01*
X89060000Y-91890059D01*
X89060000Y-91309935D01*
X90355462Y-91309935D01*
X90482745Y-91472997D01*
X91673002Y-91472997D01*
X91673002Y-90539997D01*
X91927002Y-90539997D01*
X91927002Y-91472997D01*
X93117259Y-91472997D01*
X93244542Y-91309935D01*
X93176918Y-91116689D01*
X93064338Y-90940266D01*
X92919503Y-90789196D01*
X92747979Y-90669285D01*
X92556357Y-90585141D01*
X92352002Y-90539997D01*
X91927002Y-90539997D01*
X91673002Y-90539997D01*
X91248002Y-90539997D01*
X91043647Y-90585141D01*
X90852025Y-90669285D01*
X90680501Y-90789196D01*
X90535666Y-90940266D01*
X90423086Y-91116689D01*
X90355462Y-91309935D01*
X89060000Y-91309935D01*
X89059999Y-84240059D01*
X90355459Y-84240059D01*
X90423083Y-84433305D01*
X90535663Y-84609728D01*
X90680498Y-84760798D01*
X90736927Y-84800247D01*
X90736927Y-85624997D01*
X90749187Y-85749479D01*
X90785497Y-85869177D01*
X90844462Y-85979491D01*
X90923814Y-86076182D01*
X91020505Y-86155534D01*
X91130819Y-86214499D01*
X91250517Y-86250809D01*
X91374999Y-86263069D01*
X92224999Y-86263069D01*
X92349481Y-86250809D01*
X92469179Y-86214499D01*
X92579493Y-86155534D01*
X92676184Y-86076182D01*
X92755536Y-85979491D01*
X92814501Y-85869177D01*
X92850811Y-85749479D01*
X92863071Y-85624997D01*
X92863071Y-85113594D01*
X108165002Y-85113594D01*
X108165002Y-85386416D01*
X108218227Y-85653994D01*
X108322631Y-85906048D01*
X108474203Y-86132891D01*
X108667116Y-86325804D01*
X108893959Y-86477376D01*
X108996875Y-86520005D01*
X108893959Y-86562634D01*
X108667116Y-86714206D01*
X108474203Y-86907119D01*
X108322631Y-87133962D01*
X108218227Y-87386016D01*
X108165002Y-87653594D01*
X108165002Y-87926416D01*
X108218227Y-88193994D01*
X108322631Y-88446048D01*
X108474203Y-88672891D01*
X108606317Y-88805005D01*
X108474203Y-88937119D01*
X108322631Y-89163962D01*
X108218227Y-89416016D01*
X108165002Y-89683594D01*
X108165002Y-89956416D01*
X108218227Y-90223994D01*
X108322631Y-90476048D01*
X108474203Y-90702891D01*
X108667116Y-90895804D01*
X108893959Y-91047376D01*
X108993281Y-91088516D01*
X108951170Y-91103728D01*
X108838139Y-91164145D01*
X108772614Y-91403012D01*
X109550002Y-92180400D01*
X110327390Y-91403012D01*
X110261865Y-91164145D01*
X110103525Y-91089841D01*
X110206045Y-91047376D01*
X110432888Y-90895804D01*
X110625801Y-90702891D01*
X110777373Y-90476048D01*
X110881777Y-90223994D01*
X110935002Y-89956416D01*
X110935002Y-89683594D01*
X110881777Y-89416016D01*
X110777373Y-89163962D01*
X110625801Y-88937119D01*
X110493687Y-88805005D01*
X110625801Y-88672891D01*
X110777373Y-88446048D01*
X110881777Y-88193994D01*
X110935002Y-87926416D01*
X110935002Y-87653594D01*
X110881777Y-87386016D01*
X110777373Y-87133962D01*
X110625801Y-86907119D01*
X110432888Y-86714206D01*
X110206045Y-86562634D01*
X110103129Y-86520005D01*
X110206045Y-86477376D01*
X110432888Y-86325804D01*
X110625801Y-86132891D01*
X110777373Y-85906048D01*
X110881777Y-85653994D01*
X110935002Y-85386416D01*
X110935002Y-85113594D01*
X110881777Y-84846016D01*
X110777373Y-84593962D01*
X110625801Y-84367119D01*
X110432888Y-84174206D01*
X110206045Y-84022634D01*
X109953991Y-83918230D01*
X109686413Y-83865005D01*
X109413591Y-83865005D01*
X109146013Y-83918230D01*
X108893959Y-84022634D01*
X108667116Y-84174206D01*
X108474203Y-84367119D01*
X108322631Y-84593962D01*
X108218227Y-84846016D01*
X108165002Y-85113594D01*
X92863071Y-85113594D01*
X92863071Y-84800247D01*
X92919500Y-84760798D01*
X93064335Y-84609728D01*
X93176915Y-84433305D01*
X93244539Y-84240059D01*
X93117256Y-84076997D01*
X91926999Y-84076997D01*
X91926999Y-84096997D01*
X91672999Y-84096997D01*
X91672999Y-84076997D01*
X90482742Y-84076997D01*
X90355459Y-84240059D01*
X89059999Y-84240059D01*
X89059999Y-83659935D01*
X90355459Y-83659935D01*
X90482742Y-83822997D01*
X91672999Y-83822997D01*
X91672999Y-82889997D01*
X91926999Y-82889997D01*
X91926999Y-83822997D01*
X93117256Y-83822997D01*
X93244539Y-83659935D01*
X93176915Y-83466689D01*
X93064335Y-83290266D01*
X92919500Y-83139196D01*
X92747976Y-83019285D01*
X92556354Y-82935141D01*
X92351999Y-82889997D01*
X91926999Y-82889997D01*
X91672999Y-82889997D01*
X91247999Y-82889997D01*
X91043644Y-82935141D01*
X90852022Y-83019285D01*
X90680498Y-83139196D01*
X90535663Y-83290266D01*
X90423083Y-83466689D01*
X90355459Y-83659935D01*
X89059999Y-83659935D01*
X89059998Y-80410002D01*
X110663537Y-80409999D01*
X110412788Y-80533967D01*
%TA.AperFunction,Conductor*%
D15*
G36*
X110412788Y-80533967D02*
G01*
X110221982Y-80908750D01*
X110107958Y-81313556D01*
X110075100Y-81732829D01*
X110124668Y-82150456D01*
X110254759Y-82550388D01*
X110412788Y-82846043D01*
X110728349Y-83002053D01*
X112040397Y-81690005D01*
X112026255Y-81675863D01*
X112205860Y-81496258D01*
X112220002Y-81510400D01*
X112234145Y-81496258D01*
X112413750Y-81675863D01*
X112399607Y-81690005D01*
X112413750Y-81704148D01*
X112234145Y-81883753D01*
X112220002Y-81869610D01*
X110907954Y-83181658D01*
X111063964Y-83497219D01*
X111438747Y-83688025D01*
X111843553Y-83802049D01*
X112262826Y-83834907D01*
X112680453Y-83785339D01*
X113080385Y-83655248D01*
X113376040Y-83497219D01*
X113490003Y-83266707D01*
X113490001Y-87867570D01*
X113486807Y-87900000D01*
X113499550Y-88029383D01*
X113537290Y-88153793D01*
X113598575Y-88268450D01*
X113681052Y-88368948D01*
X113779814Y-88450000D01*
X113681052Y-88531052D01*
X113598575Y-88631550D01*
X113537290Y-88746207D01*
X113499550Y-88870617D01*
X113486807Y-89000000D01*
X113490002Y-89032440D01*
X113490001Y-93833299D01*
X113376040Y-93602791D01*
X113001257Y-93411985D01*
X112596451Y-93297961D01*
X112177178Y-93265103D01*
X111759551Y-93314671D01*
X111359619Y-93444762D01*
X111063964Y-93602791D01*
X110907954Y-93918352D01*
X112220002Y-95230400D01*
X112234145Y-95216258D01*
X112413750Y-95395863D01*
X112399607Y-95410005D01*
X112413750Y-95424148D01*
X112234145Y-95603753D01*
X112220002Y-95589610D01*
X112205860Y-95603753D01*
X112026255Y-95424148D01*
X112040397Y-95410005D01*
X110728349Y-94097957D01*
X110412788Y-94253967D01*
X110221982Y-94628750D01*
X110107958Y-95033556D01*
X110075100Y-95452829D01*
X110124668Y-95870456D01*
X110254759Y-96270388D01*
X110412788Y-96566043D01*
X110728347Y-96722052D01*
X110613655Y-96836744D01*
X110616910Y-96839999D01*
X89060000Y-96840003D01*
X89060000Y-91890059D01*
X90355462Y-91890059D01*
X90423086Y-92083305D01*
X90535666Y-92259728D01*
X90680501Y-92410798D01*
X90736930Y-92450247D01*
X90736930Y-93274997D01*
X90749190Y-93399479D01*
X90785500Y-93519177D01*
X90844465Y-93629491D01*
X90923817Y-93726182D01*
X91020508Y-93805534D01*
X91130822Y-93864499D01*
X91250520Y-93900809D01*
X91375002Y-93913069D01*
X92225002Y-93913069D01*
X92349484Y-93900809D01*
X92469182Y-93864499D01*
X92579496Y-93805534D01*
X92676187Y-93726182D01*
X92755539Y-93629491D01*
X92814504Y-93519177D01*
X92850814Y-93399479D01*
X92858937Y-93316998D01*
X108772614Y-93316998D01*
X108838139Y-93555865D01*
X109085118Y-93671765D01*
X109349962Y-93737255D01*
X109622494Y-93749817D01*
X109892240Y-93708970D01*
X110148834Y-93616282D01*
X110261865Y-93555865D01*
X110327390Y-93316998D01*
X109550002Y-92539610D01*
X108772614Y-93316998D01*
X92858937Y-93316998D01*
X92863074Y-93274997D01*
X92863074Y-92450247D01*
X92888464Y-92432497D01*
X108160190Y-92432497D01*
X108201037Y-92702243D01*
X108293725Y-92958837D01*
X108354142Y-93071868D01*
X108593009Y-93137393D01*
X109370397Y-92360005D01*
X109729607Y-92360005D01*
X110506995Y-93137393D01*
X110745862Y-93071868D01*
X110861762Y-92824889D01*
X110927252Y-92560045D01*
X110939814Y-92287513D01*
X110898967Y-92017767D01*
X110806279Y-91761173D01*
X110745862Y-91648142D01*
X110506995Y-91582617D01*
X109729607Y-92360005D01*
X109370397Y-92360005D01*
X108593009Y-91582617D01*
X108354142Y-91648142D01*
X108238242Y-91895121D01*
X108172752Y-92159965D01*
X108160190Y-92432497D01*
X92888464Y-92432497D01*
X92919503Y-92410798D01*
X93064338Y-92259728D01*
X93176918Y-92083305D01*
X93244542Y-91890059D01*
X93117259Y-91726997D01*
X91927002Y-91726997D01*
X91927002Y-91746997D01*
X91673002Y-91746997D01*
X91673002Y-91726997D01*
X90482745Y-91726997D01*
X90355462Y-91890059D01*
X89060000Y-91890059D01*
X89060000Y-91309935D01*
X90355462Y-91309935D01*
X90482745Y-91472997D01*
X91673002Y-91472997D01*
X91673002Y-90539997D01*
X91927002Y-90539997D01*
X91927002Y-91472997D01*
X93117259Y-91472997D01*
X93244542Y-91309935D01*
X93176918Y-91116689D01*
X93064338Y-90940266D01*
X92919503Y-90789196D01*
X92747979Y-90669285D01*
X92556357Y-90585141D01*
X92352002Y-90539997D01*
X91927002Y-90539997D01*
X91673002Y-90539997D01*
X91248002Y-90539997D01*
X91043647Y-90585141D01*
X90852025Y-90669285D01*
X90680501Y-90789196D01*
X90535666Y-90940266D01*
X90423086Y-91116689D01*
X90355462Y-91309935D01*
X89060000Y-91309935D01*
X89059999Y-84240059D01*
X90355459Y-84240059D01*
X90423083Y-84433305D01*
X90535663Y-84609728D01*
X90680498Y-84760798D01*
X90736927Y-84800247D01*
X90736927Y-85624997D01*
X90749187Y-85749479D01*
X90785497Y-85869177D01*
X90844462Y-85979491D01*
X90923814Y-86076182D01*
X91020505Y-86155534D01*
X91130819Y-86214499D01*
X91250517Y-86250809D01*
X91374999Y-86263069D01*
X92224999Y-86263069D01*
X92349481Y-86250809D01*
X92469179Y-86214499D01*
X92579493Y-86155534D01*
X92676184Y-86076182D01*
X92755536Y-85979491D01*
X92814501Y-85869177D01*
X92850811Y-85749479D01*
X92863071Y-85624997D01*
X92863071Y-85113594D01*
X108165002Y-85113594D01*
X108165002Y-85386416D01*
X108218227Y-85653994D01*
X108322631Y-85906048D01*
X108474203Y-86132891D01*
X108667116Y-86325804D01*
X108893959Y-86477376D01*
X108996875Y-86520005D01*
X108893959Y-86562634D01*
X108667116Y-86714206D01*
X108474203Y-86907119D01*
X108322631Y-87133962D01*
X108218227Y-87386016D01*
X108165002Y-87653594D01*
X108165002Y-87926416D01*
X108218227Y-88193994D01*
X108322631Y-88446048D01*
X108474203Y-88672891D01*
X108606317Y-88805005D01*
X108474203Y-88937119D01*
X108322631Y-89163962D01*
X108218227Y-89416016D01*
X108165002Y-89683594D01*
X108165002Y-89956416D01*
X108218227Y-90223994D01*
X108322631Y-90476048D01*
X108474203Y-90702891D01*
X108667116Y-90895804D01*
X108893959Y-91047376D01*
X108993281Y-91088516D01*
X108951170Y-91103728D01*
X108838139Y-91164145D01*
X108772614Y-91403012D01*
X109550002Y-92180400D01*
X110327390Y-91403012D01*
X110261865Y-91164145D01*
X110103525Y-91089841D01*
X110206045Y-91047376D01*
X110432888Y-90895804D01*
X110625801Y-90702891D01*
X110777373Y-90476048D01*
X110881777Y-90223994D01*
X110935002Y-89956416D01*
X110935002Y-89683594D01*
X110881777Y-89416016D01*
X110777373Y-89163962D01*
X110625801Y-88937119D01*
X110493687Y-88805005D01*
X110625801Y-88672891D01*
X110777373Y-88446048D01*
X110881777Y-88193994D01*
X110935002Y-87926416D01*
X110935002Y-87653594D01*
X110881777Y-87386016D01*
X110777373Y-87133962D01*
X110625801Y-86907119D01*
X110432888Y-86714206D01*
X110206045Y-86562634D01*
X110103129Y-86520005D01*
X110206045Y-86477376D01*
X110432888Y-86325804D01*
X110625801Y-86132891D01*
X110777373Y-85906048D01*
X110881777Y-85653994D01*
X110935002Y-85386416D01*
X110935002Y-85113594D01*
X110881777Y-84846016D01*
X110777373Y-84593962D01*
X110625801Y-84367119D01*
X110432888Y-84174206D01*
X110206045Y-84022634D01*
X109953991Y-83918230D01*
X109686413Y-83865005D01*
X109413591Y-83865005D01*
X109146013Y-83918230D01*
X108893959Y-84022634D01*
X108667116Y-84174206D01*
X108474203Y-84367119D01*
X108322631Y-84593962D01*
X108218227Y-84846016D01*
X108165002Y-85113594D01*
X92863071Y-85113594D01*
X92863071Y-84800247D01*
X92919500Y-84760798D01*
X93064335Y-84609728D01*
X93176915Y-84433305D01*
X93244539Y-84240059D01*
X93117256Y-84076997D01*
X91926999Y-84076997D01*
X91926999Y-84096997D01*
X91672999Y-84096997D01*
X91672999Y-84076997D01*
X90482742Y-84076997D01*
X90355459Y-84240059D01*
X89059999Y-84240059D01*
X89059999Y-83659935D01*
X90355459Y-83659935D01*
X90482742Y-83822997D01*
X91672999Y-83822997D01*
X91672999Y-82889997D01*
X91926999Y-82889997D01*
X91926999Y-83822997D01*
X93117256Y-83822997D01*
X93244539Y-83659935D01*
X93176915Y-83466689D01*
X93064335Y-83290266D01*
X92919500Y-83139196D01*
X92747976Y-83019285D01*
X92556354Y-82935141D01*
X92351999Y-82889997D01*
X91926999Y-82889997D01*
X91672999Y-82889997D01*
X91247999Y-82889997D01*
X91043644Y-82935141D01*
X90852022Y-83019285D01*
X90680498Y-83139196D01*
X90535663Y-83290266D01*
X90423083Y-83466689D01*
X90355459Y-83659935D01*
X89059999Y-83659935D01*
X89059998Y-80410002D01*
X110663537Y-80409999D01*
X110412788Y-80533967D01*
G37*
%TD.AperFunction*%
D14*
X161340001Y-96690000D02*
X139736476Y-96690000D01*
X139987214Y-96566038D01*
X140178020Y-96191255D01*
X140292044Y-95786449D01*
X140324902Y-95367176D01*
X140275334Y-94949549D01*
X140145243Y-94549617D01*
X139987214Y-94253962D01*
X139671653Y-94097952D01*
X138359605Y-95410000D01*
X138373748Y-95424143D01*
X138194143Y-95603748D01*
X138180000Y-95589605D01*
X138165858Y-95603748D01*
X137986253Y-95424143D01*
X138000395Y-95410000D01*
X137986253Y-95395858D01*
X138165858Y-95216253D01*
X138180000Y-95230395D01*
X139492048Y-93918347D01*
X139336038Y-93602786D01*
X139016414Y-93440062D01*
X157155460Y-93440062D01*
X157223084Y-93633308D01*
X157335664Y-93809731D01*
X157480499Y-93960801D01*
X157652023Y-94080712D01*
X157843645Y-94164856D01*
X158048000Y-94210000D01*
X158473000Y-94210000D01*
X158473000Y-93277000D01*
X158727000Y-93277000D01*
X158727000Y-94210000D01*
X159152000Y-94210000D01*
X159356355Y-94164856D01*
X159547977Y-94080712D01*
X159719501Y-93960801D01*
X159864336Y-93809731D01*
X159976916Y-93633308D01*
X160044540Y-93440062D01*
X159917257Y-93277000D01*
X158727000Y-93277000D01*
X158473000Y-93277000D01*
X157282743Y-93277000D01*
X157155460Y-93440062D01*
X139016414Y-93440062D01*
X138961255Y-93411980D01*
X138556449Y-93297956D01*
X138137176Y-93265098D01*
X137719549Y-93314666D01*
X137319617Y-93444757D01*
X137023962Y-93602786D01*
X136910000Y-93833297D01*
X136910000Y-89032419D01*
X136913193Y-89000000D01*
X136900450Y-88870617D01*
X136862710Y-88746207D01*
X136801425Y-88631550D01*
X136718948Y-88531052D01*
X136620186Y-88450000D01*
X136718948Y-88368948D01*
X136801425Y-88268450D01*
X136862710Y-88153793D01*
X136900450Y-88029383D01*
X136913193Y-87900000D01*
X136910000Y-87867581D01*
X136910000Y-87143589D01*
X139465000Y-87143589D01*
X139465000Y-87416411D01*
X139518225Y-87683989D01*
X139622629Y-87936043D01*
X139774201Y-88162886D01*
X139906315Y-88295000D01*
X139774201Y-88427114D01*
X139622629Y-88653957D01*
X139518225Y-88906011D01*
X139465000Y-89173589D01*
X139465000Y-89446411D01*
X139518225Y-89713989D01*
X139622629Y-89966043D01*
X139774201Y-90192886D01*
X139967114Y-90385799D01*
X140193957Y-90537371D01*
X140296873Y-90580000D01*
X140193957Y-90622629D01*
X139967114Y-90774201D01*
X139774201Y-90967114D01*
X139622629Y-91193957D01*
X139518225Y-91446011D01*
X139465000Y-91713589D01*
X139465000Y-91986411D01*
X139518225Y-92253989D01*
X139622629Y-92506043D01*
X139774201Y-92732886D01*
X139967114Y-92925799D01*
X140193957Y-93077371D01*
X140446011Y-93181775D01*
X140713589Y-93235000D01*
X140986411Y-93235000D01*
X141253989Y-93181775D01*
X141506043Y-93077371D01*
X141732886Y-92925799D01*
X141798747Y-92859938D01*
X157155460Y-92859938D01*
X157282743Y-93023000D01*
X158473000Y-93023000D01*
X158473000Y-93003000D01*
X158727000Y-93003000D01*
X158727000Y-93023000D01*
X159917257Y-93023000D01*
X160044540Y-92859938D01*
X159976916Y-92666692D01*
X159864336Y-92490269D01*
X159719501Y-92339199D01*
X159663072Y-92299750D01*
X159663072Y-91475000D01*
X159650812Y-91350518D01*
X159614502Y-91230820D01*
X159555537Y-91120506D01*
X159476185Y-91023815D01*
X159379494Y-90944463D01*
X159269180Y-90885498D01*
X159149482Y-90849188D01*
X159025000Y-90836928D01*
X158175000Y-90836928D01*
X158050518Y-90849188D01*
X157930820Y-90885498D01*
X157820506Y-90944463D01*
X157723815Y-91023815D01*
X157644463Y-91120506D01*
X157585498Y-91230820D01*
X157549188Y-91350518D01*
X157536928Y-91475000D01*
X157536928Y-92299750D01*
X157480499Y-92339199D01*
X157335664Y-92490269D01*
X157223084Y-92666692D01*
X157155460Y-92859938D01*
X141798747Y-92859938D01*
X141925799Y-92732886D01*
X142077371Y-92506043D01*
X142181775Y-92253989D01*
X142235000Y-91986411D01*
X142235000Y-91713589D01*
X142181775Y-91446011D01*
X142077371Y-91193957D01*
X141925799Y-90967114D01*
X141732886Y-90774201D01*
X141506043Y-90622629D01*
X141403127Y-90580000D01*
X141506043Y-90537371D01*
X141732886Y-90385799D01*
X141925799Y-90192886D01*
X142077371Y-89966043D01*
X142181775Y-89713989D01*
X142235000Y-89446411D01*
X142235000Y-89173589D01*
X142181775Y-88906011D01*
X142077371Y-88653957D01*
X141925799Y-88427114D01*
X141793685Y-88295000D01*
X141925799Y-88162886D01*
X142077371Y-87936043D01*
X142181775Y-87683989D01*
X142235000Y-87416411D01*
X142235000Y-87143589D01*
X142181775Y-86876011D01*
X142077371Y-86623957D01*
X141925799Y-86397114D01*
X141732886Y-86204201D01*
X141506043Y-86052629D01*
X141406721Y-86011489D01*
X141448832Y-85996277D01*
X141561863Y-85935860D01*
X141601857Y-85790062D01*
X157155460Y-85790062D01*
X157223084Y-85983308D01*
X157335664Y-86159731D01*
X157480499Y-86310801D01*
X157652023Y-86430712D01*
X157843645Y-86514856D01*
X158048000Y-86560000D01*
X158473000Y-86560000D01*
X158473000Y-85627000D01*
X158727000Y-85627000D01*
X158727000Y-86560000D01*
X159152000Y-86560000D01*
X159356355Y-86514856D01*
X159547977Y-86430712D01*
X159719501Y-86310801D01*
X159864336Y-86159731D01*
X159976916Y-85983308D01*
X160044540Y-85790062D01*
X159917257Y-85627000D01*
X158727000Y-85627000D01*
X158473000Y-85627000D01*
X157282743Y-85627000D01*
X157155460Y-85790062D01*
X141601857Y-85790062D01*
X141627388Y-85696993D01*
X140850000Y-84919605D01*
X140072612Y-85696993D01*
X140138137Y-85935860D01*
X140296477Y-86010164D01*
X140193957Y-86052629D01*
X139967114Y-86204201D01*
X139774201Y-86397114D01*
X139622629Y-86623957D01*
X139518225Y-86876011D01*
X139465000Y-87143589D01*
X136910000Y-87143589D01*
X136910000Y-84812492D01*
X139460188Y-84812492D01*
X139501035Y-85082238D01*
X139593723Y-85338832D01*
X139654140Y-85451863D01*
X139893007Y-85517388D01*
X140670395Y-84740000D01*
X141029605Y-84740000D01*
X141806993Y-85517388D01*
X142045860Y-85451863D01*
X142159388Y-85209938D01*
X157155460Y-85209938D01*
X157282743Y-85373000D01*
X158473000Y-85373000D01*
X158473000Y-85353000D01*
X158727000Y-85353000D01*
X158727000Y-85373000D01*
X159917257Y-85373000D01*
X160044540Y-85209938D01*
X159976916Y-85016692D01*
X159864336Y-84840269D01*
X159719501Y-84689199D01*
X159663072Y-84649750D01*
X159663072Y-83825000D01*
X159650812Y-83700518D01*
X159614502Y-83580820D01*
X159555537Y-83470506D01*
X159476185Y-83373815D01*
X159379494Y-83294463D01*
X159269180Y-83235498D01*
X159149482Y-83199188D01*
X159025000Y-83186928D01*
X158175000Y-83186928D01*
X158050518Y-83199188D01*
X157930820Y-83235498D01*
X157820506Y-83294463D01*
X157723815Y-83373815D01*
X157644463Y-83470506D01*
X157585498Y-83580820D01*
X157549188Y-83700518D01*
X157536928Y-83825000D01*
X157536928Y-84649750D01*
X157480499Y-84689199D01*
X157335664Y-84840269D01*
X157223084Y-85016692D01*
X157155460Y-85209938D01*
X142159388Y-85209938D01*
X142161760Y-85204884D01*
X142227250Y-84940040D01*
X142239812Y-84667508D01*
X142198965Y-84397762D01*
X142106277Y-84141168D01*
X142045860Y-84028137D01*
X141806993Y-83962612D01*
X141029605Y-84740000D01*
X140670395Y-84740000D01*
X139893007Y-83962612D01*
X139654140Y-84028137D01*
X139538240Y-84275116D01*
X139472750Y-84539960D01*
X139460188Y-84812492D01*
X136910000Y-84812492D01*
X136910000Y-83266703D01*
X137023962Y-83497214D01*
X137398745Y-83688020D01*
X137803551Y-83802044D01*
X138222824Y-83834902D01*
X138640451Y-83785334D01*
X138647604Y-83783007D01*
X140072612Y-83783007D01*
X140850000Y-84560395D01*
X141627388Y-83783007D01*
X141561863Y-83544140D01*
X141314884Y-83428240D01*
X141050040Y-83362750D01*
X140777508Y-83350188D01*
X140507762Y-83391035D01*
X140251168Y-83483723D01*
X140138137Y-83544140D01*
X140072612Y-83783007D01*
X138647604Y-83783007D01*
X139040383Y-83655243D01*
X139336038Y-83497214D01*
X139492048Y-83181653D01*
X138180000Y-81869605D01*
X138165858Y-81883748D01*
X137986253Y-81704143D01*
X138000395Y-81690000D01*
X137986253Y-81675858D01*
X138165858Y-81496253D01*
X138180000Y-81510395D01*
X138194143Y-81496253D01*
X138373748Y-81675858D01*
X138359605Y-81690000D01*
X139671653Y-83002048D01*
X139987214Y-82846038D01*
X140178020Y-82471255D01*
X140292044Y-82066449D01*
X140324902Y-81647176D01*
X140275334Y-81229549D01*
X140145243Y-80829617D01*
X139987214Y-80533962D01*
X139671655Y-80377953D01*
X139786347Y-80263261D01*
X139783086Y-80260000D01*
X161340000Y-80260000D01*
X161340001Y-96690000D01*
%TA.AperFunction,Conductor*%
D15*
G36*
X161340001Y-96690000D02*
G01*
X139736476Y-96690000D01*
X139987214Y-96566038D01*
X140178020Y-96191255D01*
X140292044Y-95786449D01*
X140324902Y-95367176D01*
X140275334Y-94949549D01*
X140145243Y-94549617D01*
X139987214Y-94253962D01*
X139671653Y-94097952D01*
X138359605Y-95410000D01*
X138373748Y-95424143D01*
X138194143Y-95603748D01*
X138180000Y-95589605D01*
X138165858Y-95603748D01*
X137986253Y-95424143D01*
X138000395Y-95410000D01*
X137986253Y-95395858D01*
X138165858Y-95216253D01*
X138180000Y-95230395D01*
X139492048Y-93918347D01*
X139336038Y-93602786D01*
X139016414Y-93440062D01*
X157155460Y-93440062D01*
X157223084Y-93633308D01*
X157335664Y-93809731D01*
X157480499Y-93960801D01*
X157652023Y-94080712D01*
X157843645Y-94164856D01*
X158048000Y-94210000D01*
X158473000Y-94210000D01*
X158473000Y-93277000D01*
X158727000Y-93277000D01*
X158727000Y-94210000D01*
X159152000Y-94210000D01*
X159356355Y-94164856D01*
X159547977Y-94080712D01*
X159719501Y-93960801D01*
X159864336Y-93809731D01*
X159976916Y-93633308D01*
X160044540Y-93440062D01*
X159917257Y-93277000D01*
X158727000Y-93277000D01*
X158473000Y-93277000D01*
X157282743Y-93277000D01*
X157155460Y-93440062D01*
X139016414Y-93440062D01*
X138961255Y-93411980D01*
X138556449Y-93297956D01*
X138137176Y-93265098D01*
X137719549Y-93314666D01*
X137319617Y-93444757D01*
X137023962Y-93602786D01*
X136910000Y-93833297D01*
X136910000Y-89032419D01*
X136913193Y-89000000D01*
X136900450Y-88870617D01*
X136862710Y-88746207D01*
X136801425Y-88631550D01*
X136718948Y-88531052D01*
X136620186Y-88450000D01*
X136718948Y-88368948D01*
X136801425Y-88268450D01*
X136862710Y-88153793D01*
X136900450Y-88029383D01*
X136913193Y-87900000D01*
X136910000Y-87867581D01*
X136910000Y-87143589D01*
X139465000Y-87143589D01*
X139465000Y-87416411D01*
X139518225Y-87683989D01*
X139622629Y-87936043D01*
X139774201Y-88162886D01*
X139906315Y-88295000D01*
X139774201Y-88427114D01*
X139622629Y-88653957D01*
X139518225Y-88906011D01*
X139465000Y-89173589D01*
X139465000Y-89446411D01*
X139518225Y-89713989D01*
X139622629Y-89966043D01*
X139774201Y-90192886D01*
X139967114Y-90385799D01*
X140193957Y-90537371D01*
X140296873Y-90580000D01*
X140193957Y-90622629D01*
X139967114Y-90774201D01*
X139774201Y-90967114D01*
X139622629Y-91193957D01*
X139518225Y-91446011D01*
X139465000Y-91713589D01*
X139465000Y-91986411D01*
X139518225Y-92253989D01*
X139622629Y-92506043D01*
X139774201Y-92732886D01*
X139967114Y-92925799D01*
X140193957Y-93077371D01*
X140446011Y-93181775D01*
X140713589Y-93235000D01*
X140986411Y-93235000D01*
X141253989Y-93181775D01*
X141506043Y-93077371D01*
X141732886Y-92925799D01*
X141798747Y-92859938D01*
X157155460Y-92859938D01*
X157282743Y-93023000D01*
X158473000Y-93023000D01*
X158473000Y-93003000D01*
X158727000Y-93003000D01*
X158727000Y-93023000D01*
X159917257Y-93023000D01*
X160044540Y-92859938D01*
X159976916Y-92666692D01*
X159864336Y-92490269D01*
X159719501Y-92339199D01*
X159663072Y-92299750D01*
X159663072Y-91475000D01*
X159650812Y-91350518D01*
X159614502Y-91230820D01*
X159555537Y-91120506D01*
X159476185Y-91023815D01*
X159379494Y-90944463D01*
X159269180Y-90885498D01*
X159149482Y-90849188D01*
X159025000Y-90836928D01*
X158175000Y-90836928D01*
X158050518Y-90849188D01*
X157930820Y-90885498D01*
X157820506Y-90944463D01*
X157723815Y-91023815D01*
X157644463Y-91120506D01*
X157585498Y-91230820D01*
X157549188Y-91350518D01*
X157536928Y-91475000D01*
X157536928Y-92299750D01*
X157480499Y-92339199D01*
X157335664Y-92490269D01*
X157223084Y-92666692D01*
X157155460Y-92859938D01*
X141798747Y-92859938D01*
X141925799Y-92732886D01*
X142077371Y-92506043D01*
X142181775Y-92253989D01*
X142235000Y-91986411D01*
X142235000Y-91713589D01*
X142181775Y-91446011D01*
X142077371Y-91193957D01*
X141925799Y-90967114D01*
X141732886Y-90774201D01*
X141506043Y-90622629D01*
X141403127Y-90580000D01*
X141506043Y-90537371D01*
X141732886Y-90385799D01*
X141925799Y-90192886D01*
X142077371Y-89966043D01*
X142181775Y-89713989D01*
X142235000Y-89446411D01*
X142235000Y-89173589D01*
X142181775Y-88906011D01*
X142077371Y-88653957D01*
X141925799Y-88427114D01*
X141793685Y-88295000D01*
X141925799Y-88162886D01*
X142077371Y-87936043D01*
X142181775Y-87683989D01*
X142235000Y-87416411D01*
X142235000Y-87143589D01*
X142181775Y-86876011D01*
X142077371Y-86623957D01*
X141925799Y-86397114D01*
X141732886Y-86204201D01*
X141506043Y-86052629D01*
X141406721Y-86011489D01*
X141448832Y-85996277D01*
X141561863Y-85935860D01*
X141601857Y-85790062D01*
X157155460Y-85790062D01*
X157223084Y-85983308D01*
X157335664Y-86159731D01*
X157480499Y-86310801D01*
X157652023Y-86430712D01*
X157843645Y-86514856D01*
X158048000Y-86560000D01*
X158473000Y-86560000D01*
X158473000Y-85627000D01*
X158727000Y-85627000D01*
X158727000Y-86560000D01*
X159152000Y-86560000D01*
X159356355Y-86514856D01*
X159547977Y-86430712D01*
X159719501Y-86310801D01*
X159864336Y-86159731D01*
X159976916Y-85983308D01*
X160044540Y-85790062D01*
X159917257Y-85627000D01*
X158727000Y-85627000D01*
X158473000Y-85627000D01*
X157282743Y-85627000D01*
X157155460Y-85790062D01*
X141601857Y-85790062D01*
X141627388Y-85696993D01*
X140850000Y-84919605D01*
X140072612Y-85696993D01*
X140138137Y-85935860D01*
X140296477Y-86010164D01*
X140193957Y-86052629D01*
X139967114Y-86204201D01*
X139774201Y-86397114D01*
X139622629Y-86623957D01*
X139518225Y-86876011D01*
X139465000Y-87143589D01*
X136910000Y-87143589D01*
X136910000Y-84812492D01*
X139460188Y-84812492D01*
X139501035Y-85082238D01*
X139593723Y-85338832D01*
X139654140Y-85451863D01*
X139893007Y-85517388D01*
X140670395Y-84740000D01*
X141029605Y-84740000D01*
X141806993Y-85517388D01*
X142045860Y-85451863D01*
X142159388Y-85209938D01*
X157155460Y-85209938D01*
X157282743Y-85373000D01*
X158473000Y-85373000D01*
X158473000Y-85353000D01*
X158727000Y-85353000D01*
X158727000Y-85373000D01*
X159917257Y-85373000D01*
X160044540Y-85209938D01*
X159976916Y-85016692D01*
X159864336Y-84840269D01*
X159719501Y-84689199D01*
X159663072Y-84649750D01*
X159663072Y-83825000D01*
X159650812Y-83700518D01*
X159614502Y-83580820D01*
X159555537Y-83470506D01*
X159476185Y-83373815D01*
X159379494Y-83294463D01*
X159269180Y-83235498D01*
X159149482Y-83199188D01*
X159025000Y-83186928D01*
X158175000Y-83186928D01*
X158050518Y-83199188D01*
X157930820Y-83235498D01*
X157820506Y-83294463D01*
X157723815Y-83373815D01*
X157644463Y-83470506D01*
X157585498Y-83580820D01*
X157549188Y-83700518D01*
X157536928Y-83825000D01*
X157536928Y-84649750D01*
X157480499Y-84689199D01*
X157335664Y-84840269D01*
X157223084Y-85016692D01*
X157155460Y-85209938D01*
X142159388Y-85209938D01*
X142161760Y-85204884D01*
X142227250Y-84940040D01*
X142239812Y-84667508D01*
X142198965Y-84397762D01*
X142106277Y-84141168D01*
X142045860Y-84028137D01*
X141806993Y-83962612D01*
X141029605Y-84740000D01*
X140670395Y-84740000D01*
X139893007Y-83962612D01*
X139654140Y-84028137D01*
X139538240Y-84275116D01*
X139472750Y-84539960D01*
X139460188Y-84812492D01*
X136910000Y-84812492D01*
X136910000Y-83266703D01*
X137023962Y-83497214D01*
X137398745Y-83688020D01*
X137803551Y-83802044D01*
X138222824Y-83834902D01*
X138640451Y-83785334D01*
X138647604Y-83783007D01*
X140072612Y-83783007D01*
X140850000Y-84560395D01*
X141627388Y-83783007D01*
X141561863Y-83544140D01*
X141314884Y-83428240D01*
X141050040Y-83362750D01*
X140777508Y-83350188D01*
X140507762Y-83391035D01*
X140251168Y-83483723D01*
X140138137Y-83544140D01*
X140072612Y-83783007D01*
X138647604Y-83783007D01*
X139040383Y-83655243D01*
X139336038Y-83497214D01*
X139492048Y-83181653D01*
X138180000Y-81869605D01*
X138165858Y-81883748D01*
X137986253Y-81704143D01*
X138000395Y-81690000D01*
X137986253Y-81675858D01*
X138165858Y-81496253D01*
X138180000Y-81510395D01*
X138194143Y-81496253D01*
X138373748Y-81675858D01*
X138359605Y-81690000D01*
X139671653Y-83002048D01*
X139987214Y-82846038D01*
X140178020Y-82471255D01*
X140292044Y-82066449D01*
X140324902Y-81647176D01*
X140275334Y-81229549D01*
X140145243Y-80829617D01*
X139987214Y-80533962D01*
X139671655Y-80377953D01*
X139786347Y-80263261D01*
X139783086Y-80260000D01*
X161340000Y-80260000D01*
X161340001Y-96690000D01*
G37*
%TD.AperFunction*%
%TD*%
M02*
