%TF.GenerationSoftware,KiCad,Pcbnew,5.1.10*%
%TF.CreationDate,2021-10-31T20:18:17+09:00*%
%TF.ProjectId,ZeroPCB,5a65726f-5043-4422-9e6b-696361645f70,rev?*%
%TF.SameCoordinates,Original*%
%TF.FileFunction,Soldermask,Bot*%
%TF.FilePolarity,Negative*%
%FSLAX46Y46*%
G04 Gerber Fmt 4.6, Leading zero omitted, Abs format (unit mm)*
G04 Created by KiCad (PCBNEW 5.1.10) date 2021-10-31 20:18:17*
%MOMM*%
%LPD*%
G01*
G04 APERTURE LIST*
%ADD10R,0.850000X0.850000*%
%ADD11O,1.700000X0.850000*%
%ADD12C,1.800000*%
%ADD13C,0.100000*%
%ADD14R,1.700000X1.700000*%
%ADD15O,1.700000X1.700000*%
%ADD16C,1.200000*%
%ADD17O,1.950000X1.700000*%
%ADD18C,1.700000*%
G04 APERTURE END LIST*
D10*
%TO.C,J1*%
X110734000Y-114991000D03*
D11*
X110734000Y-116241000D03*
%TD*%
%TO.C,J2*%
X110734000Y-124491000D03*
D10*
X110734000Y-123241000D03*
%TD*%
D12*
%TO.C,D5*%
X184033705Y-107671000D03*
D13*
G36*
X181504577Y-110170423D02*
G01*
X180604577Y-108611577D01*
X182163423Y-107711577D01*
X183063423Y-109270423D01*
X181504577Y-110170423D01*
G37*
%TD*%
%TO.C,D8*%
G36*
X189313423Y-85062077D02*
G01*
X188413423Y-86620923D01*
X186854577Y-85720923D01*
X187754577Y-84162077D01*
X189313423Y-85062077D01*
G37*
D12*
X185884295Y-84121500D03*
%TD*%
%TO.C,D2*%
X160874452Y-63820433D03*
D13*
G36*
X162186974Y-67125109D02*
G01*
X160400391Y-67344474D01*
X160181026Y-65557891D01*
X161967609Y-65338526D01*
X162186974Y-67125109D01*
G37*
%TD*%
%TO.C,D3*%
G36*
X161717609Y-125093974D02*
G01*
X159931026Y-124874609D01*
X160150391Y-123088026D01*
X161936974Y-123307391D01*
X161717609Y-125093974D01*
G37*
D12*
X161243548Y-121569933D03*
%TD*%
D13*
%TO.C,D4*%
G36*
X185313423Y-80061977D02*
G01*
X184413423Y-81620823D01*
X182854577Y-80720823D01*
X183754577Y-79161977D01*
X185313423Y-80061977D01*
G37*
D12*
X181884295Y-79121400D03*
%TD*%
D13*
%TO.C,D6*%
G36*
X161386974Y-60725009D02*
G01*
X159600391Y-60944374D01*
X159381026Y-59157791D01*
X161167609Y-58938426D01*
X161386974Y-60725009D01*
G37*
D12*
X160074452Y-57420333D03*
%TD*%
%TO.C,D7*%
X160443548Y-128019933D03*
D13*
G36*
X160917609Y-131543974D02*
G01*
X159131026Y-131324609D01*
X159350391Y-129538026D01*
X161136974Y-129757391D01*
X160917609Y-131543974D01*
G37*
%TD*%
D12*
%TO.C,D9*%
X187983705Y-102571000D03*
D13*
G36*
X185454577Y-105070423D02*
G01*
X184554577Y-103511577D01*
X186113423Y-102611577D01*
X187013423Y-104170423D01*
X185454577Y-105070423D01*
G37*
%TD*%
D14*
%TO.C,J3*%
X144000000Y-91750000D03*
D15*
X144000000Y-94290000D03*
X144000000Y-96830000D03*
%TD*%
D16*
%TO.C,J4*%
X117984000Y-62441500D03*
D17*
X119984000Y-76541500D03*
X119984000Y-74041500D03*
X119984000Y-71541500D03*
X119984000Y-69041500D03*
X119984000Y-66541500D03*
G36*
G01*
X119259000Y-63191500D02*
X120709000Y-63191500D01*
G75*
G02*
X120959000Y-63441500I0J-250000D01*
G01*
X120959000Y-64641500D01*
G75*
G02*
X120709000Y-64891500I-250000J0D01*
G01*
X119259000Y-64891500D01*
G75*
G02*
X119009000Y-64641500I0J250000D01*
G01*
X119009000Y-63441500D01*
G75*
G02*
X119259000Y-63191500I250000J0D01*
G01*
G37*
%TD*%
%TO.C,J5*%
G36*
G01*
X119259000Y-110941000D02*
X120709000Y-110941000D01*
G75*
G02*
X120959000Y-111191000I0J-250000D01*
G01*
X120959000Y-112391000D01*
G75*
G02*
X120709000Y-112641000I-250000J0D01*
G01*
X119259000Y-112641000D01*
G75*
G02*
X119009000Y-112391000I0J250000D01*
G01*
X119009000Y-111191000D01*
G75*
G02*
X119259000Y-110941000I250000J0D01*
G01*
G37*
X119984000Y-114291000D03*
X119984000Y-116791000D03*
X119984000Y-119291000D03*
X119984000Y-121791000D03*
X119984000Y-124291000D03*
D16*
X117984000Y-110191000D03*
%TD*%
D13*
%TO.C,SW1*%
G36*
X110569036Y-70926795D02*
G01*
X110598705Y-72626536D01*
X108898964Y-72656205D01*
X108869295Y-70956464D01*
X110569036Y-70926795D01*
G37*
G36*
G01*
X110539542Y-69237052D02*
X110539542Y-69237052D01*
G75*
G02*
X109704506Y-70101758I-849871J-14835D01*
G01*
X109704506Y-70101758D01*
G75*
G02*
X108839800Y-69266722I-14835J849871D01*
G01*
X108839800Y-69266722D01*
G75*
G02*
X109674836Y-68402016I849871J14835D01*
G01*
X109674836Y-68402016D01*
G75*
G02*
X110539542Y-69237052I14835J-849871D01*
G01*
G37*
G36*
G01*
X110495213Y-66697439D02*
X110495213Y-66697439D01*
G75*
G02*
X109660177Y-67562145I-849871J-14835D01*
G01*
X109660177Y-67562145D01*
G75*
G02*
X108795471Y-66727109I-14835J849871D01*
G01*
X108795471Y-66727109D01*
G75*
G02*
X109630507Y-65862403I849871J14835D01*
G01*
X109630507Y-65862403D01*
G75*
G02*
X110495213Y-66697439I14835J-849871D01*
G01*
G37*
%TD*%
D18*
%TO.C,J6*%
X193895000Y-97867500D03*
X191355000Y-97867500D03*
X188815000Y-97867500D03*
X186275000Y-97867500D03*
X186275000Y-90247500D03*
X188815000Y-90247500D03*
X191355000Y-90247500D03*
X193895000Y-90247500D03*
%TD*%
%TO.C,J8*%
X120674000Y-87707500D03*
X120674000Y-90247500D03*
X120674000Y-92787500D03*
X120674000Y-95327500D03*
X120674000Y-97867500D03*
X120674000Y-100407500D03*
X128294000Y-100407500D03*
X128294000Y-97867500D03*
X128294000Y-95327500D03*
X128294000Y-92787500D03*
X128294000Y-90247500D03*
X128294000Y-87707500D03*
%TD*%
D15*
%TO.C,J7*%
X175934000Y-92787400D03*
X178474000Y-92787400D03*
X175934000Y-95327400D03*
X178474000Y-95327400D03*
X175934000Y-97867400D03*
X178474000Y-97867400D03*
X175934000Y-100407400D03*
X178474000Y-100407400D03*
X175934000Y-102947400D03*
X178474000Y-102947400D03*
X175934000Y-105487400D03*
X178474000Y-105487400D03*
X175934000Y-108027400D03*
X178474000Y-108027400D03*
X175934000Y-110567400D03*
X178474000Y-110567400D03*
X175934000Y-113107400D03*
X178474000Y-113107400D03*
X175934000Y-115647400D03*
X178474000Y-115647400D03*
X153074000Y-115647400D03*
X150534000Y-115647400D03*
X153074000Y-113107400D03*
X150534000Y-113107400D03*
X153074000Y-110567400D03*
X150534000Y-110567400D03*
X153074000Y-108027400D03*
X150534000Y-108027400D03*
X153074000Y-105487400D03*
X150534000Y-105487400D03*
X153074000Y-102947400D03*
X150534000Y-102947400D03*
X153074000Y-100407400D03*
X150534000Y-100407400D03*
X153074000Y-97867400D03*
X150534000Y-97867400D03*
X153074000Y-95327400D03*
X150534000Y-95327400D03*
X153074000Y-92787400D03*
X150534000Y-92787400D03*
X153074000Y-90247400D03*
X150534000Y-90247400D03*
X153074000Y-87707400D03*
X150534000Y-87707400D03*
X153074000Y-85167400D03*
D18*
X150534000Y-85167400D03*
X178474000Y-90247400D03*
X175934000Y-90247400D03*
X178474000Y-87707400D03*
X175934000Y-87707400D03*
X178474000Y-85167400D03*
X175934000Y-85167400D03*
%TD*%
D14*
%TO.C,J9*%
X100600000Y-85850000D03*
%TD*%
%TO.C,J12*%
X100650000Y-103600000D03*
%TD*%
M02*
