%TF.GenerationSoftware,KiCad,Pcbnew,5.1.10*%
%TF.CreationDate,2021-10-31T20:18:17+09:00*%
%TF.ProjectId,ZeroPCB,5a65726f-5043-4422-9e6b-696361645f70,rev?*%
%TF.SameCoordinates,Original*%
%TF.FileFunction,Copper,L2,Bot*%
%TF.FilePolarity,Positive*%
%FSLAX46Y46*%
G04 Gerber Fmt 4.6, Leading zero omitted, Abs format (unit mm)*
G04 Created by KiCad (PCBNEW 5.1.10) date 2021-10-31 20:18:17*
%MOMM*%
%LPD*%
G01*
G04 APERTURE LIST*
%TA.AperFunction,ComponentPad*%
%ADD10R,0.850000X0.850000*%
%TD*%
%TA.AperFunction,ComponentPad*%
%ADD11O,1.700000X0.850000*%
%TD*%
%TA.AperFunction,ComponentPad*%
%ADD12C,1.800000*%
%TD*%
%TA.AperFunction,ComponentPad*%
%ADD13C,0.100000*%
%TD*%
%TA.AperFunction,ComponentPad*%
%ADD14R,1.700000X1.700000*%
%TD*%
%TA.AperFunction,ComponentPad*%
%ADD15O,1.700000X1.700000*%
%TD*%
%TA.AperFunction,ComponentPad*%
%ADD16O,1.950000X1.700000*%
%TD*%
%TA.AperFunction,ComponentPad*%
%ADD17C,1.700000*%
%TD*%
%TA.AperFunction,ViaPad*%
%ADD18C,0.800000*%
%TD*%
%TA.AperFunction,Conductor*%
%ADD19C,0.400000*%
%TD*%
%TA.AperFunction,Conductor*%
%ADD20C,0.250000*%
%TD*%
%TA.AperFunction,Conductor*%
%ADD21C,0.800000*%
%TD*%
%TA.AperFunction,Conductor*%
%ADD22C,0.254000*%
%TD*%
%TA.AperFunction,Conductor*%
%ADD23C,0.100000*%
%TD*%
G04 APERTURE END LIST*
D10*
%TO.P,J1,1*%
%TO.N,Net-(J1-Pad1)*%
X110734000Y-114991000D03*
D11*
%TO.P,J1,2*%
%TO.N,Net-(J1-Pad2)*%
X110734000Y-116241000D03*
%TD*%
%TO.P,J2,2*%
%TO.N,GND*%
X110734000Y-124491000D03*
D10*
%TO.P,J2,1*%
%TO.N,Net-(J1-Pad2)*%
X110734000Y-123241000D03*
%TD*%
D12*
%TO.P,D5,2*%
%TO.N,Net-(D4-Pad1)*%
X184033705Y-107671000D03*
%TA.AperFunction,ComponentPad*%
D13*
%TO.P,D5,1*%
%TO.N,Net-(D5-Pad1)*%
G36*
X181504577Y-110170423D02*
G01*
X180604577Y-108611577D01*
X182163423Y-107711577D01*
X183063423Y-109270423D01*
X181504577Y-110170423D01*
G37*
%TD.AperFunction*%
%TD*%
%TA.AperFunction,ComponentPad*%
%TO.P,D8,1*%
%TO.N,+3.3VA*%
G36*
X189313423Y-85062077D02*
G01*
X188413423Y-86620923D01*
X186854577Y-85720923D01*
X187754577Y-84162077D01*
X189313423Y-85062077D01*
G37*
%TD.AperFunction*%
D12*
%TO.P,D8,2*%
%TO.N,Net-(C8-Pad2)*%
X185884295Y-84121500D03*
%TD*%
%TO.P,D2,2*%
%TO.N,+BATT*%
X160874452Y-63820433D03*
%TA.AperFunction,ComponentPad*%
D13*
%TO.P,D2,1*%
%TO.N,Net-(D2-Pad1)*%
G36*
X162186974Y-67125109D02*
G01*
X160400391Y-67344474D01*
X160181026Y-65557891D01*
X161967609Y-65338526D01*
X162186974Y-67125109D01*
G37*
%TD.AperFunction*%
%TD*%
%TA.AperFunction,ComponentPad*%
%TO.P,D3,1*%
%TO.N,Net-(D3-Pad1)*%
G36*
X161717609Y-125093974D02*
G01*
X159931026Y-124874609D01*
X160150391Y-123088026D01*
X161936974Y-123307391D01*
X161717609Y-125093974D01*
G37*
%TD.AperFunction*%
D12*
%TO.P,D3,2*%
%TO.N,Net-(D2-Pad1)*%
X161243548Y-121569933D03*
%TD*%
%TA.AperFunction,ComponentPad*%
D13*
%TO.P,D4,1*%
%TO.N,Net-(D4-Pad1)*%
G36*
X185313423Y-80061977D02*
G01*
X184413423Y-81620823D01*
X182854577Y-80720823D01*
X183754577Y-79161977D01*
X185313423Y-80061977D01*
G37*
%TD.AperFunction*%
D12*
%TO.P,D4,2*%
%TO.N,+BATT*%
X181884295Y-79121400D03*
%TD*%
%TA.AperFunction,ComponentPad*%
D13*
%TO.P,D6,1*%
%TO.N,+3.3VA*%
G36*
X161386974Y-60725009D02*
G01*
X159600391Y-60944374D01*
X159381026Y-59157791D01*
X161167609Y-58938426D01*
X161386974Y-60725009D01*
G37*
%TD.AperFunction*%
D12*
%TO.P,D6,2*%
%TO.N,Net-(C4-Pad2)*%
X160074452Y-57420333D03*
%TD*%
%TO.P,D7,2*%
%TO.N,Net-(C6-Pad2)*%
X160443548Y-128019933D03*
%TA.AperFunction,ComponentPad*%
D13*
%TO.P,D7,1*%
%TO.N,+3.3VA*%
G36*
X160917609Y-131543974D02*
G01*
X159131026Y-131324609D01*
X159350391Y-129538026D01*
X161136974Y-129757391D01*
X160917609Y-131543974D01*
G37*
%TD.AperFunction*%
%TD*%
D12*
%TO.P,D9,2*%
%TO.N,Net-(C9-Pad2)*%
X187983705Y-102571000D03*
%TA.AperFunction,ComponentPad*%
D13*
%TO.P,D9,1*%
%TO.N,+3.3VA*%
G36*
X185454577Y-105070423D02*
G01*
X184554577Y-103511577D01*
X186113423Y-102611577D01*
X187013423Y-104170423D01*
X185454577Y-105070423D01*
G37*
%TD.AperFunction*%
%TD*%
D14*
%TO.P,J3,1*%
%TO.N,+BATT*%
X144000000Y-91750000D03*
D15*
%TO.P,J3,2*%
%TO.N,GND*%
X144000000Y-94290000D03*
%TO.P,J3,3*%
%TO.N,+3V3*%
X144000000Y-96830000D03*
%TD*%
D16*
%TO.P,J4,6*%
%TO.N,GND*%
X119984000Y-76541500D03*
%TO.P,J4,5*%
%TO.N,/MicroController/Left_EncoderB*%
X119984000Y-74041500D03*
%TO.P,J4,4*%
%TO.N,/MicroController/Left_EncoderA*%
X119984000Y-71541500D03*
%TO.P,J4,3*%
%TO.N,+3V3*%
X119984000Y-69041500D03*
%TO.P,J4,2*%
%TO.N,Net-(J4-Pad2)*%
X119984000Y-66541500D03*
%TO.P,J4,1*%
%TO.N,Net-(J4-Pad1)*%
%TA.AperFunction,ComponentPad*%
G36*
G01*
X119259000Y-63191500D02*
X120709000Y-63191500D01*
G75*
G02*
X120959000Y-63441500I0J-250000D01*
G01*
X120959000Y-64641500D01*
G75*
G02*
X120709000Y-64891500I-250000J0D01*
G01*
X119259000Y-64891500D01*
G75*
G02*
X119009000Y-64641500I0J250000D01*
G01*
X119009000Y-63441500D01*
G75*
G02*
X119259000Y-63191500I250000J0D01*
G01*
G37*
%TD.AperFunction*%
%TD*%
%TO.P,J5,1*%
%TO.N,Net-(J5-Pad1)*%
%TA.AperFunction,ComponentPad*%
G36*
G01*
X119259000Y-110941000D02*
X120709000Y-110941000D01*
G75*
G02*
X120959000Y-111191000I0J-250000D01*
G01*
X120959000Y-112391000D01*
G75*
G02*
X120709000Y-112641000I-250000J0D01*
G01*
X119259000Y-112641000D01*
G75*
G02*
X119009000Y-112391000I0J250000D01*
G01*
X119009000Y-111191000D01*
G75*
G02*
X119259000Y-110941000I250000J0D01*
G01*
G37*
%TD.AperFunction*%
%TO.P,J5,2*%
%TO.N,Net-(J5-Pad2)*%
X119984000Y-114291000D03*
%TO.P,J5,3*%
%TO.N,+3V3*%
X119984000Y-116791000D03*
%TO.P,J5,4*%
%TO.N,/MicroController/Right_EncoderA*%
X119984000Y-119291000D03*
%TO.P,J5,5*%
%TO.N,/MicroController/Right_EncoderB*%
X119984000Y-121791000D03*
%TO.P,J5,6*%
%TO.N,GND*%
X119984000Y-124291000D03*
%TD*%
%TA.AperFunction,ComponentPad*%
D13*
%TO.P,SW1,1*%
%TO.N,GND*%
G36*
X110569036Y-70926795D02*
G01*
X110598705Y-72626536D01*
X108898964Y-72656205D01*
X108869295Y-70956464D01*
X110569036Y-70926795D01*
G37*
%TD.AperFunction*%
%TO.P,SW1,2*%
%TO.N,Net-(Q1-Pad1)*%
%TA.AperFunction,ComponentPad*%
G36*
G01*
X110539542Y-69237052D02*
X110539542Y-69237052D01*
G75*
G02*
X109704506Y-70101758I-849871J-14835D01*
G01*
X109704506Y-70101758D01*
G75*
G02*
X108839800Y-69266722I-14835J849871D01*
G01*
X108839800Y-69266722D01*
G75*
G02*
X109674836Y-68402016I849871J14835D01*
G01*
X109674836Y-68402016D01*
G75*
G02*
X110539542Y-69237052I14835J-849871D01*
G01*
G37*
%TD.AperFunction*%
%TO.P,SW1,3*%
%TO.N,N/C*%
%TA.AperFunction,ComponentPad*%
G36*
G01*
X110495213Y-66697439D02*
X110495213Y-66697439D01*
G75*
G02*
X109660177Y-67562145I-849871J-14835D01*
G01*
X109660177Y-67562145D01*
G75*
G02*
X108795471Y-66727109I-14835J849871D01*
G01*
X108795471Y-66727109D01*
G75*
G02*
X109630507Y-65862403I849871J14835D01*
G01*
X109630507Y-65862403D01*
G75*
G02*
X110495213Y-66697439I14835J-849871D01*
G01*
G37*
%TD.AperFunction*%
%TD*%
D17*
%TO.P,J6,8*%
%TO.N,GND*%
X193895000Y-97867500D03*
%TO.P,J6,7*%
%TO.N,N/C*%
X191355000Y-97867500D03*
%TO.P,J6,6*%
X188815000Y-97867500D03*
%TO.P,J6,5*%
%TO.N,/GyroSensor/IMU_CS*%
X186275000Y-97867500D03*
%TO.P,J6,4*%
%TO.N,/GyroSensor/IMU_MISO*%
X186275000Y-90247500D03*
%TO.P,J6,3*%
%TO.N,/GyroSensor/IMU_MOSI*%
X188815000Y-90247500D03*
%TO.P,J6,2*%
%TO.N,/GyroSensor/IMU_CLK*%
X191355000Y-90247500D03*
%TO.P,J6,1*%
%TO.N,+3V3*%
X193895000Y-90247500D03*
%TD*%
%TO.P,J8,1*%
%TO.N,+BATT*%
X120674000Y-87707500D03*
%TO.P,J8,2*%
%TO.N,Net-(J4-Pad2)*%
X120674000Y-90247500D03*
%TO.P,J8,3*%
%TO.N,Net-(J4-Pad1)*%
X120674000Y-92787500D03*
%TO.P,J8,4*%
%TO.N,Net-(J5-Pad2)*%
X120674000Y-95327500D03*
%TO.P,J8,5*%
%TO.N,Net-(J5-Pad1)*%
X120674000Y-97867500D03*
%TO.P,J8,6*%
%TO.N,GND*%
X120674000Y-100407500D03*
%TO.P,J8,7*%
%TO.N,/MicroController/Right_Motor_OUT2*%
X128294000Y-100407500D03*
%TO.P,J8,8*%
%TO.N,/MicroController/Right_Motor_OUT1*%
X128294000Y-97867500D03*
%TO.P,J8,9*%
%TO.N,/MicroController/Left_Motor_OUT2*%
X128294000Y-95327500D03*
%TO.P,J8,10*%
%TO.N,/MicroController/Left_Motor_OUT1*%
X128294000Y-92787500D03*
%TO.P,J8,11*%
%TO.N,GND*%
X128294000Y-90247500D03*
%TO.P,J8,12*%
%TO.N,+3V3*%
X128294000Y-87707500D03*
%TD*%
D15*
%TO.P,J7,46*%
%TO.N,/MicroController/Left_Motor_OUT2*%
X175934000Y-92787400D03*
%TO.P,J7,45*%
%TO.N,/MicroController/Left_Motor_OUT1*%
X178474000Y-92787400D03*
%TO.P,J7,44*%
%TO.N,N/C*%
X175934000Y-95327400D03*
%TO.P,J7,43*%
%TO.N,/Communication/SWCLK*%
X178474000Y-95327400D03*
%TO.P,J7,42*%
%TO.N,/Communication/SWDIO*%
X175934000Y-97867400D03*
%TO.P,J7,41*%
%TO.N,N/C*%
X178474000Y-97867400D03*
%TO.P,J7,40*%
X175934000Y-100407400D03*
%TO.P,J7,39*%
X178474000Y-100407400D03*
%TO.P,J7,38*%
X175934000Y-102947400D03*
%TO.P,J7,37*%
X178474000Y-102947400D03*
%TO.P,J7,36*%
%TO.N,/GyroSensor/IMU_MOSI*%
X175934000Y-105487400D03*
%TO.P,J7,35*%
%TO.N,/GyroSensor/IMU_MISO*%
X178474000Y-105487400D03*
%TO.P,J7,34*%
%TO.N,/GyroSensor/IMU_CLK*%
X175934000Y-108027400D03*
%TO.P,J7,33*%
%TO.N,/GyroSensor/IMU_CS*%
X178474000Y-108027400D03*
%TO.P,J7,32*%
%TO.N,/IRSensor/IR_Sensor_OUT2*%
X175934000Y-110567400D03*
%TO.P,J7,31*%
%TO.N,/IRSensor/IR_Sensor_OUT1*%
X178474000Y-110567400D03*
%TO.P,J7,30*%
%TO.N,/MicroController/Left_EncoderB*%
X175934000Y-113107400D03*
%TO.P,J7,29*%
%TO.N,/MicroController/Left_EncoderA*%
X178474000Y-113107400D03*
%TO.P,J7,28*%
%TO.N,+3V3*%
X175934000Y-115647400D03*
%TO.P,J7,27*%
%TO.N,GND*%
X178474000Y-115647400D03*
%TO.P,J7,26*%
%TO.N,/Communication/NRST*%
X153074000Y-115647400D03*
%TO.P,J7,25*%
%TO.N,+3V3*%
X150534000Y-115647400D03*
%TO.P,J7,24*%
%TO.N,/MicroController/Right_Motor_OUT2*%
X153074000Y-113107400D03*
%TO.P,J7,23*%
%TO.N,/MicroController/Right_Motor_OUT1*%
X150534000Y-113107400D03*
%TO.P,J7,22*%
%TO.N,/Debug/LED6*%
X153074000Y-110567400D03*
%TO.P,J7,21*%
%TO.N,/Debug/LED5*%
X150534000Y-110567400D03*
%TO.P,J7,20*%
%TO.N,/Debug/LED4*%
X153074000Y-108027400D03*
%TO.P,J7,19*%
%TO.N,/Debug/LED3*%
X150534000Y-108027400D03*
%TO.P,J7,18*%
%TO.N,/Debug/LED2*%
X153074000Y-105487400D03*
%TO.P,J7,17*%
%TO.N,/Debug/LED1*%
X150534000Y-105487400D03*
%TO.P,J7,16*%
%TO.N,/Debug/Button2*%
X153074000Y-102947400D03*
%TO.P,J7,15*%
%TO.N,/Debug/Button1*%
X150534000Y-102947400D03*
%TO.P,J7,14*%
%TO.N,/Communication/UART_RX*%
X153074000Y-100407400D03*
%TO.P,J7,13*%
%TO.N,/Communication/UART_TX*%
X150534000Y-100407400D03*
%TO.P,J7,12*%
%TO.N,N/C*%
X153074000Y-97867400D03*
%TO.P,J7,11*%
X150534000Y-97867400D03*
%TO.P,J7,10*%
%TO.N,/MicroController/Right_EncoderB*%
X153074000Y-95327400D03*
%TO.P,J7,9*%
%TO.N,/MicroController/Right_EncoderA*%
X150534000Y-95327400D03*
%TO.P,J7,8*%
%TO.N,N/C*%
X153074000Y-92787400D03*
%TO.P,J7,7*%
%TO.N,/MicroController/BAT_REF*%
X150534000Y-92787400D03*
%TO.P,J7,6*%
%TO.N,/IRSensor/IR_Sensor_IN4*%
X153074000Y-90247400D03*
%TO.P,J7,5*%
%TO.N,/IRSensor/IR_Sensor_IN3*%
X150534000Y-90247400D03*
%TO.P,J7,4*%
%TO.N,/IRSensor/IR_Sensor_IN2*%
X153074000Y-87707400D03*
%TO.P,J7,3*%
%TO.N,/IRSensor/IR_Sensor_IN1*%
X150534000Y-87707400D03*
%TO.P,J7,2*%
%TO.N,+3V3*%
X153074000Y-85167400D03*
D17*
%TO.P,J7,1*%
%TO.N,GND*%
X150534000Y-85167400D03*
%TO.P,J7,47*%
%TO.N,N/C*%
X178474000Y-90247400D03*
%TO.P,J7,48*%
X175934000Y-90247400D03*
%TO.P,J7,49*%
X178474000Y-87707400D03*
%TO.P,J7,50*%
X175934000Y-87707400D03*
%TO.P,J7,51*%
X178474000Y-85167400D03*
%TO.P,J7,52*%
%TO.N,/Debug/Buzzer*%
X175934000Y-85167400D03*
%TD*%
D14*
%TO.P,J9,1*%
%TO.N,Net-(J1-Pad1)*%
X100600000Y-85850000D03*
%TD*%
%TO.P,J12,1*%
%TO.N,GND*%
X100650000Y-103600000D03*
%TD*%
D18*
%TO.N,GND*%
X187495300Y-79427200D03*
X131500000Y-87750000D03*
X131452500Y-90247500D03*
X114800000Y-118600000D03*
X114800000Y-102600000D03*
X114800000Y-117000000D03*
X114800000Y-101200000D03*
X157000000Y-71400000D03*
X159400000Y-71400000D03*
X154400000Y-71400000D03*
X154400000Y-71400000D03*
X154400000Y-71400000D03*
X162600000Y-71400000D03*
X172000000Y-121000000D03*
X194400000Y-84200000D03*
X172100000Y-127650000D03*
X164750000Y-111900000D03*
X167450000Y-114400000D03*
X165300000Y-117950000D03*
X138850000Y-69500000D03*
X142050000Y-69450000D03*
X146500000Y-119450000D03*
X149600000Y-119500000D03*
X194400000Y-86200000D03*
X194350000Y-100200000D03*
X194350000Y-101450000D03*
X173050000Y-85300000D03*
X173050000Y-87400000D03*
X173100000Y-89900000D03*
X181886100Y-111686100D03*
X181850000Y-115100000D03*
X178400000Y-75750000D03*
X175500000Y-73150000D03*
X162850000Y-59250000D03*
X162850000Y-60900000D03*
X164650000Y-77700000D03*
X164550000Y-81500000D03*
%TO.N,+3.3VA*%
X171062600Y-118208600D03*
%TO.N,Net-(C2-Pad1)*%
X110943800Y-95791400D03*
X107936900Y-96866000D03*
%TO.N,/IRSensor/1.65V*%
X158390200Y-56881900D03*
X161429647Y-55720141D03*
%TO.N,Net-(C4-Pad2)*%
X152830000Y-65100000D03*
X155950000Y-61800000D03*
%TO.N,Net-(C6-Pad2)*%
X153352600Y-122564800D03*
%TO.N,/IRSensor/IR_Sensor_IN2*%
X154819400Y-122244200D03*
%TO.N,/IRSensor/IR_Sensor_IN3*%
X178273100Y-71948800D03*
X160955100Y-89311200D03*
%TO.N,/IRSensor/IR_Sensor_IN4*%
X173360000Y-118691400D03*
%TO.N,Net-(D3-Pad1)*%
X163236100Y-88908800D03*
%TO.N,Net-(J1-Pad1)*%
X103050000Y-110500000D03*
%TO.N,+3V3*%
X106117200Y-97232800D03*
X162022000Y-87071700D03*
X127750000Y-116100000D03*
%TO.N,/MicroController/Left_EncoderA*%
X147694100Y-77486500D03*
%TO.N,/MicroController/Left_EncoderB*%
X134050400Y-88226800D03*
X128858600Y-77602900D03*
%TO.N,/MicroController/Right_EncoderB*%
X141657000Y-105977600D03*
%TO.N,/MicroController/Right_EncoderA*%
X140656600Y-105706000D03*
%TO.N,/IRSensor/IR_Sensor_OUT2*%
X166637200Y-104094000D03*
%TO.N,/Communication/SWDIO*%
X106083400Y-112639200D03*
X116114100Y-75632800D03*
X138857900Y-65355900D03*
%TO.N,/Communication/SWCLK*%
X105463400Y-122455300D03*
X139317000Y-86261000D03*
X110683990Y-103437332D03*
%TO.N,/MicroController/Left_Motor_OUT1*%
X139335700Y-91571600D03*
%TO.N,/MicroController/Left_Motor_OUT2*%
X139774400Y-92861200D03*
%TO.N,/Communication/NRST*%
X107278800Y-118714500D03*
%TO.N,/Debug/LED6*%
X107658000Y-134716800D03*
%TO.N,/Debug/LED5*%
X102265000Y-125634300D03*
%TO.N,/Debug/LED4*%
X138611400Y-106013500D03*
%TO.N,/Debug/LED3*%
X135878800Y-83545500D03*
%TO.N,/Debug/LED2*%
X101138200Y-62221100D03*
%TO.N,/Debug/LED1*%
X124648800Y-68718000D03*
%TO.N,/Debug/Button2*%
X145645500Y-126050500D03*
%TO.N,/Debug/Button1*%
X106930400Y-59853000D03*
%TO.N,/Communication/UART_RX*%
X138788200Y-83489200D03*
%TO.N,/MicroController/BAT_REF*%
X141590200Y-84230000D03*
%TO.N,Net-(Q1-Pad1)*%
X104885300Y-107725000D03*
%TD*%
D19*
%TO.N,GND*%
X119984000Y-76541500D02*
X119984000Y-77791800D01*
X120674000Y-100407500D02*
X121950800Y-99130700D01*
X121950800Y-99130700D02*
X121950800Y-79758600D01*
X121950800Y-79758600D02*
X119984000Y-77791800D01*
X193895000Y-97867500D02*
X195754200Y-96008300D01*
X195754200Y-96008300D02*
X195754200Y-87686100D01*
X195754200Y-87686100D02*
X194359050Y-86290950D01*
X178474000Y-114397100D02*
X179175100Y-114397100D01*
X179175100Y-114397100D02*
X181886100Y-111686100D01*
X193895000Y-99677200D02*
X193895000Y-97867500D01*
X119984000Y-124291000D02*
X118608700Y-124291000D01*
X118608700Y-124291000D02*
X118408700Y-124491000D01*
X118408700Y-124491000D02*
X110734000Y-124491000D01*
X144000000Y-94290000D02*
X144000000Y-93039700D01*
X145289600Y-90291100D02*
X145289600Y-92817400D01*
X145289600Y-92817400D02*
X145067300Y-93039700D01*
X145067300Y-93039700D02*
X144000000Y-93039700D01*
X178474000Y-115647400D02*
X178474000Y-114397100D01*
X150413300Y-85167400D02*
X145289600Y-90291100D01*
X150534000Y-85167400D02*
X150413300Y-85167400D01*
X194359050Y-86290950D02*
X187495300Y-79427200D01*
X181886100Y-111686100D02*
X193895000Y-99677200D01*
%TO.N,+3.3VA*%
X171062600Y-119612400D02*
X171062600Y-118208600D01*
X160134000Y-130541000D02*
X171062600Y-119612400D01*
X190085000Y-98500770D02*
X185784000Y-102801770D01*
X190085000Y-97365300D02*
X190085000Y-98500770D01*
X195151000Y-92299300D02*
X190085000Y-97365300D01*
X195151000Y-89725300D02*
X195151000Y-92299300D01*
X190817200Y-85391500D02*
X195151000Y-89725300D01*
X188084000Y-85391500D02*
X190817200Y-85391500D01*
X185784000Y-103841000D02*
X185784000Y-102801770D01*
D20*
%TO.N,Net-(C2-Pad1)*%
X107936900Y-96866000D02*
X109869200Y-96866000D01*
X109869200Y-96866000D02*
X110943800Y-95791400D01*
%TO.N,/IRSensor/1.65V*%
X158390200Y-56881900D02*
X159551959Y-55720141D01*
X159551959Y-55720141D02*
X161429647Y-55720141D01*
%TO.N,Net-(C4-Pad2)*%
X152830000Y-64920000D02*
X152830000Y-65100000D01*
X155950000Y-61800000D02*
X152830000Y-64920000D01*
X160074452Y-57675548D02*
X160074452Y-57420333D01*
X155950000Y-61800000D02*
X160074452Y-57675548D01*
%TO.N,Net-(C6-Pad2)*%
X153352600Y-122564800D02*
X153352600Y-123759600D01*
X157612933Y-128019933D02*
X153352600Y-123759600D01*
X160443548Y-128019933D02*
X157612933Y-128019933D01*
%TO.N,/IRSensor/IR_Sensor_IN2*%
X153074000Y-87707400D02*
X155665500Y-90298900D01*
X155665500Y-90298900D02*
X155665500Y-121398100D01*
X155665500Y-121398100D02*
X154819400Y-122244200D01*
%TO.N,/IRSensor/IR_Sensor_IN3*%
X160955100Y-89311200D02*
X160955100Y-87060500D01*
X160955100Y-87060500D02*
X161684200Y-86331400D01*
X161684200Y-86331400D02*
X163682800Y-86331400D01*
X163682800Y-86331400D02*
X173859600Y-96508200D01*
X173859600Y-96508200D02*
X179024900Y-96508200D01*
X179024900Y-96508200D02*
X180109600Y-95423500D01*
X180109600Y-95423500D02*
X180109600Y-73785300D01*
X180109600Y-73785300D02*
X178273100Y-71948800D01*
%TO.N,/IRSensor/IR_Sensor_IN4*%
X153074000Y-90247400D02*
X153074000Y-89072100D01*
X153074000Y-89072100D02*
X152706700Y-89072100D01*
X152706700Y-89072100D02*
X151873400Y-88238800D01*
X151873400Y-88238800D02*
X151873400Y-87192100D01*
X151873400Y-87192100D02*
X152539600Y-86525900D01*
X152539600Y-86525900D02*
X153663500Y-86525900D01*
X153663500Y-86525900D02*
X157763900Y-90626300D01*
X157763900Y-90626300D02*
X157763900Y-123885500D01*
X157763900Y-123885500D02*
X159786800Y-125908400D01*
X159786800Y-125908400D02*
X162081500Y-125908400D01*
X162081500Y-125908400D02*
X170576200Y-117413700D01*
X170576200Y-117413700D02*
X172082300Y-117413700D01*
X172082300Y-117413700D02*
X173360000Y-118691400D01*
D19*
%TO.N,+BATT*%
X144000000Y-91750000D02*
X144000000Y-90499700D01*
X144000000Y-90499700D02*
X144000000Y-80011000D01*
X144000000Y-80011000D02*
X160190600Y-63820400D01*
X160190600Y-63820400D02*
X160874500Y-63820400D01*
D20*
%TO.N,Net-(D2-Pad1)*%
X161243500Y-121569900D02*
X161243500Y-92723200D01*
X161243500Y-92723200D02*
X160477000Y-91956700D01*
X160229800Y-89010800D02*
X160477000Y-88763600D01*
X160430000Y-90041100D02*
X160430000Y-89811800D01*
X160477000Y-85007800D02*
X160901400Y-84583400D01*
X160430000Y-89811800D02*
X160229800Y-89611600D01*
X160229800Y-89611600D02*
X160229800Y-89010800D01*
X160477000Y-88763600D02*
X160477000Y-85007800D01*
X160477000Y-91956700D02*
X160477000Y-90088100D01*
X160477000Y-90088100D02*
X160430000Y-90041100D01*
X160901400Y-84583400D02*
X160901400Y-83451000D01*
X161351700Y-83000700D02*
X161351700Y-67707000D01*
X161351700Y-67707000D02*
X161184000Y-66341500D01*
X160901400Y-83451000D02*
X161351700Y-83000700D01*
%TO.N,Net-(D3-Pad1)*%
X160934000Y-124091000D02*
X163236100Y-121788900D01*
X163236100Y-121788900D02*
X163236100Y-88908800D01*
D21*
%TO.N,Net-(J1-Pad1)*%
X103050000Y-99900000D02*
X103050000Y-110500000D01*
X100600000Y-97450000D02*
X103050000Y-99900000D01*
X100600000Y-85850000D02*
X100600000Y-97450000D01*
D19*
%TO.N,+3V3*%
X144000000Y-96830000D02*
X144000000Y-95579700D01*
X153074000Y-85167400D02*
X151823700Y-85167400D01*
X151823700Y-85167400D02*
X151823700Y-85714500D01*
X151823700Y-85714500D02*
X151120500Y-86417700D01*
X151120500Y-86417700D02*
X150012100Y-86417700D01*
X150012100Y-86417700D02*
X148833300Y-87596500D01*
X148833300Y-87596500D02*
X148833300Y-91264500D01*
X148833300Y-91264500D02*
X144518100Y-95579700D01*
X144518100Y-95579700D02*
X144000000Y-95579700D01*
X119993000Y-116266400D02*
X125363200Y-110896200D01*
X125363200Y-110896200D02*
X125363200Y-90638300D01*
X125363200Y-90638300D02*
X128294000Y-87707500D01*
X119984000Y-116791000D02*
X119984000Y-116275400D01*
X119984000Y-116275400D02*
X119993000Y-116266400D01*
X106117200Y-97232800D02*
X111744200Y-102859800D01*
X111744200Y-102859800D02*
X111744200Y-108017600D01*
X111744200Y-108017600D02*
X119993000Y-116266400D01*
X119984000Y-69041500D02*
X128058300Y-77115800D01*
X128058300Y-77115800D02*
X128058300Y-87471800D01*
X128058300Y-87471800D02*
X128294000Y-87707500D01*
X177223600Y-109981600D02*
X176539400Y-109297400D01*
X176539400Y-109297400D02*
X175404700Y-109297400D01*
X175404700Y-109297400D02*
X173411500Y-107304200D01*
X173411500Y-107304200D02*
X173411500Y-97908100D01*
X173411500Y-97908100D02*
X162575100Y-87071700D01*
X162575100Y-87071700D02*
X162022000Y-87071700D01*
X177223600Y-109981600D02*
X177907800Y-109297400D01*
X177907800Y-109297400D02*
X178993100Y-109297400D01*
X178993100Y-109297400D02*
X179857400Y-108433100D01*
X179857400Y-108433100D02*
X179857400Y-107627100D01*
X179857400Y-107627100D02*
X187545000Y-99939500D01*
X187545000Y-99939500D02*
X187545000Y-96597500D01*
X187545000Y-96597500D02*
X193895000Y-90247500D01*
X175934000Y-114397100D02*
X175415900Y-114397100D01*
X175415900Y-114397100D02*
X174641800Y-113623000D01*
X174641800Y-113623000D02*
X174641800Y-112618500D01*
X174641800Y-112618500D02*
X175422900Y-111837400D01*
X175422900Y-111837400D02*
X176500100Y-111837400D01*
X176500100Y-111837400D02*
X177223600Y-111113900D01*
X177223600Y-111113900D02*
X177223600Y-109981600D01*
X175934000Y-115647400D02*
X175934000Y-114397100D01*
X128202600Y-115647400D02*
X127750000Y-116100000D01*
X150534000Y-115647400D02*
X128202600Y-115647400D01*
D20*
%TO.N,/MicroController/Left_EncoderA*%
X178474000Y-113107400D02*
X177204000Y-114377400D01*
X177204000Y-114377400D02*
X177204000Y-116109300D01*
X177204000Y-116109300D02*
X176435200Y-116878100D01*
X176435200Y-116878100D02*
X170474900Y-116878100D01*
X170474900Y-116878100D02*
X161895000Y-125458000D01*
X161895000Y-125458000D02*
X160026500Y-125458000D01*
X160026500Y-125458000D02*
X159341400Y-124772900D01*
X159341400Y-124772900D02*
X159341400Y-89133800D01*
X159341400Y-89133800D02*
X147694100Y-77486500D01*
%TO.N,/MicroController/Left_EncoderB*%
X128858600Y-77602900D02*
X134050400Y-82794700D01*
X134050400Y-82794700D02*
X134050400Y-88226800D01*
%TO.N,/MicroController/Right_EncoderB*%
X153074000Y-96502700D02*
X152706600Y-96502700D01*
X152706600Y-96502700D02*
X151898700Y-97310600D01*
X151898700Y-97310600D02*
X151898700Y-98203700D01*
X151898700Y-98203700D02*
X150965000Y-99137400D01*
X150965000Y-99137400D02*
X148497200Y-99137400D01*
X148497200Y-99137400D02*
X141657000Y-105977600D01*
X153074000Y-95327400D02*
X153074000Y-96502700D01*
%TO.N,/MicroController/Right_EncoderA*%
X150534000Y-96502700D02*
X149859900Y-96502700D01*
X149859900Y-96502700D02*
X140656600Y-105706000D01*
X150534000Y-95327400D02*
X150534000Y-96502700D01*
%TO.N,/GyroSensor/IMU_MOSI*%
X175934000Y-105487400D02*
X175934000Y-104312100D01*
X175934000Y-104312100D02*
X176301400Y-104312100D01*
X176301400Y-104312100D02*
X177109300Y-103504200D01*
X177109300Y-103504200D02*
X177109300Y-102611100D01*
X177109300Y-102611100D02*
X178043000Y-101677400D01*
X178043000Y-101677400D02*
X178910000Y-101677400D01*
X178910000Y-101677400D02*
X188815000Y-91772400D01*
X188815000Y-91772400D02*
X188815000Y-90247500D01*
%TO.N,/GyroSensor/IMU_CLK*%
X175934000Y-108027400D02*
X175934000Y-106852100D01*
X175934000Y-106852100D02*
X176301400Y-106852100D01*
X176301400Y-106852100D02*
X177109300Y-106044200D01*
X177109300Y-106044200D02*
X177109300Y-105167900D01*
X177109300Y-105167900D02*
X178059800Y-104217400D01*
X178059800Y-104217400D02*
X178869500Y-104217400D01*
X178869500Y-104217400D02*
X184934900Y-98152000D01*
X184934900Y-98152000D02*
X184934900Y-96667600D01*
X184934900Y-96667600D02*
X191355000Y-90247500D01*
%TO.N,/GyroSensor/IMU_CS*%
X178474000Y-108027400D02*
X178474000Y-106852100D01*
X186275000Y-97867500D02*
X186275000Y-99418400D01*
X186275000Y-99418400D02*
X178841300Y-106852100D01*
X178841300Y-106852100D02*
X178474000Y-106852100D01*
%TO.N,/IRSensor/IR_Sensor_OUT2*%
X175934000Y-110567400D02*
X173110600Y-110567400D01*
X173110600Y-110567400D02*
X166637200Y-104094000D01*
%TO.N,/Communication/SWDIO*%
X116114100Y-75632800D02*
X105391900Y-86355000D01*
X105391900Y-86355000D02*
X105391900Y-97533200D01*
X105391900Y-97533200D02*
X106083400Y-98224700D01*
X106083400Y-98224700D02*
X106083400Y-112639200D01*
X177114100Y-99047500D02*
X176783999Y-98717399D01*
X178964200Y-99047500D02*
X177114100Y-99047500D01*
X184275400Y-93736300D02*
X178964200Y-99047500D01*
X185644700Y-78256500D02*
X185644700Y-81358000D01*
X151629100Y-62305300D02*
X158939260Y-54995140D01*
X158939260Y-54995140D02*
X162383340Y-54995140D01*
X185644700Y-81358000D02*
X184275400Y-82727300D01*
X176783999Y-98717399D02*
X175934000Y-97867400D01*
X141908500Y-62305300D02*
X151629100Y-62305300D01*
X184275400Y-82727300D02*
X184275400Y-93736300D01*
X162383340Y-54995140D02*
X185644700Y-78256500D01*
X138857900Y-65355900D02*
X141908500Y-62305300D01*
%TO.N,/Communication/SWCLK*%
X139317000Y-86261000D02*
X139592000Y-85986000D01*
X139592000Y-85986000D02*
X139592000Y-82065500D01*
X139592000Y-82065500D02*
X159966300Y-61691200D01*
X159966300Y-61691200D02*
X161847200Y-61691200D01*
X161847200Y-61691200D02*
X179659200Y-79503200D01*
X179659200Y-79503200D02*
X179659200Y-93334200D01*
X179659200Y-93334200D02*
X178841300Y-94152100D01*
X178841300Y-94152100D02*
X178474000Y-94152100D01*
X178474000Y-95327400D02*
X178474000Y-94152100D01*
X110683990Y-109101210D02*
X110683990Y-103437332D01*
X105463400Y-114321800D02*
X110683990Y-109101210D01*
X105463400Y-122455300D02*
X105463400Y-114321800D01*
%TO.N,/MicroController/Left_Motor_OUT1*%
X139335700Y-91571600D02*
X140267500Y-90639800D01*
X140267500Y-90639800D02*
X140267500Y-82027000D01*
X140267500Y-82027000D02*
X160152900Y-62141600D01*
X160152900Y-62141600D02*
X161660700Y-62141600D01*
X161660700Y-62141600D02*
X177298700Y-77779600D01*
X177298700Y-77779600D02*
X177298700Y-90804200D01*
X177298700Y-90804200D02*
X178106600Y-91612100D01*
X178106600Y-91612100D02*
X178474000Y-91612100D01*
X178474000Y-92787400D02*
X178474000Y-91612100D01*
%TO.N,/MicroController/Left_Motor_OUT2*%
X175934000Y-92787400D02*
X175934000Y-91612100D01*
X175934000Y-91612100D02*
X175566600Y-91612100D01*
X175566600Y-91612100D02*
X174758700Y-90804200D01*
X174758700Y-90804200D02*
X174758700Y-75947400D01*
X174758700Y-75947400D02*
X161403300Y-62592000D01*
X161403300Y-62592000D02*
X160339400Y-62592000D01*
X160339400Y-62592000D02*
X140820500Y-82110900D01*
X140820500Y-82110900D02*
X140820500Y-91815100D01*
X140820500Y-91815100D02*
X139774400Y-92861200D01*
%TO.N,/Communication/NRST*%
X151898999Y-116822401D02*
X145254777Y-116822401D01*
X145254777Y-116822401D02*
X145254478Y-116822700D01*
X153074000Y-115647400D02*
X151898999Y-116822401D01*
X107278800Y-122521474D02*
X107278800Y-121921200D01*
X110238326Y-125481000D02*
X107278800Y-122521474D01*
X136596178Y-125481000D02*
X110238326Y-125481000D01*
X145254777Y-116822401D02*
X136596178Y-125481000D01*
X107278800Y-121921200D02*
X107278800Y-122141600D01*
X107278800Y-118714500D02*
X107278800Y-121921200D01*
%TO.N,/MicroController/Right_Motor_OUT2*%
X153074000Y-113107400D02*
X151898700Y-113107400D01*
X151898700Y-113107400D02*
X151898700Y-113474700D01*
X151898700Y-113474700D02*
X151061300Y-114312100D01*
X151061300Y-114312100D02*
X142198600Y-114312100D01*
X142198600Y-114312100D02*
X128294000Y-100407500D01*
%TO.N,/MicroController/Right_Motor_OUT1*%
X150534000Y-113107400D02*
X143345000Y-113107400D01*
X143345000Y-113107400D02*
X128294000Y-98056400D01*
X128294000Y-98056400D02*
X128294000Y-97867500D01*
%TO.N,/Debug/LED6*%
X115974800Y-126400000D02*
X107658000Y-134716800D01*
X145627577Y-117722423D02*
X136950000Y-126400000D01*
X153374390Y-117722423D02*
X145627577Y-117722423D01*
X154656213Y-116440600D02*
X153374390Y-117722423D01*
X154709400Y-116440600D02*
X154656213Y-116440600D01*
X154709400Y-112202800D02*
X154709400Y-116440600D01*
X136950000Y-126400000D02*
X115974800Y-126400000D01*
X153074000Y-110567400D02*
X154709400Y-112202800D01*
%TO.N,/Debug/LED5*%
X151383999Y-111417399D02*
X150534000Y-110567400D01*
X153374500Y-111742700D02*
X151709300Y-111742700D01*
X154258900Y-116158500D02*
X154258900Y-112627100D01*
X145441176Y-117272412D02*
X153144988Y-117272412D01*
X136782188Y-125931400D02*
X145441176Y-117272412D01*
X102562100Y-125931400D02*
X136782188Y-125931400D01*
X153144988Y-117272412D02*
X154258900Y-116158500D01*
X154258900Y-112627100D02*
X153374500Y-111742700D01*
X102265000Y-125634300D02*
X102562100Y-125931400D01*
X151709300Y-111742700D02*
X151383999Y-111417399D01*
%TO.N,/Debug/LED4*%
X151898700Y-108027400D02*
X151898700Y-107660100D01*
X151898700Y-107660100D02*
X151069500Y-106830900D01*
X151069500Y-106830900D02*
X148333500Y-106830900D01*
X148333500Y-106830900D02*
X147527800Y-107636600D01*
X147527800Y-107636600D02*
X140234500Y-107636600D01*
X140234500Y-107636600D02*
X138611400Y-106013500D01*
X153074000Y-108027400D02*
X151898700Y-108027400D01*
%TO.N,/Debug/LED3*%
X149358700Y-108027400D02*
X149299100Y-108087000D01*
X149299100Y-108087000D02*
X139657400Y-108087000D01*
X139657400Y-108087000D02*
X135878900Y-104308500D01*
X135878900Y-104308500D02*
X135878900Y-83545500D01*
X135878900Y-83545500D02*
X135878800Y-83545500D01*
X150534000Y-108027400D02*
X149358700Y-108027400D01*
%TO.N,/Debug/LED2*%
X153074000Y-105487400D02*
X153074000Y-106662700D01*
X153074000Y-106662700D02*
X153441300Y-106662700D01*
X153441300Y-106662700D02*
X154293800Y-107515200D01*
X154293800Y-107515200D02*
X154293800Y-108482400D01*
X154293800Y-108482400D02*
X153529700Y-109246500D01*
X153529700Y-109246500D02*
X140180000Y-109246500D01*
X140180000Y-109246500D02*
X135153400Y-104219900D01*
X135153400Y-104219900D02*
X135153400Y-80449600D01*
X135153400Y-80449600D02*
X122875000Y-68171200D01*
X122875000Y-68171200D02*
X122875000Y-64761800D01*
X122875000Y-64761800D02*
X120975600Y-62862400D01*
X120975600Y-62862400D02*
X118948200Y-62862400D01*
X118948200Y-62862400D02*
X118442400Y-63368200D01*
X118442400Y-63368200D02*
X102285300Y-63368200D01*
X102285300Y-63368200D02*
X101138200Y-62221100D01*
%TO.N,/Debug/LED1*%
X124648800Y-68718000D02*
X137426500Y-81495700D01*
X137426500Y-81495700D02*
X137426500Y-103802800D01*
X137426500Y-103802800D02*
X139336700Y-105713000D01*
X139336700Y-105713000D02*
X139336700Y-106067500D01*
X139336700Y-106067500D02*
X140455300Y-107186100D01*
X140455300Y-107186100D02*
X147023200Y-107186100D01*
X147023200Y-107186100D02*
X148721900Y-105487400D01*
X148721900Y-105487400D02*
X149358700Y-105487400D01*
X150534000Y-105487400D02*
X149358700Y-105487400D01*
%TO.N,/Debug/Button2*%
X153074000Y-104122700D02*
X153441300Y-104122700D01*
X153441300Y-104122700D02*
X155202500Y-105883900D01*
X155202500Y-105883900D02*
X155202500Y-116652700D01*
X155202500Y-116652700D02*
X145804700Y-126050500D01*
X145804700Y-126050500D02*
X145645500Y-126050500D01*
X153074000Y-102947400D02*
X153074000Y-104122700D01*
%TO.N,/Debug/Button1*%
X150534000Y-102947400D02*
X149358700Y-102947400D01*
X149358700Y-102947400D02*
X145570400Y-106735700D01*
X145570400Y-106735700D02*
X140641800Y-106735700D01*
X140641800Y-106735700D02*
X139798800Y-105892700D01*
X139798800Y-105892700D02*
X139798800Y-97848000D01*
X139798800Y-97848000D02*
X138062800Y-96112000D01*
X138062800Y-96112000D02*
X138062800Y-79286800D01*
X138062800Y-79286800D02*
X120271700Y-61495700D01*
X120271700Y-61495700D02*
X108573100Y-61495700D01*
X108573100Y-61495700D02*
X106930400Y-59853000D01*
%TO.N,/Communication/UART_RX*%
X153074000Y-100407400D02*
X153074000Y-99232100D01*
X153074000Y-99232100D02*
X153441300Y-99232100D01*
X153441300Y-99232100D02*
X154264000Y-98409400D01*
X154264000Y-98409400D02*
X154264000Y-94811500D01*
X154264000Y-94811500D02*
X153604200Y-94151700D01*
X153604200Y-94151700D02*
X149751100Y-94151700D01*
X149751100Y-94151700D02*
X145438400Y-98464400D01*
X145438400Y-98464400D02*
X143327600Y-98464400D01*
X143327600Y-98464400D02*
X138589400Y-93726200D01*
X138589400Y-93726200D02*
X138589400Y-83688000D01*
X138589400Y-83688000D02*
X138788200Y-83489200D01*
%TO.N,/MicroController/BAT_REF*%
X149358700Y-92787400D02*
X149358700Y-93146800D01*
X149358700Y-93146800D02*
X144491500Y-98014000D01*
X144491500Y-98014000D02*
X143514100Y-98014000D01*
X143514100Y-98014000D02*
X141590300Y-96090200D01*
X141590300Y-96090200D02*
X141590300Y-84230000D01*
X141590300Y-84230000D02*
X141590200Y-84230000D01*
X150534000Y-92787400D02*
X149358700Y-92787400D01*
%TO.N,Net-(Q1-Pad1)*%
X109689700Y-69251900D02*
X108506100Y-69272600D01*
X108506100Y-69272600D02*
X108506100Y-70435500D01*
X108506100Y-70435500D02*
X104885300Y-74056300D01*
X104885300Y-74056300D02*
X104885300Y-107725000D01*
%TO.N,Net-(J4-Pad1)*%
X120674000Y-92787500D02*
X118209100Y-90322600D01*
X118209100Y-90322600D02*
X118209100Y-65816400D01*
X118209100Y-65816400D02*
X119984000Y-64041500D01*
%TO.N,Net-(J4-Pad2)*%
X119984000Y-66541500D02*
X119984000Y-67716800D01*
X120674000Y-90247500D02*
X118659500Y-88233000D01*
X118659500Y-88233000D02*
X118659500Y-68527100D01*
X118659500Y-68527100D02*
X119469800Y-67716800D01*
X119469800Y-67716800D02*
X119984000Y-67716800D01*
%TO.N,Net-(J5-Pad2)*%
X119984000Y-114291000D02*
X119984000Y-113115700D01*
X120674000Y-95327500D02*
X119023400Y-96978100D01*
X119023400Y-96978100D02*
X119023400Y-110536600D01*
X119023400Y-110536600D02*
X118660400Y-110899600D01*
X118660400Y-110899600D02*
X118660400Y-112673600D01*
X118660400Y-112673600D02*
X119102500Y-113115700D01*
X119102500Y-113115700D02*
X119984000Y-113115700D01*
%TO.N,Net-(J5-Pad1)*%
X119984000Y-111791000D02*
X119473800Y-111280800D01*
X119473800Y-111280800D02*
X119473800Y-99067700D01*
X119473800Y-99067700D02*
X120674000Y-97867500D01*
%TD*%
D22*
%TO.N,GND*%
X133290400Y-83109502D02*
X133290401Y-87523088D01*
X133246463Y-87567026D01*
X133133195Y-87736544D01*
X133055174Y-87924902D01*
X133015400Y-88124861D01*
X133015400Y-88328739D01*
X133055174Y-88528698D01*
X133133195Y-88717056D01*
X133246463Y-88886574D01*
X133390626Y-89030737D01*
X133560144Y-89144005D01*
X133748502Y-89222026D01*
X133948461Y-89261800D01*
X134152339Y-89261800D01*
X134352298Y-89222026D01*
X134393401Y-89205001D01*
X134393400Y-103080999D01*
X129690044Y-98377643D01*
X129721932Y-98300658D01*
X129779000Y-98013760D01*
X129779000Y-97721240D01*
X129721932Y-97434342D01*
X129609990Y-97164089D01*
X129447475Y-96920868D01*
X129240632Y-96714025D01*
X129066240Y-96597500D01*
X129240632Y-96480975D01*
X129447475Y-96274132D01*
X129609990Y-96030911D01*
X129721932Y-95760658D01*
X129779000Y-95473760D01*
X129779000Y-95181240D01*
X129721932Y-94894342D01*
X129609990Y-94624089D01*
X129447475Y-94380868D01*
X129240632Y-94174025D01*
X129066240Y-94057500D01*
X129240632Y-93940975D01*
X129447475Y-93734132D01*
X129609990Y-93490911D01*
X129721932Y-93220658D01*
X129779000Y-92933760D01*
X129779000Y-92641240D01*
X129721932Y-92354342D01*
X129609990Y-92084089D01*
X129447475Y-91840868D01*
X129240632Y-91634025D01*
X129067271Y-91518189D01*
X129142792Y-91275897D01*
X128294000Y-90427105D01*
X127445208Y-91275897D01*
X127520729Y-91518189D01*
X127347368Y-91634025D01*
X127140525Y-91840868D01*
X126978010Y-92084089D01*
X126866068Y-92354342D01*
X126809000Y-92641240D01*
X126809000Y-92933760D01*
X126866068Y-93220658D01*
X126978010Y-93490911D01*
X127140525Y-93734132D01*
X127347368Y-93940975D01*
X127521760Y-94057500D01*
X127347368Y-94174025D01*
X127140525Y-94380868D01*
X126978010Y-94624089D01*
X126866068Y-94894342D01*
X126809000Y-95181240D01*
X126809000Y-95473760D01*
X126866068Y-95760658D01*
X126978010Y-96030911D01*
X127140525Y-96274132D01*
X127347368Y-96480975D01*
X127521760Y-96597500D01*
X127347368Y-96714025D01*
X127140525Y-96920868D01*
X126978010Y-97164089D01*
X126866068Y-97434342D01*
X126809000Y-97721240D01*
X126809000Y-98013760D01*
X126866068Y-98300658D01*
X126978010Y-98570911D01*
X127140525Y-98814132D01*
X127347368Y-99020975D01*
X127521760Y-99137500D01*
X127347368Y-99254025D01*
X127140525Y-99460868D01*
X126978010Y-99704089D01*
X126866068Y-99974342D01*
X126809000Y-100261240D01*
X126809000Y-100553760D01*
X126866068Y-100840658D01*
X126978010Y-101110911D01*
X127140525Y-101354132D01*
X127347368Y-101560975D01*
X127590589Y-101723490D01*
X127860842Y-101835432D01*
X128147740Y-101892500D01*
X128440260Y-101892500D01*
X128660408Y-101848709D01*
X141624098Y-114812400D01*
X128243618Y-114812400D01*
X128202599Y-114808360D01*
X128161581Y-114812400D01*
X128038911Y-114824482D01*
X127881513Y-114872228D01*
X127736454Y-114949764D01*
X127609309Y-115054109D01*
X127591067Y-115076337D01*
X127448102Y-115104774D01*
X127259744Y-115182795D01*
X127090226Y-115296063D01*
X126946063Y-115440226D01*
X126832795Y-115609744D01*
X126754774Y-115798102D01*
X126715000Y-115998061D01*
X126715000Y-116201939D01*
X126754774Y-116401898D01*
X126832795Y-116590256D01*
X126946063Y-116759774D01*
X127090226Y-116903937D01*
X127259744Y-117017205D01*
X127448102Y-117095226D01*
X127648061Y-117135000D01*
X127851939Y-117135000D01*
X128051898Y-117095226D01*
X128240256Y-117017205D01*
X128409774Y-116903937D01*
X128553937Y-116759774D01*
X128667205Y-116590256D01*
X128711881Y-116482400D01*
X144519976Y-116482400D01*
X136281377Y-124721000D01*
X121524864Y-124721000D01*
X121550476Y-124647890D01*
X121429155Y-124418000D01*
X120111000Y-124418000D01*
X120111000Y-124438000D01*
X119857000Y-124438000D01*
X119857000Y-124418000D01*
X118538845Y-124418000D01*
X118417524Y-124647890D01*
X118443136Y-124721000D01*
X112131657Y-124721000D01*
X112051257Y-124618000D01*
X110861000Y-124618000D01*
X110861000Y-124638000D01*
X110607000Y-124638000D01*
X110607000Y-124618000D01*
X110587000Y-124618000D01*
X110587000Y-124364000D01*
X110607000Y-124364000D01*
X110607000Y-124344000D01*
X110861000Y-124344000D01*
X110861000Y-124364000D01*
X112051257Y-124364000D01*
X112178540Y-124200938D01*
X112110916Y-124007692D01*
X111998336Y-123831269D01*
X111853501Y-123680199D01*
X111797072Y-123640750D01*
X111797072Y-122816000D01*
X111784812Y-122691518D01*
X111748502Y-122571820D01*
X111689537Y-122461506D01*
X111610185Y-122364815D01*
X111513494Y-122285463D01*
X111403180Y-122226498D01*
X111283482Y-122190188D01*
X111159000Y-122177928D01*
X110309000Y-122177928D01*
X110184518Y-122190188D01*
X110064820Y-122226498D01*
X109954506Y-122285463D01*
X109857815Y-122364815D01*
X109778463Y-122461506D01*
X109719498Y-122571820D01*
X109683188Y-122691518D01*
X109670928Y-122816000D01*
X109670928Y-123640750D01*
X109614499Y-123680199D01*
X109564489Y-123732362D01*
X108038800Y-122206673D01*
X108038800Y-119418211D01*
X108082737Y-119374274D01*
X108196005Y-119204756D01*
X108274026Y-119016398D01*
X108313800Y-118816439D01*
X108313800Y-118612561D01*
X108274026Y-118412602D01*
X108196005Y-118224244D01*
X108082737Y-118054726D01*
X107938574Y-117910563D01*
X107769056Y-117797295D01*
X107580698Y-117719274D01*
X107380739Y-117679500D01*
X107176861Y-117679500D01*
X106976902Y-117719274D01*
X106788544Y-117797295D01*
X106619026Y-117910563D01*
X106474863Y-118054726D01*
X106361595Y-118224244D01*
X106283574Y-118412602D01*
X106243800Y-118612561D01*
X106243800Y-118816439D01*
X106283574Y-119016398D01*
X106361595Y-119204756D01*
X106474863Y-119374274D01*
X106518800Y-119418211D01*
X106518801Y-121883857D01*
X106518800Y-121883867D01*
X106518800Y-122484152D01*
X106515124Y-122521474D01*
X106518800Y-122558796D01*
X106518800Y-122558806D01*
X106529797Y-122670459D01*
X106561152Y-122773824D01*
X106573254Y-122813720D01*
X106643826Y-122945750D01*
X106671563Y-122979547D01*
X106738799Y-123061475D01*
X106767803Y-123085278D01*
X108853924Y-125171400D01*
X103193536Y-125171400D01*
X103182205Y-125144044D01*
X103068937Y-124974526D01*
X102924774Y-124830363D01*
X102755256Y-124717095D01*
X102566898Y-124639074D01*
X102366939Y-124599300D01*
X102163061Y-124599300D01*
X101963102Y-124639074D01*
X101774744Y-124717095D01*
X101605226Y-124830363D01*
X101461063Y-124974526D01*
X101347795Y-125144044D01*
X101269774Y-125332402D01*
X101230000Y-125532361D01*
X101230000Y-125736239D01*
X101269774Y-125936198D01*
X101347795Y-126124556D01*
X101461063Y-126294074D01*
X101605226Y-126438237D01*
X101774744Y-126551505D01*
X101963102Y-126629526D01*
X102163061Y-126669300D01*
X102366939Y-126669300D01*
X102372721Y-126668150D01*
X102413114Y-126680403D01*
X102524767Y-126691400D01*
X102524777Y-126691400D01*
X102562100Y-126695076D01*
X102599423Y-126691400D01*
X114608598Y-126691400D01*
X107618199Y-133681800D01*
X107556061Y-133681800D01*
X107356102Y-133721574D01*
X107167744Y-133799595D01*
X106998226Y-133912863D01*
X106854063Y-134057026D01*
X106740795Y-134226544D01*
X106662774Y-134414902D01*
X106623000Y-134614861D01*
X106623000Y-134818739D01*
X106662774Y-135018698D01*
X106740795Y-135207056D01*
X106820564Y-135326439D01*
X99226920Y-135326435D01*
X99226921Y-104724905D01*
X99269463Y-104804494D01*
X99348815Y-104901185D01*
X99445506Y-104980537D01*
X99555820Y-105039502D01*
X99675518Y-105075812D01*
X99800000Y-105088072D01*
X100364250Y-105085000D01*
X100523000Y-104926250D01*
X100523000Y-103727000D01*
X100503000Y-103727000D01*
X100503000Y-103473000D01*
X100523000Y-103473000D01*
X100523000Y-102273750D01*
X100364250Y-102115000D01*
X99800000Y-102111928D01*
X99675518Y-102124188D01*
X99555820Y-102160498D01*
X99445506Y-102219463D01*
X99348815Y-102298815D01*
X99269463Y-102395506D01*
X99226921Y-102475095D01*
X99226922Y-87063583D01*
X99298815Y-87151185D01*
X99395506Y-87230537D01*
X99505820Y-87289502D01*
X99565000Y-87307454D01*
X99565001Y-97399162D01*
X99559994Y-97450000D01*
X99579977Y-97652895D01*
X99639160Y-97847993D01*
X99735266Y-98027797D01*
X99789378Y-98093732D01*
X99864605Y-98185396D01*
X99904092Y-98217802D01*
X102015000Y-100328711D01*
X102015000Y-102376574D01*
X101951185Y-102298815D01*
X101854494Y-102219463D01*
X101744180Y-102160498D01*
X101624482Y-102124188D01*
X101500000Y-102111928D01*
X100935750Y-102115000D01*
X100777000Y-102273750D01*
X100777000Y-103473000D01*
X100797000Y-103473000D01*
X100797000Y-103727000D01*
X100777000Y-103727000D01*
X100777000Y-104926250D01*
X100935750Y-105085000D01*
X101500000Y-105088072D01*
X101624482Y-105075812D01*
X101744180Y-105039502D01*
X101854494Y-104980537D01*
X101951185Y-104901185D01*
X102015000Y-104823425D01*
X102015001Y-110398056D01*
X102015000Y-110398061D01*
X102015000Y-110601939D01*
X102024971Y-110652067D01*
X102029977Y-110702895D01*
X102044803Y-110751768D01*
X102054774Y-110801898D01*
X102074335Y-110849122D01*
X102089160Y-110897993D01*
X102113235Y-110943034D01*
X102132795Y-110990256D01*
X102161191Y-111032753D01*
X102185267Y-111077797D01*
X102217668Y-111117278D01*
X102246063Y-111159774D01*
X102282203Y-111195914D01*
X102314605Y-111235396D01*
X102354087Y-111267798D01*
X102390226Y-111303937D01*
X102432721Y-111332331D01*
X102472204Y-111364734D01*
X102517250Y-111388812D01*
X102559744Y-111417205D01*
X102606962Y-111436763D01*
X102652008Y-111460841D01*
X102700884Y-111475668D01*
X102748102Y-111495226D01*
X102798226Y-111505196D01*
X102847106Y-111520024D01*
X102897942Y-111525031D01*
X102948061Y-111535000D01*
X102999162Y-111535000D01*
X103050000Y-111540007D01*
X103100838Y-111535000D01*
X103151939Y-111535000D01*
X103202057Y-111525031D01*
X103252895Y-111520024D01*
X103301777Y-111505196D01*
X103351898Y-111495226D01*
X103399113Y-111475669D01*
X103447993Y-111460841D01*
X103493042Y-111436762D01*
X103540256Y-111417205D01*
X103582746Y-111388814D01*
X103627797Y-111364734D01*
X103667284Y-111332328D01*
X103709774Y-111303937D01*
X103745908Y-111267803D01*
X103785396Y-111235396D01*
X103817803Y-111195908D01*
X103853937Y-111159774D01*
X103882328Y-111117284D01*
X103914734Y-111077797D01*
X103938814Y-111032746D01*
X103967205Y-110990256D01*
X103986762Y-110943042D01*
X104010841Y-110897993D01*
X104025669Y-110849113D01*
X104045226Y-110801898D01*
X104055196Y-110751777D01*
X104070024Y-110702895D01*
X104075031Y-110652057D01*
X104085000Y-110601939D01*
X104085000Y-108388411D01*
X104225526Y-108528937D01*
X104395044Y-108642205D01*
X104583402Y-108720226D01*
X104783361Y-108760000D01*
X104987239Y-108760000D01*
X105187198Y-108720226D01*
X105323401Y-108663809D01*
X105323401Y-111935488D01*
X105279463Y-111979426D01*
X105166195Y-112148944D01*
X105088174Y-112337302D01*
X105048400Y-112537261D01*
X105048400Y-112741139D01*
X105088174Y-112941098D01*
X105166195Y-113129456D01*
X105279463Y-113298974D01*
X105345444Y-113364955D01*
X104952398Y-113758001D01*
X104923400Y-113781799D01*
X104899602Y-113810797D01*
X104899601Y-113810798D01*
X104828426Y-113897524D01*
X104757854Y-114029554D01*
X104728166Y-114127427D01*
X104717341Y-114163114D01*
X104714398Y-114172815D01*
X104699724Y-114321800D01*
X104703401Y-114359132D01*
X104703400Y-121751589D01*
X104659463Y-121795526D01*
X104546195Y-121965044D01*
X104468174Y-122153402D01*
X104428400Y-122353361D01*
X104428400Y-122557239D01*
X104468174Y-122757198D01*
X104546195Y-122945556D01*
X104659463Y-123115074D01*
X104803626Y-123259237D01*
X104973144Y-123372505D01*
X105161502Y-123450526D01*
X105361461Y-123490300D01*
X105565339Y-123490300D01*
X105765298Y-123450526D01*
X105953656Y-123372505D01*
X106123174Y-123259237D01*
X106267337Y-123115074D01*
X106380605Y-122945556D01*
X106458626Y-122757198D01*
X106498400Y-122557239D01*
X106498400Y-122353361D01*
X106458626Y-122153402D01*
X106380605Y-121965044D01*
X106267337Y-121795526D01*
X106223400Y-121751589D01*
X106223400Y-116241000D01*
X109243872Y-116241000D01*
X109264338Y-116448796D01*
X109324950Y-116648607D01*
X109423378Y-116832753D01*
X109555841Y-116994159D01*
X109717247Y-117126622D01*
X109901393Y-117225050D01*
X110101204Y-117285662D01*
X110256934Y-117301000D01*
X111211066Y-117301000D01*
X111366796Y-117285662D01*
X111566607Y-117225050D01*
X111750753Y-117126622D01*
X111912159Y-116994159D01*
X112044622Y-116832753D01*
X112143050Y-116648607D01*
X112203662Y-116448796D01*
X112224128Y-116241000D01*
X112203662Y-116033204D01*
X112143050Y-115833393D01*
X112044622Y-115649247D01*
X111912159Y-115487841D01*
X111797072Y-115393391D01*
X111797072Y-114566000D01*
X111784812Y-114441518D01*
X111748502Y-114321820D01*
X111689537Y-114211506D01*
X111610185Y-114114815D01*
X111513494Y-114035463D01*
X111403180Y-113976498D01*
X111283482Y-113940188D01*
X111159000Y-113927928D01*
X110309000Y-113927928D01*
X110184518Y-113940188D01*
X110064820Y-113976498D01*
X109954506Y-114035463D01*
X109857815Y-114114815D01*
X109778463Y-114211506D01*
X109719498Y-114321820D01*
X109683188Y-114441518D01*
X109670928Y-114566000D01*
X109670928Y-115393391D01*
X109555841Y-115487841D01*
X109423378Y-115649247D01*
X109324950Y-115833393D01*
X109264338Y-116033204D01*
X109243872Y-116241000D01*
X106223400Y-116241000D01*
X106223400Y-114636601D01*
X111194994Y-109665008D01*
X111223991Y-109641211D01*
X111318964Y-109525486D01*
X111389536Y-109393457D01*
X111432993Y-109250196D01*
X111443990Y-109138543D01*
X111443990Y-109138534D01*
X111447666Y-109101211D01*
X111443990Y-109063888D01*
X111443990Y-108898257D01*
X118579777Y-116034046D01*
X118480401Y-116219966D01*
X118395487Y-116499889D01*
X118366815Y-116791000D01*
X118395487Y-117082111D01*
X118480401Y-117362034D01*
X118618294Y-117620014D01*
X118803866Y-117846134D01*
X119029986Y-118031706D01*
X119047374Y-118041000D01*
X119029986Y-118050294D01*
X118803866Y-118235866D01*
X118618294Y-118461986D01*
X118480401Y-118719966D01*
X118395487Y-118999889D01*
X118366815Y-119291000D01*
X118395487Y-119582111D01*
X118480401Y-119862034D01*
X118618294Y-120120014D01*
X118803866Y-120346134D01*
X119029986Y-120531706D01*
X119047374Y-120541000D01*
X119029986Y-120550294D01*
X118803866Y-120735866D01*
X118618294Y-120961986D01*
X118480401Y-121219966D01*
X118395487Y-121499889D01*
X118366815Y-121791000D01*
X118395487Y-122082111D01*
X118480401Y-122362034D01*
X118618294Y-122620014D01*
X118803866Y-122846134D01*
X119029986Y-123031706D01*
X119055722Y-123045462D01*
X118849571Y-123201951D01*
X118656504Y-123419807D01*
X118509648Y-123671142D01*
X118417524Y-123934110D01*
X118538845Y-124164000D01*
X119857000Y-124164000D01*
X119857000Y-124144000D01*
X120111000Y-124144000D01*
X120111000Y-124164000D01*
X121429155Y-124164000D01*
X121550476Y-123934110D01*
X121458352Y-123671142D01*
X121311496Y-123419807D01*
X121118429Y-123201951D01*
X120912278Y-123045462D01*
X120938014Y-123031706D01*
X121164134Y-122846134D01*
X121333779Y-122639420D01*
X125745381Y-122639420D01*
X125745381Y-122983458D01*
X125812499Y-123320886D01*
X125944157Y-123638736D01*
X126135294Y-123924793D01*
X126378566Y-124168065D01*
X126664623Y-124359202D01*
X126982473Y-124490860D01*
X127319901Y-124557978D01*
X127663939Y-124557978D01*
X128001367Y-124490860D01*
X128319217Y-124359202D01*
X128605274Y-124168065D01*
X128848546Y-123924793D01*
X129039683Y-123638736D01*
X129171341Y-123320886D01*
X129238459Y-122983458D01*
X129238459Y-122639420D01*
X129171341Y-122301992D01*
X129039683Y-121984142D01*
X128848546Y-121698085D01*
X128605274Y-121454813D01*
X128319217Y-121263676D01*
X128001367Y-121132018D01*
X127663939Y-121064900D01*
X127319901Y-121064900D01*
X126982473Y-121132018D01*
X126664623Y-121263676D01*
X126378566Y-121454813D01*
X126135294Y-121698085D01*
X125944157Y-121984142D01*
X125812499Y-122301992D01*
X125745381Y-122639420D01*
X121333779Y-122639420D01*
X121349706Y-122620014D01*
X121487599Y-122362034D01*
X121572513Y-122082111D01*
X121601185Y-121791000D01*
X121572513Y-121499889D01*
X121487599Y-121219966D01*
X121349706Y-120961986D01*
X121164134Y-120735866D01*
X120938014Y-120550294D01*
X120920626Y-120541000D01*
X120938014Y-120531706D01*
X121164134Y-120346134D01*
X121349706Y-120120014D01*
X121487599Y-119862034D01*
X121572513Y-119582111D01*
X121601185Y-119291000D01*
X121572513Y-118999889D01*
X121487599Y-118719966D01*
X121349706Y-118461986D01*
X121164134Y-118235866D01*
X120938014Y-118050294D01*
X120920626Y-118041000D01*
X120938014Y-118031706D01*
X121164134Y-117846134D01*
X121349706Y-117620014D01*
X121487599Y-117362034D01*
X121572513Y-117082111D01*
X121601185Y-116791000D01*
X121572513Y-116499889D01*
X121487599Y-116219966D01*
X121394492Y-116045775D01*
X125924633Y-111515636D01*
X125956491Y-111489491D01*
X125985785Y-111453797D01*
X126060836Y-111362346D01*
X126138372Y-111217287D01*
X126161888Y-111139764D01*
X126186118Y-111059889D01*
X126198200Y-110937219D01*
X126198200Y-110937218D01*
X126202240Y-110896200D01*
X126198200Y-110855182D01*
X126198200Y-90984167D01*
X126811367Y-90371001D01*
X126845401Y-90605519D01*
X126943081Y-90881247D01*
X127016528Y-91018657D01*
X127265603Y-91096292D01*
X128114395Y-90247500D01*
X128473605Y-90247500D01*
X129322397Y-91096292D01*
X129571472Y-91018657D01*
X129697371Y-90754617D01*
X129769339Y-90471089D01*
X129784611Y-90178969D01*
X129742599Y-89889481D01*
X129644919Y-89613753D01*
X129571472Y-89476343D01*
X129322397Y-89398708D01*
X128473605Y-90247500D01*
X128114395Y-90247500D01*
X128100253Y-90233358D01*
X128279858Y-90053753D01*
X128294000Y-90067895D01*
X129142792Y-89219103D01*
X129067271Y-88976811D01*
X129240632Y-88860975D01*
X129447475Y-88654132D01*
X129609990Y-88410911D01*
X129721932Y-88140658D01*
X129779000Y-87853760D01*
X129779000Y-87561240D01*
X129721932Y-87274342D01*
X129609990Y-87004089D01*
X129447475Y-86760868D01*
X129240632Y-86554025D01*
X128997411Y-86391510D01*
X128893300Y-86348386D01*
X128893300Y-78712401D01*
X133290400Y-83109502D01*
%TA.AperFunction,Conductor*%
D23*
G36*
X133290400Y-83109502D02*
G01*
X133290401Y-87523088D01*
X133246463Y-87567026D01*
X133133195Y-87736544D01*
X133055174Y-87924902D01*
X133015400Y-88124861D01*
X133015400Y-88328739D01*
X133055174Y-88528698D01*
X133133195Y-88717056D01*
X133246463Y-88886574D01*
X133390626Y-89030737D01*
X133560144Y-89144005D01*
X133748502Y-89222026D01*
X133948461Y-89261800D01*
X134152339Y-89261800D01*
X134352298Y-89222026D01*
X134393401Y-89205001D01*
X134393400Y-103080999D01*
X129690044Y-98377643D01*
X129721932Y-98300658D01*
X129779000Y-98013760D01*
X129779000Y-97721240D01*
X129721932Y-97434342D01*
X129609990Y-97164089D01*
X129447475Y-96920868D01*
X129240632Y-96714025D01*
X129066240Y-96597500D01*
X129240632Y-96480975D01*
X129447475Y-96274132D01*
X129609990Y-96030911D01*
X129721932Y-95760658D01*
X129779000Y-95473760D01*
X129779000Y-95181240D01*
X129721932Y-94894342D01*
X129609990Y-94624089D01*
X129447475Y-94380868D01*
X129240632Y-94174025D01*
X129066240Y-94057500D01*
X129240632Y-93940975D01*
X129447475Y-93734132D01*
X129609990Y-93490911D01*
X129721932Y-93220658D01*
X129779000Y-92933760D01*
X129779000Y-92641240D01*
X129721932Y-92354342D01*
X129609990Y-92084089D01*
X129447475Y-91840868D01*
X129240632Y-91634025D01*
X129067271Y-91518189D01*
X129142792Y-91275897D01*
X128294000Y-90427105D01*
X127445208Y-91275897D01*
X127520729Y-91518189D01*
X127347368Y-91634025D01*
X127140525Y-91840868D01*
X126978010Y-92084089D01*
X126866068Y-92354342D01*
X126809000Y-92641240D01*
X126809000Y-92933760D01*
X126866068Y-93220658D01*
X126978010Y-93490911D01*
X127140525Y-93734132D01*
X127347368Y-93940975D01*
X127521760Y-94057500D01*
X127347368Y-94174025D01*
X127140525Y-94380868D01*
X126978010Y-94624089D01*
X126866068Y-94894342D01*
X126809000Y-95181240D01*
X126809000Y-95473760D01*
X126866068Y-95760658D01*
X126978010Y-96030911D01*
X127140525Y-96274132D01*
X127347368Y-96480975D01*
X127521760Y-96597500D01*
X127347368Y-96714025D01*
X127140525Y-96920868D01*
X126978010Y-97164089D01*
X126866068Y-97434342D01*
X126809000Y-97721240D01*
X126809000Y-98013760D01*
X126866068Y-98300658D01*
X126978010Y-98570911D01*
X127140525Y-98814132D01*
X127347368Y-99020975D01*
X127521760Y-99137500D01*
X127347368Y-99254025D01*
X127140525Y-99460868D01*
X126978010Y-99704089D01*
X126866068Y-99974342D01*
X126809000Y-100261240D01*
X126809000Y-100553760D01*
X126866068Y-100840658D01*
X126978010Y-101110911D01*
X127140525Y-101354132D01*
X127347368Y-101560975D01*
X127590589Y-101723490D01*
X127860842Y-101835432D01*
X128147740Y-101892500D01*
X128440260Y-101892500D01*
X128660408Y-101848709D01*
X141624098Y-114812400D01*
X128243618Y-114812400D01*
X128202599Y-114808360D01*
X128161581Y-114812400D01*
X128038911Y-114824482D01*
X127881513Y-114872228D01*
X127736454Y-114949764D01*
X127609309Y-115054109D01*
X127591067Y-115076337D01*
X127448102Y-115104774D01*
X127259744Y-115182795D01*
X127090226Y-115296063D01*
X126946063Y-115440226D01*
X126832795Y-115609744D01*
X126754774Y-115798102D01*
X126715000Y-115998061D01*
X126715000Y-116201939D01*
X126754774Y-116401898D01*
X126832795Y-116590256D01*
X126946063Y-116759774D01*
X127090226Y-116903937D01*
X127259744Y-117017205D01*
X127448102Y-117095226D01*
X127648061Y-117135000D01*
X127851939Y-117135000D01*
X128051898Y-117095226D01*
X128240256Y-117017205D01*
X128409774Y-116903937D01*
X128553937Y-116759774D01*
X128667205Y-116590256D01*
X128711881Y-116482400D01*
X144519976Y-116482400D01*
X136281377Y-124721000D01*
X121524864Y-124721000D01*
X121550476Y-124647890D01*
X121429155Y-124418000D01*
X120111000Y-124418000D01*
X120111000Y-124438000D01*
X119857000Y-124438000D01*
X119857000Y-124418000D01*
X118538845Y-124418000D01*
X118417524Y-124647890D01*
X118443136Y-124721000D01*
X112131657Y-124721000D01*
X112051257Y-124618000D01*
X110861000Y-124618000D01*
X110861000Y-124638000D01*
X110607000Y-124638000D01*
X110607000Y-124618000D01*
X110587000Y-124618000D01*
X110587000Y-124364000D01*
X110607000Y-124364000D01*
X110607000Y-124344000D01*
X110861000Y-124344000D01*
X110861000Y-124364000D01*
X112051257Y-124364000D01*
X112178540Y-124200938D01*
X112110916Y-124007692D01*
X111998336Y-123831269D01*
X111853501Y-123680199D01*
X111797072Y-123640750D01*
X111797072Y-122816000D01*
X111784812Y-122691518D01*
X111748502Y-122571820D01*
X111689537Y-122461506D01*
X111610185Y-122364815D01*
X111513494Y-122285463D01*
X111403180Y-122226498D01*
X111283482Y-122190188D01*
X111159000Y-122177928D01*
X110309000Y-122177928D01*
X110184518Y-122190188D01*
X110064820Y-122226498D01*
X109954506Y-122285463D01*
X109857815Y-122364815D01*
X109778463Y-122461506D01*
X109719498Y-122571820D01*
X109683188Y-122691518D01*
X109670928Y-122816000D01*
X109670928Y-123640750D01*
X109614499Y-123680199D01*
X109564489Y-123732362D01*
X108038800Y-122206673D01*
X108038800Y-119418211D01*
X108082737Y-119374274D01*
X108196005Y-119204756D01*
X108274026Y-119016398D01*
X108313800Y-118816439D01*
X108313800Y-118612561D01*
X108274026Y-118412602D01*
X108196005Y-118224244D01*
X108082737Y-118054726D01*
X107938574Y-117910563D01*
X107769056Y-117797295D01*
X107580698Y-117719274D01*
X107380739Y-117679500D01*
X107176861Y-117679500D01*
X106976902Y-117719274D01*
X106788544Y-117797295D01*
X106619026Y-117910563D01*
X106474863Y-118054726D01*
X106361595Y-118224244D01*
X106283574Y-118412602D01*
X106243800Y-118612561D01*
X106243800Y-118816439D01*
X106283574Y-119016398D01*
X106361595Y-119204756D01*
X106474863Y-119374274D01*
X106518800Y-119418211D01*
X106518801Y-121883857D01*
X106518800Y-121883867D01*
X106518800Y-122484152D01*
X106515124Y-122521474D01*
X106518800Y-122558796D01*
X106518800Y-122558806D01*
X106529797Y-122670459D01*
X106561152Y-122773824D01*
X106573254Y-122813720D01*
X106643826Y-122945750D01*
X106671563Y-122979547D01*
X106738799Y-123061475D01*
X106767803Y-123085278D01*
X108853924Y-125171400D01*
X103193536Y-125171400D01*
X103182205Y-125144044D01*
X103068937Y-124974526D01*
X102924774Y-124830363D01*
X102755256Y-124717095D01*
X102566898Y-124639074D01*
X102366939Y-124599300D01*
X102163061Y-124599300D01*
X101963102Y-124639074D01*
X101774744Y-124717095D01*
X101605226Y-124830363D01*
X101461063Y-124974526D01*
X101347795Y-125144044D01*
X101269774Y-125332402D01*
X101230000Y-125532361D01*
X101230000Y-125736239D01*
X101269774Y-125936198D01*
X101347795Y-126124556D01*
X101461063Y-126294074D01*
X101605226Y-126438237D01*
X101774744Y-126551505D01*
X101963102Y-126629526D01*
X102163061Y-126669300D01*
X102366939Y-126669300D01*
X102372721Y-126668150D01*
X102413114Y-126680403D01*
X102524767Y-126691400D01*
X102524777Y-126691400D01*
X102562100Y-126695076D01*
X102599423Y-126691400D01*
X114608598Y-126691400D01*
X107618199Y-133681800D01*
X107556061Y-133681800D01*
X107356102Y-133721574D01*
X107167744Y-133799595D01*
X106998226Y-133912863D01*
X106854063Y-134057026D01*
X106740795Y-134226544D01*
X106662774Y-134414902D01*
X106623000Y-134614861D01*
X106623000Y-134818739D01*
X106662774Y-135018698D01*
X106740795Y-135207056D01*
X106820564Y-135326439D01*
X99226920Y-135326435D01*
X99226921Y-104724905D01*
X99269463Y-104804494D01*
X99348815Y-104901185D01*
X99445506Y-104980537D01*
X99555820Y-105039502D01*
X99675518Y-105075812D01*
X99800000Y-105088072D01*
X100364250Y-105085000D01*
X100523000Y-104926250D01*
X100523000Y-103727000D01*
X100503000Y-103727000D01*
X100503000Y-103473000D01*
X100523000Y-103473000D01*
X100523000Y-102273750D01*
X100364250Y-102115000D01*
X99800000Y-102111928D01*
X99675518Y-102124188D01*
X99555820Y-102160498D01*
X99445506Y-102219463D01*
X99348815Y-102298815D01*
X99269463Y-102395506D01*
X99226921Y-102475095D01*
X99226922Y-87063583D01*
X99298815Y-87151185D01*
X99395506Y-87230537D01*
X99505820Y-87289502D01*
X99565000Y-87307454D01*
X99565001Y-97399162D01*
X99559994Y-97450000D01*
X99579977Y-97652895D01*
X99639160Y-97847993D01*
X99735266Y-98027797D01*
X99789378Y-98093732D01*
X99864605Y-98185396D01*
X99904092Y-98217802D01*
X102015000Y-100328711D01*
X102015000Y-102376574D01*
X101951185Y-102298815D01*
X101854494Y-102219463D01*
X101744180Y-102160498D01*
X101624482Y-102124188D01*
X101500000Y-102111928D01*
X100935750Y-102115000D01*
X100777000Y-102273750D01*
X100777000Y-103473000D01*
X100797000Y-103473000D01*
X100797000Y-103727000D01*
X100777000Y-103727000D01*
X100777000Y-104926250D01*
X100935750Y-105085000D01*
X101500000Y-105088072D01*
X101624482Y-105075812D01*
X101744180Y-105039502D01*
X101854494Y-104980537D01*
X101951185Y-104901185D01*
X102015000Y-104823425D01*
X102015001Y-110398056D01*
X102015000Y-110398061D01*
X102015000Y-110601939D01*
X102024971Y-110652067D01*
X102029977Y-110702895D01*
X102044803Y-110751768D01*
X102054774Y-110801898D01*
X102074335Y-110849122D01*
X102089160Y-110897993D01*
X102113235Y-110943034D01*
X102132795Y-110990256D01*
X102161191Y-111032753D01*
X102185267Y-111077797D01*
X102217668Y-111117278D01*
X102246063Y-111159774D01*
X102282203Y-111195914D01*
X102314605Y-111235396D01*
X102354087Y-111267798D01*
X102390226Y-111303937D01*
X102432721Y-111332331D01*
X102472204Y-111364734D01*
X102517250Y-111388812D01*
X102559744Y-111417205D01*
X102606962Y-111436763D01*
X102652008Y-111460841D01*
X102700884Y-111475668D01*
X102748102Y-111495226D01*
X102798226Y-111505196D01*
X102847106Y-111520024D01*
X102897942Y-111525031D01*
X102948061Y-111535000D01*
X102999162Y-111535000D01*
X103050000Y-111540007D01*
X103100838Y-111535000D01*
X103151939Y-111535000D01*
X103202057Y-111525031D01*
X103252895Y-111520024D01*
X103301777Y-111505196D01*
X103351898Y-111495226D01*
X103399113Y-111475669D01*
X103447993Y-111460841D01*
X103493042Y-111436762D01*
X103540256Y-111417205D01*
X103582746Y-111388814D01*
X103627797Y-111364734D01*
X103667284Y-111332328D01*
X103709774Y-111303937D01*
X103745908Y-111267803D01*
X103785396Y-111235396D01*
X103817803Y-111195908D01*
X103853937Y-111159774D01*
X103882328Y-111117284D01*
X103914734Y-111077797D01*
X103938814Y-111032746D01*
X103967205Y-110990256D01*
X103986762Y-110943042D01*
X104010841Y-110897993D01*
X104025669Y-110849113D01*
X104045226Y-110801898D01*
X104055196Y-110751777D01*
X104070024Y-110702895D01*
X104075031Y-110652057D01*
X104085000Y-110601939D01*
X104085000Y-108388411D01*
X104225526Y-108528937D01*
X104395044Y-108642205D01*
X104583402Y-108720226D01*
X104783361Y-108760000D01*
X104987239Y-108760000D01*
X105187198Y-108720226D01*
X105323401Y-108663809D01*
X105323401Y-111935488D01*
X105279463Y-111979426D01*
X105166195Y-112148944D01*
X105088174Y-112337302D01*
X105048400Y-112537261D01*
X105048400Y-112741139D01*
X105088174Y-112941098D01*
X105166195Y-113129456D01*
X105279463Y-113298974D01*
X105345444Y-113364955D01*
X104952398Y-113758001D01*
X104923400Y-113781799D01*
X104899602Y-113810797D01*
X104899601Y-113810798D01*
X104828426Y-113897524D01*
X104757854Y-114029554D01*
X104728166Y-114127427D01*
X104717341Y-114163114D01*
X104714398Y-114172815D01*
X104699724Y-114321800D01*
X104703401Y-114359132D01*
X104703400Y-121751589D01*
X104659463Y-121795526D01*
X104546195Y-121965044D01*
X104468174Y-122153402D01*
X104428400Y-122353361D01*
X104428400Y-122557239D01*
X104468174Y-122757198D01*
X104546195Y-122945556D01*
X104659463Y-123115074D01*
X104803626Y-123259237D01*
X104973144Y-123372505D01*
X105161502Y-123450526D01*
X105361461Y-123490300D01*
X105565339Y-123490300D01*
X105765298Y-123450526D01*
X105953656Y-123372505D01*
X106123174Y-123259237D01*
X106267337Y-123115074D01*
X106380605Y-122945556D01*
X106458626Y-122757198D01*
X106498400Y-122557239D01*
X106498400Y-122353361D01*
X106458626Y-122153402D01*
X106380605Y-121965044D01*
X106267337Y-121795526D01*
X106223400Y-121751589D01*
X106223400Y-116241000D01*
X109243872Y-116241000D01*
X109264338Y-116448796D01*
X109324950Y-116648607D01*
X109423378Y-116832753D01*
X109555841Y-116994159D01*
X109717247Y-117126622D01*
X109901393Y-117225050D01*
X110101204Y-117285662D01*
X110256934Y-117301000D01*
X111211066Y-117301000D01*
X111366796Y-117285662D01*
X111566607Y-117225050D01*
X111750753Y-117126622D01*
X111912159Y-116994159D01*
X112044622Y-116832753D01*
X112143050Y-116648607D01*
X112203662Y-116448796D01*
X112224128Y-116241000D01*
X112203662Y-116033204D01*
X112143050Y-115833393D01*
X112044622Y-115649247D01*
X111912159Y-115487841D01*
X111797072Y-115393391D01*
X111797072Y-114566000D01*
X111784812Y-114441518D01*
X111748502Y-114321820D01*
X111689537Y-114211506D01*
X111610185Y-114114815D01*
X111513494Y-114035463D01*
X111403180Y-113976498D01*
X111283482Y-113940188D01*
X111159000Y-113927928D01*
X110309000Y-113927928D01*
X110184518Y-113940188D01*
X110064820Y-113976498D01*
X109954506Y-114035463D01*
X109857815Y-114114815D01*
X109778463Y-114211506D01*
X109719498Y-114321820D01*
X109683188Y-114441518D01*
X109670928Y-114566000D01*
X109670928Y-115393391D01*
X109555841Y-115487841D01*
X109423378Y-115649247D01*
X109324950Y-115833393D01*
X109264338Y-116033204D01*
X109243872Y-116241000D01*
X106223400Y-116241000D01*
X106223400Y-114636601D01*
X111194994Y-109665008D01*
X111223991Y-109641211D01*
X111318964Y-109525486D01*
X111389536Y-109393457D01*
X111432993Y-109250196D01*
X111443990Y-109138543D01*
X111443990Y-109138534D01*
X111447666Y-109101211D01*
X111443990Y-109063888D01*
X111443990Y-108898257D01*
X118579777Y-116034046D01*
X118480401Y-116219966D01*
X118395487Y-116499889D01*
X118366815Y-116791000D01*
X118395487Y-117082111D01*
X118480401Y-117362034D01*
X118618294Y-117620014D01*
X118803866Y-117846134D01*
X119029986Y-118031706D01*
X119047374Y-118041000D01*
X119029986Y-118050294D01*
X118803866Y-118235866D01*
X118618294Y-118461986D01*
X118480401Y-118719966D01*
X118395487Y-118999889D01*
X118366815Y-119291000D01*
X118395487Y-119582111D01*
X118480401Y-119862034D01*
X118618294Y-120120014D01*
X118803866Y-120346134D01*
X119029986Y-120531706D01*
X119047374Y-120541000D01*
X119029986Y-120550294D01*
X118803866Y-120735866D01*
X118618294Y-120961986D01*
X118480401Y-121219966D01*
X118395487Y-121499889D01*
X118366815Y-121791000D01*
X118395487Y-122082111D01*
X118480401Y-122362034D01*
X118618294Y-122620014D01*
X118803866Y-122846134D01*
X119029986Y-123031706D01*
X119055722Y-123045462D01*
X118849571Y-123201951D01*
X118656504Y-123419807D01*
X118509648Y-123671142D01*
X118417524Y-123934110D01*
X118538845Y-124164000D01*
X119857000Y-124164000D01*
X119857000Y-124144000D01*
X120111000Y-124144000D01*
X120111000Y-124164000D01*
X121429155Y-124164000D01*
X121550476Y-123934110D01*
X121458352Y-123671142D01*
X121311496Y-123419807D01*
X121118429Y-123201951D01*
X120912278Y-123045462D01*
X120938014Y-123031706D01*
X121164134Y-122846134D01*
X121333779Y-122639420D01*
X125745381Y-122639420D01*
X125745381Y-122983458D01*
X125812499Y-123320886D01*
X125944157Y-123638736D01*
X126135294Y-123924793D01*
X126378566Y-124168065D01*
X126664623Y-124359202D01*
X126982473Y-124490860D01*
X127319901Y-124557978D01*
X127663939Y-124557978D01*
X128001367Y-124490860D01*
X128319217Y-124359202D01*
X128605274Y-124168065D01*
X128848546Y-123924793D01*
X129039683Y-123638736D01*
X129171341Y-123320886D01*
X129238459Y-122983458D01*
X129238459Y-122639420D01*
X129171341Y-122301992D01*
X129039683Y-121984142D01*
X128848546Y-121698085D01*
X128605274Y-121454813D01*
X128319217Y-121263676D01*
X128001367Y-121132018D01*
X127663939Y-121064900D01*
X127319901Y-121064900D01*
X126982473Y-121132018D01*
X126664623Y-121263676D01*
X126378566Y-121454813D01*
X126135294Y-121698085D01*
X125944157Y-121984142D01*
X125812499Y-122301992D01*
X125745381Y-122639420D01*
X121333779Y-122639420D01*
X121349706Y-122620014D01*
X121487599Y-122362034D01*
X121572513Y-122082111D01*
X121601185Y-121791000D01*
X121572513Y-121499889D01*
X121487599Y-121219966D01*
X121349706Y-120961986D01*
X121164134Y-120735866D01*
X120938014Y-120550294D01*
X120920626Y-120541000D01*
X120938014Y-120531706D01*
X121164134Y-120346134D01*
X121349706Y-120120014D01*
X121487599Y-119862034D01*
X121572513Y-119582111D01*
X121601185Y-119291000D01*
X121572513Y-118999889D01*
X121487599Y-118719966D01*
X121349706Y-118461986D01*
X121164134Y-118235866D01*
X120938014Y-118050294D01*
X120920626Y-118041000D01*
X120938014Y-118031706D01*
X121164134Y-117846134D01*
X121349706Y-117620014D01*
X121487599Y-117362034D01*
X121572513Y-117082111D01*
X121601185Y-116791000D01*
X121572513Y-116499889D01*
X121487599Y-116219966D01*
X121394492Y-116045775D01*
X125924633Y-111515636D01*
X125956491Y-111489491D01*
X125985785Y-111453797D01*
X126060836Y-111362346D01*
X126138372Y-111217287D01*
X126161888Y-111139764D01*
X126186118Y-111059889D01*
X126198200Y-110937219D01*
X126198200Y-110937218D01*
X126202240Y-110896200D01*
X126198200Y-110855182D01*
X126198200Y-90984167D01*
X126811367Y-90371001D01*
X126845401Y-90605519D01*
X126943081Y-90881247D01*
X127016528Y-91018657D01*
X127265603Y-91096292D01*
X128114395Y-90247500D01*
X128473605Y-90247500D01*
X129322397Y-91096292D01*
X129571472Y-91018657D01*
X129697371Y-90754617D01*
X129769339Y-90471089D01*
X129784611Y-90178969D01*
X129742599Y-89889481D01*
X129644919Y-89613753D01*
X129571472Y-89476343D01*
X129322397Y-89398708D01*
X128473605Y-90247500D01*
X128114395Y-90247500D01*
X128100253Y-90233358D01*
X128279858Y-90053753D01*
X128294000Y-90067895D01*
X129142792Y-89219103D01*
X129067271Y-88976811D01*
X129240632Y-88860975D01*
X129447475Y-88654132D01*
X129609990Y-88410911D01*
X129721932Y-88140658D01*
X129779000Y-87853760D01*
X129779000Y-87561240D01*
X129721932Y-87274342D01*
X129609990Y-87004089D01*
X129447475Y-86760868D01*
X129240632Y-86554025D01*
X128997411Y-86391510D01*
X128893300Y-86348386D01*
X128893300Y-78712401D01*
X133290400Y-83109502D01*
G37*
%TD.AperFunction*%
D22*
X156480577Y-52796441D02*
X159011069Y-52873755D01*
X161520829Y-53104369D01*
X164011819Y-53487770D01*
X166474747Y-54022525D01*
X168900464Y-54706647D01*
X171279849Y-55537566D01*
X173604117Y-56512213D01*
X175864507Y-57626914D01*
X178052650Y-58877541D01*
X180160358Y-60259416D01*
X182179780Y-61767389D01*
X184103377Y-63395835D01*
X185923953Y-65138658D01*
X187634760Y-66989398D01*
X189229382Y-68941118D01*
X190701877Y-70986546D01*
X192046754Y-73118046D01*
X193258999Y-75327677D01*
X194334098Y-77607213D01*
X195268017Y-79948103D01*
X196057291Y-82341653D01*
X196698971Y-84778927D01*
X197190660Y-87250815D01*
X197530525Y-89748103D01*
X197717304Y-92261508D01*
X197750293Y-94781604D01*
X197629372Y-97299046D01*
X197354994Y-99804361D01*
X196928177Y-102288291D01*
X196350518Y-104741520D01*
X195624170Y-107154908D01*
X194751841Y-109519457D01*
X193736792Y-111826333D01*
X192582804Y-114066939D01*
X191294183Y-116232916D01*
X189875727Y-118316198D01*
X188332737Y-120308996D01*
X186670982Y-122203864D01*
X184896633Y-123993764D01*
X183016332Y-125671997D01*
X181037085Y-127232308D01*
X178966260Y-128668892D01*
X176811617Y-129976360D01*
X174581148Y-131149867D01*
X172283219Y-132185008D01*
X169926389Y-133077931D01*
X167519408Y-133825318D01*
X165071336Y-134424357D01*
X162591220Y-134872835D01*
X160088381Y-135169066D01*
X157565694Y-135312314D01*
X156486810Y-135326437D01*
X152528000Y-135326434D01*
X152441127Y-135317916D01*
X152392279Y-135303168D01*
X152347218Y-135279209D01*
X152307676Y-135246959D01*
X152275147Y-135207639D01*
X152250875Y-135162750D01*
X152235786Y-135114004D01*
X152226921Y-135029666D01*
X152226918Y-129800000D01*
X152473000Y-129800000D01*
X152473000Y-133400000D01*
X152475440Y-133424776D01*
X152482667Y-133448601D01*
X152494403Y-133470557D01*
X152510197Y-133489803D01*
X152529443Y-133505597D01*
X152551399Y-133517333D01*
X152575224Y-133524560D01*
X152600000Y-133527000D01*
X157400000Y-133527000D01*
X157424776Y-133524560D01*
X157448601Y-133517333D01*
X157470557Y-133505597D01*
X157489803Y-133489803D01*
X157505597Y-133470557D01*
X157517333Y-133448601D01*
X157524560Y-133424776D01*
X157527000Y-133400000D01*
X157527000Y-129800000D01*
X157524560Y-129775224D01*
X157517333Y-129751399D01*
X157505597Y-129729443D01*
X157489803Y-129710197D01*
X157470557Y-129694403D01*
X157448601Y-129682667D01*
X157424776Y-129675440D01*
X157400000Y-129673000D01*
X152600000Y-129673000D01*
X152575224Y-129675440D01*
X152551399Y-129682667D01*
X152529443Y-129694403D01*
X152510197Y-129710197D01*
X152494403Y-129729443D01*
X152482667Y-129751399D01*
X152475440Y-129775224D01*
X152473000Y-129800000D01*
X152226918Y-129800000D01*
X152226915Y-127097543D01*
X152230471Y-127061439D01*
X152216281Y-126917355D01*
X152174253Y-126778807D01*
X152106003Y-126651120D01*
X152014154Y-126539202D01*
X152014153Y-126539201D01*
X151902235Y-126447352D01*
X151774548Y-126379102D01*
X151636000Y-126337074D01*
X151491916Y-126322884D01*
X151455811Y-126326440D01*
X146645890Y-126326439D01*
X146656399Y-126273602D01*
X154905501Y-118024501D01*
X154905501Y-121083297D01*
X154779598Y-121209200D01*
X154717461Y-121209200D01*
X154517502Y-121248974D01*
X154329144Y-121326995D01*
X154159626Y-121440263D01*
X154015463Y-121584426D01*
X153933006Y-121707831D01*
X153842856Y-121647595D01*
X153654498Y-121569574D01*
X153454539Y-121529800D01*
X153250661Y-121529800D01*
X153050702Y-121569574D01*
X152862344Y-121647595D01*
X152692826Y-121760863D01*
X152548663Y-121905026D01*
X152435395Y-122074544D01*
X152357374Y-122262902D01*
X152317600Y-122462861D01*
X152317600Y-122666739D01*
X152357374Y-122866698D01*
X152435395Y-123055056D01*
X152548663Y-123224574D01*
X152592601Y-123268512D01*
X152592601Y-123722268D01*
X152588924Y-123759600D01*
X152592601Y-123796933D01*
X152603598Y-123908586D01*
X152612594Y-123938241D01*
X152647054Y-124051846D01*
X152717626Y-124183876D01*
X152756417Y-124231142D01*
X152812600Y-124299601D01*
X152841598Y-124323399D01*
X157049134Y-128530936D01*
X157072932Y-128559934D01*
X157188657Y-128654907D01*
X157320686Y-128725479D01*
X157463947Y-128768936D01*
X157575600Y-128779933D01*
X157575608Y-128779933D01*
X157612933Y-128783609D01*
X157650258Y-128779933D01*
X159105235Y-128779933D01*
X159198742Y-128919876D01*
X159179874Y-128923160D01*
X159063196Y-128968241D01*
X158957555Y-129035218D01*
X158867010Y-129121518D01*
X158795041Y-129223824D01*
X158744415Y-129338205D01*
X158717075Y-129460265D01*
X158497710Y-131246848D01*
X158494709Y-131371895D01*
X158516160Y-131495126D01*
X158561241Y-131611804D01*
X158628218Y-131717445D01*
X158714518Y-131807990D01*
X158816824Y-131879959D01*
X158931205Y-131930585D01*
X159053265Y-131957925D01*
X160839848Y-132177290D01*
X160964895Y-132180291D01*
X161088126Y-132158840D01*
X161204804Y-132113759D01*
X161310445Y-132046782D01*
X161400990Y-131960482D01*
X161472959Y-131858176D01*
X161523585Y-131743795D01*
X161550925Y-131621735D01*
X161735238Y-130120629D01*
X171624028Y-120231840D01*
X171655891Y-120205691D01*
X171760236Y-120078546D01*
X171837772Y-119933487D01*
X171885518Y-119776089D01*
X171897600Y-119653419D01*
X171897600Y-119653409D01*
X171901639Y-119612401D01*
X171897600Y-119571393D01*
X171897600Y-118821885D01*
X171979805Y-118698856D01*
X172057826Y-118510498D01*
X172065536Y-118471737D01*
X172325000Y-118731202D01*
X172325000Y-118793339D01*
X172364774Y-118993298D01*
X172442795Y-119181656D01*
X172556063Y-119351174D01*
X172700226Y-119495337D01*
X172869744Y-119608605D01*
X173058102Y-119686626D01*
X173258061Y-119726400D01*
X173461939Y-119726400D01*
X173661898Y-119686626D01*
X173850256Y-119608605D01*
X174019774Y-119495337D01*
X174163937Y-119351174D01*
X174277205Y-119181656D01*
X174355226Y-118993298D01*
X174395000Y-118793339D01*
X174395000Y-118589461D01*
X174355226Y-118389502D01*
X174277205Y-118201144D01*
X174276441Y-118200000D01*
X174673000Y-118200000D01*
X174673000Y-121800000D01*
X174675440Y-121824776D01*
X174682667Y-121848601D01*
X174694403Y-121870557D01*
X174710197Y-121889803D01*
X174729443Y-121905597D01*
X174751399Y-121917333D01*
X174775224Y-121924560D01*
X174800000Y-121927000D01*
X179600000Y-121927000D01*
X179624776Y-121924560D01*
X179648601Y-121917333D01*
X179670557Y-121905597D01*
X179689803Y-121889803D01*
X179705597Y-121870557D01*
X179717333Y-121848601D01*
X179724560Y-121824776D01*
X179727000Y-121800000D01*
X179727000Y-118200000D01*
X179724560Y-118175224D01*
X179717333Y-118151399D01*
X179705597Y-118129443D01*
X179689803Y-118110197D01*
X179670557Y-118094403D01*
X179648601Y-118082667D01*
X179624776Y-118075440D01*
X179600000Y-118073000D01*
X174800000Y-118073000D01*
X174775224Y-118075440D01*
X174751399Y-118082667D01*
X174729443Y-118094403D01*
X174710197Y-118110197D01*
X174694403Y-118129443D01*
X174682667Y-118151399D01*
X174675440Y-118175224D01*
X174673000Y-118200000D01*
X174276441Y-118200000D01*
X174163937Y-118031626D01*
X174019774Y-117887463D01*
X173850256Y-117774195D01*
X173661898Y-117696174D01*
X173461939Y-117656400D01*
X173399802Y-117656400D01*
X173381502Y-117638100D01*
X176397878Y-117638100D01*
X176435200Y-117641776D01*
X176472522Y-117638100D01*
X176472533Y-117638100D01*
X176584186Y-117627103D01*
X176727447Y-117583646D01*
X176859476Y-117513074D01*
X176975201Y-117418101D01*
X176999003Y-117389098D01*
X177567863Y-116820240D01*
X177592645Y-116842578D01*
X177842748Y-116991557D01*
X178117109Y-117088881D01*
X178347000Y-116968214D01*
X178347000Y-115774400D01*
X178601000Y-115774400D01*
X178601000Y-116968214D01*
X178830891Y-117088881D01*
X179105252Y-116991557D01*
X179355355Y-116842578D01*
X179571588Y-116647669D01*
X179745641Y-116414320D01*
X179870825Y-116151499D01*
X179915476Y-116004290D01*
X179794155Y-115774400D01*
X178601000Y-115774400D01*
X178347000Y-115774400D01*
X178327000Y-115774400D01*
X178327000Y-115520400D01*
X178347000Y-115520400D01*
X178347000Y-115500400D01*
X178601000Y-115500400D01*
X178601000Y-115520400D01*
X179794155Y-115520400D01*
X179915476Y-115290510D01*
X179870825Y-115143301D01*
X179745641Y-114880480D01*
X179571588Y-114647131D01*
X179355355Y-114452222D01*
X179238466Y-114382595D01*
X179420632Y-114260875D01*
X179627475Y-114054032D01*
X179789990Y-113810811D01*
X179901932Y-113540558D01*
X179959000Y-113253660D01*
X179959000Y-112961140D01*
X179901932Y-112674242D01*
X179789990Y-112403989D01*
X179627475Y-112160768D01*
X179420632Y-111953925D01*
X179246240Y-111837400D01*
X179420632Y-111720875D01*
X179627475Y-111514032D01*
X179789990Y-111270811D01*
X179901932Y-111000558D01*
X179959000Y-110713660D01*
X179959000Y-110421140D01*
X179901932Y-110134242D01*
X179789990Y-109863989D01*
X179716846Y-109754521D01*
X180230891Y-109240478D01*
X180951990Y-110489459D01*
X181024849Y-110591133D01*
X181116143Y-110676640D01*
X181222365Y-110742692D01*
X181339432Y-110786753D01*
X181462845Y-110807129D01*
X181587862Y-110803036D01*
X181709678Y-110774633D01*
X181823613Y-110723010D01*
X183382459Y-109823010D01*
X183484133Y-109750151D01*
X183569640Y-109658857D01*
X183635692Y-109552635D01*
X183679753Y-109435568D01*
X183700129Y-109312155D01*
X183696036Y-109187138D01*
X183691578Y-109168019D01*
X183882521Y-109206000D01*
X184184889Y-109206000D01*
X184481448Y-109147011D01*
X184760800Y-109031299D01*
X185012210Y-108863312D01*
X185226017Y-108649505D01*
X185394004Y-108398095D01*
X185509716Y-108118743D01*
X185568705Y-107822184D01*
X185568705Y-107519816D01*
X185509716Y-107223257D01*
X185394004Y-106943905D01*
X185226017Y-106692495D01*
X185012210Y-106478688D01*
X184760800Y-106310701D01*
X184481448Y-106194989D01*
X184184889Y-106136000D01*
X183882521Y-106136000D01*
X183585962Y-106194989D01*
X183306610Y-106310701D01*
X183055200Y-106478688D01*
X182841393Y-106692495D01*
X182673406Y-106943905D01*
X182561404Y-107214301D01*
X182551857Y-107205360D01*
X182445635Y-107139308D01*
X182328568Y-107095247D01*
X182205155Y-107074871D01*
X182080138Y-107078964D01*
X181958322Y-107107367D01*
X181844387Y-107158990D01*
X181044647Y-107620720D01*
X184306803Y-104358565D01*
X184901990Y-105389459D01*
X184974849Y-105491133D01*
X185066143Y-105576640D01*
X185172365Y-105642692D01*
X185289432Y-105686753D01*
X185412845Y-105707129D01*
X185537862Y-105703036D01*
X185659678Y-105674633D01*
X185773613Y-105623010D01*
X187332459Y-104723010D01*
X187434133Y-104650151D01*
X187519640Y-104558857D01*
X187585692Y-104452635D01*
X187629753Y-104335568D01*
X187650129Y-104212155D01*
X187646036Y-104087138D01*
X187641578Y-104068019D01*
X187832521Y-104106000D01*
X188134889Y-104106000D01*
X188431448Y-104047011D01*
X188710800Y-103931299D01*
X188962210Y-103763312D01*
X189176017Y-103549505D01*
X189344004Y-103298095D01*
X189459716Y-103018743D01*
X189518705Y-102722184D01*
X189518705Y-102419816D01*
X189459716Y-102123257D01*
X189344004Y-101843905D01*
X189176017Y-101592495D01*
X188962210Y-101378688D01*
X188710800Y-101210701D01*
X188601296Y-101165343D01*
X190610562Y-99156077D01*
X190651589Y-99183490D01*
X190921842Y-99295432D01*
X191208740Y-99352500D01*
X191501260Y-99352500D01*
X191788158Y-99295432D01*
X192058411Y-99183490D01*
X192301632Y-99020975D01*
X192426710Y-98895897D01*
X193046208Y-98895897D01*
X193123843Y-99144972D01*
X193387883Y-99270871D01*
X193671411Y-99342839D01*
X193963531Y-99358111D01*
X194253019Y-99316099D01*
X194528747Y-99218419D01*
X194666157Y-99144972D01*
X194743792Y-98895897D01*
X193895000Y-98047105D01*
X193046208Y-98895897D01*
X192426710Y-98895897D01*
X192508475Y-98814132D01*
X192624311Y-98640771D01*
X192866603Y-98716292D01*
X193715395Y-97867500D01*
X194074605Y-97867500D01*
X194923397Y-98716292D01*
X195172472Y-98638657D01*
X195298371Y-98374617D01*
X195370339Y-98091089D01*
X195385611Y-97798969D01*
X195343599Y-97509481D01*
X195245919Y-97233753D01*
X195172472Y-97096343D01*
X194923397Y-97018708D01*
X194074605Y-97867500D01*
X193715395Y-97867500D01*
X192866603Y-97018708D01*
X192624311Y-97094229D01*
X192508475Y-96920868D01*
X192426710Y-96839103D01*
X193046208Y-96839103D01*
X193895000Y-97687895D01*
X194743792Y-96839103D01*
X194666157Y-96590028D01*
X194402117Y-96464129D01*
X194118589Y-96392161D01*
X193826469Y-96376889D01*
X193536981Y-96418901D01*
X193261253Y-96516581D01*
X193123843Y-96590028D01*
X193046208Y-96839103D01*
X192426710Y-96839103D01*
X192301632Y-96714025D01*
X192071147Y-96560020D01*
X195712432Y-92918737D01*
X195744291Y-92892591D01*
X195784087Y-92844100D01*
X195848636Y-92765446D01*
X195926172Y-92620387D01*
X195973918Y-92462989D01*
X195990040Y-92299300D01*
X195986000Y-92258282D01*
X195986000Y-89766318D01*
X195990040Y-89725300D01*
X195983769Y-89661629D01*
X195973918Y-89561611D01*
X195926172Y-89404213D01*
X195848636Y-89259154D01*
X195834415Y-89241826D01*
X195770439Y-89163870D01*
X195770437Y-89163868D01*
X195744291Y-89132009D01*
X195712433Y-89105864D01*
X191436646Y-84830079D01*
X191410491Y-84798209D01*
X191283346Y-84693864D01*
X191138287Y-84616328D01*
X190980889Y-84568582D01*
X190858219Y-84556500D01*
X190858218Y-84556500D01*
X190817200Y-84552460D01*
X190776182Y-84556500D01*
X189698061Y-84556500D01*
X189632459Y-84509490D01*
X188073613Y-83609490D01*
X187959678Y-83557867D01*
X187837862Y-83529464D01*
X187712845Y-83525371D01*
X187589432Y-83545747D01*
X187472365Y-83589808D01*
X187366143Y-83655860D01*
X187356596Y-83664801D01*
X187244594Y-83394405D01*
X187076607Y-83142995D01*
X186862800Y-82929188D01*
X186611390Y-82761201D01*
X186332038Y-82645489D01*
X186035479Y-82586500D01*
X185733111Y-82586500D01*
X185436552Y-82645489D01*
X185428802Y-82648699D01*
X186155703Y-81921799D01*
X186184701Y-81898001D01*
X186279674Y-81782276D01*
X186350246Y-81650247D01*
X186393703Y-81506986D01*
X186404700Y-81395333D01*
X186404700Y-81395325D01*
X186408376Y-81358000D01*
X186404700Y-81320675D01*
X186404700Y-78293825D01*
X186408376Y-78256500D01*
X186404700Y-78219175D01*
X186404700Y-78219167D01*
X186393703Y-78107514D01*
X186350246Y-77964253D01*
X186279674Y-77832224D01*
X186184701Y-77716499D01*
X186155704Y-77692702D01*
X179727000Y-71263998D01*
X179727000Y-68200000D01*
X179724560Y-68175224D01*
X179717333Y-68151399D01*
X179705597Y-68129443D01*
X179689803Y-68110197D01*
X179670557Y-68094403D01*
X179648601Y-68082667D01*
X179624776Y-68075440D01*
X179600000Y-68073000D01*
X176536002Y-68073000D01*
X162947144Y-54484143D01*
X162923341Y-54455139D01*
X162807616Y-54360166D01*
X162675587Y-54289594D01*
X162532326Y-54246137D01*
X162420673Y-54235140D01*
X162420662Y-54235140D01*
X162383340Y-54231464D01*
X162346018Y-54235140D01*
X158976582Y-54235140D01*
X158939259Y-54231464D01*
X158901936Y-54235140D01*
X158901927Y-54235140D01*
X158790274Y-54246137D01*
X158647013Y-54289594D01*
X158514984Y-54360166D01*
X158514982Y-54360167D01*
X158514983Y-54360167D01*
X158428256Y-54431341D01*
X158428252Y-54431345D01*
X158399259Y-54455139D01*
X158375465Y-54484132D01*
X156786597Y-56073000D01*
X152600000Y-56073000D01*
X152575224Y-56075440D01*
X152551399Y-56082667D01*
X152529443Y-56094403D01*
X152510197Y-56110197D01*
X152494403Y-56129443D01*
X152482667Y-56151399D01*
X152475440Y-56175224D01*
X152473000Y-56200000D01*
X152473000Y-59000000D01*
X152475440Y-59024776D01*
X152482667Y-59048601D01*
X152494403Y-59070557D01*
X152510197Y-59089803D01*
X152529443Y-59105597D01*
X152551399Y-59117333D01*
X152575224Y-59124560D01*
X152600000Y-59127000D01*
X153732598Y-59127000D01*
X152226922Y-60632677D01*
X152226916Y-53097435D01*
X152235424Y-53010651D01*
X152250174Y-52961795D01*
X152274130Y-52916739D01*
X152306384Y-52877191D01*
X152345707Y-52844660D01*
X152390594Y-52820389D01*
X152439349Y-52805296D01*
X152523700Y-52796429D01*
X156480577Y-52796441D01*
%TA.AperFunction,Conductor*%
D23*
G36*
X156480577Y-52796441D02*
G01*
X159011069Y-52873755D01*
X161520829Y-53104369D01*
X164011819Y-53487770D01*
X166474747Y-54022525D01*
X168900464Y-54706647D01*
X171279849Y-55537566D01*
X173604117Y-56512213D01*
X175864507Y-57626914D01*
X178052650Y-58877541D01*
X180160358Y-60259416D01*
X182179780Y-61767389D01*
X184103377Y-63395835D01*
X185923953Y-65138658D01*
X187634760Y-66989398D01*
X189229382Y-68941118D01*
X190701877Y-70986546D01*
X192046754Y-73118046D01*
X193258999Y-75327677D01*
X194334098Y-77607213D01*
X195268017Y-79948103D01*
X196057291Y-82341653D01*
X196698971Y-84778927D01*
X197190660Y-87250815D01*
X197530525Y-89748103D01*
X197717304Y-92261508D01*
X197750293Y-94781604D01*
X197629372Y-97299046D01*
X197354994Y-99804361D01*
X196928177Y-102288291D01*
X196350518Y-104741520D01*
X195624170Y-107154908D01*
X194751841Y-109519457D01*
X193736792Y-111826333D01*
X192582804Y-114066939D01*
X191294183Y-116232916D01*
X189875727Y-118316198D01*
X188332737Y-120308996D01*
X186670982Y-122203864D01*
X184896633Y-123993764D01*
X183016332Y-125671997D01*
X181037085Y-127232308D01*
X178966260Y-128668892D01*
X176811617Y-129976360D01*
X174581148Y-131149867D01*
X172283219Y-132185008D01*
X169926389Y-133077931D01*
X167519408Y-133825318D01*
X165071336Y-134424357D01*
X162591220Y-134872835D01*
X160088381Y-135169066D01*
X157565694Y-135312314D01*
X156486810Y-135326437D01*
X152528000Y-135326434D01*
X152441127Y-135317916D01*
X152392279Y-135303168D01*
X152347218Y-135279209D01*
X152307676Y-135246959D01*
X152275147Y-135207639D01*
X152250875Y-135162750D01*
X152235786Y-135114004D01*
X152226921Y-135029666D01*
X152226918Y-129800000D01*
X152473000Y-129800000D01*
X152473000Y-133400000D01*
X152475440Y-133424776D01*
X152482667Y-133448601D01*
X152494403Y-133470557D01*
X152510197Y-133489803D01*
X152529443Y-133505597D01*
X152551399Y-133517333D01*
X152575224Y-133524560D01*
X152600000Y-133527000D01*
X157400000Y-133527000D01*
X157424776Y-133524560D01*
X157448601Y-133517333D01*
X157470557Y-133505597D01*
X157489803Y-133489803D01*
X157505597Y-133470557D01*
X157517333Y-133448601D01*
X157524560Y-133424776D01*
X157527000Y-133400000D01*
X157527000Y-129800000D01*
X157524560Y-129775224D01*
X157517333Y-129751399D01*
X157505597Y-129729443D01*
X157489803Y-129710197D01*
X157470557Y-129694403D01*
X157448601Y-129682667D01*
X157424776Y-129675440D01*
X157400000Y-129673000D01*
X152600000Y-129673000D01*
X152575224Y-129675440D01*
X152551399Y-129682667D01*
X152529443Y-129694403D01*
X152510197Y-129710197D01*
X152494403Y-129729443D01*
X152482667Y-129751399D01*
X152475440Y-129775224D01*
X152473000Y-129800000D01*
X152226918Y-129800000D01*
X152226915Y-127097543D01*
X152230471Y-127061439D01*
X152216281Y-126917355D01*
X152174253Y-126778807D01*
X152106003Y-126651120D01*
X152014154Y-126539202D01*
X152014153Y-126539201D01*
X151902235Y-126447352D01*
X151774548Y-126379102D01*
X151636000Y-126337074D01*
X151491916Y-126322884D01*
X151455811Y-126326440D01*
X146645890Y-126326439D01*
X146656399Y-126273602D01*
X154905501Y-118024501D01*
X154905501Y-121083297D01*
X154779598Y-121209200D01*
X154717461Y-121209200D01*
X154517502Y-121248974D01*
X154329144Y-121326995D01*
X154159626Y-121440263D01*
X154015463Y-121584426D01*
X153933006Y-121707831D01*
X153842856Y-121647595D01*
X153654498Y-121569574D01*
X153454539Y-121529800D01*
X153250661Y-121529800D01*
X153050702Y-121569574D01*
X152862344Y-121647595D01*
X152692826Y-121760863D01*
X152548663Y-121905026D01*
X152435395Y-122074544D01*
X152357374Y-122262902D01*
X152317600Y-122462861D01*
X152317600Y-122666739D01*
X152357374Y-122866698D01*
X152435395Y-123055056D01*
X152548663Y-123224574D01*
X152592601Y-123268512D01*
X152592601Y-123722268D01*
X152588924Y-123759600D01*
X152592601Y-123796933D01*
X152603598Y-123908586D01*
X152612594Y-123938241D01*
X152647054Y-124051846D01*
X152717626Y-124183876D01*
X152756417Y-124231142D01*
X152812600Y-124299601D01*
X152841598Y-124323399D01*
X157049134Y-128530936D01*
X157072932Y-128559934D01*
X157188657Y-128654907D01*
X157320686Y-128725479D01*
X157463947Y-128768936D01*
X157575600Y-128779933D01*
X157575608Y-128779933D01*
X157612933Y-128783609D01*
X157650258Y-128779933D01*
X159105235Y-128779933D01*
X159198742Y-128919876D01*
X159179874Y-128923160D01*
X159063196Y-128968241D01*
X158957555Y-129035218D01*
X158867010Y-129121518D01*
X158795041Y-129223824D01*
X158744415Y-129338205D01*
X158717075Y-129460265D01*
X158497710Y-131246848D01*
X158494709Y-131371895D01*
X158516160Y-131495126D01*
X158561241Y-131611804D01*
X158628218Y-131717445D01*
X158714518Y-131807990D01*
X158816824Y-131879959D01*
X158931205Y-131930585D01*
X159053265Y-131957925D01*
X160839848Y-132177290D01*
X160964895Y-132180291D01*
X161088126Y-132158840D01*
X161204804Y-132113759D01*
X161310445Y-132046782D01*
X161400990Y-131960482D01*
X161472959Y-131858176D01*
X161523585Y-131743795D01*
X161550925Y-131621735D01*
X161735238Y-130120629D01*
X171624028Y-120231840D01*
X171655891Y-120205691D01*
X171760236Y-120078546D01*
X171837772Y-119933487D01*
X171885518Y-119776089D01*
X171897600Y-119653419D01*
X171897600Y-119653409D01*
X171901639Y-119612401D01*
X171897600Y-119571393D01*
X171897600Y-118821885D01*
X171979805Y-118698856D01*
X172057826Y-118510498D01*
X172065536Y-118471737D01*
X172325000Y-118731202D01*
X172325000Y-118793339D01*
X172364774Y-118993298D01*
X172442795Y-119181656D01*
X172556063Y-119351174D01*
X172700226Y-119495337D01*
X172869744Y-119608605D01*
X173058102Y-119686626D01*
X173258061Y-119726400D01*
X173461939Y-119726400D01*
X173661898Y-119686626D01*
X173850256Y-119608605D01*
X174019774Y-119495337D01*
X174163937Y-119351174D01*
X174277205Y-119181656D01*
X174355226Y-118993298D01*
X174395000Y-118793339D01*
X174395000Y-118589461D01*
X174355226Y-118389502D01*
X174277205Y-118201144D01*
X174276441Y-118200000D01*
X174673000Y-118200000D01*
X174673000Y-121800000D01*
X174675440Y-121824776D01*
X174682667Y-121848601D01*
X174694403Y-121870557D01*
X174710197Y-121889803D01*
X174729443Y-121905597D01*
X174751399Y-121917333D01*
X174775224Y-121924560D01*
X174800000Y-121927000D01*
X179600000Y-121927000D01*
X179624776Y-121924560D01*
X179648601Y-121917333D01*
X179670557Y-121905597D01*
X179689803Y-121889803D01*
X179705597Y-121870557D01*
X179717333Y-121848601D01*
X179724560Y-121824776D01*
X179727000Y-121800000D01*
X179727000Y-118200000D01*
X179724560Y-118175224D01*
X179717333Y-118151399D01*
X179705597Y-118129443D01*
X179689803Y-118110197D01*
X179670557Y-118094403D01*
X179648601Y-118082667D01*
X179624776Y-118075440D01*
X179600000Y-118073000D01*
X174800000Y-118073000D01*
X174775224Y-118075440D01*
X174751399Y-118082667D01*
X174729443Y-118094403D01*
X174710197Y-118110197D01*
X174694403Y-118129443D01*
X174682667Y-118151399D01*
X174675440Y-118175224D01*
X174673000Y-118200000D01*
X174276441Y-118200000D01*
X174163937Y-118031626D01*
X174019774Y-117887463D01*
X173850256Y-117774195D01*
X173661898Y-117696174D01*
X173461939Y-117656400D01*
X173399802Y-117656400D01*
X173381502Y-117638100D01*
X176397878Y-117638100D01*
X176435200Y-117641776D01*
X176472522Y-117638100D01*
X176472533Y-117638100D01*
X176584186Y-117627103D01*
X176727447Y-117583646D01*
X176859476Y-117513074D01*
X176975201Y-117418101D01*
X176999003Y-117389098D01*
X177567863Y-116820240D01*
X177592645Y-116842578D01*
X177842748Y-116991557D01*
X178117109Y-117088881D01*
X178347000Y-116968214D01*
X178347000Y-115774400D01*
X178601000Y-115774400D01*
X178601000Y-116968214D01*
X178830891Y-117088881D01*
X179105252Y-116991557D01*
X179355355Y-116842578D01*
X179571588Y-116647669D01*
X179745641Y-116414320D01*
X179870825Y-116151499D01*
X179915476Y-116004290D01*
X179794155Y-115774400D01*
X178601000Y-115774400D01*
X178347000Y-115774400D01*
X178327000Y-115774400D01*
X178327000Y-115520400D01*
X178347000Y-115520400D01*
X178347000Y-115500400D01*
X178601000Y-115500400D01*
X178601000Y-115520400D01*
X179794155Y-115520400D01*
X179915476Y-115290510D01*
X179870825Y-115143301D01*
X179745641Y-114880480D01*
X179571588Y-114647131D01*
X179355355Y-114452222D01*
X179238466Y-114382595D01*
X179420632Y-114260875D01*
X179627475Y-114054032D01*
X179789990Y-113810811D01*
X179901932Y-113540558D01*
X179959000Y-113253660D01*
X179959000Y-112961140D01*
X179901932Y-112674242D01*
X179789990Y-112403989D01*
X179627475Y-112160768D01*
X179420632Y-111953925D01*
X179246240Y-111837400D01*
X179420632Y-111720875D01*
X179627475Y-111514032D01*
X179789990Y-111270811D01*
X179901932Y-111000558D01*
X179959000Y-110713660D01*
X179959000Y-110421140D01*
X179901932Y-110134242D01*
X179789990Y-109863989D01*
X179716846Y-109754521D01*
X180230891Y-109240478D01*
X180951990Y-110489459D01*
X181024849Y-110591133D01*
X181116143Y-110676640D01*
X181222365Y-110742692D01*
X181339432Y-110786753D01*
X181462845Y-110807129D01*
X181587862Y-110803036D01*
X181709678Y-110774633D01*
X181823613Y-110723010D01*
X183382459Y-109823010D01*
X183484133Y-109750151D01*
X183569640Y-109658857D01*
X183635692Y-109552635D01*
X183679753Y-109435568D01*
X183700129Y-109312155D01*
X183696036Y-109187138D01*
X183691578Y-109168019D01*
X183882521Y-109206000D01*
X184184889Y-109206000D01*
X184481448Y-109147011D01*
X184760800Y-109031299D01*
X185012210Y-108863312D01*
X185226017Y-108649505D01*
X185394004Y-108398095D01*
X185509716Y-108118743D01*
X185568705Y-107822184D01*
X185568705Y-107519816D01*
X185509716Y-107223257D01*
X185394004Y-106943905D01*
X185226017Y-106692495D01*
X185012210Y-106478688D01*
X184760800Y-106310701D01*
X184481448Y-106194989D01*
X184184889Y-106136000D01*
X183882521Y-106136000D01*
X183585962Y-106194989D01*
X183306610Y-106310701D01*
X183055200Y-106478688D01*
X182841393Y-106692495D01*
X182673406Y-106943905D01*
X182561404Y-107214301D01*
X182551857Y-107205360D01*
X182445635Y-107139308D01*
X182328568Y-107095247D01*
X182205155Y-107074871D01*
X182080138Y-107078964D01*
X181958322Y-107107367D01*
X181844387Y-107158990D01*
X181044647Y-107620720D01*
X184306803Y-104358565D01*
X184901990Y-105389459D01*
X184974849Y-105491133D01*
X185066143Y-105576640D01*
X185172365Y-105642692D01*
X185289432Y-105686753D01*
X185412845Y-105707129D01*
X185537862Y-105703036D01*
X185659678Y-105674633D01*
X185773613Y-105623010D01*
X187332459Y-104723010D01*
X187434133Y-104650151D01*
X187519640Y-104558857D01*
X187585692Y-104452635D01*
X187629753Y-104335568D01*
X187650129Y-104212155D01*
X187646036Y-104087138D01*
X187641578Y-104068019D01*
X187832521Y-104106000D01*
X188134889Y-104106000D01*
X188431448Y-104047011D01*
X188710800Y-103931299D01*
X188962210Y-103763312D01*
X189176017Y-103549505D01*
X189344004Y-103298095D01*
X189459716Y-103018743D01*
X189518705Y-102722184D01*
X189518705Y-102419816D01*
X189459716Y-102123257D01*
X189344004Y-101843905D01*
X189176017Y-101592495D01*
X188962210Y-101378688D01*
X188710800Y-101210701D01*
X188601296Y-101165343D01*
X190610562Y-99156077D01*
X190651589Y-99183490D01*
X190921842Y-99295432D01*
X191208740Y-99352500D01*
X191501260Y-99352500D01*
X191788158Y-99295432D01*
X192058411Y-99183490D01*
X192301632Y-99020975D01*
X192426710Y-98895897D01*
X193046208Y-98895897D01*
X193123843Y-99144972D01*
X193387883Y-99270871D01*
X193671411Y-99342839D01*
X193963531Y-99358111D01*
X194253019Y-99316099D01*
X194528747Y-99218419D01*
X194666157Y-99144972D01*
X194743792Y-98895897D01*
X193895000Y-98047105D01*
X193046208Y-98895897D01*
X192426710Y-98895897D01*
X192508475Y-98814132D01*
X192624311Y-98640771D01*
X192866603Y-98716292D01*
X193715395Y-97867500D01*
X194074605Y-97867500D01*
X194923397Y-98716292D01*
X195172472Y-98638657D01*
X195298371Y-98374617D01*
X195370339Y-98091089D01*
X195385611Y-97798969D01*
X195343599Y-97509481D01*
X195245919Y-97233753D01*
X195172472Y-97096343D01*
X194923397Y-97018708D01*
X194074605Y-97867500D01*
X193715395Y-97867500D01*
X192866603Y-97018708D01*
X192624311Y-97094229D01*
X192508475Y-96920868D01*
X192426710Y-96839103D01*
X193046208Y-96839103D01*
X193895000Y-97687895D01*
X194743792Y-96839103D01*
X194666157Y-96590028D01*
X194402117Y-96464129D01*
X194118589Y-96392161D01*
X193826469Y-96376889D01*
X193536981Y-96418901D01*
X193261253Y-96516581D01*
X193123843Y-96590028D01*
X193046208Y-96839103D01*
X192426710Y-96839103D01*
X192301632Y-96714025D01*
X192071147Y-96560020D01*
X195712432Y-92918737D01*
X195744291Y-92892591D01*
X195784087Y-92844100D01*
X195848636Y-92765446D01*
X195926172Y-92620387D01*
X195973918Y-92462989D01*
X195990040Y-92299300D01*
X195986000Y-92258282D01*
X195986000Y-89766318D01*
X195990040Y-89725300D01*
X195983769Y-89661629D01*
X195973918Y-89561611D01*
X195926172Y-89404213D01*
X195848636Y-89259154D01*
X195834415Y-89241826D01*
X195770439Y-89163870D01*
X195770437Y-89163868D01*
X195744291Y-89132009D01*
X195712433Y-89105864D01*
X191436646Y-84830079D01*
X191410491Y-84798209D01*
X191283346Y-84693864D01*
X191138287Y-84616328D01*
X190980889Y-84568582D01*
X190858219Y-84556500D01*
X190858218Y-84556500D01*
X190817200Y-84552460D01*
X190776182Y-84556500D01*
X189698061Y-84556500D01*
X189632459Y-84509490D01*
X188073613Y-83609490D01*
X187959678Y-83557867D01*
X187837862Y-83529464D01*
X187712845Y-83525371D01*
X187589432Y-83545747D01*
X187472365Y-83589808D01*
X187366143Y-83655860D01*
X187356596Y-83664801D01*
X187244594Y-83394405D01*
X187076607Y-83142995D01*
X186862800Y-82929188D01*
X186611390Y-82761201D01*
X186332038Y-82645489D01*
X186035479Y-82586500D01*
X185733111Y-82586500D01*
X185436552Y-82645489D01*
X185428802Y-82648699D01*
X186155703Y-81921799D01*
X186184701Y-81898001D01*
X186279674Y-81782276D01*
X186350246Y-81650247D01*
X186393703Y-81506986D01*
X186404700Y-81395333D01*
X186404700Y-81395325D01*
X186408376Y-81358000D01*
X186404700Y-81320675D01*
X186404700Y-78293825D01*
X186408376Y-78256500D01*
X186404700Y-78219175D01*
X186404700Y-78219167D01*
X186393703Y-78107514D01*
X186350246Y-77964253D01*
X186279674Y-77832224D01*
X186184701Y-77716499D01*
X186155704Y-77692702D01*
X179727000Y-71263998D01*
X179727000Y-68200000D01*
X179724560Y-68175224D01*
X179717333Y-68151399D01*
X179705597Y-68129443D01*
X179689803Y-68110197D01*
X179670557Y-68094403D01*
X179648601Y-68082667D01*
X179624776Y-68075440D01*
X179600000Y-68073000D01*
X176536002Y-68073000D01*
X162947144Y-54484143D01*
X162923341Y-54455139D01*
X162807616Y-54360166D01*
X162675587Y-54289594D01*
X162532326Y-54246137D01*
X162420673Y-54235140D01*
X162420662Y-54235140D01*
X162383340Y-54231464D01*
X162346018Y-54235140D01*
X158976582Y-54235140D01*
X158939259Y-54231464D01*
X158901936Y-54235140D01*
X158901927Y-54235140D01*
X158790274Y-54246137D01*
X158647013Y-54289594D01*
X158514984Y-54360166D01*
X158514982Y-54360167D01*
X158514983Y-54360167D01*
X158428256Y-54431341D01*
X158428252Y-54431345D01*
X158399259Y-54455139D01*
X158375465Y-54484132D01*
X156786597Y-56073000D01*
X152600000Y-56073000D01*
X152575224Y-56075440D01*
X152551399Y-56082667D01*
X152529443Y-56094403D01*
X152510197Y-56110197D01*
X152494403Y-56129443D01*
X152482667Y-56151399D01*
X152475440Y-56175224D01*
X152473000Y-56200000D01*
X152473000Y-59000000D01*
X152475440Y-59024776D01*
X152482667Y-59048601D01*
X152494403Y-59070557D01*
X152510197Y-59089803D01*
X152529443Y-59105597D01*
X152551399Y-59117333D01*
X152575224Y-59124560D01*
X152600000Y-59127000D01*
X153732598Y-59127000D01*
X152226922Y-60632677D01*
X152226916Y-53097435D01*
X152235424Y-53010651D01*
X152250174Y-52961795D01*
X152274130Y-52916739D01*
X152306384Y-52877191D01*
X152345707Y-52844660D01*
X152390594Y-52820389D01*
X152439349Y-52805296D01*
X152523700Y-52796429D01*
X156480577Y-52796441D01*
G37*
%TD.AperFunction*%
D22*
X145762002Y-125018397D02*
X145747439Y-125015500D01*
X145543561Y-125015500D01*
X145343602Y-125055274D01*
X145155244Y-125133295D01*
X144985726Y-125246563D01*
X144841563Y-125390726D01*
X144728295Y-125560244D01*
X144650274Y-125748602D01*
X144610500Y-125948561D01*
X144610500Y-126152439D01*
X144645110Y-126326438D01*
X138098364Y-126326437D01*
X141785389Y-122639412D01*
X143745371Y-122639412D01*
X143745371Y-122983452D01*
X143812490Y-123320881D01*
X143944148Y-123638732D01*
X144135286Y-123924790D01*
X144378559Y-124168063D01*
X144664617Y-124359201D01*
X144982468Y-124490859D01*
X145319897Y-124557978D01*
X145663937Y-124557978D01*
X146001366Y-124490859D01*
X146319217Y-124359201D01*
X146605275Y-124168063D01*
X146848548Y-123924790D01*
X147039686Y-123638732D01*
X147171344Y-123320881D01*
X147238463Y-122983452D01*
X147238463Y-122639412D01*
X147171344Y-122301983D01*
X147039686Y-121984132D01*
X146848548Y-121698074D01*
X146605275Y-121454801D01*
X146319217Y-121263663D01*
X146001366Y-121132005D01*
X145663937Y-121064886D01*
X145319897Y-121064886D01*
X144982468Y-121132005D01*
X144664617Y-121263663D01*
X144378559Y-121454801D01*
X144135286Y-121698074D01*
X143944148Y-121984132D01*
X143812490Y-122301983D01*
X143745371Y-122639412D01*
X141785389Y-122639412D01*
X145942379Y-118482423D01*
X152297975Y-118482423D01*
X145762002Y-125018397D01*
%TA.AperFunction,Conductor*%
D23*
G36*
X145762002Y-125018397D02*
G01*
X145747439Y-125015500D01*
X145543561Y-125015500D01*
X145343602Y-125055274D01*
X145155244Y-125133295D01*
X144985726Y-125246563D01*
X144841563Y-125390726D01*
X144728295Y-125560244D01*
X144650274Y-125748602D01*
X144610500Y-125948561D01*
X144610500Y-126152439D01*
X144645110Y-126326438D01*
X138098364Y-126326437D01*
X141785389Y-122639412D01*
X143745371Y-122639412D01*
X143745371Y-122983452D01*
X143812490Y-123320881D01*
X143944148Y-123638732D01*
X144135286Y-123924790D01*
X144378559Y-124168063D01*
X144664617Y-124359201D01*
X144982468Y-124490859D01*
X145319897Y-124557978D01*
X145663937Y-124557978D01*
X146001366Y-124490859D01*
X146319217Y-124359201D01*
X146605275Y-124168063D01*
X146848548Y-123924790D01*
X147039686Y-123638732D01*
X147171344Y-123320881D01*
X147238463Y-122983452D01*
X147238463Y-122639412D01*
X147171344Y-122301983D01*
X147039686Y-121984132D01*
X146848548Y-121698074D01*
X146605275Y-121454801D01*
X146319217Y-121263663D01*
X146001366Y-121132005D01*
X145663937Y-121064886D01*
X145319897Y-121064886D01*
X144982468Y-121132005D01*
X144664617Y-121263663D01*
X144378559Y-121454801D01*
X144135286Y-121698074D01*
X143944148Y-121984132D01*
X143812490Y-122301983D01*
X143745371Y-122639412D01*
X141785389Y-122639412D01*
X145942379Y-118482423D01*
X152297975Y-118482423D01*
X145762002Y-125018397D01*
G37*
%TD.AperFunction*%
D22*
X172576501Y-98253970D02*
X172576500Y-107263181D01*
X172572460Y-107304200D01*
X172585958Y-107441246D01*
X172588582Y-107467888D01*
X172636328Y-107625286D01*
X172713864Y-107770345D01*
X172818209Y-107897491D01*
X172850079Y-107923646D01*
X174687068Y-109760636D01*
X174655822Y-109807400D01*
X173425402Y-109807400D01*
X167672200Y-104054199D01*
X167672200Y-103992061D01*
X167632426Y-103792102D01*
X167554405Y-103603744D01*
X167441137Y-103434226D01*
X167296974Y-103290063D01*
X167127456Y-103176795D01*
X166939098Y-103098774D01*
X166739139Y-103059000D01*
X166535261Y-103059000D01*
X166335302Y-103098774D01*
X166146944Y-103176795D01*
X165977426Y-103290063D01*
X165833263Y-103434226D01*
X165719995Y-103603744D01*
X165641974Y-103792102D01*
X165602200Y-103992061D01*
X165602200Y-104195939D01*
X165641974Y-104395898D01*
X165719995Y-104584256D01*
X165833263Y-104753774D01*
X165977426Y-104897937D01*
X166146944Y-105011205D01*
X166335302Y-105089226D01*
X166535261Y-105129000D01*
X166597399Y-105129000D01*
X172546800Y-111078402D01*
X172570599Y-111107401D01*
X172599597Y-111131199D01*
X172686323Y-111202374D01*
X172764405Y-111244110D01*
X172818353Y-111272946D01*
X172961614Y-111316403D01*
X173073267Y-111327400D01*
X173073276Y-111327400D01*
X173110599Y-111331076D01*
X173147922Y-111327400D01*
X174655822Y-111327400D01*
X174694358Y-111385074D01*
X174080374Y-111999059D01*
X174048510Y-112025209D01*
X173980859Y-112107642D01*
X173944164Y-112152355D01*
X173866628Y-112297414D01*
X173818882Y-112454812D01*
X173802760Y-112618500D01*
X173806801Y-112659528D01*
X173806800Y-113581981D01*
X173802760Y-113623000D01*
X173809510Y-113691529D01*
X173818882Y-113786688D01*
X173866628Y-113944086D01*
X173944164Y-114089145D01*
X174048509Y-114216291D01*
X174080378Y-114242445D01*
X174683663Y-114845732D01*
X174618010Y-114943989D01*
X174506068Y-115214242D01*
X174449000Y-115501140D01*
X174449000Y-115793660D01*
X174506068Y-116080558D01*
X174521618Y-116118100D01*
X170512223Y-116118100D01*
X170474900Y-116114424D01*
X170437577Y-116118100D01*
X170437567Y-116118100D01*
X170325914Y-116129097D01*
X170182653Y-116172554D01*
X170050623Y-116243126D01*
X170002768Y-116282400D01*
X169934899Y-116338099D01*
X169911101Y-116367097D01*
X162525113Y-123753085D01*
X162550084Y-123549718D01*
X163747104Y-122352698D01*
X163776101Y-122328901D01*
X163819559Y-122275947D01*
X163871074Y-122213177D01*
X163941646Y-122081147D01*
X163952256Y-122046169D01*
X163985103Y-121937886D01*
X163996100Y-121826233D01*
X163996100Y-121826224D01*
X163999776Y-121788901D01*
X163996100Y-121751578D01*
X163996100Y-89673567D01*
X172576501Y-98253970D01*
%TA.AperFunction,Conductor*%
D23*
G36*
X172576501Y-98253970D02*
G01*
X172576500Y-107263181D01*
X172572460Y-107304200D01*
X172585958Y-107441246D01*
X172588582Y-107467888D01*
X172636328Y-107625286D01*
X172713864Y-107770345D01*
X172818209Y-107897491D01*
X172850079Y-107923646D01*
X174687068Y-109760636D01*
X174655822Y-109807400D01*
X173425402Y-109807400D01*
X167672200Y-104054199D01*
X167672200Y-103992061D01*
X167632426Y-103792102D01*
X167554405Y-103603744D01*
X167441137Y-103434226D01*
X167296974Y-103290063D01*
X167127456Y-103176795D01*
X166939098Y-103098774D01*
X166739139Y-103059000D01*
X166535261Y-103059000D01*
X166335302Y-103098774D01*
X166146944Y-103176795D01*
X165977426Y-103290063D01*
X165833263Y-103434226D01*
X165719995Y-103603744D01*
X165641974Y-103792102D01*
X165602200Y-103992061D01*
X165602200Y-104195939D01*
X165641974Y-104395898D01*
X165719995Y-104584256D01*
X165833263Y-104753774D01*
X165977426Y-104897937D01*
X166146944Y-105011205D01*
X166335302Y-105089226D01*
X166535261Y-105129000D01*
X166597399Y-105129000D01*
X172546800Y-111078402D01*
X172570599Y-111107401D01*
X172599597Y-111131199D01*
X172686323Y-111202374D01*
X172764405Y-111244110D01*
X172818353Y-111272946D01*
X172961614Y-111316403D01*
X173073267Y-111327400D01*
X173073276Y-111327400D01*
X173110599Y-111331076D01*
X173147922Y-111327400D01*
X174655822Y-111327400D01*
X174694358Y-111385074D01*
X174080374Y-111999059D01*
X174048510Y-112025209D01*
X173980859Y-112107642D01*
X173944164Y-112152355D01*
X173866628Y-112297414D01*
X173818882Y-112454812D01*
X173802760Y-112618500D01*
X173806801Y-112659528D01*
X173806800Y-113581981D01*
X173802760Y-113623000D01*
X173809510Y-113691529D01*
X173818882Y-113786688D01*
X173866628Y-113944086D01*
X173944164Y-114089145D01*
X174048509Y-114216291D01*
X174080378Y-114242445D01*
X174683663Y-114845732D01*
X174618010Y-114943989D01*
X174506068Y-115214242D01*
X174449000Y-115501140D01*
X174449000Y-115793660D01*
X174506068Y-116080558D01*
X174521618Y-116118100D01*
X170512223Y-116118100D01*
X170474900Y-116114424D01*
X170437577Y-116118100D01*
X170437567Y-116118100D01*
X170325914Y-116129097D01*
X170182653Y-116172554D01*
X170050623Y-116243126D01*
X170002768Y-116282400D01*
X169934899Y-116338099D01*
X169911101Y-116367097D01*
X162525113Y-123753085D01*
X162550084Y-123549718D01*
X163747104Y-122352698D01*
X163776101Y-122328901D01*
X163819559Y-122275947D01*
X163871074Y-122213177D01*
X163941646Y-122081147D01*
X163952256Y-122046169D01*
X163985103Y-121937886D01*
X163996100Y-121826233D01*
X163996100Y-121826224D01*
X163999776Y-121788901D01*
X163996100Y-121751578D01*
X163996100Y-89673567D01*
X172576501Y-98253970D01*
G37*
%TD.AperFunction*%
D22*
X127223300Y-77461669D02*
X127223301Y-86678092D01*
X127140525Y-86760868D01*
X126978010Y-87004089D01*
X126866068Y-87274342D01*
X126809000Y-87561240D01*
X126809000Y-87853760D01*
X126835193Y-87985439D01*
X124801774Y-90018859D01*
X124769910Y-90045009D01*
X124726000Y-90098514D01*
X124665564Y-90172155D01*
X124588028Y-90317214D01*
X124540282Y-90474612D01*
X124524160Y-90638300D01*
X124528201Y-90679329D01*
X124528200Y-110550331D01*
X121442653Y-113635879D01*
X121349706Y-113461986D01*
X121164134Y-113235866D01*
X121100663Y-113183777D01*
X121202386Y-113129405D01*
X121336962Y-113018962D01*
X121447405Y-112884386D01*
X121529472Y-112730850D01*
X121580008Y-112564254D01*
X121597072Y-112391000D01*
X121597072Y-111191000D01*
X121580008Y-111017746D01*
X121529472Y-110851150D01*
X121447405Y-110697614D01*
X121336962Y-110563038D01*
X121202386Y-110452595D01*
X121048850Y-110370528D01*
X120882254Y-110319992D01*
X120709000Y-110302928D01*
X120233800Y-110302928D01*
X120233800Y-101827857D01*
X120450411Y-101882839D01*
X120742531Y-101898111D01*
X121032019Y-101856099D01*
X121307747Y-101758419D01*
X121445157Y-101684972D01*
X121522792Y-101435897D01*
X120674000Y-100587105D01*
X120659858Y-100601248D01*
X120480253Y-100421643D01*
X120494395Y-100407500D01*
X120853605Y-100407500D01*
X121702397Y-101256292D01*
X121951472Y-101178657D01*
X122077371Y-100914617D01*
X122149339Y-100631089D01*
X122164611Y-100338969D01*
X122122599Y-100049481D01*
X122024919Y-99773753D01*
X121951472Y-99636343D01*
X121702397Y-99558708D01*
X120853605Y-100407500D01*
X120494395Y-100407500D01*
X120480253Y-100393358D01*
X120659858Y-100213753D01*
X120674000Y-100227895D01*
X121522792Y-99379103D01*
X121447271Y-99136811D01*
X121620632Y-99020975D01*
X121827475Y-98814132D01*
X121989990Y-98570911D01*
X122101932Y-98300658D01*
X122159000Y-98013760D01*
X122159000Y-97721240D01*
X122101932Y-97434342D01*
X121989990Y-97164089D01*
X121827475Y-96920868D01*
X121620632Y-96714025D01*
X121446240Y-96597500D01*
X121620632Y-96480975D01*
X121827475Y-96274132D01*
X121989990Y-96030911D01*
X122101932Y-95760658D01*
X122159000Y-95473760D01*
X122159000Y-95181240D01*
X122101932Y-94894342D01*
X121989990Y-94624089D01*
X121827475Y-94380868D01*
X121620632Y-94174025D01*
X121446240Y-94057500D01*
X121620632Y-93940975D01*
X121827475Y-93734132D01*
X121989990Y-93490911D01*
X122101932Y-93220658D01*
X122159000Y-92933760D01*
X122159000Y-92641240D01*
X122101932Y-92354342D01*
X121989990Y-92084089D01*
X121827475Y-91840868D01*
X121620632Y-91634025D01*
X121446240Y-91517500D01*
X121620632Y-91400975D01*
X121827475Y-91194132D01*
X121989990Y-90950911D01*
X122101932Y-90680658D01*
X122159000Y-90393760D01*
X122159000Y-90101240D01*
X122101932Y-89814342D01*
X121989990Y-89544089D01*
X121827475Y-89300868D01*
X121620632Y-89094025D01*
X121446240Y-88977500D01*
X121620632Y-88860975D01*
X121827475Y-88654132D01*
X121989990Y-88410911D01*
X122101932Y-88140658D01*
X122159000Y-87853760D01*
X122159000Y-87561240D01*
X122101932Y-87274342D01*
X121989990Y-87004089D01*
X121827475Y-86760868D01*
X121620632Y-86554025D01*
X121377411Y-86391510D01*
X121107158Y-86279568D01*
X120820260Y-86222500D01*
X120527740Y-86222500D01*
X120240842Y-86279568D01*
X119970589Y-86391510D01*
X119727368Y-86554025D01*
X119520525Y-86760868D01*
X119419500Y-86912063D01*
X119419500Y-77953970D01*
X119624733Y-78007820D01*
X119857000Y-77867665D01*
X119857000Y-76668500D01*
X120111000Y-76668500D01*
X120111000Y-77867665D01*
X120343267Y-78007820D01*
X120624830Y-77933942D01*
X120886570Y-77806553D01*
X121118429Y-77630549D01*
X121311496Y-77412693D01*
X121458352Y-77161358D01*
X121550476Y-76898390D01*
X121429155Y-76668500D01*
X120111000Y-76668500D01*
X119857000Y-76668500D01*
X119837000Y-76668500D01*
X119837000Y-76414500D01*
X119857000Y-76414500D01*
X119857000Y-76394500D01*
X120111000Y-76394500D01*
X120111000Y-76414500D01*
X121429155Y-76414500D01*
X121550476Y-76184610D01*
X121458352Y-75921642D01*
X121311496Y-75670307D01*
X121118429Y-75452451D01*
X120912278Y-75295962D01*
X120938014Y-75282206D01*
X121164134Y-75096634D01*
X121349706Y-74870514D01*
X121487599Y-74612534D01*
X121572513Y-74332611D01*
X121601185Y-74041500D01*
X121572513Y-73750389D01*
X121487599Y-73470466D01*
X121349706Y-73212486D01*
X121164134Y-72986366D01*
X120938014Y-72800794D01*
X120920626Y-72791500D01*
X120938014Y-72782206D01*
X121164134Y-72596634D01*
X121349706Y-72370514D01*
X121487599Y-72112534D01*
X121572513Y-71832611D01*
X121574461Y-71812829D01*
X127223300Y-77461669D01*
%TA.AperFunction,Conductor*%
D23*
G36*
X127223300Y-77461669D02*
G01*
X127223301Y-86678092D01*
X127140525Y-86760868D01*
X126978010Y-87004089D01*
X126866068Y-87274342D01*
X126809000Y-87561240D01*
X126809000Y-87853760D01*
X126835193Y-87985439D01*
X124801774Y-90018859D01*
X124769910Y-90045009D01*
X124726000Y-90098514D01*
X124665564Y-90172155D01*
X124588028Y-90317214D01*
X124540282Y-90474612D01*
X124524160Y-90638300D01*
X124528201Y-90679329D01*
X124528200Y-110550331D01*
X121442653Y-113635879D01*
X121349706Y-113461986D01*
X121164134Y-113235866D01*
X121100663Y-113183777D01*
X121202386Y-113129405D01*
X121336962Y-113018962D01*
X121447405Y-112884386D01*
X121529472Y-112730850D01*
X121580008Y-112564254D01*
X121597072Y-112391000D01*
X121597072Y-111191000D01*
X121580008Y-111017746D01*
X121529472Y-110851150D01*
X121447405Y-110697614D01*
X121336962Y-110563038D01*
X121202386Y-110452595D01*
X121048850Y-110370528D01*
X120882254Y-110319992D01*
X120709000Y-110302928D01*
X120233800Y-110302928D01*
X120233800Y-101827857D01*
X120450411Y-101882839D01*
X120742531Y-101898111D01*
X121032019Y-101856099D01*
X121307747Y-101758419D01*
X121445157Y-101684972D01*
X121522792Y-101435897D01*
X120674000Y-100587105D01*
X120659858Y-100601248D01*
X120480253Y-100421643D01*
X120494395Y-100407500D01*
X120853605Y-100407500D01*
X121702397Y-101256292D01*
X121951472Y-101178657D01*
X122077371Y-100914617D01*
X122149339Y-100631089D01*
X122164611Y-100338969D01*
X122122599Y-100049481D01*
X122024919Y-99773753D01*
X121951472Y-99636343D01*
X121702397Y-99558708D01*
X120853605Y-100407500D01*
X120494395Y-100407500D01*
X120480253Y-100393358D01*
X120659858Y-100213753D01*
X120674000Y-100227895D01*
X121522792Y-99379103D01*
X121447271Y-99136811D01*
X121620632Y-99020975D01*
X121827475Y-98814132D01*
X121989990Y-98570911D01*
X122101932Y-98300658D01*
X122159000Y-98013760D01*
X122159000Y-97721240D01*
X122101932Y-97434342D01*
X121989990Y-97164089D01*
X121827475Y-96920868D01*
X121620632Y-96714025D01*
X121446240Y-96597500D01*
X121620632Y-96480975D01*
X121827475Y-96274132D01*
X121989990Y-96030911D01*
X122101932Y-95760658D01*
X122159000Y-95473760D01*
X122159000Y-95181240D01*
X122101932Y-94894342D01*
X121989990Y-94624089D01*
X121827475Y-94380868D01*
X121620632Y-94174025D01*
X121446240Y-94057500D01*
X121620632Y-93940975D01*
X121827475Y-93734132D01*
X121989990Y-93490911D01*
X122101932Y-93220658D01*
X122159000Y-92933760D01*
X122159000Y-92641240D01*
X122101932Y-92354342D01*
X121989990Y-92084089D01*
X121827475Y-91840868D01*
X121620632Y-91634025D01*
X121446240Y-91517500D01*
X121620632Y-91400975D01*
X121827475Y-91194132D01*
X121989990Y-90950911D01*
X122101932Y-90680658D01*
X122159000Y-90393760D01*
X122159000Y-90101240D01*
X122101932Y-89814342D01*
X121989990Y-89544089D01*
X121827475Y-89300868D01*
X121620632Y-89094025D01*
X121446240Y-88977500D01*
X121620632Y-88860975D01*
X121827475Y-88654132D01*
X121989990Y-88410911D01*
X122101932Y-88140658D01*
X122159000Y-87853760D01*
X122159000Y-87561240D01*
X122101932Y-87274342D01*
X121989990Y-87004089D01*
X121827475Y-86760868D01*
X121620632Y-86554025D01*
X121377411Y-86391510D01*
X121107158Y-86279568D01*
X120820260Y-86222500D01*
X120527740Y-86222500D01*
X120240842Y-86279568D01*
X119970589Y-86391510D01*
X119727368Y-86554025D01*
X119520525Y-86760868D01*
X119419500Y-86912063D01*
X119419500Y-77953970D01*
X119624733Y-78007820D01*
X119857000Y-77867665D01*
X119857000Y-76668500D01*
X120111000Y-76668500D01*
X120111000Y-77867665D01*
X120343267Y-78007820D01*
X120624830Y-77933942D01*
X120886570Y-77806553D01*
X121118429Y-77630549D01*
X121311496Y-77412693D01*
X121458352Y-77161358D01*
X121550476Y-76898390D01*
X121429155Y-76668500D01*
X120111000Y-76668500D01*
X119857000Y-76668500D01*
X119837000Y-76668500D01*
X119837000Y-76414500D01*
X119857000Y-76414500D01*
X119857000Y-76394500D01*
X120111000Y-76394500D01*
X120111000Y-76414500D01*
X121429155Y-76414500D01*
X121550476Y-76184610D01*
X121458352Y-75921642D01*
X121311496Y-75670307D01*
X121118429Y-75452451D01*
X120912278Y-75295962D01*
X120938014Y-75282206D01*
X121164134Y-75096634D01*
X121349706Y-74870514D01*
X121487599Y-74612534D01*
X121572513Y-74332611D01*
X121601185Y-74041500D01*
X121572513Y-73750389D01*
X121487599Y-73470466D01*
X121349706Y-73212486D01*
X121164134Y-72986366D01*
X120938014Y-72800794D01*
X120920626Y-72791500D01*
X120938014Y-72782206D01*
X121164134Y-72596634D01*
X121349706Y-72370514D01*
X121487599Y-72112534D01*
X121572513Y-71832611D01*
X121574461Y-71812829D01*
X127223300Y-77461669D01*
G37*
%TD.AperFunction*%
D22*
X107128496Y-52804939D02*
X107177350Y-52819689D01*
X107222405Y-52843646D01*
X107289005Y-52897964D01*
X115126745Y-60735700D01*
X108887902Y-60735700D01*
X107965400Y-59813199D01*
X107965400Y-59751061D01*
X107925626Y-59551102D01*
X107847605Y-59362744D01*
X107734337Y-59193226D01*
X107590174Y-59049063D01*
X107420656Y-58935795D01*
X107232298Y-58857774D01*
X107032339Y-58818000D01*
X106828461Y-58818000D01*
X106628502Y-58857774D01*
X106440144Y-58935795D01*
X106270626Y-59049063D01*
X106126463Y-59193226D01*
X106013195Y-59362744D01*
X105935174Y-59551102D01*
X105895400Y-59751061D01*
X105895400Y-59954939D01*
X105935174Y-60154898D01*
X106013195Y-60343256D01*
X106126463Y-60512774D01*
X106270626Y-60656937D01*
X106440144Y-60770205D01*
X106628502Y-60848226D01*
X106828461Y-60888000D01*
X106890599Y-60888000D01*
X108009300Y-62006702D01*
X108033099Y-62035701D01*
X108062097Y-62059499D01*
X108148824Y-62130674D01*
X108280853Y-62201246D01*
X108424114Y-62244703D01*
X108573100Y-62259377D01*
X108610433Y-62255700D01*
X116761763Y-62255700D01*
X116749000Y-62319863D01*
X116749000Y-62563137D01*
X116757964Y-62608200D01*
X102600103Y-62608200D01*
X102173200Y-62181298D01*
X102173200Y-62119161D01*
X102133426Y-61919202D01*
X102055405Y-61730844D01*
X101942137Y-61561326D01*
X101797974Y-61417163D01*
X101628456Y-61303895D01*
X101440098Y-61225874D01*
X101240139Y-61186100D01*
X101036261Y-61186100D01*
X100836302Y-61225874D01*
X100647944Y-61303895D01*
X100478426Y-61417163D01*
X100334263Y-61561326D01*
X100220995Y-61730844D01*
X100142974Y-61919202D01*
X100103200Y-62119161D01*
X100103200Y-62323039D01*
X100142974Y-62522998D01*
X100220995Y-62711356D01*
X100334263Y-62880874D01*
X100478426Y-63025037D01*
X100647944Y-63138305D01*
X100836302Y-63216326D01*
X101036261Y-63256100D01*
X101098398Y-63256100D01*
X101721505Y-63879208D01*
X101745299Y-63908201D01*
X101774292Y-63931995D01*
X101774296Y-63931999D01*
X101837769Y-63984089D01*
X101861024Y-64003174D01*
X101993053Y-64073746D01*
X102136314Y-64117203D01*
X102247967Y-64128200D01*
X102247976Y-64128200D01*
X102285299Y-64131876D01*
X102322622Y-64128200D01*
X118370928Y-64128200D01*
X118370928Y-64579771D01*
X117698098Y-65252601D01*
X117669100Y-65276399D01*
X117645302Y-65305397D01*
X117645301Y-65305398D01*
X117574126Y-65392124D01*
X117503554Y-65524154D01*
X117486638Y-65579922D01*
X117462486Y-65659544D01*
X117460098Y-65667415D01*
X117445424Y-65816400D01*
X117449101Y-65853733D01*
X117449100Y-90285278D01*
X117445424Y-90322600D01*
X117449100Y-90359922D01*
X117449100Y-90359932D01*
X117460097Y-90471585D01*
X117488999Y-90566864D01*
X117503554Y-90614846D01*
X117574126Y-90746876D01*
X117608520Y-90788785D01*
X117669099Y-90862601D01*
X117698103Y-90886404D01*
X119232790Y-92421092D01*
X119189000Y-92641240D01*
X119189000Y-92933760D01*
X119246068Y-93220658D01*
X119358010Y-93490911D01*
X119520525Y-93734132D01*
X119727368Y-93940975D01*
X119901760Y-94057500D01*
X119727368Y-94174025D01*
X119520525Y-94380868D01*
X119358010Y-94624089D01*
X119246068Y-94894342D01*
X119189000Y-95181240D01*
X119189000Y-95473760D01*
X119232791Y-95693908D01*
X118512403Y-96414296D01*
X118483399Y-96438099D01*
X118448294Y-96480875D01*
X118388426Y-96553824D01*
X118327611Y-96667600D01*
X118317854Y-96685854D01*
X118274397Y-96829115D01*
X118263400Y-96940768D01*
X118263400Y-96940778D01*
X118259724Y-96978100D01*
X118263400Y-97015422D01*
X118263401Y-108987381D01*
X118105637Y-108956000D01*
X117862363Y-108956000D01*
X117623764Y-109003460D01*
X117399008Y-109096557D01*
X117196733Y-109231713D01*
X117024713Y-109403733D01*
X116889557Y-109606008D01*
X116796460Y-109830764D01*
X116749000Y-110069363D01*
X116749000Y-110312637D01*
X116796460Y-110551236D01*
X116889557Y-110775992D01*
X117024713Y-110978267D01*
X117196733Y-111150287D01*
X117399008Y-111285443D01*
X117623764Y-111378540D01*
X117862363Y-111426000D01*
X117900400Y-111426000D01*
X117900401Y-112636268D01*
X117896724Y-112673600D01*
X117900401Y-112710933D01*
X117911398Y-112822586D01*
X117915714Y-112836813D01*
X117954854Y-112965846D01*
X118025426Y-113097876D01*
X118094838Y-113182454D01*
X118117336Y-113209868D01*
X112579200Y-107671733D01*
X112579200Y-102900818D01*
X112583240Y-102859800D01*
X112577582Y-102802358D01*
X112567118Y-102696111D01*
X112519372Y-102538713D01*
X112441836Y-102393654D01*
X112394212Y-102335624D01*
X112363639Y-102298370D01*
X112363637Y-102298368D01*
X112337491Y-102266509D01*
X112305633Y-102240364D01*
X107966267Y-97901000D01*
X108038839Y-97901000D01*
X108238798Y-97861226D01*
X108427156Y-97783205D01*
X108596674Y-97669937D01*
X108640611Y-97626000D01*
X109831878Y-97626000D01*
X109869200Y-97629676D01*
X109906522Y-97626000D01*
X109906533Y-97626000D01*
X110018186Y-97615003D01*
X110161447Y-97571546D01*
X110293476Y-97500974D01*
X110409201Y-97406001D01*
X110433004Y-97376998D01*
X110983602Y-96826400D01*
X111045739Y-96826400D01*
X111245698Y-96786626D01*
X111434056Y-96708605D01*
X111603574Y-96595337D01*
X111747737Y-96451174D01*
X111861005Y-96281656D01*
X111939026Y-96093298D01*
X111978800Y-95893339D01*
X111978800Y-95689461D01*
X111939026Y-95489502D01*
X111861005Y-95301144D01*
X111747737Y-95131626D01*
X111603574Y-94987463D01*
X111434056Y-94874195D01*
X111245698Y-94796174D01*
X111045739Y-94756400D01*
X110841861Y-94756400D01*
X110641902Y-94796174D01*
X110453544Y-94874195D01*
X110284026Y-94987463D01*
X110139863Y-95131626D01*
X110026595Y-95301144D01*
X109948574Y-95489502D01*
X109908800Y-95689461D01*
X109908800Y-95751598D01*
X109554399Y-96106000D01*
X108640611Y-96106000D01*
X108596674Y-96062063D01*
X108427156Y-95948795D01*
X108238798Y-95870774D01*
X108038839Y-95831000D01*
X107834961Y-95831000D01*
X107635002Y-95870774D01*
X107446644Y-95948795D01*
X107277126Y-96062063D01*
X107132963Y-96206226D01*
X107019695Y-96375744D01*
X106941674Y-96564102D01*
X106935595Y-96594664D01*
X106921137Y-96573026D01*
X106776974Y-96428863D01*
X106607456Y-96315595D01*
X106419098Y-96237574D01*
X106219139Y-96197800D01*
X106151900Y-96197800D01*
X106151900Y-86669801D01*
X116153902Y-76667800D01*
X116216039Y-76667800D01*
X116415998Y-76628026D01*
X116604356Y-76550005D01*
X116773874Y-76436737D01*
X116918037Y-76292574D01*
X117031305Y-76123056D01*
X117109326Y-75934698D01*
X117149100Y-75734739D01*
X117149100Y-75530861D01*
X117109326Y-75330902D01*
X117031305Y-75142544D01*
X116918037Y-74973026D01*
X116773874Y-74828863D01*
X116604356Y-74715595D01*
X116415998Y-74637574D01*
X116216039Y-74597800D01*
X116012161Y-74597800D01*
X115812202Y-74637574D01*
X115623844Y-74715595D01*
X115454326Y-74828863D01*
X115310163Y-74973026D01*
X115196895Y-75142544D01*
X115118874Y-75330902D01*
X115079100Y-75530861D01*
X115079100Y-75592998D01*
X105645300Y-85026799D01*
X105645300Y-74371101D01*
X107913278Y-72103123D01*
X108254213Y-72103123D01*
X108260989Y-72667341D01*
X108275420Y-72791590D01*
X108313813Y-72910636D01*
X108374695Y-73019904D01*
X108455722Y-73115196D01*
X108553783Y-73192848D01*
X108665109Y-73249879D01*
X108785423Y-73284094D01*
X108910100Y-73294180D01*
X109474210Y-73281261D01*
X109630166Y-73119764D01*
X109609236Y-71920697D01*
X108410168Y-71941627D01*
X108254213Y-72103123D01*
X107913278Y-72103123D01*
X108100137Y-71916264D01*
X109863197Y-71916264D01*
X109884127Y-73115332D01*
X110045623Y-73271287D01*
X110609841Y-73264511D01*
X110734090Y-73250080D01*
X110853136Y-73211687D01*
X110962404Y-73150805D01*
X111057696Y-73069778D01*
X111135348Y-72971717D01*
X111192379Y-72860391D01*
X111226594Y-72740077D01*
X111236680Y-72615400D01*
X111223761Y-72051290D01*
X111062264Y-71895334D01*
X109863197Y-71916264D01*
X108100137Y-71916264D01*
X108366564Y-71649838D01*
X108405736Y-71687666D01*
X109604803Y-71666736D01*
X109604454Y-71646739D01*
X109858415Y-71642306D01*
X109858764Y-71662303D01*
X111057832Y-71641373D01*
X111213787Y-71479877D01*
X111207011Y-70915659D01*
X111192580Y-70791410D01*
X111154187Y-70672364D01*
X111093305Y-70563096D01*
X111012278Y-70467804D01*
X110914217Y-70390152D01*
X110802891Y-70333121D01*
X110729434Y-70312231D01*
X110843146Y-70198519D01*
X111005661Y-69955298D01*
X111117603Y-69685045D01*
X111174671Y-69398147D01*
X111174671Y-69105627D01*
X111117603Y-68818729D01*
X111005661Y-68548476D01*
X110843146Y-68305255D01*
X110636303Y-68098412D01*
X110440036Y-67967271D01*
X110591974Y-67865749D01*
X110798817Y-67658906D01*
X110961332Y-67415685D01*
X111073274Y-67145432D01*
X111130342Y-66858534D01*
X111130342Y-66566014D01*
X111073274Y-66279116D01*
X110961332Y-66008863D01*
X110798817Y-65765642D01*
X110591974Y-65558799D01*
X110348753Y-65396284D01*
X110078500Y-65284342D01*
X109791602Y-65227274D01*
X109499082Y-65227274D01*
X109212184Y-65284342D01*
X108941931Y-65396284D01*
X108698710Y-65558799D01*
X108491867Y-65765642D01*
X108329352Y-66008863D01*
X108217410Y-66279116D01*
X108160342Y-66566014D01*
X108160342Y-66858534D01*
X108217410Y-67145432D01*
X108329352Y-67415685D01*
X108491867Y-67658906D01*
X108698710Y-67865749D01*
X108894977Y-67996890D01*
X108743039Y-68098412D01*
X108536196Y-68305255D01*
X108392643Y-68520098D01*
X108357114Y-68523597D01*
X108350697Y-68525544D01*
X108344040Y-68526317D01*
X108279165Y-68547242D01*
X108213853Y-68567054D01*
X108207936Y-68570217D01*
X108201561Y-68572273D01*
X108142026Y-68605447D01*
X108081824Y-68637626D01*
X108076638Y-68641882D01*
X108070786Y-68645143D01*
X108018862Y-68689298D01*
X107966099Y-68732599D01*
X107961844Y-68737784D01*
X107956739Y-68742125D01*
X107914415Y-68795576D01*
X107871126Y-68848325D01*
X107867964Y-68854240D01*
X107863805Y-68859493D01*
X107832725Y-68920168D01*
X107800554Y-68980354D01*
X107798607Y-68986771D01*
X107795552Y-68992736D01*
X107776904Y-69058319D01*
X107757097Y-69123615D01*
X107756440Y-69130290D01*
X107754607Y-69136735D01*
X107749111Y-69204696D01*
X107746100Y-69235268D01*
X107746100Y-69241931D01*
X107742540Y-69285953D01*
X107746100Y-69316595D01*
X107746101Y-70120696D01*
X104374303Y-73492496D01*
X104345299Y-73516299D01*
X104290171Y-73583474D01*
X104250326Y-73632024D01*
X104248033Y-73636314D01*
X104179754Y-73764054D01*
X104136297Y-73907315D01*
X104125300Y-74018968D01*
X104125300Y-74018978D01*
X104121624Y-74056300D01*
X104125300Y-74093622D01*
X104125301Y-107021288D01*
X104085000Y-107061589D01*
X104085000Y-99950827D01*
X104090006Y-99899999D01*
X104085000Y-99849171D01*
X104085000Y-99849162D01*
X104070024Y-99697105D01*
X104010841Y-99502007D01*
X103934908Y-99359946D01*
X103914734Y-99322202D01*
X103817803Y-99204092D01*
X103785396Y-99164604D01*
X103745908Y-99132197D01*
X101635000Y-97021290D01*
X101635000Y-87307454D01*
X101694180Y-87289502D01*
X101804494Y-87230537D01*
X101901185Y-87151185D01*
X101980537Y-87054494D01*
X102039502Y-86944180D01*
X102075812Y-86824482D01*
X102088072Y-86700000D01*
X102088072Y-85000000D01*
X102075812Y-84875518D01*
X102039502Y-84755820D01*
X101980537Y-84645506D01*
X101901185Y-84548815D01*
X101804494Y-84469463D01*
X101694180Y-84410498D01*
X101574482Y-84374188D01*
X101450000Y-84361928D01*
X99750000Y-84361928D01*
X99625518Y-84374188D01*
X99505820Y-84410498D01*
X99395506Y-84469463D01*
X99298815Y-84548815D01*
X99226922Y-84636417D01*
X99226923Y-52796437D01*
X107041713Y-52796430D01*
X107128496Y-52804939D01*
%TA.AperFunction,Conductor*%
D23*
G36*
X107128496Y-52804939D02*
G01*
X107177350Y-52819689D01*
X107222405Y-52843646D01*
X107289005Y-52897964D01*
X115126745Y-60735700D01*
X108887902Y-60735700D01*
X107965400Y-59813199D01*
X107965400Y-59751061D01*
X107925626Y-59551102D01*
X107847605Y-59362744D01*
X107734337Y-59193226D01*
X107590174Y-59049063D01*
X107420656Y-58935795D01*
X107232298Y-58857774D01*
X107032339Y-58818000D01*
X106828461Y-58818000D01*
X106628502Y-58857774D01*
X106440144Y-58935795D01*
X106270626Y-59049063D01*
X106126463Y-59193226D01*
X106013195Y-59362744D01*
X105935174Y-59551102D01*
X105895400Y-59751061D01*
X105895400Y-59954939D01*
X105935174Y-60154898D01*
X106013195Y-60343256D01*
X106126463Y-60512774D01*
X106270626Y-60656937D01*
X106440144Y-60770205D01*
X106628502Y-60848226D01*
X106828461Y-60888000D01*
X106890599Y-60888000D01*
X108009300Y-62006702D01*
X108033099Y-62035701D01*
X108062097Y-62059499D01*
X108148824Y-62130674D01*
X108280853Y-62201246D01*
X108424114Y-62244703D01*
X108573100Y-62259377D01*
X108610433Y-62255700D01*
X116761763Y-62255700D01*
X116749000Y-62319863D01*
X116749000Y-62563137D01*
X116757964Y-62608200D01*
X102600103Y-62608200D01*
X102173200Y-62181298D01*
X102173200Y-62119161D01*
X102133426Y-61919202D01*
X102055405Y-61730844D01*
X101942137Y-61561326D01*
X101797974Y-61417163D01*
X101628456Y-61303895D01*
X101440098Y-61225874D01*
X101240139Y-61186100D01*
X101036261Y-61186100D01*
X100836302Y-61225874D01*
X100647944Y-61303895D01*
X100478426Y-61417163D01*
X100334263Y-61561326D01*
X100220995Y-61730844D01*
X100142974Y-61919202D01*
X100103200Y-62119161D01*
X100103200Y-62323039D01*
X100142974Y-62522998D01*
X100220995Y-62711356D01*
X100334263Y-62880874D01*
X100478426Y-63025037D01*
X100647944Y-63138305D01*
X100836302Y-63216326D01*
X101036261Y-63256100D01*
X101098398Y-63256100D01*
X101721505Y-63879208D01*
X101745299Y-63908201D01*
X101774292Y-63931995D01*
X101774296Y-63931999D01*
X101837769Y-63984089D01*
X101861024Y-64003174D01*
X101993053Y-64073746D01*
X102136314Y-64117203D01*
X102247967Y-64128200D01*
X102247976Y-64128200D01*
X102285299Y-64131876D01*
X102322622Y-64128200D01*
X118370928Y-64128200D01*
X118370928Y-64579771D01*
X117698098Y-65252601D01*
X117669100Y-65276399D01*
X117645302Y-65305397D01*
X117645301Y-65305398D01*
X117574126Y-65392124D01*
X117503554Y-65524154D01*
X117486638Y-65579922D01*
X117462486Y-65659544D01*
X117460098Y-65667415D01*
X117445424Y-65816400D01*
X117449101Y-65853733D01*
X117449100Y-90285278D01*
X117445424Y-90322600D01*
X117449100Y-90359922D01*
X117449100Y-90359932D01*
X117460097Y-90471585D01*
X117488999Y-90566864D01*
X117503554Y-90614846D01*
X117574126Y-90746876D01*
X117608520Y-90788785D01*
X117669099Y-90862601D01*
X117698103Y-90886404D01*
X119232790Y-92421092D01*
X119189000Y-92641240D01*
X119189000Y-92933760D01*
X119246068Y-93220658D01*
X119358010Y-93490911D01*
X119520525Y-93734132D01*
X119727368Y-93940975D01*
X119901760Y-94057500D01*
X119727368Y-94174025D01*
X119520525Y-94380868D01*
X119358010Y-94624089D01*
X119246068Y-94894342D01*
X119189000Y-95181240D01*
X119189000Y-95473760D01*
X119232791Y-95693908D01*
X118512403Y-96414296D01*
X118483399Y-96438099D01*
X118448294Y-96480875D01*
X118388426Y-96553824D01*
X118327611Y-96667600D01*
X118317854Y-96685854D01*
X118274397Y-96829115D01*
X118263400Y-96940768D01*
X118263400Y-96940778D01*
X118259724Y-96978100D01*
X118263400Y-97015422D01*
X118263401Y-108987381D01*
X118105637Y-108956000D01*
X117862363Y-108956000D01*
X117623764Y-109003460D01*
X117399008Y-109096557D01*
X117196733Y-109231713D01*
X117024713Y-109403733D01*
X116889557Y-109606008D01*
X116796460Y-109830764D01*
X116749000Y-110069363D01*
X116749000Y-110312637D01*
X116796460Y-110551236D01*
X116889557Y-110775992D01*
X117024713Y-110978267D01*
X117196733Y-111150287D01*
X117399008Y-111285443D01*
X117623764Y-111378540D01*
X117862363Y-111426000D01*
X117900400Y-111426000D01*
X117900401Y-112636268D01*
X117896724Y-112673600D01*
X117900401Y-112710933D01*
X117911398Y-112822586D01*
X117915714Y-112836813D01*
X117954854Y-112965846D01*
X118025426Y-113097876D01*
X118094838Y-113182454D01*
X118117336Y-113209868D01*
X112579200Y-107671733D01*
X112579200Y-102900818D01*
X112583240Y-102859800D01*
X112577582Y-102802358D01*
X112567118Y-102696111D01*
X112519372Y-102538713D01*
X112441836Y-102393654D01*
X112394212Y-102335624D01*
X112363639Y-102298370D01*
X112363637Y-102298368D01*
X112337491Y-102266509D01*
X112305633Y-102240364D01*
X107966267Y-97901000D01*
X108038839Y-97901000D01*
X108238798Y-97861226D01*
X108427156Y-97783205D01*
X108596674Y-97669937D01*
X108640611Y-97626000D01*
X109831878Y-97626000D01*
X109869200Y-97629676D01*
X109906522Y-97626000D01*
X109906533Y-97626000D01*
X110018186Y-97615003D01*
X110161447Y-97571546D01*
X110293476Y-97500974D01*
X110409201Y-97406001D01*
X110433004Y-97376998D01*
X110983602Y-96826400D01*
X111045739Y-96826400D01*
X111245698Y-96786626D01*
X111434056Y-96708605D01*
X111603574Y-96595337D01*
X111747737Y-96451174D01*
X111861005Y-96281656D01*
X111939026Y-96093298D01*
X111978800Y-95893339D01*
X111978800Y-95689461D01*
X111939026Y-95489502D01*
X111861005Y-95301144D01*
X111747737Y-95131626D01*
X111603574Y-94987463D01*
X111434056Y-94874195D01*
X111245698Y-94796174D01*
X111045739Y-94756400D01*
X110841861Y-94756400D01*
X110641902Y-94796174D01*
X110453544Y-94874195D01*
X110284026Y-94987463D01*
X110139863Y-95131626D01*
X110026595Y-95301144D01*
X109948574Y-95489502D01*
X109908800Y-95689461D01*
X109908800Y-95751598D01*
X109554399Y-96106000D01*
X108640611Y-96106000D01*
X108596674Y-96062063D01*
X108427156Y-95948795D01*
X108238798Y-95870774D01*
X108038839Y-95831000D01*
X107834961Y-95831000D01*
X107635002Y-95870774D01*
X107446644Y-95948795D01*
X107277126Y-96062063D01*
X107132963Y-96206226D01*
X107019695Y-96375744D01*
X106941674Y-96564102D01*
X106935595Y-96594664D01*
X106921137Y-96573026D01*
X106776974Y-96428863D01*
X106607456Y-96315595D01*
X106419098Y-96237574D01*
X106219139Y-96197800D01*
X106151900Y-96197800D01*
X106151900Y-86669801D01*
X116153902Y-76667800D01*
X116216039Y-76667800D01*
X116415998Y-76628026D01*
X116604356Y-76550005D01*
X116773874Y-76436737D01*
X116918037Y-76292574D01*
X117031305Y-76123056D01*
X117109326Y-75934698D01*
X117149100Y-75734739D01*
X117149100Y-75530861D01*
X117109326Y-75330902D01*
X117031305Y-75142544D01*
X116918037Y-74973026D01*
X116773874Y-74828863D01*
X116604356Y-74715595D01*
X116415998Y-74637574D01*
X116216039Y-74597800D01*
X116012161Y-74597800D01*
X115812202Y-74637574D01*
X115623844Y-74715595D01*
X115454326Y-74828863D01*
X115310163Y-74973026D01*
X115196895Y-75142544D01*
X115118874Y-75330902D01*
X115079100Y-75530861D01*
X115079100Y-75592998D01*
X105645300Y-85026799D01*
X105645300Y-74371101D01*
X107913278Y-72103123D01*
X108254213Y-72103123D01*
X108260989Y-72667341D01*
X108275420Y-72791590D01*
X108313813Y-72910636D01*
X108374695Y-73019904D01*
X108455722Y-73115196D01*
X108553783Y-73192848D01*
X108665109Y-73249879D01*
X108785423Y-73284094D01*
X108910100Y-73294180D01*
X109474210Y-73281261D01*
X109630166Y-73119764D01*
X109609236Y-71920697D01*
X108410168Y-71941627D01*
X108254213Y-72103123D01*
X107913278Y-72103123D01*
X108100137Y-71916264D01*
X109863197Y-71916264D01*
X109884127Y-73115332D01*
X110045623Y-73271287D01*
X110609841Y-73264511D01*
X110734090Y-73250080D01*
X110853136Y-73211687D01*
X110962404Y-73150805D01*
X111057696Y-73069778D01*
X111135348Y-72971717D01*
X111192379Y-72860391D01*
X111226594Y-72740077D01*
X111236680Y-72615400D01*
X111223761Y-72051290D01*
X111062264Y-71895334D01*
X109863197Y-71916264D01*
X108100137Y-71916264D01*
X108366564Y-71649838D01*
X108405736Y-71687666D01*
X109604803Y-71666736D01*
X109604454Y-71646739D01*
X109858415Y-71642306D01*
X109858764Y-71662303D01*
X111057832Y-71641373D01*
X111213787Y-71479877D01*
X111207011Y-70915659D01*
X111192580Y-70791410D01*
X111154187Y-70672364D01*
X111093305Y-70563096D01*
X111012278Y-70467804D01*
X110914217Y-70390152D01*
X110802891Y-70333121D01*
X110729434Y-70312231D01*
X110843146Y-70198519D01*
X111005661Y-69955298D01*
X111117603Y-69685045D01*
X111174671Y-69398147D01*
X111174671Y-69105627D01*
X111117603Y-68818729D01*
X111005661Y-68548476D01*
X110843146Y-68305255D01*
X110636303Y-68098412D01*
X110440036Y-67967271D01*
X110591974Y-67865749D01*
X110798817Y-67658906D01*
X110961332Y-67415685D01*
X111073274Y-67145432D01*
X111130342Y-66858534D01*
X111130342Y-66566014D01*
X111073274Y-66279116D01*
X110961332Y-66008863D01*
X110798817Y-65765642D01*
X110591974Y-65558799D01*
X110348753Y-65396284D01*
X110078500Y-65284342D01*
X109791602Y-65227274D01*
X109499082Y-65227274D01*
X109212184Y-65284342D01*
X108941931Y-65396284D01*
X108698710Y-65558799D01*
X108491867Y-65765642D01*
X108329352Y-66008863D01*
X108217410Y-66279116D01*
X108160342Y-66566014D01*
X108160342Y-66858534D01*
X108217410Y-67145432D01*
X108329352Y-67415685D01*
X108491867Y-67658906D01*
X108698710Y-67865749D01*
X108894977Y-67996890D01*
X108743039Y-68098412D01*
X108536196Y-68305255D01*
X108392643Y-68520098D01*
X108357114Y-68523597D01*
X108350697Y-68525544D01*
X108344040Y-68526317D01*
X108279165Y-68547242D01*
X108213853Y-68567054D01*
X108207936Y-68570217D01*
X108201561Y-68572273D01*
X108142026Y-68605447D01*
X108081824Y-68637626D01*
X108076638Y-68641882D01*
X108070786Y-68645143D01*
X108018862Y-68689298D01*
X107966099Y-68732599D01*
X107961844Y-68737784D01*
X107956739Y-68742125D01*
X107914415Y-68795576D01*
X107871126Y-68848325D01*
X107867964Y-68854240D01*
X107863805Y-68859493D01*
X107832725Y-68920168D01*
X107800554Y-68980354D01*
X107798607Y-68986771D01*
X107795552Y-68992736D01*
X107776904Y-69058319D01*
X107757097Y-69123615D01*
X107756440Y-69130290D01*
X107754607Y-69136735D01*
X107749111Y-69204696D01*
X107746100Y-69235268D01*
X107746100Y-69241931D01*
X107742540Y-69285953D01*
X107746100Y-69316595D01*
X107746101Y-70120696D01*
X104374303Y-73492496D01*
X104345299Y-73516299D01*
X104290171Y-73583474D01*
X104250326Y-73632024D01*
X104248033Y-73636314D01*
X104179754Y-73764054D01*
X104136297Y-73907315D01*
X104125300Y-74018968D01*
X104125300Y-74018978D01*
X104121624Y-74056300D01*
X104125300Y-74093622D01*
X104125301Y-107021288D01*
X104085000Y-107061589D01*
X104085000Y-99950827D01*
X104090006Y-99899999D01*
X104085000Y-99849171D01*
X104085000Y-99849162D01*
X104070024Y-99697105D01*
X104010841Y-99502007D01*
X103934908Y-99359946D01*
X103914734Y-99322202D01*
X103817803Y-99204092D01*
X103785396Y-99164604D01*
X103745908Y-99132197D01*
X101635000Y-97021290D01*
X101635000Y-87307454D01*
X101694180Y-87289502D01*
X101804494Y-87230537D01*
X101901185Y-87151185D01*
X101980537Y-87054494D01*
X102039502Y-86944180D01*
X102075812Y-86824482D01*
X102088072Y-86700000D01*
X102088072Y-85000000D01*
X102075812Y-84875518D01*
X102039502Y-84755820D01*
X101980537Y-84645506D01*
X101901185Y-84548815D01*
X101804494Y-84469463D01*
X101694180Y-84410498D01*
X101574482Y-84374188D01*
X101450000Y-84361928D01*
X99750000Y-84361928D01*
X99625518Y-84374188D01*
X99505820Y-84410498D01*
X99395506Y-84469463D01*
X99298815Y-84548815D01*
X99226922Y-84636417D01*
X99226923Y-52796437D01*
X107041713Y-52796430D01*
X107128496Y-52804939D01*
G37*
%TD.AperFunction*%
D22*
X143165000Y-90261928D02*
X143150000Y-90261928D01*
X143025518Y-90274188D01*
X142905820Y-90310498D01*
X142795506Y-90369463D01*
X142698815Y-90448815D01*
X142619463Y-90545506D01*
X142560498Y-90655820D01*
X142524188Y-90775518D01*
X142511928Y-90900000D01*
X142511928Y-92600000D01*
X142524188Y-92724482D01*
X142560498Y-92844180D01*
X142619463Y-92954494D01*
X142698815Y-93051185D01*
X142795506Y-93130537D01*
X142905820Y-93189502D01*
X142986466Y-93213966D01*
X142902412Y-93289731D01*
X142728359Y-93523080D01*
X142603175Y-93785901D01*
X142558524Y-93933110D01*
X142679845Y-94163000D01*
X143873000Y-94163000D01*
X143873000Y-94143000D01*
X144127000Y-94143000D01*
X144127000Y-94163000D01*
X144147000Y-94163000D01*
X144147000Y-94417000D01*
X144127000Y-94417000D01*
X144127000Y-94437000D01*
X143873000Y-94437000D01*
X143873000Y-94417000D01*
X142679845Y-94417000D01*
X142558524Y-94646890D01*
X142603175Y-94794099D01*
X142728359Y-95056920D01*
X142902412Y-95290269D01*
X143118645Y-95485178D01*
X143167409Y-95514225D01*
X143160960Y-95579700D01*
X143163264Y-95603095D01*
X143053368Y-95676525D01*
X142846525Y-95883368D01*
X142691012Y-96116110D01*
X142350300Y-95775399D01*
X142350300Y-84933611D01*
X142394137Y-84889774D01*
X142507405Y-84720256D01*
X142585426Y-84531898D01*
X142625200Y-84331939D01*
X142625200Y-84128061D01*
X142585426Y-83928102D01*
X142507405Y-83739744D01*
X142394137Y-83570226D01*
X142249974Y-83426063D01*
X142080456Y-83312795D01*
X141892098Y-83234774D01*
X141692139Y-83195000D01*
X141580500Y-83195000D01*
X141580500Y-82425701D01*
X143165001Y-80841200D01*
X143165000Y-90261928D01*
%TA.AperFunction,Conductor*%
D23*
G36*
X143165000Y-90261928D02*
G01*
X143150000Y-90261928D01*
X143025518Y-90274188D01*
X142905820Y-90310498D01*
X142795506Y-90369463D01*
X142698815Y-90448815D01*
X142619463Y-90545506D01*
X142560498Y-90655820D01*
X142524188Y-90775518D01*
X142511928Y-90900000D01*
X142511928Y-92600000D01*
X142524188Y-92724482D01*
X142560498Y-92844180D01*
X142619463Y-92954494D01*
X142698815Y-93051185D01*
X142795506Y-93130537D01*
X142905820Y-93189502D01*
X142986466Y-93213966D01*
X142902412Y-93289731D01*
X142728359Y-93523080D01*
X142603175Y-93785901D01*
X142558524Y-93933110D01*
X142679845Y-94163000D01*
X143873000Y-94163000D01*
X143873000Y-94143000D01*
X144127000Y-94143000D01*
X144127000Y-94163000D01*
X144147000Y-94163000D01*
X144147000Y-94417000D01*
X144127000Y-94417000D01*
X144127000Y-94437000D01*
X143873000Y-94437000D01*
X143873000Y-94417000D01*
X142679845Y-94417000D01*
X142558524Y-94646890D01*
X142603175Y-94794099D01*
X142728359Y-95056920D01*
X142902412Y-95290269D01*
X143118645Y-95485178D01*
X143167409Y-95514225D01*
X143160960Y-95579700D01*
X143163264Y-95603095D01*
X143053368Y-95676525D01*
X142846525Y-95883368D01*
X142691012Y-96116110D01*
X142350300Y-95775399D01*
X142350300Y-84933611D01*
X142394137Y-84889774D01*
X142507405Y-84720256D01*
X142585426Y-84531898D01*
X142625200Y-84331939D01*
X142625200Y-84128061D01*
X142585426Y-83928102D01*
X142507405Y-83739744D01*
X142394137Y-83570226D01*
X142249974Y-83426063D01*
X142080456Y-83312795D01*
X141892098Y-83234774D01*
X141692139Y-83195000D01*
X141580500Y-83195000D01*
X141580500Y-82425701D01*
X143165001Y-80841200D01*
X143165000Y-90261928D01*
G37*
%TD.AperFunction*%
D22*
X173998701Y-76262203D02*
X173998700Y-90766878D01*
X173995024Y-90804200D01*
X173998700Y-90841522D01*
X173998700Y-90841532D01*
X174009697Y-90953185D01*
X174039497Y-91051424D01*
X174053154Y-91096446D01*
X174123726Y-91228476D01*
X174157560Y-91269702D01*
X174218699Y-91344201D01*
X174247702Y-91368003D01*
X174756469Y-91876771D01*
X174618010Y-92083989D01*
X174506068Y-92354242D01*
X174449000Y-92641140D01*
X174449000Y-92933660D01*
X174506068Y-93220558D01*
X174618010Y-93490811D01*
X174780525Y-93734032D01*
X174987368Y-93940875D01*
X175161760Y-94057400D01*
X174987368Y-94173925D01*
X174780525Y-94380768D01*
X174618010Y-94623989D01*
X174506068Y-94894242D01*
X174449000Y-95181140D01*
X174449000Y-95473660D01*
X174503610Y-95748200D01*
X174174402Y-95748200D01*
X164246604Y-85820403D01*
X164222801Y-85791399D01*
X164107076Y-85696426D01*
X163975047Y-85625854D01*
X163831786Y-85582397D01*
X163720133Y-85571400D01*
X163720122Y-85571400D01*
X163682800Y-85567724D01*
X163645478Y-85571400D01*
X161721522Y-85571400D01*
X161684199Y-85567724D01*
X161646876Y-85571400D01*
X161646867Y-85571400D01*
X161535214Y-85582397D01*
X161391953Y-85625854D01*
X161259923Y-85696426D01*
X161237000Y-85715239D01*
X161237000Y-85322601D01*
X161412398Y-85147203D01*
X161441401Y-85123401D01*
X161536374Y-85007676D01*
X161606946Y-84875647D01*
X161650403Y-84732386D01*
X161661400Y-84620733D01*
X161661400Y-84620724D01*
X161665076Y-84583401D01*
X161661400Y-84546078D01*
X161661400Y-83765801D01*
X161862698Y-83564503D01*
X161891701Y-83540701D01*
X161986674Y-83424976D01*
X162057246Y-83292947D01*
X162100703Y-83149686D01*
X162111700Y-83038033D01*
X162111700Y-83038024D01*
X162115376Y-83000701D01*
X162111700Y-82963378D01*
X162111700Y-67777215D01*
X162264735Y-67758425D01*
X162386795Y-67731085D01*
X162501176Y-67680459D01*
X162603482Y-67608490D01*
X162689782Y-67517945D01*
X162756759Y-67412304D01*
X162801840Y-67295626D01*
X162823291Y-67172395D01*
X162820290Y-67047348D01*
X162600925Y-65260765D01*
X162573585Y-65138705D01*
X162522959Y-65024324D01*
X162450990Y-64922018D01*
X162360445Y-64835718D01*
X162254804Y-64768741D01*
X162138126Y-64723660D01*
X162119258Y-64720376D01*
X162234751Y-64547528D01*
X162249184Y-64512685D01*
X173998701Y-76262203D01*
%TA.AperFunction,Conductor*%
D23*
G36*
X173998701Y-76262203D02*
G01*
X173998700Y-90766878D01*
X173995024Y-90804200D01*
X173998700Y-90841522D01*
X173998700Y-90841532D01*
X174009697Y-90953185D01*
X174039497Y-91051424D01*
X174053154Y-91096446D01*
X174123726Y-91228476D01*
X174157560Y-91269702D01*
X174218699Y-91344201D01*
X174247702Y-91368003D01*
X174756469Y-91876771D01*
X174618010Y-92083989D01*
X174506068Y-92354242D01*
X174449000Y-92641140D01*
X174449000Y-92933660D01*
X174506068Y-93220558D01*
X174618010Y-93490811D01*
X174780525Y-93734032D01*
X174987368Y-93940875D01*
X175161760Y-94057400D01*
X174987368Y-94173925D01*
X174780525Y-94380768D01*
X174618010Y-94623989D01*
X174506068Y-94894242D01*
X174449000Y-95181140D01*
X174449000Y-95473660D01*
X174503610Y-95748200D01*
X174174402Y-95748200D01*
X164246604Y-85820403D01*
X164222801Y-85791399D01*
X164107076Y-85696426D01*
X163975047Y-85625854D01*
X163831786Y-85582397D01*
X163720133Y-85571400D01*
X163720122Y-85571400D01*
X163682800Y-85567724D01*
X163645478Y-85571400D01*
X161721522Y-85571400D01*
X161684199Y-85567724D01*
X161646876Y-85571400D01*
X161646867Y-85571400D01*
X161535214Y-85582397D01*
X161391953Y-85625854D01*
X161259923Y-85696426D01*
X161237000Y-85715239D01*
X161237000Y-85322601D01*
X161412398Y-85147203D01*
X161441401Y-85123401D01*
X161536374Y-85007676D01*
X161606946Y-84875647D01*
X161650403Y-84732386D01*
X161661400Y-84620733D01*
X161661400Y-84620724D01*
X161665076Y-84583401D01*
X161661400Y-84546078D01*
X161661400Y-83765801D01*
X161862698Y-83564503D01*
X161891701Y-83540701D01*
X161986674Y-83424976D01*
X162057246Y-83292947D01*
X162100703Y-83149686D01*
X162111700Y-83038033D01*
X162111700Y-83038024D01*
X162115376Y-83000701D01*
X162111700Y-82963378D01*
X162111700Y-67777215D01*
X162264735Y-67758425D01*
X162386795Y-67731085D01*
X162501176Y-67680459D01*
X162603482Y-67608490D01*
X162689782Y-67517945D01*
X162756759Y-67412304D01*
X162801840Y-67295626D01*
X162823291Y-67172395D01*
X162820290Y-67047348D01*
X162600925Y-65260765D01*
X162573585Y-65138705D01*
X162522959Y-65024324D01*
X162450990Y-64922018D01*
X162360445Y-64835718D01*
X162254804Y-64768741D01*
X162138126Y-64723660D01*
X162119258Y-64720376D01*
X162234751Y-64547528D01*
X162249184Y-64512685D01*
X173998701Y-76262203D01*
G37*
%TD.AperFunction*%
D22*
X147034326Y-78290437D02*
X147203844Y-78403705D01*
X147392202Y-78481726D01*
X147592161Y-78521500D01*
X147654299Y-78521500D01*
X152833870Y-83701072D01*
X152640842Y-83739468D01*
X152370589Y-83851410D01*
X152127368Y-84013925D01*
X151920525Y-84220768D01*
X151847095Y-84330664D01*
X151823700Y-84328360D01*
X151782681Y-84332400D01*
X151660011Y-84344482D01*
X151652610Y-84346727D01*
X151562397Y-84318608D01*
X151472889Y-84408116D01*
X151357554Y-84469764D01*
X151230409Y-84574109D01*
X151126064Y-84701254D01*
X151064416Y-84816589D01*
X150713605Y-85167400D01*
X150727748Y-85181543D01*
X150548143Y-85361148D01*
X150534000Y-85347005D01*
X150519858Y-85361148D01*
X150340253Y-85181543D01*
X150354395Y-85167400D01*
X149505603Y-84318608D01*
X149256528Y-84396243D01*
X149130629Y-84660283D01*
X149058661Y-84943811D01*
X149043389Y-85235931D01*
X149085401Y-85525419D01*
X149183081Y-85801147D01*
X149256528Y-85938557D01*
X149297579Y-85951352D01*
X148271878Y-86977055D01*
X148240009Y-87003209D01*
X148138302Y-87127140D01*
X148135664Y-87130355D01*
X148058128Y-87275414D01*
X148010382Y-87432812D01*
X147994260Y-87596500D01*
X147998300Y-87637519D01*
X147998301Y-90918631D01*
X145311071Y-93605862D01*
X145271641Y-93523080D01*
X145097588Y-93289731D01*
X145013534Y-93213966D01*
X145094180Y-93189502D01*
X145204494Y-93130537D01*
X145301185Y-93051185D01*
X145380537Y-92954494D01*
X145439502Y-92844180D01*
X145475812Y-92724482D01*
X145488072Y-92600000D01*
X145488072Y-90900000D01*
X145475812Y-90775518D01*
X145439502Y-90655820D01*
X145380537Y-90545506D01*
X145301185Y-90448815D01*
X145204494Y-90369463D01*
X145094180Y-90310498D01*
X144974482Y-90274188D01*
X144850000Y-90261928D01*
X144835000Y-90261928D01*
X144835000Y-84139003D01*
X149685208Y-84139003D01*
X150534000Y-84987795D01*
X151382792Y-84139003D01*
X151305157Y-83889928D01*
X151041117Y-83764029D01*
X150757589Y-83692061D01*
X150465469Y-83676789D01*
X150175981Y-83718801D01*
X149900253Y-83816481D01*
X149762843Y-83889928D01*
X149685208Y-84139003D01*
X144835000Y-84139003D01*
X144835000Y-80356867D01*
X146967878Y-78223989D01*
X147034326Y-78290437D01*
%TA.AperFunction,Conductor*%
D23*
G36*
X147034326Y-78290437D02*
G01*
X147203844Y-78403705D01*
X147392202Y-78481726D01*
X147592161Y-78521500D01*
X147654299Y-78521500D01*
X152833870Y-83701072D01*
X152640842Y-83739468D01*
X152370589Y-83851410D01*
X152127368Y-84013925D01*
X151920525Y-84220768D01*
X151847095Y-84330664D01*
X151823700Y-84328360D01*
X151782681Y-84332400D01*
X151660011Y-84344482D01*
X151652610Y-84346727D01*
X151562397Y-84318608D01*
X151472889Y-84408116D01*
X151357554Y-84469764D01*
X151230409Y-84574109D01*
X151126064Y-84701254D01*
X151064416Y-84816589D01*
X150713605Y-85167400D01*
X150727748Y-85181543D01*
X150548143Y-85361148D01*
X150534000Y-85347005D01*
X150519858Y-85361148D01*
X150340253Y-85181543D01*
X150354395Y-85167400D01*
X149505603Y-84318608D01*
X149256528Y-84396243D01*
X149130629Y-84660283D01*
X149058661Y-84943811D01*
X149043389Y-85235931D01*
X149085401Y-85525419D01*
X149183081Y-85801147D01*
X149256528Y-85938557D01*
X149297579Y-85951352D01*
X148271878Y-86977055D01*
X148240009Y-87003209D01*
X148138302Y-87127140D01*
X148135664Y-87130355D01*
X148058128Y-87275414D01*
X148010382Y-87432812D01*
X147994260Y-87596500D01*
X147998300Y-87637519D01*
X147998301Y-90918631D01*
X145311071Y-93605862D01*
X145271641Y-93523080D01*
X145097588Y-93289731D01*
X145013534Y-93213966D01*
X145094180Y-93189502D01*
X145204494Y-93130537D01*
X145301185Y-93051185D01*
X145380537Y-92954494D01*
X145439502Y-92844180D01*
X145475812Y-92724482D01*
X145488072Y-92600000D01*
X145488072Y-90900000D01*
X145475812Y-90775518D01*
X145439502Y-90655820D01*
X145380537Y-90545506D01*
X145301185Y-90448815D01*
X145204494Y-90369463D01*
X145094180Y-90310498D01*
X144974482Y-90274188D01*
X144850000Y-90261928D01*
X144835000Y-90261928D01*
X144835000Y-84139003D01*
X149685208Y-84139003D01*
X150534000Y-84987795D01*
X151382792Y-84139003D01*
X151305157Y-83889928D01*
X151041117Y-83764029D01*
X150757589Y-83692061D01*
X150465469Y-83676789D01*
X150175981Y-83718801D01*
X149900253Y-83816481D01*
X149762843Y-83889928D01*
X149685208Y-84139003D01*
X144835000Y-84139003D01*
X144835000Y-80356867D01*
X146967878Y-78223989D01*
X147034326Y-78290437D01*
G37*
%TD.AperFunction*%
D22*
X159767075Y-67422235D02*
X159794415Y-67544295D01*
X159845041Y-67658676D01*
X159917010Y-67760982D01*
X160007555Y-67847282D01*
X160113196Y-67914259D01*
X160229874Y-67959340D01*
X160353105Y-67980791D01*
X160478152Y-67977790D01*
X160591701Y-67963848D01*
X160591700Y-82685899D01*
X160390398Y-82887201D01*
X160361400Y-82910999D01*
X160337602Y-82939997D01*
X160337601Y-82939998D01*
X160266426Y-83026724D01*
X160195854Y-83158754D01*
X160184267Y-83196954D01*
X160155149Y-83292947D01*
X160152398Y-83302015D01*
X160137724Y-83451000D01*
X160141401Y-83488332D01*
X160141400Y-84268599D01*
X159965998Y-84444001D01*
X159937000Y-84467799D01*
X159913202Y-84496797D01*
X159913201Y-84496798D01*
X159842026Y-84583524D01*
X159771454Y-84715554D01*
X159746382Y-84798209D01*
X159727998Y-84858814D01*
X159720068Y-84939328D01*
X159713324Y-85007800D01*
X159717001Y-85045132D01*
X159717000Y-88434598D01*
X148729100Y-77446699D01*
X148729100Y-77384561D01*
X148689326Y-77184602D01*
X148611305Y-76996244D01*
X148498037Y-76826726D01*
X148431589Y-76760278D01*
X159548640Y-65643228D01*
X159767075Y-67422235D01*
%TA.AperFunction,Conductor*%
D23*
G36*
X159767075Y-67422235D02*
G01*
X159794415Y-67544295D01*
X159845041Y-67658676D01*
X159917010Y-67760982D01*
X160007555Y-67847282D01*
X160113196Y-67914259D01*
X160229874Y-67959340D01*
X160353105Y-67980791D01*
X160478152Y-67977790D01*
X160591701Y-67963848D01*
X160591700Y-82685899D01*
X160390398Y-82887201D01*
X160361400Y-82910999D01*
X160337602Y-82939997D01*
X160337601Y-82939998D01*
X160266426Y-83026724D01*
X160195854Y-83158754D01*
X160184267Y-83196954D01*
X160155149Y-83292947D01*
X160152398Y-83302015D01*
X160137724Y-83451000D01*
X160141401Y-83488332D01*
X160141400Y-84268599D01*
X159965998Y-84444001D01*
X159937000Y-84467799D01*
X159913202Y-84496797D01*
X159913201Y-84496798D01*
X159842026Y-84583524D01*
X159771454Y-84715554D01*
X159746382Y-84798209D01*
X159727998Y-84858814D01*
X159720068Y-84939328D01*
X159713324Y-85007800D01*
X159717001Y-85045132D01*
X159717000Y-88434598D01*
X148729100Y-77446699D01*
X148729100Y-77384561D01*
X148689326Y-77184602D01*
X148611305Y-76996244D01*
X148498037Y-76826726D01*
X148431589Y-76760278D01*
X159548640Y-65643228D01*
X159767075Y-67422235D01*
G37*
%TD.AperFunction*%
D22*
X157586263Y-57541674D02*
X157730426Y-57685837D01*
X157899944Y-57799105D01*
X158088302Y-57877126D01*
X158288261Y-57916900D01*
X158492139Y-57916900D01*
X158609034Y-57893648D01*
X158659563Y-58015636D01*
X155910199Y-60765000D01*
X155848061Y-60765000D01*
X155648102Y-60804774D01*
X155459744Y-60882795D01*
X155290226Y-60996063D01*
X155146063Y-61140226D01*
X155032795Y-61309744D01*
X154954774Y-61498102D01*
X154915000Y-61698061D01*
X154915000Y-61760198D01*
X152580934Y-64094265D01*
X152528102Y-64104774D01*
X152339744Y-64182795D01*
X152170226Y-64296063D01*
X152026063Y-64440226D01*
X151912795Y-64609744D01*
X151834774Y-64798102D01*
X151795000Y-64998061D01*
X151795000Y-65201939D01*
X151834774Y-65401898D01*
X151912795Y-65590256D01*
X152026063Y-65759774D01*
X152170226Y-65903937D01*
X152339744Y-66017205D01*
X152528102Y-66095226D01*
X152728061Y-66135000D01*
X152931939Y-66135000D01*
X153131898Y-66095226D01*
X153320256Y-66017205D01*
X153489774Y-65903937D01*
X153633937Y-65759774D01*
X153747205Y-65590256D01*
X153825226Y-65401898D01*
X153865000Y-65201939D01*
X153865000Y-64998061D01*
X153858652Y-64966149D01*
X155989802Y-62835000D01*
X156051939Y-62835000D01*
X156251898Y-62795226D01*
X156440256Y-62717205D01*
X156609774Y-62603937D01*
X156753937Y-62459774D01*
X156867205Y-62290256D01*
X156945226Y-62101898D01*
X156985000Y-61901939D01*
X156985000Y-61839801D01*
X158839738Y-59985063D01*
X158967075Y-61022135D01*
X158994415Y-61144195D01*
X159045041Y-61258576D01*
X159117010Y-61360882D01*
X159170670Y-61412027D01*
X139080998Y-81501701D01*
X139052000Y-81525499D01*
X139028202Y-81554497D01*
X139028201Y-81554498D01*
X138957026Y-81641224D01*
X138886454Y-81773254D01*
X138872683Y-81818653D01*
X138842998Y-81916514D01*
X138838526Y-81961915D01*
X138828324Y-82065500D01*
X138832001Y-82102832D01*
X138832001Y-82454200D01*
X138822800Y-82454200D01*
X138822800Y-79324123D01*
X138826476Y-79286800D01*
X138822800Y-79249477D01*
X138822800Y-79249467D01*
X138811803Y-79137814D01*
X138768346Y-78994553D01*
X138759677Y-78978335D01*
X138697774Y-78862523D01*
X138626599Y-78775797D01*
X138602801Y-78746799D01*
X138573803Y-78723001D01*
X126742117Y-66891315D01*
X126982468Y-66990872D01*
X127319899Y-67057991D01*
X127663941Y-67057991D01*
X128001372Y-66990872D01*
X128319225Y-66859213D01*
X128605285Y-66668074D01*
X128848560Y-66424799D01*
X129039699Y-66138739D01*
X129171358Y-65820886D01*
X129238477Y-65483455D01*
X129238477Y-65139413D01*
X129171358Y-64801982D01*
X129039699Y-64484129D01*
X128848560Y-64198069D01*
X128605285Y-63954794D01*
X128319225Y-63763655D01*
X128001372Y-63631996D01*
X127663941Y-63564877D01*
X127319899Y-63564877D01*
X126982468Y-63631996D01*
X126664615Y-63763655D01*
X126378555Y-63954794D01*
X126135280Y-64198069D01*
X125944141Y-64484129D01*
X125812482Y-64801982D01*
X125745363Y-65139413D01*
X125745363Y-65483455D01*
X125812482Y-65820886D01*
X125912039Y-66061238D01*
X121647232Y-61796431D01*
X141342567Y-61796431D01*
X138818099Y-64320900D01*
X138755961Y-64320900D01*
X138556002Y-64360674D01*
X138367644Y-64438695D01*
X138198126Y-64551963D01*
X138053963Y-64696126D01*
X137940695Y-64865644D01*
X137862674Y-65054002D01*
X137822900Y-65253961D01*
X137822900Y-65457839D01*
X137862674Y-65657798D01*
X137940695Y-65846156D01*
X138053963Y-66015674D01*
X138198126Y-66159837D01*
X138367644Y-66273105D01*
X138556002Y-66351126D01*
X138755961Y-66390900D01*
X138959839Y-66390900D01*
X139159798Y-66351126D01*
X139348156Y-66273105D01*
X139517674Y-66159837D01*
X139661837Y-66015674D01*
X139775105Y-65846156D01*
X139853126Y-65657798D01*
X139892900Y-65457839D01*
X139892900Y-65395701D01*
X140149186Y-65139415D01*
X143745361Y-65139415D01*
X143745361Y-65483455D01*
X143812480Y-65820886D01*
X143944139Y-66138738D01*
X144135278Y-66424798D01*
X144378551Y-66668071D01*
X144664611Y-66859210D01*
X144982463Y-66990869D01*
X145319894Y-67057988D01*
X145663934Y-67057988D01*
X146001365Y-66990869D01*
X146319217Y-66859210D01*
X146605277Y-66668071D01*
X146848550Y-66424798D01*
X147039689Y-66138738D01*
X147171348Y-65820886D01*
X147238467Y-65483455D01*
X147238467Y-65139415D01*
X147171348Y-64801984D01*
X147039689Y-64484132D01*
X146848550Y-64198072D01*
X146605277Y-63954799D01*
X146319217Y-63763660D01*
X146001365Y-63632001D01*
X145663934Y-63564882D01*
X145319894Y-63564882D01*
X144982463Y-63632001D01*
X144664611Y-63763660D01*
X144378551Y-63954799D01*
X144135278Y-64198072D01*
X143944139Y-64484132D01*
X143812480Y-64801984D01*
X143745361Y-65139415D01*
X140149186Y-65139415D01*
X142223302Y-63065300D01*
X151591778Y-63065300D01*
X151629100Y-63068976D01*
X151666422Y-63065300D01*
X151666433Y-63065300D01*
X151778086Y-63054303D01*
X151921347Y-63010846D01*
X152053376Y-62940274D01*
X152169101Y-62845301D01*
X152192904Y-62816297D01*
X155882202Y-59127000D01*
X157000000Y-59127000D01*
X157024776Y-59124560D01*
X157048601Y-59117333D01*
X157070557Y-59105597D01*
X157089803Y-59089803D01*
X157105597Y-59070557D01*
X157117333Y-59048601D01*
X157124560Y-59024776D01*
X157127000Y-59000000D01*
X157127000Y-57882202D01*
X157538705Y-57470498D01*
X157586263Y-57541674D01*
%TA.AperFunction,Conductor*%
D23*
G36*
X157586263Y-57541674D02*
G01*
X157730426Y-57685837D01*
X157899944Y-57799105D01*
X158088302Y-57877126D01*
X158288261Y-57916900D01*
X158492139Y-57916900D01*
X158609034Y-57893648D01*
X158659563Y-58015636D01*
X155910199Y-60765000D01*
X155848061Y-60765000D01*
X155648102Y-60804774D01*
X155459744Y-60882795D01*
X155290226Y-60996063D01*
X155146063Y-61140226D01*
X155032795Y-61309744D01*
X154954774Y-61498102D01*
X154915000Y-61698061D01*
X154915000Y-61760198D01*
X152580934Y-64094265D01*
X152528102Y-64104774D01*
X152339744Y-64182795D01*
X152170226Y-64296063D01*
X152026063Y-64440226D01*
X151912795Y-64609744D01*
X151834774Y-64798102D01*
X151795000Y-64998061D01*
X151795000Y-65201939D01*
X151834774Y-65401898D01*
X151912795Y-65590256D01*
X152026063Y-65759774D01*
X152170226Y-65903937D01*
X152339744Y-66017205D01*
X152528102Y-66095226D01*
X152728061Y-66135000D01*
X152931939Y-66135000D01*
X153131898Y-66095226D01*
X153320256Y-66017205D01*
X153489774Y-65903937D01*
X153633937Y-65759774D01*
X153747205Y-65590256D01*
X153825226Y-65401898D01*
X153865000Y-65201939D01*
X153865000Y-64998061D01*
X153858652Y-64966149D01*
X155989802Y-62835000D01*
X156051939Y-62835000D01*
X156251898Y-62795226D01*
X156440256Y-62717205D01*
X156609774Y-62603937D01*
X156753937Y-62459774D01*
X156867205Y-62290256D01*
X156945226Y-62101898D01*
X156985000Y-61901939D01*
X156985000Y-61839801D01*
X158839738Y-59985063D01*
X158967075Y-61022135D01*
X158994415Y-61144195D01*
X159045041Y-61258576D01*
X159117010Y-61360882D01*
X159170670Y-61412027D01*
X139080998Y-81501701D01*
X139052000Y-81525499D01*
X139028202Y-81554497D01*
X139028201Y-81554498D01*
X138957026Y-81641224D01*
X138886454Y-81773254D01*
X138872683Y-81818653D01*
X138842998Y-81916514D01*
X138838526Y-81961915D01*
X138828324Y-82065500D01*
X138832001Y-82102832D01*
X138832001Y-82454200D01*
X138822800Y-82454200D01*
X138822800Y-79324123D01*
X138826476Y-79286800D01*
X138822800Y-79249477D01*
X138822800Y-79249467D01*
X138811803Y-79137814D01*
X138768346Y-78994553D01*
X138759677Y-78978335D01*
X138697774Y-78862523D01*
X138626599Y-78775797D01*
X138602801Y-78746799D01*
X138573803Y-78723001D01*
X126742117Y-66891315D01*
X126982468Y-66990872D01*
X127319899Y-67057991D01*
X127663941Y-67057991D01*
X128001372Y-66990872D01*
X128319225Y-66859213D01*
X128605285Y-66668074D01*
X128848560Y-66424799D01*
X129039699Y-66138739D01*
X129171358Y-65820886D01*
X129238477Y-65483455D01*
X129238477Y-65139413D01*
X129171358Y-64801982D01*
X129039699Y-64484129D01*
X128848560Y-64198069D01*
X128605285Y-63954794D01*
X128319225Y-63763655D01*
X128001372Y-63631996D01*
X127663941Y-63564877D01*
X127319899Y-63564877D01*
X126982468Y-63631996D01*
X126664615Y-63763655D01*
X126378555Y-63954794D01*
X126135280Y-64198069D01*
X125944141Y-64484129D01*
X125812482Y-64801982D01*
X125745363Y-65139413D01*
X125745363Y-65483455D01*
X125812482Y-65820886D01*
X125912039Y-66061238D01*
X121647232Y-61796431D01*
X141342567Y-61796431D01*
X138818099Y-64320900D01*
X138755961Y-64320900D01*
X138556002Y-64360674D01*
X138367644Y-64438695D01*
X138198126Y-64551963D01*
X138053963Y-64696126D01*
X137940695Y-64865644D01*
X137862674Y-65054002D01*
X137822900Y-65253961D01*
X137822900Y-65457839D01*
X137862674Y-65657798D01*
X137940695Y-65846156D01*
X138053963Y-66015674D01*
X138198126Y-66159837D01*
X138367644Y-66273105D01*
X138556002Y-66351126D01*
X138755961Y-66390900D01*
X138959839Y-66390900D01*
X139159798Y-66351126D01*
X139348156Y-66273105D01*
X139517674Y-66159837D01*
X139661837Y-66015674D01*
X139775105Y-65846156D01*
X139853126Y-65657798D01*
X139892900Y-65457839D01*
X139892900Y-65395701D01*
X140149186Y-65139415D01*
X143745361Y-65139415D01*
X143745361Y-65483455D01*
X143812480Y-65820886D01*
X143944139Y-66138738D01*
X144135278Y-66424798D01*
X144378551Y-66668071D01*
X144664611Y-66859210D01*
X144982463Y-66990869D01*
X145319894Y-67057988D01*
X145663934Y-67057988D01*
X146001365Y-66990869D01*
X146319217Y-66859210D01*
X146605277Y-66668071D01*
X146848550Y-66424798D01*
X147039689Y-66138738D01*
X147171348Y-65820886D01*
X147238467Y-65483455D01*
X147238467Y-65139415D01*
X147171348Y-64801984D01*
X147039689Y-64484132D01*
X146848550Y-64198072D01*
X146605277Y-63954799D01*
X146319217Y-63763660D01*
X146001365Y-63632001D01*
X145663934Y-63564882D01*
X145319894Y-63564882D01*
X144982463Y-63632001D01*
X144664611Y-63763660D01*
X144378551Y-63954799D01*
X144135278Y-64198072D01*
X143944139Y-64484132D01*
X143812480Y-64801984D01*
X143745361Y-65139415D01*
X140149186Y-65139415D01*
X142223302Y-63065300D01*
X151591778Y-63065300D01*
X151629100Y-63068976D01*
X151666422Y-63065300D01*
X151666433Y-63065300D01*
X151778086Y-63054303D01*
X151921347Y-63010846D01*
X152053376Y-62940274D01*
X152169101Y-62845301D01*
X152192904Y-62816297D01*
X155882202Y-59127000D01*
X157000000Y-59127000D01*
X157024776Y-59124560D01*
X157048601Y-59117333D01*
X157070557Y-59105597D01*
X157089803Y-59089803D01*
X157105597Y-59070557D01*
X157117333Y-59048601D01*
X157124560Y-59024776D01*
X157127000Y-59000000D01*
X157127000Y-57882202D01*
X157538705Y-57470498D01*
X157586263Y-57541674D01*
G37*
%TD.AperFunction*%
D22*
X174673000Y-68359602D02*
X174673000Y-71800000D01*
X174675440Y-71824776D01*
X174682667Y-71848601D01*
X174694403Y-71870557D01*
X174710197Y-71889803D01*
X174729443Y-71905597D01*
X174751399Y-71917333D01*
X174775224Y-71924560D01*
X174800000Y-71927000D01*
X177238100Y-71927000D01*
X177238100Y-72050739D01*
X177277874Y-72250698D01*
X177355895Y-72439056D01*
X177469163Y-72608574D01*
X177613326Y-72752737D01*
X177782844Y-72866005D01*
X177971202Y-72944026D01*
X178171161Y-72983800D01*
X178233299Y-72983800D01*
X179349601Y-74100103D01*
X179349601Y-78118799D01*
X162411004Y-61180203D01*
X162387201Y-61151199D01*
X162271476Y-61056226D01*
X162139447Y-60985654D01*
X161996186Y-60942197D01*
X161984261Y-60941023D01*
X162001840Y-60895526D01*
X162023291Y-60772295D01*
X162020290Y-60647248D01*
X161800925Y-58860665D01*
X161773585Y-58738605D01*
X161722959Y-58624224D01*
X161650990Y-58521918D01*
X161560445Y-58435618D01*
X161454804Y-58368641D01*
X161338126Y-58323560D01*
X161319258Y-58320276D01*
X161434751Y-58147428D01*
X161550463Y-57868076D01*
X161609452Y-57571517D01*
X161609452Y-57269149D01*
X161550463Y-56972590D01*
X161460392Y-56755141D01*
X161531586Y-56755141D01*
X161731545Y-56715367D01*
X161919903Y-56637346D01*
X162089421Y-56524078D01*
X162233584Y-56379915D01*
X162346852Y-56210397D01*
X162398678Y-56085279D01*
X174673000Y-68359602D01*
%TA.AperFunction,Conductor*%
D23*
G36*
X174673000Y-68359602D02*
G01*
X174673000Y-71800000D01*
X174675440Y-71824776D01*
X174682667Y-71848601D01*
X174694403Y-71870557D01*
X174710197Y-71889803D01*
X174729443Y-71905597D01*
X174751399Y-71917333D01*
X174775224Y-71924560D01*
X174800000Y-71927000D01*
X177238100Y-71927000D01*
X177238100Y-72050739D01*
X177277874Y-72250698D01*
X177355895Y-72439056D01*
X177469163Y-72608574D01*
X177613326Y-72752737D01*
X177782844Y-72866005D01*
X177971202Y-72944026D01*
X178171161Y-72983800D01*
X178233299Y-72983800D01*
X179349601Y-74100103D01*
X179349601Y-78118799D01*
X162411004Y-61180203D01*
X162387201Y-61151199D01*
X162271476Y-61056226D01*
X162139447Y-60985654D01*
X161996186Y-60942197D01*
X161984261Y-60941023D01*
X162001840Y-60895526D01*
X162023291Y-60772295D01*
X162020290Y-60647248D01*
X161800925Y-58860665D01*
X161773585Y-58738605D01*
X161722959Y-58624224D01*
X161650990Y-58521918D01*
X161560445Y-58435618D01*
X161454804Y-58368641D01*
X161338126Y-58323560D01*
X161319258Y-58320276D01*
X161434751Y-58147428D01*
X161550463Y-57868076D01*
X161609452Y-57571517D01*
X161609452Y-57269149D01*
X161550463Y-56972590D01*
X161460392Y-56755141D01*
X161531586Y-56755141D01*
X161731545Y-56715367D01*
X161919903Y-56637346D01*
X162089421Y-56524078D01*
X162233584Y-56379915D01*
X162346852Y-56210397D01*
X162398678Y-56085279D01*
X174673000Y-68359602D01*
G37*
%TD.AperFunction*%
%TD*%
M02*
