M48
; DRILL file {KiCad 5.1.10} date Sun Oct 31 20:18:20 2021
; FORMAT={-:-/ absolute / metric / decimal}
; #@! TF.CreationDate,2021-10-31T20:18:20+09:00
; #@! TF.GenerationSoftware,Kicad,Pcbnew,5.1.10
; #@! TF.FileFunction,Plated,1,2,PTH
FMAT,2
METRIC
T1C0.400
T2C0.500
T3C0.900
T4C0.950
T5C1.000
%
G90
G05
T1
X101.138Y-62.221
X102.265Y-125.634
X103.05Y-110.5
X104.885Y-107.725
X105.463Y-122.455
X106.083Y-112.639
X106.117Y-97.233
X106.93Y-59.853
X107.279Y-118.715
X107.658Y-134.717
X107.937Y-96.866
X110.684Y-103.437
X110.944Y-95.791
X114.8Y-101.2
X114.8Y-102.6
X114.8Y-117.0
X114.8Y-118.6
X116.114Y-75.633
X124.649Y-68.718
X127.75Y-116.1
X128.859Y-77.603
X131.452Y-90.248
X131.5Y-87.75
X134.05Y-88.227
X135.879Y-83.545
X138.611Y-106.013
X138.788Y-83.489
X138.85Y-69.5
X138.858Y-65.356
X139.317Y-86.261
X139.336Y-91.572
X139.774Y-92.861
X140.657Y-105.706
X141.59Y-84.23
X141.657Y-105.978
X142.05Y-69.45
X145.645Y-126.05
X146.5Y-119.45
X147.694Y-77.486
X149.6Y-119.5
X152.83Y-65.1
X153.353Y-122.565
X154.4Y-71.4
X154.4Y-71.4
X154.4Y-71.4
X154.819Y-122.244
X155.95Y-61.8
X157.0Y-71.4
X158.39Y-56.882
X159.4Y-71.4
X160.955Y-89.311
X161.43Y-55.72
X162.022Y-87.072
X162.6Y-71.4
X162.85Y-59.25
X162.85Y-60.9
X163.236Y-88.909
X164.55Y-81.5
X164.65Y-77.7
X164.75Y-111.9
X165.3Y-117.95
X166.637Y-104.094
X167.45Y-114.4
X171.063Y-118.209
X172.0Y-121.0
X172.1Y-127.65
X173.05Y-85.3
X173.05Y-87.4
X173.1Y-89.9
X173.36Y-118.691
X175.5Y-73.15
X178.273Y-71.949
X178.4Y-75.75
X181.85Y-115.1
X181.886Y-111.686
X187.495Y-79.427
X194.35Y-100.2
X194.35Y-101.45
X194.4Y-84.2
X194.4Y-86.2
T2
X110.734Y-114.991
X110.734Y-116.241
X110.734Y-123.241
X110.734Y-124.491
T3
X160.074Y-57.42
X160.134Y-130.541
X160.384Y-59.941
X160.444Y-128.02
X160.874Y-63.82
X160.934Y-124.091
X161.184Y-66.341
X161.244Y-121.57
X181.834Y-108.941
X181.884Y-79.121
X184.034Y-107.671
X184.084Y-80.391
X185.784Y-103.841
X185.884Y-84.121
X187.984Y-102.571
X188.084Y-85.391
T4
X119.984Y-64.041
X119.984Y-66.541
X119.984Y-69.041
X119.984Y-71.541
X119.984Y-74.041
X119.984Y-76.541
X119.984Y-111.791
X119.984Y-114.291
X119.984Y-116.791
X119.984Y-119.291
X119.984Y-121.791
X119.984Y-124.291
T5
X100.6Y-85.85
X100.65Y-103.6
X109.645Y-66.712
X109.69Y-69.252
X109.734Y-71.791
X120.674Y-87.707
X120.674Y-90.248
X120.674Y-92.787
X120.674Y-95.328
X120.674Y-97.867
X120.674Y-100.407
X128.294Y-87.707
X128.294Y-90.248
X128.294Y-92.787
X128.294Y-95.328
X128.294Y-97.867
X128.294Y-100.407
X144.0Y-91.75
X144.0Y-94.29
X144.0Y-96.83
X150.534Y-85.167
X150.534Y-87.707
X150.534Y-90.247
X150.534Y-92.787
X150.534Y-95.327
X150.534Y-97.867
X150.534Y-100.407
X150.534Y-102.947
X150.534Y-105.487
X150.534Y-108.027
X150.534Y-110.567
X150.534Y-113.107
X150.534Y-115.647
X153.074Y-85.167
X153.074Y-87.707
X153.074Y-90.247
X153.074Y-92.787
X153.074Y-95.327
X153.074Y-97.867
X153.074Y-100.407
X153.074Y-102.947
X153.074Y-105.487
X153.074Y-108.027
X153.074Y-110.567
X153.074Y-113.107
X153.074Y-115.647
X175.934Y-85.167
X175.934Y-87.707
X175.934Y-90.247
X175.934Y-92.787
X175.934Y-95.327
X175.934Y-97.867
X175.934Y-100.407
X175.934Y-102.947
X175.934Y-105.487
X175.934Y-108.027
X175.934Y-110.567
X175.934Y-113.107
X175.934Y-115.647
X178.474Y-85.167
X178.474Y-87.707
X178.474Y-90.247
X178.474Y-92.787
X178.474Y-95.327
X178.474Y-97.867
X178.474Y-100.407
X178.474Y-102.947
X178.474Y-105.487
X178.474Y-108.027
X178.474Y-110.567
X178.474Y-113.107
X178.474Y-115.647
X186.275Y-90.248
X186.275Y-97.867
X188.815Y-90.248
X188.815Y-97.867
X191.355Y-90.248
X191.355Y-97.867
X193.895Y-90.248
X193.895Y-97.867
T0
M30
