%TF.GenerationSoftware,KiCad,Pcbnew,5.1.10*%
%TF.CreationDate,2021-10-31T20:18:17+09:00*%
%TF.ProjectId,ZeroPCB,5a65726f-5043-4422-9e6b-696361645f70,rev?*%
%TF.SameCoordinates,Original*%
%TF.FileFunction,Profile,NP*%
%FSLAX46Y46*%
G04 Gerber Fmt 4.6, Leading zero omitted, Abs format (unit mm)*
G04 Created by KiCad (PCBNEW 5.1.10) date 2021-10-31 20:18:17*
%MOMM*%
%LPD*%
G01*
G04 APERTURE LIST*
%TA.AperFunction,Profile*%
%ADD10C,0.200000*%
%TD*%
G04 APERTURE END LIST*
D10*
X107077700Y-136061438D02*
X98491921Y-136061435D01*
X152491918Y-52061430D02*
X156491916Y-52061441D01*
X98491923Y-52061438D02*
X98491921Y-136061435D01*
X151491922Y-61061431D02*
X151491917Y-53061434D01*
X152491918Y-136061434D02*
X156491922Y-136061436D01*
X128491910Y-122811439D02*
G75*
G03*
X128491910Y-122811439I-999990J0D01*
G01*
X107077711Y-52061435D02*
G75*
G02*
X107784817Y-52354330I-3J-1000000D01*
G01*
X152491915Y-136061420D02*
G75*
G02*
X151491921Y-135061432I-3J999991D01*
G01*
X151491920Y-53061450D02*
G75*
G02*
X152491918Y-52061430I1000009J11D01*
G01*
X107784809Y-135768553D02*
G75*
G02*
X107077700Y-136061438I-707098J707114D01*
G01*
X151491916Y-127061439D02*
X151491921Y-135061432D01*
X156491932Y-52061445D02*
G75*
G02*
X156491922Y-136061433I-5J-41999994D01*
G01*
X116491923Y-61061431D02*
X151491922Y-61061431D01*
X107077713Y-52061431D02*
X98491923Y-52061438D01*
X116491922Y-127061432D02*
X107784806Y-135768545D01*
X146491918Y-65311435D02*
G75*
G03*
X146491918Y-65311435I-1000004J0D01*
G01*
X151491916Y-127061439D02*
X116491922Y-127061432D01*
X116491923Y-61061431D02*
X107784817Y-52354330D01*
X146491914Y-122811432D02*
G75*
G03*
X146491914Y-122811432I-999997J0D01*
G01*
X128491928Y-65311434D02*
G75*
G03*
X128491928Y-65311434I-1000008J0D01*
G01*
M02*
