%TF.GenerationSoftware,KiCad,Pcbnew,5.1.10*%
%TF.CreationDate,2021-10-31T20:18:17+09:00*%
%TF.ProjectId,ZeroPCB,5a65726f-5043-4422-9e6b-696361645f70,rev?*%
%TF.SameCoordinates,Original*%
%TF.FileFunction,Soldermask,Top*%
%TF.FilePolarity,Negative*%
%FSLAX46Y46*%
G04 Gerber Fmt 4.6, Leading zero omitted, Abs format (unit mm)*
G04 Created by KiCad (PCBNEW 5.1.10) date 2021-10-31 20:18:17*
%MOMM*%
%LPD*%
G01*
G04 APERTURE LIST*
%ADD10R,0.850000X0.850000*%
%ADD11O,1.700000X0.850000*%
%ADD12R,0.900000X1.200000*%
%ADD13R,0.750000X1.200000*%
%ADD14C,1.800000*%
%ADD15C,0.100000*%
%ADD16R,1.560000X0.650000*%
%ADD17R,1.200000X0.750000*%
%ADD18R,1.700000X1.700000*%
%ADD19O,1.700000X1.700000*%
%ADD20C,1.200000*%
%ADD21O,1.950000X1.700000*%
%ADD22R,2.500000X2.000000*%
%ADD23R,1.600000X1.000000*%
%ADD24R,0.900000X0.800000*%
%ADD25R,0.800000X0.900000*%
%ADD26R,1.200000X0.900000*%
%ADD27R,1.500000X1.300000*%
%ADD28R,0.700000X1.450000*%
%ADD29R,0.650000X1.560000*%
%ADD30R,0.600000X1.550000*%
%ADD31C,1.700000*%
%ADD32R,1.500000X1.250000*%
G04 APERTURE END LIST*
D10*
%TO.C,J1*%
X110734000Y-114991000D03*
D11*
X110734000Y-116241000D03*
%TD*%
%TO.C,J2*%
X110734000Y-124491000D03*
D10*
X110734000Y-123241000D03*
%TD*%
D12*
%TO.C,D17*%
X110984000Y-128691000D03*
X110984000Y-130891000D03*
%TD*%
D13*
%TO.C,C18*%
X135400000Y-104600000D03*
X135400000Y-102700000D03*
%TD*%
D14*
%TO.C,D5*%
X184033705Y-107671000D03*
D15*
G36*
X181504577Y-110170423D02*
G01*
X180604577Y-108611577D01*
X182163423Y-107711577D01*
X183063423Y-109270423D01*
X181504577Y-110170423D01*
G37*
%TD*%
%TO.C,D8*%
G36*
X189313423Y-85062077D02*
G01*
X188413423Y-86620923D01*
X186854577Y-85720923D01*
X187754577Y-84162077D01*
X189313423Y-85062077D01*
G37*
D14*
X185884295Y-84121500D03*
%TD*%
D16*
%TO.C,U3*%
X153384000Y-57541500D03*
X153384000Y-58491500D03*
X153384000Y-56591500D03*
X156084000Y-56591500D03*
X156084000Y-57541500D03*
X156084000Y-58491500D03*
%TD*%
D13*
%TO.C,C1*%
X140750000Y-102591000D03*
X140750000Y-104491000D03*
%TD*%
D17*
%TO.C,C2*%
X106034000Y-99541500D03*
X107934000Y-99541500D03*
%TD*%
D13*
%TO.C,C3*%
X135484000Y-97091400D03*
X135484000Y-98991400D03*
%TD*%
D17*
%TO.C,C4*%
X155934000Y-60791500D03*
X154034000Y-60791500D03*
%TD*%
%TO.C,C5*%
X155934000Y-66791500D03*
X154034000Y-66791500D03*
%TD*%
%TO.C,C6*%
X155684000Y-123541000D03*
X153784000Y-123541000D03*
%TD*%
%TO.C,C7*%
X155684000Y-126041000D03*
X153784000Y-126041000D03*
%TD*%
D13*
%TO.C,C8*%
X181484000Y-64550000D03*
X181484000Y-66450000D03*
%TD*%
%TO.C,C9*%
X181734000Y-124991000D03*
X181734000Y-123091000D03*
%TD*%
D17*
%TO.C,C10*%
X178184000Y-65541400D03*
X176284000Y-65541400D03*
%TD*%
%TO.C,C11*%
X178184000Y-124291000D03*
X176284000Y-124291000D03*
%TD*%
%TO.C,C12*%
X143050000Y-88300000D03*
X144950000Y-88300000D03*
%TD*%
D12*
%TO.C,D1*%
X196734000Y-92941500D03*
X196734000Y-95141500D03*
%TD*%
D14*
%TO.C,D2*%
X160874452Y-63820433D03*
D15*
G36*
X162186974Y-67125109D02*
G01*
X160400391Y-67344474D01*
X160181026Y-65557891D01*
X161967609Y-65338526D01*
X162186974Y-67125109D01*
G37*
%TD*%
%TO.C,D3*%
G36*
X161717609Y-125093974D02*
G01*
X159931026Y-124874609D01*
X160150391Y-123088026D01*
X161936974Y-123307391D01*
X161717609Y-125093974D01*
G37*
D14*
X161243548Y-121569933D03*
%TD*%
D15*
%TO.C,D4*%
G36*
X185313423Y-80061977D02*
G01*
X184413423Y-81620823D01*
X182854577Y-80720823D01*
X183754577Y-79161977D01*
X185313423Y-80061977D01*
G37*
D14*
X181884295Y-79121400D03*
%TD*%
D15*
%TO.C,D6*%
G36*
X161386974Y-60725009D02*
G01*
X159600391Y-60944374D01*
X159381026Y-59157791D01*
X161167609Y-58938426D01*
X161386974Y-60725009D01*
G37*
D14*
X160074452Y-57420333D03*
%TD*%
%TO.C,D7*%
X160443548Y-128019933D03*
D15*
G36*
X160917609Y-131543974D02*
G01*
X159131026Y-131324609D01*
X159350391Y-129538026D01*
X161136974Y-129757391D01*
X160917609Y-131543974D01*
G37*
%TD*%
D14*
%TO.C,D9*%
X187983705Y-102571000D03*
D15*
G36*
X185454577Y-105070423D02*
G01*
X184554577Y-103511577D01*
X186113423Y-102611577D01*
X187013423Y-104170423D01*
X185454577Y-105070423D01*
G37*
%TD*%
D12*
%TO.C,D10*%
X99983500Y-60291400D03*
X99983500Y-58091400D03*
%TD*%
%TO.C,D11*%
X99983500Y-66891400D03*
X99983500Y-69091400D03*
%TD*%
%TO.C,D12*%
X99983500Y-77891500D03*
X99983500Y-75691500D03*
%TD*%
%TO.C,D13*%
X99983500Y-110991000D03*
X99983500Y-108791000D03*
%TD*%
%TO.C,D14*%
X99983500Y-120351000D03*
X99983500Y-118151000D03*
%TD*%
%TO.C,D15*%
X99983500Y-129711000D03*
X99983500Y-127511000D03*
%TD*%
%TO.C,D16*%
X111484000Y-60891500D03*
X111484000Y-58691500D03*
%TD*%
D18*
%TO.C,J3*%
X144000000Y-91750000D03*
D19*
X144000000Y-94290000D03*
X144000000Y-96830000D03*
%TD*%
D20*
%TO.C,J4*%
X117984000Y-62441500D03*
D21*
X119984000Y-76541500D03*
X119984000Y-74041500D03*
X119984000Y-71541500D03*
X119984000Y-69041500D03*
X119984000Y-66541500D03*
G36*
G01*
X119259000Y-63191500D02*
X120709000Y-63191500D01*
G75*
G02*
X120959000Y-63441500I0J-250000D01*
G01*
X120959000Y-64641500D01*
G75*
G02*
X120709000Y-64891500I-250000J0D01*
G01*
X119259000Y-64891500D01*
G75*
G02*
X119009000Y-64641500I0J250000D01*
G01*
X119009000Y-63441500D01*
G75*
G02*
X119259000Y-63191500I250000J0D01*
G01*
G37*
%TD*%
%TO.C,J5*%
G36*
G01*
X119259000Y-110941000D02*
X120709000Y-110941000D01*
G75*
G02*
X120959000Y-111191000I0J-250000D01*
G01*
X120959000Y-112391000D01*
G75*
G02*
X120709000Y-112641000I-250000J0D01*
G01*
X119259000Y-112641000D01*
G75*
G02*
X119009000Y-112391000I0J250000D01*
G01*
X119009000Y-111191000D01*
G75*
G02*
X119259000Y-110941000I250000J0D01*
G01*
G37*
X119984000Y-114291000D03*
X119984000Y-116791000D03*
X119984000Y-119291000D03*
X119984000Y-121791000D03*
X119984000Y-124291000D03*
D20*
X117984000Y-110191000D03*
%TD*%
%TO.C,J10*%
G36*
G01*
X103934001Y-67091400D02*
X102633999Y-67091400D01*
G75*
G02*
X102384000Y-66841401I0J249999D01*
G01*
X102384000Y-66141399D01*
G75*
G02*
X102633999Y-65891400I249999J0D01*
G01*
X103934001Y-65891400D01*
G75*
G02*
X104184000Y-66141399I0J-249999D01*
G01*
X104184000Y-66841401D01*
G75*
G02*
X103934001Y-67091400I-249999J0D01*
G01*
G37*
G36*
G01*
X103934001Y-72691400D02*
X102633999Y-72691400D01*
G75*
G02*
X102384000Y-72441401I0J249999D01*
G01*
X102384000Y-71741399D01*
G75*
G02*
X102633999Y-71491400I249999J0D01*
G01*
X103934001Y-71491400D01*
G75*
G02*
X104184000Y-71741399I0J-249999D01*
G01*
X104184000Y-72441401D01*
G75*
G02*
X103934001Y-72691400I-249999J0D01*
G01*
G37*
G36*
G01*
X106434000Y-68091400D02*
X105184000Y-68091400D01*
G75*
G02*
X105034000Y-67941400I0J150000D01*
G01*
X105034000Y-67641400D01*
G75*
G02*
X105184000Y-67491400I150000J0D01*
G01*
X106434000Y-67491400D01*
G75*
G02*
X106584000Y-67641400I0J-150000D01*
G01*
X106584000Y-67941400D01*
G75*
G02*
X106434000Y-68091400I-150000J0D01*
G01*
G37*
G36*
G01*
X106434000Y-69091400D02*
X105184000Y-69091400D01*
G75*
G02*
X105034000Y-68941400I0J150000D01*
G01*
X105034000Y-68641400D01*
G75*
G02*
X105184000Y-68491400I150000J0D01*
G01*
X106434000Y-68491400D01*
G75*
G02*
X106584000Y-68641400I0J-150000D01*
G01*
X106584000Y-68941400D01*
G75*
G02*
X106434000Y-69091400I-150000J0D01*
G01*
G37*
G36*
G01*
X106434000Y-70091400D02*
X105184000Y-70091400D01*
G75*
G02*
X105034000Y-69941400I0J150000D01*
G01*
X105034000Y-69641400D01*
G75*
G02*
X105184000Y-69491400I150000J0D01*
G01*
X106434000Y-69491400D01*
G75*
G02*
X106584000Y-69641400I0J-150000D01*
G01*
X106584000Y-69941400D01*
G75*
G02*
X106434000Y-70091400I-150000J0D01*
G01*
G37*
G36*
G01*
X106434000Y-71091400D02*
X105184000Y-71091400D01*
G75*
G02*
X105034000Y-70941400I0J150000D01*
G01*
X105034000Y-70641400D01*
G75*
G02*
X105184000Y-70491400I150000J0D01*
G01*
X106434000Y-70491400D01*
G75*
G02*
X106584000Y-70641400I0J-150000D01*
G01*
X106584000Y-70941400D01*
G75*
G02*
X106434000Y-71091400I-150000J0D01*
G01*
G37*
%TD*%
%TO.C,J11*%
G36*
G01*
X106434000Y-121841000D02*
X105184000Y-121841000D01*
G75*
G02*
X105034000Y-121691000I0J150000D01*
G01*
X105034000Y-121391000D01*
G75*
G02*
X105184000Y-121241000I150000J0D01*
G01*
X106434000Y-121241000D01*
G75*
G02*
X106584000Y-121391000I0J-150000D01*
G01*
X106584000Y-121691000D01*
G75*
G02*
X106434000Y-121841000I-150000J0D01*
G01*
G37*
G36*
G01*
X106434000Y-120841000D02*
X105184000Y-120841000D01*
G75*
G02*
X105034000Y-120691000I0J150000D01*
G01*
X105034000Y-120391000D01*
G75*
G02*
X105184000Y-120241000I150000J0D01*
G01*
X106434000Y-120241000D01*
G75*
G02*
X106584000Y-120391000I0J-150000D01*
G01*
X106584000Y-120691000D01*
G75*
G02*
X106434000Y-120841000I-150000J0D01*
G01*
G37*
G36*
G01*
X106434000Y-119841000D02*
X105184000Y-119841000D01*
G75*
G02*
X105034000Y-119691000I0J150000D01*
G01*
X105034000Y-119391000D01*
G75*
G02*
X105184000Y-119241000I150000J0D01*
G01*
X106434000Y-119241000D01*
G75*
G02*
X106584000Y-119391000I0J-150000D01*
G01*
X106584000Y-119691000D01*
G75*
G02*
X106434000Y-119841000I-150000J0D01*
G01*
G37*
G36*
G01*
X106434000Y-118841000D02*
X105184000Y-118841000D01*
G75*
G02*
X105034000Y-118691000I0J150000D01*
G01*
X105034000Y-118391000D01*
G75*
G02*
X105184000Y-118241000I150000J0D01*
G01*
X106434000Y-118241000D01*
G75*
G02*
X106584000Y-118391000I0J-150000D01*
G01*
X106584000Y-118691000D01*
G75*
G02*
X106434000Y-118841000I-150000J0D01*
G01*
G37*
G36*
G01*
X103934001Y-123441000D02*
X102633999Y-123441000D01*
G75*
G02*
X102384000Y-123191001I0J249999D01*
G01*
X102384000Y-122490999D01*
G75*
G02*
X102633999Y-122241000I249999J0D01*
G01*
X103934001Y-122241000D01*
G75*
G02*
X104184000Y-122490999I0J-249999D01*
G01*
X104184000Y-123191001D01*
G75*
G02*
X103934001Y-123441000I-249999J0D01*
G01*
G37*
G36*
G01*
X103934001Y-117841000D02*
X102633999Y-117841000D01*
G75*
G02*
X102384000Y-117591001I0J249999D01*
G01*
X102384000Y-116890999D01*
G75*
G02*
X102633999Y-116641000I249999J0D01*
G01*
X103934001Y-116641000D01*
G75*
G02*
X104184000Y-116890999I0J-249999D01*
G01*
X104184000Y-117591001D01*
G75*
G02*
X103934001Y-117841000I-249999J0D01*
G01*
G37*
%TD*%
D22*
%TO.C,L1*%
X144000000Y-105500000D03*
X144000000Y-101500000D03*
%TD*%
D23*
%TO.C,LS1*%
X151234000Y-79541400D03*
X151234000Y-75541400D03*
%TD*%
D24*
%TO.C,Q1*%
X106984000Y-109091000D03*
X106984000Y-110991000D03*
X108984000Y-110041000D03*
%TD*%
D25*
%TO.C,Q2*%
X168750000Y-84000000D03*
X169700000Y-86000000D03*
X167800000Y-86000000D03*
%TD*%
%TO.C,Q3*%
X169700000Y-102791000D03*
X167800000Y-102791000D03*
X168750000Y-104791000D03*
%TD*%
%TO.C,Q4*%
X157984000Y-76791500D03*
X157034000Y-74791500D03*
X158934000Y-74791500D03*
%TD*%
D12*
%TO.C,R1*%
X104234000Y-108941000D03*
X104234000Y-111141000D03*
%TD*%
%TO.C,R2*%
X193984000Y-95141500D03*
X193984000Y-92941500D03*
%TD*%
%TO.C,R3*%
X140750000Y-97191400D03*
X140750000Y-99391400D03*
%TD*%
%TO.C,R4*%
X111484000Y-94391400D03*
X111484000Y-92191400D03*
%TD*%
%TO.C,R5*%
X111484000Y-97191500D03*
X111484000Y-99391500D03*
%TD*%
%TO.C,R6*%
X138234000Y-102441000D03*
X138234000Y-104641000D03*
%TD*%
%TO.C,R7*%
X138234000Y-99391500D03*
X138234000Y-97191500D03*
%TD*%
%TO.C,R8*%
X164484000Y-89691400D03*
X164484000Y-91891400D03*
%TD*%
%TO.C,R9*%
X164484000Y-85191400D03*
X164484000Y-87391400D03*
%TD*%
%TO.C,R10*%
X164484000Y-103891000D03*
X164484000Y-101691000D03*
%TD*%
%TO.C,R11*%
X164484000Y-98891500D03*
X164484000Y-96691500D03*
%TD*%
D26*
%TO.C,R12*%
X169834000Y-88541400D03*
X167634000Y-88541400D03*
%TD*%
%TO.C,R13*%
X167634000Y-100541000D03*
X169834000Y-100541000D03*
%TD*%
D27*
%TO.C,R14*%
X167400000Y-81500000D03*
X170100000Y-81500000D03*
%TD*%
%TO.C,R15*%
X167400000Y-107000000D03*
X170100000Y-107000000D03*
%TD*%
D12*
%TO.C,R16*%
X150734000Y-62900000D03*
X150734000Y-65100000D03*
%TD*%
D26*
%TO.C,R17*%
X153884000Y-63791500D03*
X156084000Y-63791500D03*
%TD*%
D12*
%TO.C,R18*%
X150750000Y-124850000D03*
X150750000Y-122650000D03*
%TD*%
D26*
%TO.C,R19*%
X155934000Y-128041000D03*
X153734000Y-128041000D03*
%TD*%
D12*
%TO.C,R20*%
X181500000Y-71100000D03*
X181500000Y-68900000D03*
%TD*%
%TO.C,R21*%
X181734000Y-120641000D03*
X181734000Y-118441000D03*
%TD*%
D26*
%TO.C,R22*%
X178334000Y-67291400D03*
X176134000Y-67291400D03*
%TD*%
%TO.C,R23*%
X176134000Y-122541000D03*
X178334000Y-122541000D03*
%TD*%
D12*
%TO.C,R24*%
X99983500Y-55891400D03*
X99983500Y-53691400D03*
%TD*%
%TO.C,R25*%
X99983500Y-62491500D03*
X99983500Y-64691500D03*
%TD*%
%TO.C,R26*%
X99983500Y-71291400D03*
X99983500Y-73491400D03*
%TD*%
%TO.C,R27*%
X99983500Y-113471000D03*
X99983500Y-115671000D03*
%TD*%
%TO.C,R28*%
X99983500Y-125031000D03*
X99983500Y-122831000D03*
%TD*%
D26*
%TO.C,R29*%
X155734000Y-79541500D03*
X157934000Y-79541500D03*
%TD*%
D12*
%TO.C,R30*%
X99983500Y-134391000D03*
X99983500Y-132191000D03*
%TD*%
%TO.C,R31*%
X106984000Y-58641500D03*
X106984000Y-56441500D03*
%TD*%
%TO.C,R32*%
X108984000Y-60891500D03*
X108984000Y-58691500D03*
%TD*%
%TO.C,R33*%
X106984000Y-133041000D03*
X106984000Y-130841000D03*
%TD*%
%TO.C,R34*%
X108734000Y-128691000D03*
X108734000Y-130891000D03*
%TD*%
D15*
%TO.C,SW1*%
G36*
X110569036Y-70926795D02*
G01*
X110598705Y-72626536D01*
X108898964Y-72656205D01*
X108869295Y-70956464D01*
X110569036Y-70926795D01*
G37*
G36*
G01*
X110539542Y-69237052D02*
X110539542Y-69237052D01*
G75*
G02*
X109704506Y-70101758I-849871J-14835D01*
G01*
X109704506Y-70101758D01*
G75*
G02*
X108839800Y-69266722I-14835J849871D01*
G01*
X108839800Y-69266722D01*
G75*
G02*
X109674836Y-68402016I849871J14835D01*
G01*
X109674836Y-68402016D01*
G75*
G02*
X110539542Y-69237052I14835J-849871D01*
G01*
G37*
G36*
G01*
X110495213Y-66697439D02*
X110495213Y-66697439D01*
G75*
G02*
X109660177Y-67562145I-849871J-14835D01*
G01*
X109660177Y-67562145D01*
G75*
G02*
X108795471Y-66727109I-14835J849871D01*
G01*
X108795471Y-66727109D01*
G75*
G02*
X109630507Y-65862403I849871J14835D01*
G01*
X109630507Y-65862403D01*
G75*
G02*
X110495213Y-66697439I14835J-849871D01*
G01*
G37*
%TD*%
D28*
%TO.C,SW2*%
X104734000Y-55561500D03*
X104734000Y-60721500D03*
X102734000Y-60721500D03*
X102734000Y-55561500D03*
%TD*%
%TO.C,SW3*%
X102734000Y-128461000D03*
X102734000Y-133621000D03*
X104734000Y-133621000D03*
X104734000Y-128461000D03*
%TD*%
D29*
%TO.C,U1*%
X105784000Y-92591500D03*
X107684000Y-92591500D03*
X107684000Y-95291500D03*
X106734000Y-95291500D03*
X105784000Y-95291500D03*
%TD*%
D30*
%TO.C,U2*%
X171405000Y-96741400D03*
X170135000Y-96741400D03*
X168865000Y-96741400D03*
X167595000Y-96741400D03*
X167595000Y-91341400D03*
X168865000Y-91341400D03*
X170135000Y-91341400D03*
X171405000Y-91341400D03*
%TD*%
D16*
%TO.C,U4*%
X156334000Y-131541000D03*
X156334000Y-130591000D03*
X156334000Y-132491000D03*
X153634000Y-132491000D03*
X153634000Y-131541000D03*
X153634000Y-130591000D03*
%TD*%
%TO.C,U5*%
X178584000Y-70991500D03*
X178584000Y-70041500D03*
X178584000Y-69091500D03*
X175884000Y-69091500D03*
X175884000Y-70991500D03*
X175884000Y-70041500D03*
%TD*%
%TO.C,U6*%
X175884000Y-119100000D03*
X175884000Y-120050000D03*
X175884000Y-121000000D03*
X178584000Y-121000000D03*
X178584000Y-119100000D03*
X178584000Y-120050000D03*
%TD*%
D31*
%TO.C,J6*%
X193895000Y-97867500D03*
X191355000Y-97867500D03*
X188815000Y-97867500D03*
X186275000Y-97867500D03*
X186275000Y-90247500D03*
X188815000Y-90247500D03*
X191355000Y-90247500D03*
X193895000Y-90247500D03*
%TD*%
%TO.C,J8*%
X120674000Y-87707500D03*
X120674000Y-90247500D03*
X120674000Y-92787500D03*
X120674000Y-95327500D03*
X120674000Y-97867500D03*
X120674000Y-100407500D03*
X128294000Y-100407500D03*
X128294000Y-97867500D03*
X128294000Y-95327500D03*
X128294000Y-92787500D03*
X128294000Y-90247500D03*
X128294000Y-87707500D03*
%TD*%
D32*
%TO.C,C13*%
X145300000Y-85250000D03*
X142800000Y-85250000D03*
%TD*%
D19*
%TO.C,J7*%
X175934000Y-92787400D03*
X178474000Y-92787400D03*
X175934000Y-95327400D03*
X178474000Y-95327400D03*
X175934000Y-97867400D03*
X178474000Y-97867400D03*
X175934000Y-100407400D03*
X178474000Y-100407400D03*
X175934000Y-102947400D03*
X178474000Y-102947400D03*
X175934000Y-105487400D03*
X178474000Y-105487400D03*
X175934000Y-108027400D03*
X178474000Y-108027400D03*
X175934000Y-110567400D03*
X178474000Y-110567400D03*
X175934000Y-113107400D03*
X178474000Y-113107400D03*
X175934000Y-115647400D03*
X178474000Y-115647400D03*
X153074000Y-115647400D03*
X150534000Y-115647400D03*
X153074000Y-113107400D03*
X150534000Y-113107400D03*
X153074000Y-110567400D03*
X150534000Y-110567400D03*
X153074000Y-108027400D03*
X150534000Y-108027400D03*
X153074000Y-105487400D03*
X150534000Y-105487400D03*
X153074000Y-102947400D03*
X150534000Y-102947400D03*
X153074000Y-100407400D03*
X150534000Y-100407400D03*
X153074000Y-97867400D03*
X150534000Y-97867400D03*
X153074000Y-95327400D03*
X150534000Y-95327400D03*
X153074000Y-92787400D03*
X150534000Y-92787400D03*
X153074000Y-90247400D03*
X150534000Y-90247400D03*
X153074000Y-87707400D03*
X150534000Y-87707400D03*
X153074000Y-85167400D03*
D31*
X150534000Y-85167400D03*
X178474000Y-90247400D03*
X175934000Y-90247400D03*
X178474000Y-87707400D03*
X175934000Y-87707400D03*
X178474000Y-85167400D03*
X175934000Y-85167400D03*
%TD*%
D18*
%TO.C,J9*%
X100600000Y-85850000D03*
%TD*%
%TO.C,J12*%
X100650000Y-103600000D03*
%TD*%
D17*
%TO.C,C14*%
X109050000Y-104850000D03*
X110950000Y-104850000D03*
%TD*%
%TO.C,C15*%
X155800000Y-83550000D03*
X157700000Y-83550000D03*
%TD*%
%TO.C,C16*%
X111000000Y-106800000D03*
X109100000Y-106800000D03*
%TD*%
%TO.C,C17*%
X157750000Y-81550000D03*
X155850000Y-81550000D03*
%TD*%
M02*
