%TF.GenerationSoftware,KiCad,Pcbnew,5.1.10*%
%TF.CreationDate,2021-10-31T20:18:17+09:00*%
%TF.ProjectId,ZeroPCB,5a65726f-5043-4422-9e6b-696361645f70,rev?*%
%TF.SameCoordinates,Original*%
%TF.FileFunction,Legend,Top*%
%TF.FilePolarity,Positive*%
%FSLAX46Y46*%
G04 Gerber Fmt 4.6, Leading zero omitted, Abs format (unit mm)*
G04 Created by KiCad (PCBNEW 5.1.10) date 2021-10-31 20:18:17*
%MOMM*%
%LPD*%
G01*
G04 APERTURE LIST*
%ADD10C,0.120000*%
%ADD11C,0.150000*%
G04 APERTURE END LIST*
D10*
%TO.C,J1*%
X109209000Y-113091000D02*
X109209000Y-114091000D01*
X109209000Y-113091000D02*
X110209000Y-113091000D01*
X112409000Y-117341000D02*
X112409000Y-115616000D01*
X111534000Y-117341000D02*
X112409000Y-117341000D01*
X111534000Y-117541000D02*
X111534000Y-117341000D01*
X110734000Y-117541000D02*
X111534000Y-117541000D01*
X110734000Y-117341000D02*
X110734000Y-117541000D01*
X110009000Y-117341000D02*
X110734000Y-117341000D01*
X110009000Y-115616000D02*
X110009000Y-117341000D01*
X112409000Y-113891000D02*
X112409000Y-115616000D01*
X111534000Y-113891000D02*
X112409000Y-113891000D01*
X111534000Y-113691000D02*
X111534000Y-113891000D01*
X110734000Y-113691000D02*
X111534000Y-113691000D01*
X110734000Y-113891000D02*
X110734000Y-113691000D01*
X110009000Y-113891000D02*
X110734000Y-113891000D01*
X110009000Y-115616000D02*
X110009000Y-113891000D01*
X112959000Y-117891000D02*
X112959000Y-113341000D01*
X109459000Y-117891000D02*
X112959000Y-117891000D01*
X109459000Y-113341000D02*
X109459000Y-117891000D01*
X112959000Y-113341000D02*
X109459000Y-113341000D01*
%TO.C,J2*%
X112959000Y-121591000D02*
X109459000Y-121591000D01*
X109459000Y-121591000D02*
X109459000Y-126141000D01*
X109459000Y-126141000D02*
X112959000Y-126141000D01*
X112959000Y-126141000D02*
X112959000Y-121591000D01*
X110009000Y-123866000D02*
X110009000Y-122141000D01*
X110009000Y-122141000D02*
X110734000Y-122141000D01*
X110734000Y-122141000D02*
X110734000Y-121941000D01*
X110734000Y-121941000D02*
X111534000Y-121941000D01*
X111534000Y-121941000D02*
X111534000Y-122141000D01*
X111534000Y-122141000D02*
X112409000Y-122141000D01*
X112409000Y-122141000D02*
X112409000Y-123866000D01*
X110009000Y-123866000D02*
X110009000Y-125591000D01*
X110009000Y-125591000D02*
X110734000Y-125591000D01*
X110734000Y-125591000D02*
X110734000Y-125791000D01*
X110734000Y-125791000D02*
X111534000Y-125791000D01*
X111534000Y-125791000D02*
X111534000Y-125591000D01*
X111534000Y-125591000D02*
X112409000Y-125591000D01*
X112409000Y-125591000D02*
X112409000Y-123866000D01*
X109209000Y-121341000D02*
X110209000Y-121341000D01*
X109209000Y-121341000D02*
X109209000Y-122341000D01*
%TO.C,D17*%
X111534000Y-127991000D02*
X111534000Y-130591000D01*
X110434000Y-127991000D02*
X110434000Y-130591000D01*
X111534000Y-127991000D02*
X110434000Y-127991000D01*
%TO.C,C18*%
X134800000Y-104000000D02*
X134800000Y-103300000D01*
X136000000Y-103300000D02*
X136000000Y-104000000D01*
%TO.C,D5*%
X181321827Y-110633891D02*
X184401827Y-115968607D01*
X185755877Y-108073891D02*
X188835877Y-113408607D01*
X181321827Y-110633891D02*
X185755877Y-108073891D01*
X186102287Y-107873891D02*
X186662287Y-108843839D01*
X186662287Y-108843839D02*
X186315877Y-109043839D01*
X186315877Y-109043839D02*
X185755877Y-108073891D01*
X185755877Y-108073891D02*
X186102287Y-107873891D01*
X182374000Y-109876307D02*
X182439000Y-109988891D01*
X182439000Y-109988891D02*
X182439000Y-109988891D01*
X182439000Y-109988891D02*
X182374000Y-109876307D01*
X182374000Y-109876307D02*
X182374000Y-109876307D01*
X184573705Y-108606307D02*
X184638705Y-108718891D01*
X184638705Y-108718891D02*
X184638705Y-108718891D01*
X184638705Y-108718891D02*
X184573705Y-108606307D01*
X184573705Y-108606307D02*
X184573705Y-108606307D01*
X188835877Y-113408607D02*
G75*
G02*
X184401827Y-115968607I-2217025J-1280000D01*
G01*
%TO.C,D8*%
X186424295Y-83186193D02*
X186424295Y-83186193D01*
X186489295Y-83073609D02*
X186424295Y-83186193D01*
X186489295Y-83073609D02*
X186489295Y-83073609D01*
X186424295Y-83186193D02*
X186489295Y-83073609D01*
X188624000Y-84456193D02*
X188624000Y-84456193D01*
X188689000Y-84343609D02*
X188624000Y-84456193D01*
X188689000Y-84343609D02*
X188689000Y-84343609D01*
X188624000Y-84456193D02*
X188689000Y-84343609D01*
X185372123Y-82428609D02*
X185025713Y-82228609D01*
X185932123Y-81458661D02*
X185372123Y-82428609D01*
X185585713Y-81258661D02*
X185932123Y-81458661D01*
X185025713Y-82228609D02*
X185585713Y-81258661D01*
X189806173Y-84988609D02*
X185372123Y-82428609D01*
X185372123Y-82428609D02*
X188452123Y-77093893D01*
X189806173Y-84988609D02*
X192886173Y-79653893D01*
X188452123Y-77093893D02*
G75*
G02*
X192886173Y-79653893I2217025J-1280000D01*
G01*
%TO.C,U3*%
X155634000Y-55931500D02*
X153834000Y-55931500D01*
X153834000Y-59151500D02*
X156784000Y-59151500D01*
%TO.C,C1*%
X140150000Y-103891000D02*
X140150000Y-103191000D01*
X141350000Y-103191000D02*
X141350000Y-103891000D01*
%TO.C,C2*%
X107334000Y-100141500D02*
X106634000Y-100141500D01*
X106634000Y-98941500D02*
X107334000Y-98941500D01*
%TO.C,C3*%
X134884000Y-98391400D02*
X134884000Y-97691400D01*
X136084000Y-97691400D02*
X136084000Y-98391400D01*
%TO.C,C4*%
X154634000Y-60191500D02*
X155334000Y-60191500D01*
X155334000Y-61391500D02*
X154634000Y-61391500D01*
%TO.C,C5*%
X154634000Y-66191500D02*
X155334000Y-66191500D01*
X155334000Y-67391500D02*
X154634000Y-67391500D01*
%TO.C,C6*%
X154384000Y-122941000D02*
X155084000Y-122941000D01*
X155084000Y-124141000D02*
X154384000Y-124141000D01*
%TO.C,C7*%
X154384000Y-125441000D02*
X155084000Y-125441000D01*
X155084000Y-126641000D02*
X154384000Y-126641000D01*
%TO.C,C8*%
X180884000Y-65850000D02*
X180884000Y-65150000D01*
X182084000Y-65150000D02*
X182084000Y-65850000D01*
%TO.C,C9*%
X182334000Y-123691000D02*
X182334000Y-124391000D01*
X181134000Y-124391000D02*
X181134000Y-123691000D01*
%TO.C,C10*%
X176884000Y-64941400D02*
X177584000Y-64941400D01*
X177584000Y-66141400D02*
X176884000Y-66141400D01*
%TO.C,C11*%
X176884000Y-123691000D02*
X177584000Y-123691000D01*
X177584000Y-124891000D02*
X176884000Y-124891000D01*
%TO.C,C12*%
X144350000Y-88900000D02*
X143650000Y-88900000D01*
X143650000Y-87700000D02*
X144350000Y-87700000D01*
%TO.C,D1*%
X196184000Y-95841500D02*
X197284000Y-95841500D01*
X197284000Y-95841500D02*
X197284000Y-93241500D01*
X196184000Y-95841500D02*
X196184000Y-93241500D01*
%TO.C,D2*%
X162542192Y-67474423D02*
X168656277Y-66723707D01*
X161918221Y-62392586D02*
X168032306Y-61641871D01*
X162542192Y-67474423D02*
X161918221Y-62392586D01*
X161869474Y-61995568D02*
X162981125Y-61859074D01*
X162981125Y-61859074D02*
X163029873Y-62256093D01*
X163029873Y-62256093D02*
X161918221Y-62392586D01*
X161918221Y-62392586D02*
X161869474Y-61995568D01*
X162255950Y-66209881D02*
X162384981Y-66194038D01*
X162384981Y-66194038D02*
X162384981Y-66194038D01*
X162384981Y-66194038D02*
X162255950Y-66209881D01*
X162255950Y-66209881D02*
X162255950Y-66209881D01*
X161946402Y-63688814D02*
X162075433Y-63672971D01*
X162075433Y-63672971D02*
X162075433Y-63672971D01*
X162075433Y-63672971D02*
X161946402Y-63688814D01*
X161946402Y-63688814D02*
X161946402Y-63688814D01*
X168032305Y-61641871D02*
G75*
G02*
X168656277Y-66723707I311986J-2540918D01*
G01*
%TO.C,D3*%
X162315498Y-121701552D02*
X162315498Y-121701552D01*
X162444529Y-121717395D02*
X162315498Y-121701552D01*
X162444529Y-121717395D02*
X162444529Y-121717395D01*
X162315498Y-121701552D02*
X162444529Y-121717395D01*
X162005950Y-124222619D02*
X162005950Y-124222619D01*
X162134981Y-124238462D02*
X162005950Y-124222619D01*
X162134981Y-124238462D02*
X162134981Y-124238462D01*
X162005950Y-124222619D02*
X162134981Y-124238462D01*
X162601740Y-120437010D02*
X162650488Y-120039992D01*
X163713392Y-120573504D02*
X162601740Y-120437010D01*
X163762140Y-120176485D02*
X163713392Y-120573504D01*
X162650488Y-120039992D02*
X163762140Y-120176485D01*
X161977769Y-125518846D02*
X162601740Y-120437010D01*
X162601740Y-120437010D02*
X168715825Y-121187725D01*
X161977769Y-125518846D02*
X168091854Y-126269562D01*
X168715824Y-121187724D02*
G75*
G02*
X168091854Y-126269562I-311985J-2540919D01*
G01*
%TO.C,D4*%
X182424295Y-78186093D02*
X182424295Y-78186093D01*
X182489295Y-78073509D02*
X182424295Y-78186093D01*
X182489295Y-78073509D02*
X182489295Y-78073509D01*
X182424295Y-78186093D02*
X182489295Y-78073509D01*
X184624000Y-79456093D02*
X184624000Y-79456093D01*
X184689000Y-79343509D02*
X184624000Y-79456093D01*
X184689000Y-79343509D02*
X184689000Y-79343509D01*
X184624000Y-79456093D02*
X184689000Y-79343509D01*
X181372123Y-77428509D02*
X181025713Y-77228509D01*
X181932123Y-76458561D02*
X181372123Y-77428509D01*
X181585713Y-76258561D02*
X181932123Y-76458561D01*
X181025713Y-77228509D02*
X181585713Y-76258561D01*
X185806173Y-79988509D02*
X181372123Y-77428509D01*
X181372123Y-77428509D02*
X184452123Y-72093793D01*
X185806173Y-79988509D02*
X188886173Y-74653793D01*
X184452123Y-72093793D02*
G75*
G02*
X188886173Y-74653793I2217025J-1280000D01*
G01*
%TO.C,D6*%
X161146402Y-57288714D02*
X161146402Y-57288714D01*
X161275433Y-57272871D02*
X161146402Y-57288714D01*
X161275433Y-57272871D02*
X161275433Y-57272871D01*
X161146402Y-57288714D02*
X161275433Y-57272871D01*
X161455950Y-59809781D02*
X161455950Y-59809781D01*
X161584981Y-59793938D02*
X161455950Y-59809781D01*
X161584981Y-59793938D02*
X161584981Y-59793938D01*
X161455950Y-59809781D02*
X161584981Y-59793938D01*
X161118221Y-55992486D02*
X161069474Y-55595468D01*
X162229873Y-55855993D02*
X161118221Y-55992486D01*
X162181125Y-55458974D02*
X162229873Y-55855993D01*
X161069474Y-55595468D02*
X162181125Y-55458974D01*
X161742192Y-61074323D02*
X161118221Y-55992486D01*
X161118221Y-55992486D02*
X167232306Y-55241771D01*
X161742192Y-61074323D02*
X167856277Y-60323607D01*
X167232305Y-55241771D02*
G75*
G02*
X167856277Y-60323607I311986J-2540918D01*
G01*
%TO.C,D7*%
X161177769Y-131968846D02*
X167291854Y-132719562D01*
X161801740Y-126887010D02*
X167915825Y-127637725D01*
X161177769Y-131968846D02*
X161801740Y-126887010D01*
X161850488Y-126489992D02*
X162962140Y-126626485D01*
X162962140Y-126626485D02*
X162913392Y-127023504D01*
X162913392Y-127023504D02*
X161801740Y-126887010D01*
X161801740Y-126887010D02*
X161850488Y-126489992D01*
X161205950Y-130672619D02*
X161334981Y-130688462D01*
X161334981Y-130688462D02*
X161334981Y-130688462D01*
X161334981Y-130688462D02*
X161205950Y-130672619D01*
X161205950Y-130672619D02*
X161205950Y-130672619D01*
X161515498Y-128151552D02*
X161644529Y-128167395D01*
X161644529Y-128167395D02*
X161644529Y-128167395D01*
X161644529Y-128167395D02*
X161515498Y-128151552D01*
X161515498Y-128151552D02*
X161515498Y-128151552D01*
X167915824Y-127637724D02*
G75*
G02*
X167291854Y-132719562I-311985J-2540919D01*
G01*
%TO.C,D9*%
X185271827Y-105533891D02*
X188351827Y-110868607D01*
X189705877Y-102973891D02*
X192785877Y-108308607D01*
X185271827Y-105533891D02*
X189705877Y-102973891D01*
X190052287Y-102773891D02*
X190612287Y-103743839D01*
X190612287Y-103743839D02*
X190265877Y-103943839D01*
X190265877Y-103943839D02*
X189705877Y-102973891D01*
X189705877Y-102973891D02*
X190052287Y-102773891D01*
X186324000Y-104776307D02*
X186389000Y-104888891D01*
X186389000Y-104888891D02*
X186389000Y-104888891D01*
X186389000Y-104888891D02*
X186324000Y-104776307D01*
X186324000Y-104776307D02*
X186324000Y-104776307D01*
X188523705Y-103506307D02*
X188588705Y-103618891D01*
X188588705Y-103618891D02*
X188588705Y-103618891D01*
X188588705Y-103618891D02*
X188523705Y-103506307D01*
X188523705Y-103506307D02*
X188523705Y-103506307D01*
X192785877Y-108308607D02*
G75*
G02*
X188351827Y-110868607I-2217025J-1280000D01*
G01*
%TO.C,D10*%
X99433500Y-60991400D02*
X99433500Y-58391400D01*
X100533500Y-60991400D02*
X100533500Y-58391400D01*
X99433500Y-60991400D02*
X100533500Y-60991400D01*
%TO.C,D11*%
X99433500Y-69791400D02*
X100533500Y-69791400D01*
X100533500Y-69791400D02*
X100533500Y-67191400D01*
X99433500Y-69791400D02*
X99433500Y-67191400D01*
%TO.C,D12*%
X99433500Y-78591500D02*
X99433500Y-75991500D01*
X100533500Y-78591500D02*
X100533500Y-75991500D01*
X99433500Y-78591500D02*
X100533500Y-78591500D01*
%TO.C,D13*%
X100533500Y-108091000D02*
X99433500Y-108091000D01*
X99433500Y-108091000D02*
X99433500Y-110691000D01*
X100533500Y-108091000D02*
X100533500Y-110691000D01*
%TO.C,D14*%
X100533500Y-117451000D02*
X99433500Y-117451000D01*
X99433500Y-117451000D02*
X99433500Y-120051000D01*
X100533500Y-117451000D02*
X100533500Y-120051000D01*
%TO.C,D15*%
X100533500Y-126811000D02*
X99433500Y-126811000D01*
X99433500Y-126811000D02*
X99433500Y-129411000D01*
X100533500Y-126811000D02*
X100533500Y-129411000D01*
%TO.C,D16*%
X110934000Y-61591500D02*
X110934000Y-58991500D01*
X112034000Y-61591500D02*
X112034000Y-58991500D01*
X110934000Y-61591500D02*
X112034000Y-61591500D01*
%TO.C,J3*%
X142670000Y-90420000D02*
X144000000Y-90420000D01*
X142670000Y-91750000D02*
X142670000Y-90420000D01*
X142670000Y-93020000D02*
X145330000Y-93020000D01*
X145330000Y-93020000D02*
X145330000Y-98160000D01*
X142670000Y-93020000D02*
X142670000Y-98160000D01*
X142670000Y-98160000D02*
X145330000Y-98160000D01*
%TO.C,J4*%
X122444000Y-61481500D02*
X116474000Y-61481500D01*
X116474000Y-61481500D02*
X116474000Y-79101500D01*
X116474000Y-79101500D02*
X122444000Y-79101500D01*
X122444000Y-79101500D02*
X122444000Y-61481500D01*
X122434000Y-64791500D02*
X121684000Y-64791500D01*
X121684000Y-64791500D02*
X121684000Y-75791500D01*
X121684000Y-75791500D02*
X122434000Y-75791500D01*
X122434000Y-75791500D02*
X122434000Y-64791500D01*
X122434000Y-61491500D02*
X121684000Y-61491500D01*
X121684000Y-61491500D02*
X121684000Y-63291500D01*
X121684000Y-63291500D02*
X122434000Y-63291500D01*
X122434000Y-63291500D02*
X122434000Y-61491500D01*
X122434000Y-77291500D02*
X121684000Y-77291500D01*
X121684000Y-77291500D02*
X121684000Y-79091500D01*
X121684000Y-79091500D02*
X122434000Y-79091500D01*
X122434000Y-79091500D02*
X122434000Y-77291500D01*
X120184000Y-61491500D02*
X120184000Y-62241500D01*
X120184000Y-62241500D02*
X118844000Y-62241500D01*
X117234000Y-70291500D02*
X117234000Y-63301500D01*
X120184000Y-79091500D02*
X120184000Y-78341500D01*
X120184000Y-78341500D02*
X117234000Y-78341500D01*
X117234000Y-78341500D02*
X117234000Y-70291500D01*
X122734000Y-62441500D02*
X122734000Y-61191500D01*
X122734000Y-61191500D02*
X121484000Y-61191500D01*
%TO.C,J5*%
X122734000Y-108941000D02*
X121484000Y-108941000D01*
X122734000Y-110191000D02*
X122734000Y-108941000D01*
X117234000Y-126091000D02*
X117234000Y-118041000D01*
X120184000Y-126091000D02*
X117234000Y-126091000D01*
X120184000Y-126841000D02*
X120184000Y-126091000D01*
X117234000Y-118041000D02*
X117234000Y-111051000D01*
X120184000Y-109991000D02*
X118844000Y-109991000D01*
X120184000Y-109241000D02*
X120184000Y-109991000D01*
X122434000Y-126841000D02*
X122434000Y-125041000D01*
X121684000Y-126841000D02*
X122434000Y-126841000D01*
X121684000Y-125041000D02*
X121684000Y-126841000D01*
X122434000Y-125041000D02*
X121684000Y-125041000D01*
X122434000Y-111041000D02*
X122434000Y-109241000D01*
X121684000Y-111041000D02*
X122434000Y-111041000D01*
X121684000Y-109241000D02*
X121684000Y-111041000D01*
X122434000Y-109241000D02*
X121684000Y-109241000D01*
X122434000Y-123541000D02*
X122434000Y-112541000D01*
X121684000Y-123541000D02*
X122434000Y-123541000D01*
X121684000Y-112541000D02*
X121684000Y-123541000D01*
X122434000Y-112541000D02*
X121684000Y-112541000D01*
X122444000Y-126851000D02*
X122444000Y-109231000D01*
X116474000Y-126851000D02*
X122444000Y-126851000D01*
X116474000Y-109231000D02*
X116474000Y-126851000D01*
X122444000Y-109231000D02*
X116474000Y-109231000D01*
%TO.C,J10*%
X104444000Y-72401400D02*
X105594000Y-72401400D01*
X105594000Y-72401400D02*
X105594000Y-71351400D01*
X105594000Y-71351400D02*
X106584000Y-71351400D01*
X104444000Y-66181400D02*
X105594000Y-66181400D01*
X105594000Y-66181400D02*
X105594000Y-67231400D01*
X102474000Y-71231400D02*
X102474000Y-67351400D01*
%TO.C,J11*%
X102474000Y-121981000D02*
X102474000Y-118101000D01*
X105594000Y-116931000D02*
X105594000Y-117981000D01*
X104444000Y-116931000D02*
X105594000Y-116931000D01*
X105594000Y-122101000D02*
X106584000Y-122101000D01*
X105594000Y-123151000D02*
X105594000Y-122101000D01*
X104444000Y-123151000D02*
X105594000Y-123151000D01*
%TO.C,L1*%
X142520000Y-104500000D02*
X142520000Y-102500000D01*
X145480000Y-102500000D02*
X145480000Y-104500000D01*
D11*
%TO.C,LS1*%
X150134000Y-79541400D02*
X149234000Y-79541400D01*
X149234000Y-79541400D02*
X149234000Y-75541400D01*
X149234000Y-75541400D02*
X150134000Y-75541400D01*
X153234000Y-75541400D02*
X153234000Y-79541400D01*
X153234000Y-79541400D02*
X152334000Y-79541400D01*
X152334000Y-75541400D02*
X153234000Y-75541400D01*
D10*
%TO.C,Q1*%
X108744000Y-111621000D02*
X107284000Y-111621000D01*
X108744000Y-108461000D02*
X106584000Y-108461000D01*
X108744000Y-108461000D02*
X108744000Y-109391000D01*
X108744000Y-111621000D02*
X108744000Y-110691000D01*
%TO.C,Q2*%
X170330000Y-84240000D02*
X169400000Y-84240000D01*
X167170000Y-84240000D02*
X168100000Y-84240000D01*
X167170000Y-84240000D02*
X167170000Y-86400000D01*
X170330000Y-84240000D02*
X170330000Y-85700000D01*
%TO.C,Q3*%
X167170000Y-104551000D02*
X167170000Y-103091000D01*
X170330000Y-104551000D02*
X170330000Y-102391000D01*
X170330000Y-104551000D02*
X169400000Y-104551000D01*
X167170000Y-104551000D02*
X168100000Y-104551000D01*
%TO.C,Q4*%
X156404000Y-76551500D02*
X157334000Y-76551500D01*
X159564000Y-76551500D02*
X158634000Y-76551500D01*
X159564000Y-76551500D02*
X159564000Y-74391500D01*
X156404000Y-76551500D02*
X156404000Y-75091500D01*
%TO.C,R1*%
X104914000Y-109541000D02*
X104914000Y-110541000D01*
X103554000Y-110541000D02*
X103554000Y-109541000D01*
%TO.C,R2*%
X193304000Y-94541500D02*
X193304000Y-93541500D01*
X194664000Y-93541500D02*
X194664000Y-94541500D01*
%TO.C,R3*%
X141430000Y-97791400D02*
X141430000Y-98791400D01*
X140070000Y-98791400D02*
X140070000Y-97791400D01*
%TO.C,R4*%
X110804000Y-93791400D02*
X110804000Y-92791400D01*
X112164000Y-92791400D02*
X112164000Y-93791400D01*
%TO.C,R5*%
X112164000Y-97791500D02*
X112164000Y-98791500D01*
X110804000Y-98791500D02*
X110804000Y-97791500D01*
%TO.C,R6*%
X138914000Y-103041000D02*
X138914000Y-104041000D01*
X137554000Y-104041000D02*
X137554000Y-103041000D01*
%TO.C,R7*%
X137554000Y-98791500D02*
X137554000Y-97791500D01*
X138914000Y-97791500D02*
X138914000Y-98791500D01*
%TO.C,R8*%
X165164000Y-90291400D02*
X165164000Y-91291400D01*
X163804000Y-91291400D02*
X163804000Y-90291400D01*
%TO.C,R9*%
X165164000Y-85791400D02*
X165164000Y-86791400D01*
X163804000Y-86791400D02*
X163804000Y-85791400D01*
%TO.C,R10*%
X163804000Y-103291000D02*
X163804000Y-102291000D01*
X165164000Y-102291000D02*
X165164000Y-103291000D01*
%TO.C,R11*%
X163804000Y-98291500D02*
X163804000Y-97291500D01*
X165164000Y-97291500D02*
X165164000Y-98291500D01*
%TO.C,R12*%
X169234000Y-89221400D02*
X168234000Y-89221400D01*
X168234000Y-87861400D02*
X169234000Y-87861400D01*
%TO.C,R13*%
X168234000Y-99861000D02*
X169234000Y-99861000D01*
X169234000Y-101221000D02*
X168234000Y-101221000D01*
%TO.C,R14*%
X168150000Y-80620000D02*
X169350000Y-80620000D01*
X169350000Y-82380000D02*
X168150000Y-82380000D01*
%TO.C,R15*%
X168150000Y-106120000D02*
X169350000Y-106120000D01*
X169350000Y-107880000D02*
X168150000Y-107880000D01*
%TO.C,R16*%
X151414000Y-63500000D02*
X151414000Y-64500000D01*
X150054000Y-64500000D02*
X150054000Y-63500000D01*
%TO.C,R17*%
X154484000Y-63111500D02*
X155484000Y-63111500D01*
X155484000Y-64471500D02*
X154484000Y-64471500D01*
%TO.C,R18*%
X150070000Y-124250000D02*
X150070000Y-123250000D01*
X151430000Y-123250000D02*
X151430000Y-124250000D01*
%TO.C,R19*%
X155334000Y-128721000D02*
X154334000Y-128721000D01*
X154334000Y-127361000D02*
X155334000Y-127361000D01*
%TO.C,R20*%
X180820000Y-70500000D02*
X180820000Y-69500000D01*
X182180000Y-69500000D02*
X182180000Y-70500000D01*
%TO.C,R21*%
X181054000Y-120041000D02*
X181054000Y-119041000D01*
X182414000Y-119041000D02*
X182414000Y-120041000D01*
%TO.C,R22*%
X177734000Y-67971400D02*
X176734000Y-67971400D01*
X176734000Y-66611400D02*
X177734000Y-66611400D01*
%TO.C,R23*%
X176734000Y-121861000D02*
X177734000Y-121861000D01*
X177734000Y-123221000D02*
X176734000Y-123221000D01*
%TO.C,R24*%
X99303500Y-55291400D02*
X99303500Y-54291400D01*
X100663500Y-54291400D02*
X100663500Y-55291400D01*
%TO.C,R25*%
X100663500Y-63091500D02*
X100663500Y-64091500D01*
X99303500Y-64091500D02*
X99303500Y-63091500D01*
%TO.C,R26*%
X100663500Y-71891400D02*
X100663500Y-72891400D01*
X99303500Y-72891400D02*
X99303500Y-71891400D01*
%TO.C,R27*%
X100663500Y-114071000D02*
X100663500Y-115071000D01*
X99303500Y-115071000D02*
X99303500Y-114071000D01*
%TO.C,R28*%
X99303500Y-124431000D02*
X99303500Y-123431000D01*
X100663500Y-123431000D02*
X100663500Y-124431000D01*
%TO.C,R29*%
X156334000Y-78861500D02*
X157334000Y-78861500D01*
X157334000Y-80221500D02*
X156334000Y-80221500D01*
%TO.C,R30*%
X99303500Y-133791000D02*
X99303500Y-132791000D01*
X100663500Y-132791000D02*
X100663500Y-133791000D01*
%TO.C,R31*%
X106304000Y-58041500D02*
X106304000Y-57041500D01*
X107664000Y-57041500D02*
X107664000Y-58041500D01*
%TO.C,R32*%
X108304000Y-60291500D02*
X108304000Y-59291500D01*
X109664000Y-59291500D02*
X109664000Y-60291500D01*
%TO.C,R33*%
X106304000Y-132441000D02*
X106304000Y-131441000D01*
X107664000Y-131441000D02*
X107664000Y-132441000D01*
%TO.C,R34*%
X109414000Y-129291000D02*
X109414000Y-130291000D01*
X108054000Y-130291000D02*
X108054000Y-129291000D01*
%TO.C,SW1*%
X111087009Y-73098086D02*
X109757212Y-73121297D01*
X111063797Y-71768288D02*
X111087009Y-73098086D01*
X111041633Y-70498482D02*
X108382038Y-70544905D01*
X108382038Y-70544905D02*
X108292333Y-65405688D01*
X111041633Y-70498482D02*
X110951928Y-65359265D01*
X110951928Y-65359265D02*
X108292333Y-65405688D01*
%TO.C,SW2*%
X101984000Y-55691500D02*
X102084000Y-55691500D01*
X105484000Y-55691500D02*
X105384000Y-55691500D01*
X105384000Y-60591500D02*
X105484000Y-60591500D01*
X101984000Y-60591500D02*
X102084000Y-60591500D01*
X103384000Y-60591500D02*
X104084000Y-60591500D01*
X103384000Y-55691500D02*
X104084000Y-55691500D01*
X101984000Y-55691500D02*
X101984000Y-60591500D01*
X105484000Y-60591500D02*
X105484000Y-55691500D01*
%TO.C,SW3*%
X105484000Y-133491000D02*
X105484000Y-128591000D01*
X101984000Y-128591000D02*
X101984000Y-133491000D01*
X103384000Y-128591000D02*
X104084000Y-128591000D01*
X103384000Y-133491000D02*
X104084000Y-133491000D01*
X101984000Y-133491000D02*
X102084000Y-133491000D01*
X105384000Y-133491000D02*
X105484000Y-133491000D01*
X105484000Y-128591000D02*
X105384000Y-128591000D01*
X101984000Y-128591000D02*
X102084000Y-128591000D01*
%TO.C,U1*%
X108344000Y-94841500D02*
X108344000Y-93041500D01*
X105124000Y-93041500D02*
X105124000Y-95491500D01*
D11*
%TO.C,U2*%
X172075000Y-91966400D02*
X172025000Y-91966400D01*
X172075000Y-96116400D02*
X171930000Y-96116400D01*
X166925000Y-96116400D02*
X167070000Y-96116400D01*
X166925000Y-91966400D02*
X167070000Y-91966400D01*
X172075000Y-91966400D02*
X172075000Y-96116400D01*
X166925000Y-91966400D02*
X166925000Y-96116400D01*
X172025000Y-91966400D02*
X172025000Y-90566400D01*
D10*
%TO.C,U4*%
X154084000Y-133151000D02*
X155884000Y-133151000D01*
X155884000Y-129931000D02*
X152934000Y-129931000D01*
%TO.C,U5*%
X176334000Y-71651500D02*
X179284000Y-71651500D01*
X178134000Y-68431500D02*
X176334000Y-68431500D01*
%TO.C,U6*%
X178134000Y-118440000D02*
X175184000Y-118440000D01*
X176334000Y-121660000D02*
X178134000Y-121660000D01*
D11*
%TO.C,J6*%
X191355000Y-94057500D02*
G75*
G03*
X191355000Y-94057500I-1270000J0D01*
G01*
X196165000Y-88057500D02*
X184165000Y-88057500D01*
X184165000Y-88057500D02*
X184165000Y-100057500D01*
X184165000Y-100057500D02*
X196165000Y-100057500D01*
X196165000Y-100057500D02*
X196165000Y-88057500D01*
%TO.C,J8*%
X126280051Y-94057500D02*
G75*
G03*
X126280051Y-94057500I-1796051J0D01*
G01*
X129484000Y-94087500D02*
X129484000Y-101537500D01*
X129484000Y-101537500D02*
X119584000Y-101537500D01*
X119584000Y-101537500D02*
X119584000Y-86487500D01*
X119584000Y-86487500D02*
X129484000Y-86487500D01*
X129484000Y-86487500D02*
X129484000Y-94187500D01*
D10*
%TO.C,C13*%
X144550000Y-84400000D02*
X143550000Y-84400000D01*
X143550000Y-86100000D02*
X144550000Y-86100000D01*
%TO.C,J7*%
X149204000Y-86437400D02*
X151804000Y-86437400D01*
X151804000Y-86437400D02*
X151804000Y-83837400D01*
X151804000Y-83837400D02*
X154404000Y-83837400D01*
X149204000Y-85167400D02*
X149204000Y-83837400D01*
X149204000Y-83837400D02*
X150534000Y-83837400D01*
D11*
X149264000Y-118187400D02*
X179744000Y-118187400D01*
X179744000Y-118187400D02*
X179744000Y-77547400D01*
X149264000Y-77547400D02*
X149264000Y-118187400D01*
D10*
%TO.C,J9*%
X101930000Y-84520000D02*
X101930000Y-85850000D01*
X100600000Y-84520000D02*
X101930000Y-84520000D01*
X99330000Y-84520000D02*
X99330000Y-87180000D01*
X99330000Y-87180000D02*
X99270000Y-87180000D01*
X99330000Y-84520000D02*
X99270000Y-84520000D01*
X99270000Y-84520000D02*
X99270000Y-87180000D01*
%TO.C,J12*%
X99320000Y-102270000D02*
X99320000Y-104930000D01*
X99380000Y-102270000D02*
X99320000Y-102270000D01*
X99380000Y-104930000D02*
X99320000Y-104930000D01*
X99380000Y-102270000D02*
X99380000Y-104930000D01*
X100650000Y-102270000D02*
X101980000Y-102270000D01*
X101980000Y-102270000D02*
X101980000Y-103600000D01*
%TO.C,C14*%
X109650000Y-104250000D02*
X110350000Y-104250000D01*
X110350000Y-105450000D02*
X109650000Y-105450000D01*
%TO.C,C15*%
X156400000Y-82950000D02*
X157100000Y-82950000D01*
X157100000Y-84150000D02*
X156400000Y-84150000D01*
%TO.C,C16*%
X110400000Y-107400000D02*
X109700000Y-107400000D01*
X109700000Y-106200000D02*
X110400000Y-106200000D01*
%TO.C,C17*%
X157150000Y-82150000D02*
X156450000Y-82150000D01*
X156450000Y-80950000D02*
X157150000Y-80950000D01*
%TO.C,J1*%
D11*
X107866666Y-114702380D02*
X107866666Y-115416666D01*
X107819047Y-115559523D01*
X107723809Y-115654761D01*
X107580952Y-115702380D01*
X107485714Y-115702380D01*
X108866666Y-115702380D02*
X108295238Y-115702380D01*
X108580952Y-115702380D02*
X108580952Y-114702380D01*
X108485714Y-114845238D01*
X108390476Y-114940476D01*
X108295238Y-114988095D01*
%TO.C,J2*%
X107866666Y-122702380D02*
X107866666Y-123416666D01*
X107819047Y-123559523D01*
X107723809Y-123654761D01*
X107580952Y-123702380D01*
X107485714Y-123702380D01*
X108295238Y-122797619D02*
X108342857Y-122750000D01*
X108438095Y-122702380D01*
X108676190Y-122702380D01*
X108771428Y-122750000D01*
X108819047Y-122797619D01*
X108866666Y-122892857D01*
X108866666Y-122988095D01*
X108819047Y-123130952D01*
X108247619Y-123702380D01*
X108866666Y-123702380D01*
%TO.C,D17*%
X110635714Y-127602380D02*
X110635714Y-126602380D01*
X110873809Y-126602380D01*
X111016666Y-126650000D01*
X111111904Y-126745238D01*
X111159523Y-126840476D01*
X111207142Y-127030952D01*
X111207142Y-127173809D01*
X111159523Y-127364285D01*
X111111904Y-127459523D01*
X111016666Y-127554761D01*
X110873809Y-127602380D01*
X110635714Y-127602380D01*
X112159523Y-127602380D02*
X111588095Y-127602380D01*
X111873809Y-127602380D02*
X111873809Y-126602380D01*
X111778571Y-126745238D01*
X111683333Y-126840476D01*
X111588095Y-126888095D01*
X112492857Y-126602380D02*
X113159523Y-126602380D01*
X112730952Y-127602380D01*
%TO.C,C18*%
X134757142Y-101257142D02*
X134709523Y-101304761D01*
X134566666Y-101352380D01*
X134471428Y-101352380D01*
X134328571Y-101304761D01*
X134233333Y-101209523D01*
X134185714Y-101114285D01*
X134138095Y-100923809D01*
X134138095Y-100780952D01*
X134185714Y-100590476D01*
X134233333Y-100495238D01*
X134328571Y-100400000D01*
X134471428Y-100352380D01*
X134566666Y-100352380D01*
X134709523Y-100400000D01*
X134757142Y-100447619D01*
X135709523Y-101352380D02*
X135138095Y-101352380D01*
X135423809Y-101352380D02*
X135423809Y-100352380D01*
X135328571Y-100495238D01*
X135233333Y-100590476D01*
X135138095Y-100638095D01*
X136280952Y-100780952D02*
X136185714Y-100733333D01*
X136138095Y-100685714D01*
X136090476Y-100590476D01*
X136090476Y-100542857D01*
X136138095Y-100447619D01*
X136185714Y-100400000D01*
X136280952Y-100352380D01*
X136471428Y-100352380D01*
X136566666Y-100400000D01*
X136614285Y-100447619D01*
X136661904Y-100542857D01*
X136661904Y-100590476D01*
X136614285Y-100685714D01*
X136566666Y-100733333D01*
X136471428Y-100780952D01*
X136280952Y-100780952D01*
X136185714Y-100828571D01*
X136138095Y-100876190D01*
X136090476Y-100971428D01*
X136090476Y-101161904D01*
X136138095Y-101257142D01*
X136185714Y-101304761D01*
X136280952Y-101352380D01*
X136471428Y-101352380D01*
X136566666Y-101304761D01*
X136614285Y-101257142D01*
X136661904Y-101161904D01*
X136661904Y-100971428D01*
X136614285Y-100876190D01*
X136566666Y-100828571D01*
X136471428Y-100780952D01*
%TO.C,D5*%
X181540833Y-107369411D02*
X181040833Y-106503385D01*
X181247029Y-106384337D01*
X181394557Y-106354148D01*
X181524654Y-106389008D01*
X181613513Y-106447677D01*
X181749990Y-106588825D01*
X181821419Y-106712542D01*
X181875417Y-106901309D01*
X181881797Y-107007597D01*
X181846938Y-107137695D01*
X181747029Y-107250363D01*
X181540833Y-107369411D01*
X182319251Y-105765290D02*
X181906858Y-106003385D01*
X182103714Y-106439588D01*
X182121144Y-106374539D01*
X182179813Y-106285681D01*
X182386009Y-106166633D01*
X182492298Y-106160253D01*
X182557346Y-106177683D01*
X182646205Y-106236352D01*
X182765252Y-106442549D01*
X182771632Y-106548837D01*
X182754202Y-106613885D01*
X182695533Y-106702744D01*
X182489337Y-106821791D01*
X182383049Y-106828171D01*
X182318000Y-106810741D01*
%TO.C,D8*%
X185138748Y-86476635D02*
X185638748Y-85610610D01*
X185844944Y-85729657D01*
X185944853Y-85842325D01*
X185979712Y-85972423D01*
X185973333Y-86078711D01*
X185919334Y-86267478D01*
X185847905Y-86391196D01*
X185711428Y-86532344D01*
X185622569Y-86591013D01*
X185492472Y-86625872D01*
X185344944Y-86595683D01*
X185138748Y-86476635D01*
X186414205Y-86553192D02*
X186355536Y-86464334D01*
X186338107Y-86399285D01*
X186344486Y-86292997D01*
X186368296Y-86251758D01*
X186457154Y-86193088D01*
X186522203Y-86175659D01*
X186628491Y-86182038D01*
X186793448Y-86277277D01*
X186852117Y-86366135D01*
X186869547Y-86431184D01*
X186863167Y-86537472D01*
X186839358Y-86578711D01*
X186750500Y-86637380D01*
X186685451Y-86654810D01*
X186579163Y-86648430D01*
X186414205Y-86553192D01*
X186307917Y-86546812D01*
X186242868Y-86564242D01*
X186154010Y-86622911D01*
X186058772Y-86787869D01*
X186052392Y-86894157D01*
X186069822Y-86959205D01*
X186128491Y-87048064D01*
X186293448Y-87143302D01*
X186399736Y-87149682D01*
X186464785Y-87132252D01*
X186553644Y-87073583D01*
X186648882Y-86908626D01*
X186655261Y-86802337D01*
X186637832Y-86737289D01*
X186579163Y-86648430D01*
%TO.C,U3*%
X153938095Y-54402380D02*
X153938095Y-55211904D01*
X153985714Y-55307142D01*
X154033333Y-55354761D01*
X154128571Y-55402380D01*
X154319047Y-55402380D01*
X154414285Y-55354761D01*
X154461904Y-55307142D01*
X154509523Y-55211904D01*
X154509523Y-54402380D01*
X154890476Y-54402380D02*
X155509523Y-54402380D01*
X155176190Y-54783333D01*
X155319047Y-54783333D01*
X155414285Y-54830952D01*
X155461904Y-54878571D01*
X155509523Y-54973809D01*
X155509523Y-55211904D01*
X155461904Y-55307142D01*
X155414285Y-55354761D01*
X155319047Y-55402380D01*
X155033333Y-55402380D01*
X154938095Y-55354761D01*
X154890476Y-55307142D01*
%TO.C,C1*%
X140583333Y-101357142D02*
X140535714Y-101404761D01*
X140392857Y-101452380D01*
X140297619Y-101452380D01*
X140154761Y-101404761D01*
X140059523Y-101309523D01*
X140011904Y-101214285D01*
X139964285Y-101023809D01*
X139964285Y-100880952D01*
X140011904Y-100690476D01*
X140059523Y-100595238D01*
X140154761Y-100500000D01*
X140297619Y-100452380D01*
X140392857Y-100452380D01*
X140535714Y-100500000D01*
X140583333Y-100547619D01*
X141535714Y-101452380D02*
X140964285Y-101452380D01*
X141250000Y-101452380D02*
X141250000Y-100452380D01*
X141154761Y-100595238D01*
X141059523Y-100690476D01*
X140964285Y-100738095D01*
%TO.C,C2*%
X106817333Y-101148642D02*
X106769714Y-101196261D01*
X106626857Y-101243880D01*
X106531619Y-101243880D01*
X106388761Y-101196261D01*
X106293523Y-101101023D01*
X106245904Y-101005785D01*
X106198285Y-100815309D01*
X106198285Y-100672452D01*
X106245904Y-100481976D01*
X106293523Y-100386738D01*
X106388761Y-100291500D01*
X106531619Y-100243880D01*
X106626857Y-100243880D01*
X106769714Y-100291500D01*
X106817333Y-100339119D01*
X107198285Y-100339119D02*
X107245904Y-100291500D01*
X107341142Y-100243880D01*
X107579238Y-100243880D01*
X107674476Y-100291500D01*
X107722095Y-100339119D01*
X107769714Y-100434357D01*
X107769714Y-100529595D01*
X107722095Y-100672452D01*
X107150666Y-101243880D01*
X107769714Y-101243880D01*
%TO.C,C3*%
X135283333Y-95807142D02*
X135235714Y-95854761D01*
X135092857Y-95902380D01*
X134997619Y-95902380D01*
X134854761Y-95854761D01*
X134759523Y-95759523D01*
X134711904Y-95664285D01*
X134664285Y-95473809D01*
X134664285Y-95330952D01*
X134711904Y-95140476D01*
X134759523Y-95045238D01*
X134854761Y-94950000D01*
X134997619Y-94902380D01*
X135092857Y-94902380D01*
X135235714Y-94950000D01*
X135283333Y-94997619D01*
X135616666Y-94902380D02*
X136235714Y-94902380D01*
X135902380Y-95283333D01*
X136045238Y-95283333D01*
X136140476Y-95330952D01*
X136188095Y-95378571D01*
X136235714Y-95473809D01*
X136235714Y-95711904D01*
X136188095Y-95807142D01*
X136140476Y-95854761D01*
X136045238Y-95902380D01*
X135759523Y-95902380D01*
X135664285Y-95854761D01*
X135616666Y-95807142D01*
%TO.C,C4*%
X154783333Y-62257142D02*
X154735714Y-62304761D01*
X154592857Y-62352380D01*
X154497619Y-62352380D01*
X154354761Y-62304761D01*
X154259523Y-62209523D01*
X154211904Y-62114285D01*
X154164285Y-61923809D01*
X154164285Y-61780952D01*
X154211904Y-61590476D01*
X154259523Y-61495238D01*
X154354761Y-61400000D01*
X154497619Y-61352380D01*
X154592857Y-61352380D01*
X154735714Y-61400000D01*
X154783333Y-61447619D01*
X155640476Y-61685714D02*
X155640476Y-62352380D01*
X155402380Y-61304761D02*
X155164285Y-62019047D01*
X155783333Y-62019047D01*
%TO.C,C5*%
X154817333Y-68398642D02*
X154769714Y-68446261D01*
X154626857Y-68493880D01*
X154531619Y-68493880D01*
X154388761Y-68446261D01*
X154293523Y-68351023D01*
X154245904Y-68255785D01*
X154198285Y-68065309D01*
X154198285Y-67922452D01*
X154245904Y-67731976D01*
X154293523Y-67636738D01*
X154388761Y-67541500D01*
X154531619Y-67493880D01*
X154626857Y-67493880D01*
X154769714Y-67541500D01*
X154817333Y-67589119D01*
X155722095Y-67493880D02*
X155245904Y-67493880D01*
X155198285Y-67970071D01*
X155245904Y-67922452D01*
X155341142Y-67874833D01*
X155579238Y-67874833D01*
X155674476Y-67922452D01*
X155722095Y-67970071D01*
X155769714Y-68065309D01*
X155769714Y-68303404D01*
X155722095Y-68398642D01*
X155674476Y-68446261D01*
X155579238Y-68493880D01*
X155341142Y-68493880D01*
X155245904Y-68446261D01*
X155198285Y-68398642D01*
%TO.C,C6*%
X154533333Y-122007142D02*
X154485714Y-122054761D01*
X154342857Y-122102380D01*
X154247619Y-122102380D01*
X154104761Y-122054761D01*
X154009523Y-121959523D01*
X153961904Y-121864285D01*
X153914285Y-121673809D01*
X153914285Y-121530952D01*
X153961904Y-121340476D01*
X154009523Y-121245238D01*
X154104761Y-121150000D01*
X154247619Y-121102380D01*
X154342857Y-121102380D01*
X154485714Y-121150000D01*
X154533333Y-121197619D01*
X155390476Y-121102380D02*
X155200000Y-121102380D01*
X155104761Y-121150000D01*
X155057142Y-121197619D01*
X154961904Y-121340476D01*
X154914285Y-121530952D01*
X154914285Y-121911904D01*
X154961904Y-122007142D01*
X155009523Y-122054761D01*
X155104761Y-122102380D01*
X155295238Y-122102380D01*
X155390476Y-122054761D01*
X155438095Y-122007142D01*
X155485714Y-121911904D01*
X155485714Y-121673809D01*
X155438095Y-121578571D01*
X155390476Y-121530952D01*
X155295238Y-121483333D01*
X155104761Y-121483333D01*
X155009523Y-121530952D01*
X154961904Y-121578571D01*
X154914285Y-121673809D01*
%TO.C,C7*%
X157583333Y-125148142D02*
X157535714Y-125195761D01*
X157392857Y-125243380D01*
X157297619Y-125243380D01*
X157154761Y-125195761D01*
X157059523Y-125100523D01*
X157011904Y-125005285D01*
X156964285Y-124814809D01*
X156964285Y-124671952D01*
X157011904Y-124481476D01*
X157059523Y-124386238D01*
X157154761Y-124291000D01*
X157297619Y-124243380D01*
X157392857Y-124243380D01*
X157535714Y-124291000D01*
X157583333Y-124338619D01*
X157916666Y-124243380D02*
X158583333Y-124243380D01*
X158154761Y-125243380D01*
%TO.C,C8*%
X183383333Y-65807142D02*
X183335714Y-65854761D01*
X183192857Y-65902380D01*
X183097619Y-65902380D01*
X182954761Y-65854761D01*
X182859523Y-65759523D01*
X182811904Y-65664285D01*
X182764285Y-65473809D01*
X182764285Y-65330952D01*
X182811904Y-65140476D01*
X182859523Y-65045238D01*
X182954761Y-64950000D01*
X183097619Y-64902380D01*
X183192857Y-64902380D01*
X183335714Y-64950000D01*
X183383333Y-64997619D01*
X183954761Y-65330952D02*
X183859523Y-65283333D01*
X183811904Y-65235714D01*
X183764285Y-65140476D01*
X183764285Y-65092857D01*
X183811904Y-64997619D01*
X183859523Y-64950000D01*
X183954761Y-64902380D01*
X184145238Y-64902380D01*
X184240476Y-64950000D01*
X184288095Y-64997619D01*
X184335714Y-65092857D01*
X184335714Y-65140476D01*
X184288095Y-65235714D01*
X184240476Y-65283333D01*
X184145238Y-65330952D01*
X183954761Y-65330952D01*
X183859523Y-65378571D01*
X183811904Y-65426190D01*
X183764285Y-65521428D01*
X183764285Y-65711904D01*
X183811904Y-65807142D01*
X183859523Y-65854761D01*
X183954761Y-65902380D01*
X184145238Y-65902380D01*
X184240476Y-65854761D01*
X184288095Y-65807142D01*
X184335714Y-65711904D01*
X184335714Y-65521428D01*
X184288095Y-65426190D01*
X184240476Y-65378571D01*
X184145238Y-65330952D01*
%TO.C,C9*%
X183233333Y-123507142D02*
X183185714Y-123554761D01*
X183042857Y-123602380D01*
X182947619Y-123602380D01*
X182804761Y-123554761D01*
X182709523Y-123459523D01*
X182661904Y-123364285D01*
X182614285Y-123173809D01*
X182614285Y-123030952D01*
X182661904Y-122840476D01*
X182709523Y-122745238D01*
X182804761Y-122650000D01*
X182947619Y-122602380D01*
X183042857Y-122602380D01*
X183185714Y-122650000D01*
X183233333Y-122697619D01*
X183709523Y-123602380D02*
X183900000Y-123602380D01*
X183995238Y-123554761D01*
X184042857Y-123507142D01*
X184138095Y-123364285D01*
X184185714Y-123173809D01*
X184185714Y-122792857D01*
X184138095Y-122697619D01*
X184090476Y-122650000D01*
X183995238Y-122602380D01*
X183804761Y-122602380D01*
X183709523Y-122650000D01*
X183661904Y-122697619D01*
X183614285Y-122792857D01*
X183614285Y-123030952D01*
X183661904Y-123126190D01*
X183709523Y-123173809D01*
X183804761Y-123221428D01*
X183995238Y-123221428D01*
X184090476Y-123173809D01*
X184138095Y-123126190D01*
X184185714Y-123030952D01*
%TO.C,C10*%
X173007142Y-65707142D02*
X172959523Y-65754761D01*
X172816666Y-65802380D01*
X172721428Y-65802380D01*
X172578571Y-65754761D01*
X172483333Y-65659523D01*
X172435714Y-65564285D01*
X172388095Y-65373809D01*
X172388095Y-65230952D01*
X172435714Y-65040476D01*
X172483333Y-64945238D01*
X172578571Y-64850000D01*
X172721428Y-64802380D01*
X172816666Y-64802380D01*
X172959523Y-64850000D01*
X173007142Y-64897619D01*
X173959523Y-65802380D02*
X173388095Y-65802380D01*
X173673809Y-65802380D02*
X173673809Y-64802380D01*
X173578571Y-64945238D01*
X173483333Y-65040476D01*
X173388095Y-65088095D01*
X174578571Y-64802380D02*
X174673809Y-64802380D01*
X174769047Y-64850000D01*
X174816666Y-64897619D01*
X174864285Y-64992857D01*
X174911904Y-65183333D01*
X174911904Y-65421428D01*
X174864285Y-65611904D01*
X174816666Y-65707142D01*
X174769047Y-65754761D01*
X174673809Y-65802380D01*
X174578571Y-65802380D01*
X174483333Y-65754761D01*
X174435714Y-65707142D01*
X174388095Y-65611904D01*
X174340476Y-65421428D01*
X174340476Y-65183333D01*
X174388095Y-64992857D01*
X174435714Y-64897619D01*
X174483333Y-64850000D01*
X174578571Y-64802380D01*
%TO.C,C11*%
X176557142Y-126057142D02*
X176509523Y-126104761D01*
X176366666Y-126152380D01*
X176271428Y-126152380D01*
X176128571Y-126104761D01*
X176033333Y-126009523D01*
X175985714Y-125914285D01*
X175938095Y-125723809D01*
X175938095Y-125580952D01*
X175985714Y-125390476D01*
X176033333Y-125295238D01*
X176128571Y-125200000D01*
X176271428Y-125152380D01*
X176366666Y-125152380D01*
X176509523Y-125200000D01*
X176557142Y-125247619D01*
X177509523Y-126152380D02*
X176938095Y-126152380D01*
X177223809Y-126152380D02*
X177223809Y-125152380D01*
X177128571Y-125295238D01*
X177033333Y-125390476D01*
X176938095Y-125438095D01*
X178461904Y-126152380D02*
X177890476Y-126152380D01*
X178176190Y-126152380D02*
X178176190Y-125152380D01*
X178080952Y-125295238D01*
X177985714Y-125390476D01*
X177890476Y-125438095D01*
%TO.C,C12*%
X139657142Y-88607142D02*
X139609523Y-88654761D01*
X139466666Y-88702380D01*
X139371428Y-88702380D01*
X139228571Y-88654761D01*
X139133333Y-88559523D01*
X139085714Y-88464285D01*
X139038095Y-88273809D01*
X139038095Y-88130952D01*
X139085714Y-87940476D01*
X139133333Y-87845238D01*
X139228571Y-87750000D01*
X139371428Y-87702380D01*
X139466666Y-87702380D01*
X139609523Y-87750000D01*
X139657142Y-87797619D01*
X140609523Y-88702380D02*
X140038095Y-88702380D01*
X140323809Y-88702380D02*
X140323809Y-87702380D01*
X140228571Y-87845238D01*
X140133333Y-87940476D01*
X140038095Y-87988095D01*
X140990476Y-87797619D02*
X141038095Y-87750000D01*
X141133333Y-87702380D01*
X141371428Y-87702380D01*
X141466666Y-87750000D01*
X141514285Y-87797619D01*
X141561904Y-87892857D01*
X141561904Y-87988095D01*
X141514285Y-88130952D01*
X140942857Y-88702380D01*
X141561904Y-88702380D01*
%TO.C,D1*%
X194545904Y-94493880D02*
X194545904Y-93493880D01*
X194784000Y-93493880D01*
X194926857Y-93541500D01*
X195022095Y-93636738D01*
X195069714Y-93731976D01*
X195117333Y-93922452D01*
X195117333Y-94065309D01*
X195069714Y-94255785D01*
X195022095Y-94351023D01*
X194926857Y-94446261D01*
X194784000Y-94493880D01*
X194545904Y-94493880D01*
X196069714Y-94493880D02*
X195498285Y-94493880D01*
X195784000Y-94493880D02*
X195784000Y-93493880D01*
X195688761Y-93636738D01*
X195593523Y-93731976D01*
X195498285Y-93779595D01*
%TO.C,D2*%
X158544874Y-64642367D02*
X159537420Y-64520498D01*
X159566437Y-64756818D01*
X159536583Y-64904414D01*
X159453661Y-65010549D01*
X159364936Y-65069420D01*
X159181683Y-65139897D01*
X159039891Y-65157307D01*
X158845031Y-65133256D01*
X158744700Y-65097598D01*
X158638565Y-65014677D01*
X158573891Y-64878688D01*
X158544874Y-64642367D01*
X159558958Y-65477387D02*
X159612026Y-65518847D01*
X159670896Y-65607572D01*
X159699913Y-65843893D01*
X159664255Y-65944224D01*
X159622795Y-65997292D01*
X159534070Y-66056162D01*
X159439542Y-66067769D01*
X159291946Y-66037915D01*
X158655137Y-65540385D01*
X158730580Y-66154819D01*
%TO.C,D3*%
X164309057Y-123937724D02*
X163316511Y-123815855D01*
X163345528Y-123579535D01*
X163410202Y-123443546D01*
X163516336Y-123360624D01*
X163616668Y-123324966D01*
X163811528Y-123300916D01*
X163953320Y-123318326D01*
X164136573Y-123388803D01*
X164225298Y-123447674D01*
X164308220Y-123553808D01*
X164338074Y-123701404D01*
X164309057Y-123937724D01*
X163426774Y-122917837D02*
X163502217Y-122303404D01*
X163839707Y-122680679D01*
X163857116Y-122538887D01*
X163915987Y-122450162D01*
X163969055Y-122408701D01*
X164069386Y-122373043D01*
X164305707Y-122402060D01*
X164394431Y-122460931D01*
X164435892Y-122513998D01*
X164471550Y-122614330D01*
X164436730Y-122897914D01*
X164377859Y-122986639D01*
X164324792Y-123028100D01*
%TO.C,D4*%
X181138748Y-81476535D02*
X181638748Y-80610510D01*
X181844944Y-80729557D01*
X181944853Y-80842225D01*
X181979712Y-80972323D01*
X181973333Y-81078611D01*
X181919334Y-81267378D01*
X181847905Y-81391096D01*
X181711428Y-81532244D01*
X181622569Y-81590913D01*
X181492472Y-81625772D01*
X181344944Y-81595583D01*
X181138748Y-81476535D01*
X182709260Y-81613471D02*
X182375927Y-82190821D01*
X182693540Y-81164509D02*
X182130201Y-81664051D01*
X182666312Y-81973574D01*
%TO.C,D6*%
X157744874Y-58242267D02*
X158737420Y-58120398D01*
X158766437Y-58356718D01*
X158736583Y-58504314D01*
X158653661Y-58610449D01*
X158564936Y-58669320D01*
X158381683Y-58739797D01*
X158239891Y-58757207D01*
X158045031Y-58733156D01*
X157944700Y-58697498D01*
X157838565Y-58614577D01*
X157773891Y-58478588D01*
X157744874Y-58242267D01*
X158911520Y-59538321D02*
X158888306Y-59349265D01*
X158829436Y-59260540D01*
X158776368Y-59219079D01*
X158622969Y-59141961D01*
X158428110Y-59117910D01*
X158049997Y-59164336D01*
X157961272Y-59223207D01*
X157919811Y-59276274D01*
X157884154Y-59376606D01*
X157907367Y-59565662D01*
X157966238Y-59654387D01*
X158019305Y-59695848D01*
X158119636Y-59731505D01*
X158355957Y-59702489D01*
X158444682Y-59643618D01*
X158486143Y-59590551D01*
X158521800Y-59490219D01*
X158498587Y-59301163D01*
X158439716Y-59212438D01*
X158386649Y-59170977D01*
X158286317Y-59135320D01*
%TO.C,D7*%
X163609057Y-130187724D02*
X162616511Y-130065855D01*
X162645528Y-129829535D01*
X162710202Y-129693546D01*
X162816336Y-129610624D01*
X162916668Y-129574966D01*
X163111528Y-129550916D01*
X163253320Y-129568326D01*
X163436573Y-129638803D01*
X163525298Y-129697674D01*
X163608220Y-129803808D01*
X163638074Y-129951404D01*
X163609057Y-130187724D01*
X162726774Y-129167837D02*
X162808020Y-128506140D01*
X163748337Y-129053386D01*
%TO.C,D9*%
X185490833Y-102269411D02*
X184990833Y-101403385D01*
X185197029Y-101284337D01*
X185344557Y-101254148D01*
X185474654Y-101289008D01*
X185563513Y-101347677D01*
X185699990Y-101488825D01*
X185771419Y-101612542D01*
X185825417Y-101801309D01*
X185831797Y-101907597D01*
X185796938Y-102037695D01*
X185697029Y-102150363D01*
X185490833Y-102269411D01*
X186398097Y-101745601D02*
X186563055Y-101650363D01*
X186621724Y-101561505D01*
X186639154Y-101496456D01*
X186650204Y-101325119D01*
X186596205Y-101136352D01*
X186405729Y-100806438D01*
X186316870Y-100747768D01*
X186251821Y-100730339D01*
X186145533Y-100736718D01*
X185980576Y-100831957D01*
X185921907Y-100920815D01*
X185904477Y-100985864D01*
X185910857Y-101092152D01*
X186029905Y-101298348D01*
X186118763Y-101357017D01*
X186183812Y-101374447D01*
X186290100Y-101368068D01*
X186455057Y-101272829D01*
X186513726Y-101183971D01*
X186531156Y-101118922D01*
X186524776Y-101012634D01*
%TO.C,D10*%
X100847619Y-58085714D02*
X101847619Y-58085714D01*
X101847619Y-58323809D01*
X101800000Y-58466666D01*
X101704761Y-58561904D01*
X101609523Y-58609523D01*
X101419047Y-58657142D01*
X101276190Y-58657142D01*
X101085714Y-58609523D01*
X100990476Y-58561904D01*
X100895238Y-58466666D01*
X100847619Y-58323809D01*
X100847619Y-58085714D01*
X100847619Y-59609523D02*
X100847619Y-59038095D01*
X100847619Y-59323809D02*
X101847619Y-59323809D01*
X101704761Y-59228571D01*
X101609523Y-59133333D01*
X101561904Y-59038095D01*
X101847619Y-60228571D02*
X101847619Y-60323809D01*
X101800000Y-60419047D01*
X101752380Y-60466666D01*
X101657142Y-60514285D01*
X101466666Y-60561904D01*
X101228571Y-60561904D01*
X101038095Y-60514285D01*
X100942857Y-60466666D01*
X100895238Y-60419047D01*
X100847619Y-60323809D01*
X100847619Y-60228571D01*
X100895238Y-60133333D01*
X100942857Y-60085714D01*
X101038095Y-60038095D01*
X101228571Y-59990476D01*
X101466666Y-59990476D01*
X101657142Y-60038095D01*
X101752380Y-60085714D01*
X101800000Y-60133333D01*
X101847619Y-60228571D01*
%TO.C,D11*%
X100897619Y-66735714D02*
X101897619Y-66735714D01*
X101897619Y-66973809D01*
X101850000Y-67116666D01*
X101754761Y-67211904D01*
X101659523Y-67259523D01*
X101469047Y-67307142D01*
X101326190Y-67307142D01*
X101135714Y-67259523D01*
X101040476Y-67211904D01*
X100945238Y-67116666D01*
X100897619Y-66973809D01*
X100897619Y-66735714D01*
X100897619Y-68259523D02*
X100897619Y-67688095D01*
X100897619Y-67973809D02*
X101897619Y-67973809D01*
X101754761Y-67878571D01*
X101659523Y-67783333D01*
X101611904Y-67688095D01*
X100897619Y-69211904D02*
X100897619Y-68640476D01*
X100897619Y-68926190D02*
X101897619Y-68926190D01*
X101754761Y-68830952D01*
X101659523Y-68735714D01*
X101611904Y-68640476D01*
%TO.C,D12*%
X100847619Y-75785714D02*
X101847619Y-75785714D01*
X101847619Y-76023809D01*
X101800000Y-76166666D01*
X101704761Y-76261904D01*
X101609523Y-76309523D01*
X101419047Y-76357142D01*
X101276190Y-76357142D01*
X101085714Y-76309523D01*
X100990476Y-76261904D01*
X100895238Y-76166666D01*
X100847619Y-76023809D01*
X100847619Y-75785714D01*
X100847619Y-77309523D02*
X100847619Y-76738095D01*
X100847619Y-77023809D02*
X101847619Y-77023809D01*
X101704761Y-76928571D01*
X101609523Y-76833333D01*
X101561904Y-76738095D01*
X101752380Y-77690476D02*
X101800000Y-77738095D01*
X101847619Y-77833333D01*
X101847619Y-78071428D01*
X101800000Y-78166666D01*
X101752380Y-78214285D01*
X101657142Y-78261904D01*
X101561904Y-78261904D01*
X101419047Y-78214285D01*
X100847619Y-77642857D01*
X100847619Y-78261904D01*
%TO.C,D13*%
X100981119Y-108676714D02*
X101981119Y-108676714D01*
X101981119Y-108914809D01*
X101933500Y-109057666D01*
X101838261Y-109152904D01*
X101743023Y-109200523D01*
X101552547Y-109248142D01*
X101409690Y-109248142D01*
X101219214Y-109200523D01*
X101123976Y-109152904D01*
X101028738Y-109057666D01*
X100981119Y-108914809D01*
X100981119Y-108676714D01*
X100981119Y-110200523D02*
X100981119Y-109629095D01*
X100981119Y-109914809D02*
X101981119Y-109914809D01*
X101838261Y-109819571D01*
X101743023Y-109724333D01*
X101695404Y-109629095D01*
X101981119Y-110533857D02*
X101981119Y-111152904D01*
X101600166Y-110819571D01*
X101600166Y-110962428D01*
X101552547Y-111057666D01*
X101504928Y-111105285D01*
X101409690Y-111152904D01*
X101171595Y-111152904D01*
X101076357Y-111105285D01*
X101028738Y-111057666D01*
X100981119Y-110962428D01*
X100981119Y-110676714D01*
X101028738Y-110581476D01*
X101076357Y-110533857D01*
%TO.C,D14*%
X100981119Y-118036714D02*
X101981119Y-118036714D01*
X101981119Y-118274809D01*
X101933500Y-118417666D01*
X101838261Y-118512904D01*
X101743023Y-118560523D01*
X101552547Y-118608142D01*
X101409690Y-118608142D01*
X101219214Y-118560523D01*
X101123976Y-118512904D01*
X101028738Y-118417666D01*
X100981119Y-118274809D01*
X100981119Y-118036714D01*
X100981119Y-119560523D02*
X100981119Y-118989095D01*
X100981119Y-119274809D02*
X101981119Y-119274809D01*
X101838261Y-119179571D01*
X101743023Y-119084333D01*
X101695404Y-118989095D01*
X101647785Y-120417666D02*
X100981119Y-120417666D01*
X102028738Y-120179571D02*
X101314452Y-119941476D01*
X101314452Y-120560523D01*
%TO.C,D15*%
X100981119Y-127396714D02*
X101981119Y-127396714D01*
X101981119Y-127634809D01*
X101933500Y-127777666D01*
X101838261Y-127872904D01*
X101743023Y-127920523D01*
X101552547Y-127968142D01*
X101409690Y-127968142D01*
X101219214Y-127920523D01*
X101123976Y-127872904D01*
X101028738Y-127777666D01*
X100981119Y-127634809D01*
X100981119Y-127396714D01*
X100981119Y-128920523D02*
X100981119Y-128349095D01*
X100981119Y-128634809D02*
X101981119Y-128634809D01*
X101838261Y-128539571D01*
X101743023Y-128444333D01*
X101695404Y-128349095D01*
X101981119Y-129825285D02*
X101981119Y-129349095D01*
X101504928Y-129301476D01*
X101552547Y-129349095D01*
X101600166Y-129444333D01*
X101600166Y-129682428D01*
X101552547Y-129777666D01*
X101504928Y-129825285D01*
X101409690Y-129872904D01*
X101171595Y-129872904D01*
X101076357Y-129825285D01*
X101028738Y-129777666D01*
X100981119Y-129682428D01*
X100981119Y-129444333D01*
X101028738Y-129349095D01*
X101076357Y-129301476D01*
%TO.C,D16*%
X111085714Y-63202380D02*
X111085714Y-62202380D01*
X111323809Y-62202380D01*
X111466666Y-62250000D01*
X111561904Y-62345238D01*
X111609523Y-62440476D01*
X111657142Y-62630952D01*
X111657142Y-62773809D01*
X111609523Y-62964285D01*
X111561904Y-63059523D01*
X111466666Y-63154761D01*
X111323809Y-63202380D01*
X111085714Y-63202380D01*
X112609523Y-63202380D02*
X112038095Y-63202380D01*
X112323809Y-63202380D02*
X112323809Y-62202380D01*
X112228571Y-62345238D01*
X112133333Y-62440476D01*
X112038095Y-62488095D01*
X113466666Y-62202380D02*
X113276190Y-62202380D01*
X113180952Y-62250000D01*
X113133333Y-62297619D01*
X113038095Y-62440476D01*
X112990476Y-62630952D01*
X112990476Y-63011904D01*
X113038095Y-63107142D01*
X113085714Y-63154761D01*
X113180952Y-63202380D01*
X113371428Y-63202380D01*
X113466666Y-63154761D01*
X113514285Y-63107142D01*
X113561904Y-63011904D01*
X113561904Y-62773809D01*
X113514285Y-62678571D01*
X113466666Y-62630952D01*
X113371428Y-62583333D01*
X113180952Y-62583333D01*
X113085714Y-62630952D01*
X113038095Y-62678571D01*
X112990476Y-62773809D01*
%TO.C,J3*%
X140016666Y-91202380D02*
X140016666Y-91916666D01*
X139969047Y-92059523D01*
X139873809Y-92154761D01*
X139730952Y-92202380D01*
X139635714Y-92202380D01*
X140397619Y-91202380D02*
X141016666Y-91202380D01*
X140683333Y-91583333D01*
X140826190Y-91583333D01*
X140921428Y-91630952D01*
X140969047Y-91678571D01*
X141016666Y-91773809D01*
X141016666Y-92011904D01*
X140969047Y-92107142D01*
X140921428Y-92154761D01*
X140826190Y-92202380D01*
X140540476Y-92202380D01*
X140445238Y-92154761D01*
X140397619Y-92107142D01*
%TO.C,J4*%
X116566666Y-79952380D02*
X116566666Y-80666666D01*
X116519047Y-80809523D01*
X116423809Y-80904761D01*
X116280952Y-80952380D01*
X116185714Y-80952380D01*
X117471428Y-80285714D02*
X117471428Y-80952380D01*
X117233333Y-79904761D02*
X116995238Y-80619047D01*
X117614285Y-80619047D01*
%TO.C,J5*%
X119666666Y-107402380D02*
X119666666Y-108116666D01*
X119619047Y-108259523D01*
X119523809Y-108354761D01*
X119380952Y-108402380D01*
X119285714Y-108402380D01*
X120619047Y-107402380D02*
X120142857Y-107402380D01*
X120095238Y-107878571D01*
X120142857Y-107830952D01*
X120238095Y-107783333D01*
X120476190Y-107783333D01*
X120571428Y-107830952D01*
X120619047Y-107878571D01*
X120666666Y-107973809D01*
X120666666Y-108211904D01*
X120619047Y-108307142D01*
X120571428Y-108354761D01*
X120476190Y-108402380D01*
X120238095Y-108402380D01*
X120142857Y-108354761D01*
X120095238Y-108307142D01*
%TO.C,J10*%
X103640476Y-73352380D02*
X103640476Y-74066666D01*
X103592857Y-74209523D01*
X103497619Y-74304761D01*
X103354761Y-74352380D01*
X103259523Y-74352380D01*
X104640476Y-74352380D02*
X104069047Y-74352380D01*
X104354761Y-74352380D02*
X104354761Y-73352380D01*
X104259523Y-73495238D01*
X104164285Y-73590476D01*
X104069047Y-73638095D01*
X105259523Y-73352380D02*
X105354761Y-73352380D01*
X105450000Y-73400000D01*
X105497619Y-73447619D01*
X105545238Y-73542857D01*
X105592857Y-73733333D01*
X105592857Y-73971428D01*
X105545238Y-74161904D01*
X105497619Y-74257142D01*
X105450000Y-74304761D01*
X105354761Y-74352380D01*
X105259523Y-74352380D01*
X105164285Y-74304761D01*
X105116666Y-74257142D01*
X105069047Y-74161904D01*
X105021428Y-73971428D01*
X105021428Y-73733333D01*
X105069047Y-73542857D01*
X105116666Y-73447619D01*
X105164285Y-73400000D01*
X105259523Y-73352380D01*
%TO.C,J11*%
X103740476Y-114702380D02*
X103740476Y-115416666D01*
X103692857Y-115559523D01*
X103597619Y-115654761D01*
X103454761Y-115702380D01*
X103359523Y-115702380D01*
X104740476Y-115702380D02*
X104169047Y-115702380D01*
X104454761Y-115702380D02*
X104454761Y-114702380D01*
X104359523Y-114845238D01*
X104264285Y-114940476D01*
X104169047Y-114988095D01*
X105692857Y-115702380D02*
X105121428Y-115702380D01*
X105407142Y-115702380D02*
X105407142Y-114702380D01*
X105311904Y-114845238D01*
X105216666Y-114940476D01*
X105121428Y-114988095D01*
%TO.C,L1*%
X146133333Y-103952380D02*
X145657142Y-103952380D01*
X145657142Y-102952380D01*
X146990476Y-103952380D02*
X146419047Y-103952380D01*
X146704761Y-103952380D02*
X146704761Y-102952380D01*
X146609523Y-103095238D01*
X146514285Y-103190476D01*
X146419047Y-103238095D01*
%TO.C,LS1*%
X150607142Y-74602380D02*
X150130952Y-74602380D01*
X150130952Y-73602380D01*
X150892857Y-74554761D02*
X151035714Y-74602380D01*
X151273809Y-74602380D01*
X151369047Y-74554761D01*
X151416666Y-74507142D01*
X151464285Y-74411904D01*
X151464285Y-74316666D01*
X151416666Y-74221428D01*
X151369047Y-74173809D01*
X151273809Y-74126190D01*
X151083333Y-74078571D01*
X150988095Y-74030952D01*
X150940476Y-73983333D01*
X150892857Y-73888095D01*
X150892857Y-73792857D01*
X150940476Y-73697619D01*
X150988095Y-73650000D01*
X151083333Y-73602380D01*
X151321428Y-73602380D01*
X151464285Y-73650000D01*
X152416666Y-74602380D02*
X151845238Y-74602380D01*
X152130952Y-74602380D02*
X152130952Y-73602380D01*
X152035714Y-73745238D01*
X151940476Y-73840476D01*
X151845238Y-73888095D01*
%TO.C,Q1*%
X106854761Y-108197619D02*
X106759523Y-108150000D01*
X106664285Y-108054761D01*
X106521428Y-107911904D01*
X106426190Y-107864285D01*
X106330952Y-107864285D01*
X106378571Y-108102380D02*
X106283333Y-108054761D01*
X106188095Y-107959523D01*
X106140476Y-107769047D01*
X106140476Y-107435714D01*
X106188095Y-107245238D01*
X106283333Y-107150000D01*
X106378571Y-107102380D01*
X106569047Y-107102380D01*
X106664285Y-107150000D01*
X106759523Y-107245238D01*
X106807142Y-107435714D01*
X106807142Y-107769047D01*
X106759523Y-107959523D01*
X106664285Y-108054761D01*
X106569047Y-108102380D01*
X106378571Y-108102380D01*
X107759523Y-108102380D02*
X107188095Y-108102380D01*
X107473809Y-108102380D02*
X107473809Y-107102380D01*
X107378571Y-107245238D01*
X107283333Y-107340476D01*
X107188095Y-107388095D01*
%TO.C,Q2*%
X171504761Y-85597619D02*
X171409523Y-85550000D01*
X171314285Y-85454761D01*
X171171428Y-85311904D01*
X171076190Y-85264285D01*
X170980952Y-85264285D01*
X171028571Y-85502380D02*
X170933333Y-85454761D01*
X170838095Y-85359523D01*
X170790476Y-85169047D01*
X170790476Y-84835714D01*
X170838095Y-84645238D01*
X170933333Y-84550000D01*
X171028571Y-84502380D01*
X171219047Y-84502380D01*
X171314285Y-84550000D01*
X171409523Y-84645238D01*
X171457142Y-84835714D01*
X171457142Y-85169047D01*
X171409523Y-85359523D01*
X171314285Y-85454761D01*
X171219047Y-85502380D01*
X171028571Y-85502380D01*
X171838095Y-84597619D02*
X171885714Y-84550000D01*
X171980952Y-84502380D01*
X172219047Y-84502380D01*
X172314285Y-84550000D01*
X172361904Y-84597619D01*
X172409523Y-84692857D01*
X172409523Y-84788095D01*
X172361904Y-84930952D01*
X171790476Y-85502380D01*
X172409523Y-85502380D01*
%TO.C,Q3*%
X171654761Y-104297619D02*
X171559523Y-104250000D01*
X171464285Y-104154761D01*
X171321428Y-104011904D01*
X171226190Y-103964285D01*
X171130952Y-103964285D01*
X171178571Y-104202380D02*
X171083333Y-104154761D01*
X170988095Y-104059523D01*
X170940476Y-103869047D01*
X170940476Y-103535714D01*
X170988095Y-103345238D01*
X171083333Y-103250000D01*
X171178571Y-103202380D01*
X171369047Y-103202380D01*
X171464285Y-103250000D01*
X171559523Y-103345238D01*
X171607142Y-103535714D01*
X171607142Y-103869047D01*
X171559523Y-104059523D01*
X171464285Y-104154761D01*
X171369047Y-104202380D01*
X171178571Y-104202380D01*
X171940476Y-103202380D02*
X172559523Y-103202380D01*
X172226190Y-103583333D01*
X172369047Y-103583333D01*
X172464285Y-103630952D01*
X172511904Y-103678571D01*
X172559523Y-103773809D01*
X172559523Y-104011904D01*
X172511904Y-104107142D01*
X172464285Y-104154761D01*
X172369047Y-104202380D01*
X172083333Y-104202380D01*
X171988095Y-104154761D01*
X171940476Y-104107142D01*
%TO.C,Q4*%
X157904761Y-73447619D02*
X157809523Y-73400000D01*
X157714285Y-73304761D01*
X157571428Y-73161904D01*
X157476190Y-73114285D01*
X157380952Y-73114285D01*
X157428571Y-73352380D02*
X157333333Y-73304761D01*
X157238095Y-73209523D01*
X157190476Y-73019047D01*
X157190476Y-72685714D01*
X157238095Y-72495238D01*
X157333333Y-72400000D01*
X157428571Y-72352380D01*
X157619047Y-72352380D01*
X157714285Y-72400000D01*
X157809523Y-72495238D01*
X157857142Y-72685714D01*
X157857142Y-73019047D01*
X157809523Y-73209523D01*
X157714285Y-73304761D01*
X157619047Y-73352380D01*
X157428571Y-73352380D01*
X158714285Y-72685714D02*
X158714285Y-73352380D01*
X158476190Y-72304761D02*
X158238095Y-73019047D01*
X158857142Y-73019047D01*
%TO.C,R1*%
X104183333Y-107752380D02*
X103850000Y-107276190D01*
X103611904Y-107752380D02*
X103611904Y-106752380D01*
X103992857Y-106752380D01*
X104088095Y-106800000D01*
X104135714Y-106847619D01*
X104183333Y-106942857D01*
X104183333Y-107085714D01*
X104135714Y-107180952D01*
X104088095Y-107228571D01*
X103992857Y-107276190D01*
X103611904Y-107276190D01*
X105135714Y-107752380D02*
X104564285Y-107752380D01*
X104850000Y-107752380D02*
X104850000Y-106752380D01*
X104754761Y-106895238D01*
X104659523Y-106990476D01*
X104564285Y-107038095D01*
%TO.C,R2*%
X192133333Y-94552380D02*
X191800000Y-94076190D01*
X191561904Y-94552380D02*
X191561904Y-93552380D01*
X191942857Y-93552380D01*
X192038095Y-93600000D01*
X192085714Y-93647619D01*
X192133333Y-93742857D01*
X192133333Y-93885714D01*
X192085714Y-93980952D01*
X192038095Y-94028571D01*
X191942857Y-94076190D01*
X191561904Y-94076190D01*
X192514285Y-93647619D02*
X192561904Y-93600000D01*
X192657142Y-93552380D01*
X192895238Y-93552380D01*
X192990476Y-93600000D01*
X193038095Y-93647619D01*
X193085714Y-93742857D01*
X193085714Y-93838095D01*
X193038095Y-93980952D01*
X192466666Y-94552380D01*
X193085714Y-94552380D01*
%TO.C,R3*%
X140533333Y-95902380D02*
X140200000Y-95426190D01*
X139961904Y-95902380D02*
X139961904Y-94902380D01*
X140342857Y-94902380D01*
X140438095Y-94950000D01*
X140485714Y-94997619D01*
X140533333Y-95092857D01*
X140533333Y-95235714D01*
X140485714Y-95330952D01*
X140438095Y-95378571D01*
X140342857Y-95426190D01*
X139961904Y-95426190D01*
X140866666Y-94902380D02*
X141485714Y-94902380D01*
X141152380Y-95283333D01*
X141295238Y-95283333D01*
X141390476Y-95330952D01*
X141438095Y-95378571D01*
X141485714Y-95473809D01*
X141485714Y-95711904D01*
X141438095Y-95807142D01*
X141390476Y-95854761D01*
X141295238Y-95902380D01*
X141009523Y-95902380D01*
X140914285Y-95854761D01*
X140866666Y-95807142D01*
%TO.C,R4*%
X112983333Y-93743780D02*
X112650000Y-93267590D01*
X112411904Y-93743780D02*
X112411904Y-92743780D01*
X112792857Y-92743780D01*
X112888095Y-92791400D01*
X112935714Y-92839019D01*
X112983333Y-92934257D01*
X112983333Y-93077114D01*
X112935714Y-93172352D01*
X112888095Y-93219971D01*
X112792857Y-93267590D01*
X112411904Y-93267590D01*
X113840476Y-93077114D02*
X113840476Y-93743780D01*
X113602380Y-92696161D02*
X113364285Y-93410447D01*
X113983333Y-93410447D01*
%TO.C,R5*%
X113033333Y-98852380D02*
X112700000Y-98376190D01*
X112461904Y-98852380D02*
X112461904Y-97852380D01*
X112842857Y-97852380D01*
X112938095Y-97900000D01*
X112985714Y-97947619D01*
X113033333Y-98042857D01*
X113033333Y-98185714D01*
X112985714Y-98280952D01*
X112938095Y-98328571D01*
X112842857Y-98376190D01*
X112461904Y-98376190D01*
X113938095Y-97852380D02*
X113461904Y-97852380D01*
X113414285Y-98328571D01*
X113461904Y-98280952D01*
X113557142Y-98233333D01*
X113795238Y-98233333D01*
X113890476Y-98280952D01*
X113938095Y-98328571D01*
X113985714Y-98423809D01*
X113985714Y-98661904D01*
X113938095Y-98757142D01*
X113890476Y-98804761D01*
X113795238Y-98852380D01*
X113557142Y-98852380D01*
X113461904Y-98804761D01*
X113414285Y-98757142D01*
%TO.C,R6*%
X138133333Y-101452380D02*
X137800000Y-100976190D01*
X137561904Y-101452380D02*
X137561904Y-100452380D01*
X137942857Y-100452380D01*
X138038095Y-100500000D01*
X138085714Y-100547619D01*
X138133333Y-100642857D01*
X138133333Y-100785714D01*
X138085714Y-100880952D01*
X138038095Y-100928571D01*
X137942857Y-100976190D01*
X137561904Y-100976190D01*
X138990476Y-100452380D02*
X138800000Y-100452380D01*
X138704761Y-100500000D01*
X138657142Y-100547619D01*
X138561904Y-100690476D01*
X138514285Y-100880952D01*
X138514285Y-101261904D01*
X138561904Y-101357142D01*
X138609523Y-101404761D01*
X138704761Y-101452380D01*
X138895238Y-101452380D01*
X138990476Y-101404761D01*
X139038095Y-101357142D01*
X139085714Y-101261904D01*
X139085714Y-101023809D01*
X139038095Y-100928571D01*
X138990476Y-100880952D01*
X138895238Y-100833333D01*
X138704761Y-100833333D01*
X138609523Y-100880952D01*
X138561904Y-100928571D01*
X138514285Y-101023809D01*
%TO.C,R7*%
X138083333Y-95852380D02*
X137750000Y-95376190D01*
X137511904Y-95852380D02*
X137511904Y-94852380D01*
X137892857Y-94852380D01*
X137988095Y-94900000D01*
X138035714Y-94947619D01*
X138083333Y-95042857D01*
X138083333Y-95185714D01*
X138035714Y-95280952D01*
X137988095Y-95328571D01*
X137892857Y-95376190D01*
X137511904Y-95376190D01*
X138416666Y-94852380D02*
X139083333Y-94852380D01*
X138654761Y-95852380D01*
%TO.C,R8*%
X162183333Y-91252380D02*
X161850000Y-90776190D01*
X161611904Y-91252380D02*
X161611904Y-90252380D01*
X161992857Y-90252380D01*
X162088095Y-90300000D01*
X162135714Y-90347619D01*
X162183333Y-90442857D01*
X162183333Y-90585714D01*
X162135714Y-90680952D01*
X162088095Y-90728571D01*
X161992857Y-90776190D01*
X161611904Y-90776190D01*
X162754761Y-90680952D02*
X162659523Y-90633333D01*
X162611904Y-90585714D01*
X162564285Y-90490476D01*
X162564285Y-90442857D01*
X162611904Y-90347619D01*
X162659523Y-90300000D01*
X162754761Y-90252380D01*
X162945238Y-90252380D01*
X163040476Y-90300000D01*
X163088095Y-90347619D01*
X163135714Y-90442857D01*
X163135714Y-90490476D01*
X163088095Y-90585714D01*
X163040476Y-90633333D01*
X162945238Y-90680952D01*
X162754761Y-90680952D01*
X162659523Y-90728571D01*
X162611904Y-90776190D01*
X162564285Y-90871428D01*
X162564285Y-91061904D01*
X162611904Y-91157142D01*
X162659523Y-91204761D01*
X162754761Y-91252380D01*
X162945238Y-91252380D01*
X163040476Y-91204761D01*
X163088095Y-91157142D01*
X163135714Y-91061904D01*
X163135714Y-90871428D01*
X163088095Y-90776190D01*
X163040476Y-90728571D01*
X162945238Y-90680952D01*
%TO.C,R9*%
X162133333Y-86802380D02*
X161800000Y-86326190D01*
X161561904Y-86802380D02*
X161561904Y-85802380D01*
X161942857Y-85802380D01*
X162038095Y-85850000D01*
X162085714Y-85897619D01*
X162133333Y-85992857D01*
X162133333Y-86135714D01*
X162085714Y-86230952D01*
X162038095Y-86278571D01*
X161942857Y-86326190D01*
X161561904Y-86326190D01*
X162609523Y-86802380D02*
X162800000Y-86802380D01*
X162895238Y-86754761D01*
X162942857Y-86707142D01*
X163038095Y-86564285D01*
X163085714Y-86373809D01*
X163085714Y-85992857D01*
X163038095Y-85897619D01*
X162990476Y-85850000D01*
X162895238Y-85802380D01*
X162704761Y-85802380D01*
X162609523Y-85850000D01*
X162561904Y-85897619D01*
X162514285Y-85992857D01*
X162514285Y-86230952D01*
X162561904Y-86326190D01*
X162609523Y-86373809D01*
X162704761Y-86421428D01*
X162895238Y-86421428D01*
X162990476Y-86373809D01*
X163038095Y-86326190D01*
X163085714Y-86230952D01*
%TO.C,R10*%
X161507142Y-103202380D02*
X161173809Y-102726190D01*
X160935714Y-103202380D02*
X160935714Y-102202380D01*
X161316666Y-102202380D01*
X161411904Y-102250000D01*
X161459523Y-102297619D01*
X161507142Y-102392857D01*
X161507142Y-102535714D01*
X161459523Y-102630952D01*
X161411904Y-102678571D01*
X161316666Y-102726190D01*
X160935714Y-102726190D01*
X162459523Y-103202380D02*
X161888095Y-103202380D01*
X162173809Y-103202380D02*
X162173809Y-102202380D01*
X162078571Y-102345238D01*
X161983333Y-102440476D01*
X161888095Y-102488095D01*
X163078571Y-102202380D02*
X163173809Y-102202380D01*
X163269047Y-102250000D01*
X163316666Y-102297619D01*
X163364285Y-102392857D01*
X163411904Y-102583333D01*
X163411904Y-102821428D01*
X163364285Y-103011904D01*
X163316666Y-103107142D01*
X163269047Y-103154761D01*
X163173809Y-103202380D01*
X163078571Y-103202380D01*
X162983333Y-103154761D01*
X162935714Y-103107142D01*
X162888095Y-103011904D01*
X162840476Y-102821428D01*
X162840476Y-102583333D01*
X162888095Y-102392857D01*
X162935714Y-102297619D01*
X162983333Y-102250000D01*
X163078571Y-102202380D01*
%TO.C,R11*%
X161507142Y-98202380D02*
X161173809Y-97726190D01*
X160935714Y-98202380D02*
X160935714Y-97202380D01*
X161316666Y-97202380D01*
X161411904Y-97250000D01*
X161459523Y-97297619D01*
X161507142Y-97392857D01*
X161507142Y-97535714D01*
X161459523Y-97630952D01*
X161411904Y-97678571D01*
X161316666Y-97726190D01*
X160935714Y-97726190D01*
X162459523Y-98202380D02*
X161888095Y-98202380D01*
X162173809Y-98202380D02*
X162173809Y-97202380D01*
X162078571Y-97345238D01*
X161983333Y-97440476D01*
X161888095Y-97488095D01*
X163411904Y-98202380D02*
X162840476Y-98202380D01*
X163126190Y-98202380D02*
X163126190Y-97202380D01*
X163030952Y-97345238D01*
X162935714Y-97440476D01*
X162840476Y-97488095D01*
%TO.C,R12*%
X171507142Y-88952380D02*
X171173809Y-88476190D01*
X170935714Y-88952380D02*
X170935714Y-87952380D01*
X171316666Y-87952380D01*
X171411904Y-88000000D01*
X171459523Y-88047619D01*
X171507142Y-88142857D01*
X171507142Y-88285714D01*
X171459523Y-88380952D01*
X171411904Y-88428571D01*
X171316666Y-88476190D01*
X170935714Y-88476190D01*
X172459523Y-88952380D02*
X171888095Y-88952380D01*
X172173809Y-88952380D02*
X172173809Y-87952380D01*
X172078571Y-88095238D01*
X171983333Y-88190476D01*
X171888095Y-88238095D01*
X172840476Y-88047619D02*
X172888095Y-88000000D01*
X172983333Y-87952380D01*
X173221428Y-87952380D01*
X173316666Y-88000000D01*
X173364285Y-88047619D01*
X173411904Y-88142857D01*
X173411904Y-88238095D01*
X173364285Y-88380952D01*
X172792857Y-88952380D01*
X173411904Y-88952380D01*
%TO.C,R13*%
X168091142Y-99543380D02*
X167757809Y-99067190D01*
X167519714Y-99543380D02*
X167519714Y-98543380D01*
X167900666Y-98543380D01*
X167995904Y-98591000D01*
X168043523Y-98638619D01*
X168091142Y-98733857D01*
X168091142Y-98876714D01*
X168043523Y-98971952D01*
X167995904Y-99019571D01*
X167900666Y-99067190D01*
X167519714Y-99067190D01*
X169043523Y-99543380D02*
X168472095Y-99543380D01*
X168757809Y-99543380D02*
X168757809Y-98543380D01*
X168662571Y-98686238D01*
X168567333Y-98781476D01*
X168472095Y-98829095D01*
X169376857Y-98543380D02*
X169995904Y-98543380D01*
X169662571Y-98924333D01*
X169805428Y-98924333D01*
X169900666Y-98971952D01*
X169948285Y-99019571D01*
X169995904Y-99114809D01*
X169995904Y-99352904D01*
X169948285Y-99448142D01*
X169900666Y-99495761D01*
X169805428Y-99543380D01*
X169519714Y-99543380D01*
X169424476Y-99495761D01*
X169376857Y-99448142D01*
%TO.C,R14*%
X168107142Y-80252380D02*
X167773809Y-79776190D01*
X167535714Y-80252380D02*
X167535714Y-79252380D01*
X167916666Y-79252380D01*
X168011904Y-79300000D01*
X168059523Y-79347619D01*
X168107142Y-79442857D01*
X168107142Y-79585714D01*
X168059523Y-79680952D01*
X168011904Y-79728571D01*
X167916666Y-79776190D01*
X167535714Y-79776190D01*
X169059523Y-80252380D02*
X168488095Y-80252380D01*
X168773809Y-80252380D02*
X168773809Y-79252380D01*
X168678571Y-79395238D01*
X168583333Y-79490476D01*
X168488095Y-79538095D01*
X169916666Y-79585714D02*
X169916666Y-80252380D01*
X169678571Y-79204761D02*
X169440476Y-79919047D01*
X170059523Y-79919047D01*
%TO.C,R15*%
X168107142Y-109152380D02*
X167773809Y-108676190D01*
X167535714Y-109152380D02*
X167535714Y-108152380D01*
X167916666Y-108152380D01*
X168011904Y-108200000D01*
X168059523Y-108247619D01*
X168107142Y-108342857D01*
X168107142Y-108485714D01*
X168059523Y-108580952D01*
X168011904Y-108628571D01*
X167916666Y-108676190D01*
X167535714Y-108676190D01*
X169059523Y-109152380D02*
X168488095Y-109152380D01*
X168773809Y-109152380D02*
X168773809Y-108152380D01*
X168678571Y-108295238D01*
X168583333Y-108390476D01*
X168488095Y-108438095D01*
X169964285Y-108152380D02*
X169488095Y-108152380D01*
X169440476Y-108628571D01*
X169488095Y-108580952D01*
X169583333Y-108533333D01*
X169821428Y-108533333D01*
X169916666Y-108580952D01*
X169964285Y-108628571D01*
X170011904Y-108723809D01*
X170011904Y-108961904D01*
X169964285Y-109057142D01*
X169916666Y-109104761D01*
X169821428Y-109152380D01*
X169583333Y-109152380D01*
X169488095Y-109104761D01*
X169440476Y-109057142D01*
%TO.C,R16*%
X147807142Y-64502380D02*
X147473809Y-64026190D01*
X147235714Y-64502380D02*
X147235714Y-63502380D01*
X147616666Y-63502380D01*
X147711904Y-63550000D01*
X147759523Y-63597619D01*
X147807142Y-63692857D01*
X147807142Y-63835714D01*
X147759523Y-63930952D01*
X147711904Y-63978571D01*
X147616666Y-64026190D01*
X147235714Y-64026190D01*
X148759523Y-64502380D02*
X148188095Y-64502380D01*
X148473809Y-64502380D02*
X148473809Y-63502380D01*
X148378571Y-63645238D01*
X148283333Y-63740476D01*
X148188095Y-63788095D01*
X149616666Y-63502380D02*
X149426190Y-63502380D01*
X149330952Y-63550000D01*
X149283333Y-63597619D01*
X149188095Y-63740476D01*
X149140476Y-63930952D01*
X149140476Y-64311904D01*
X149188095Y-64407142D01*
X149235714Y-64454761D01*
X149330952Y-64502380D01*
X149521428Y-64502380D01*
X149616666Y-64454761D01*
X149664285Y-64407142D01*
X149711904Y-64311904D01*
X149711904Y-64073809D01*
X149664285Y-63978571D01*
X149616666Y-63930952D01*
X149521428Y-63883333D01*
X149330952Y-63883333D01*
X149235714Y-63930952D01*
X149188095Y-63978571D01*
X149140476Y-64073809D01*
%TO.C,R17*%
X154341142Y-65693880D02*
X154007809Y-65217690D01*
X153769714Y-65693880D02*
X153769714Y-64693880D01*
X154150666Y-64693880D01*
X154245904Y-64741500D01*
X154293523Y-64789119D01*
X154341142Y-64884357D01*
X154341142Y-65027214D01*
X154293523Y-65122452D01*
X154245904Y-65170071D01*
X154150666Y-65217690D01*
X153769714Y-65217690D01*
X155293523Y-65693880D02*
X154722095Y-65693880D01*
X155007809Y-65693880D02*
X155007809Y-64693880D01*
X154912571Y-64836738D01*
X154817333Y-64931976D01*
X154722095Y-64979595D01*
X155626857Y-64693880D02*
X156293523Y-64693880D01*
X155864952Y-65693880D01*
%TO.C,R18*%
X150057142Y-121302380D02*
X149723809Y-120826190D01*
X149485714Y-121302380D02*
X149485714Y-120302380D01*
X149866666Y-120302380D01*
X149961904Y-120350000D01*
X150009523Y-120397619D01*
X150057142Y-120492857D01*
X150057142Y-120635714D01*
X150009523Y-120730952D01*
X149961904Y-120778571D01*
X149866666Y-120826190D01*
X149485714Y-120826190D01*
X151009523Y-121302380D02*
X150438095Y-121302380D01*
X150723809Y-121302380D02*
X150723809Y-120302380D01*
X150628571Y-120445238D01*
X150533333Y-120540476D01*
X150438095Y-120588095D01*
X151580952Y-120730952D02*
X151485714Y-120683333D01*
X151438095Y-120635714D01*
X151390476Y-120540476D01*
X151390476Y-120492857D01*
X151438095Y-120397619D01*
X151485714Y-120350000D01*
X151580952Y-120302380D01*
X151771428Y-120302380D01*
X151866666Y-120350000D01*
X151914285Y-120397619D01*
X151961904Y-120492857D01*
X151961904Y-120540476D01*
X151914285Y-120635714D01*
X151866666Y-120683333D01*
X151771428Y-120730952D01*
X151580952Y-120730952D01*
X151485714Y-120778571D01*
X151438095Y-120826190D01*
X151390476Y-120921428D01*
X151390476Y-121111904D01*
X151438095Y-121207142D01*
X151485714Y-121254761D01*
X151580952Y-121302380D01*
X151771428Y-121302380D01*
X151866666Y-121254761D01*
X151914285Y-121207142D01*
X151961904Y-121111904D01*
X151961904Y-120921428D01*
X151914285Y-120826190D01*
X151866666Y-120778571D01*
X151771428Y-120730952D01*
%TO.C,R19*%
X157357142Y-127752380D02*
X157023809Y-127276190D01*
X156785714Y-127752380D02*
X156785714Y-126752380D01*
X157166666Y-126752380D01*
X157261904Y-126800000D01*
X157309523Y-126847619D01*
X157357142Y-126942857D01*
X157357142Y-127085714D01*
X157309523Y-127180952D01*
X157261904Y-127228571D01*
X157166666Y-127276190D01*
X156785714Y-127276190D01*
X158309523Y-127752380D02*
X157738095Y-127752380D01*
X158023809Y-127752380D02*
X158023809Y-126752380D01*
X157928571Y-126895238D01*
X157833333Y-126990476D01*
X157738095Y-127038095D01*
X158785714Y-127752380D02*
X158976190Y-127752380D01*
X159071428Y-127704761D01*
X159119047Y-127657142D01*
X159214285Y-127514285D01*
X159261904Y-127323809D01*
X159261904Y-126942857D01*
X159214285Y-126847619D01*
X159166666Y-126800000D01*
X159071428Y-126752380D01*
X158880952Y-126752380D01*
X158785714Y-126800000D01*
X158738095Y-126847619D01*
X158690476Y-126942857D01*
X158690476Y-127180952D01*
X158738095Y-127276190D01*
X158785714Y-127323809D01*
X158880952Y-127371428D01*
X159071428Y-127371428D01*
X159166666Y-127323809D01*
X159214285Y-127276190D01*
X159261904Y-127180952D01*
%TO.C,R20*%
X182857142Y-70402380D02*
X182523809Y-69926190D01*
X182285714Y-70402380D02*
X182285714Y-69402380D01*
X182666666Y-69402380D01*
X182761904Y-69450000D01*
X182809523Y-69497619D01*
X182857142Y-69592857D01*
X182857142Y-69735714D01*
X182809523Y-69830952D01*
X182761904Y-69878571D01*
X182666666Y-69926190D01*
X182285714Y-69926190D01*
X183238095Y-69497619D02*
X183285714Y-69450000D01*
X183380952Y-69402380D01*
X183619047Y-69402380D01*
X183714285Y-69450000D01*
X183761904Y-69497619D01*
X183809523Y-69592857D01*
X183809523Y-69688095D01*
X183761904Y-69830952D01*
X183190476Y-70402380D01*
X183809523Y-70402380D01*
X184428571Y-69402380D02*
X184523809Y-69402380D01*
X184619047Y-69450000D01*
X184666666Y-69497619D01*
X184714285Y-69592857D01*
X184761904Y-69783333D01*
X184761904Y-70021428D01*
X184714285Y-70211904D01*
X184666666Y-70307142D01*
X184619047Y-70354761D01*
X184523809Y-70402380D01*
X184428571Y-70402380D01*
X184333333Y-70354761D01*
X184285714Y-70307142D01*
X184238095Y-70211904D01*
X184190476Y-70021428D01*
X184190476Y-69783333D01*
X184238095Y-69592857D01*
X184285714Y-69497619D01*
X184333333Y-69450000D01*
X184428571Y-69402380D01*
%TO.C,R21*%
X183307142Y-119952380D02*
X182973809Y-119476190D01*
X182735714Y-119952380D02*
X182735714Y-118952380D01*
X183116666Y-118952380D01*
X183211904Y-119000000D01*
X183259523Y-119047619D01*
X183307142Y-119142857D01*
X183307142Y-119285714D01*
X183259523Y-119380952D01*
X183211904Y-119428571D01*
X183116666Y-119476190D01*
X182735714Y-119476190D01*
X183688095Y-119047619D02*
X183735714Y-119000000D01*
X183830952Y-118952380D01*
X184069047Y-118952380D01*
X184164285Y-119000000D01*
X184211904Y-119047619D01*
X184259523Y-119142857D01*
X184259523Y-119238095D01*
X184211904Y-119380952D01*
X183640476Y-119952380D01*
X184259523Y-119952380D01*
X185211904Y-119952380D02*
X184640476Y-119952380D01*
X184926190Y-119952380D02*
X184926190Y-118952380D01*
X184830952Y-119095238D01*
X184735714Y-119190476D01*
X184640476Y-119238095D01*
%TO.C,R22*%
X172957142Y-67752380D02*
X172623809Y-67276190D01*
X172385714Y-67752380D02*
X172385714Y-66752380D01*
X172766666Y-66752380D01*
X172861904Y-66800000D01*
X172909523Y-66847619D01*
X172957142Y-66942857D01*
X172957142Y-67085714D01*
X172909523Y-67180952D01*
X172861904Y-67228571D01*
X172766666Y-67276190D01*
X172385714Y-67276190D01*
X173338095Y-66847619D02*
X173385714Y-66800000D01*
X173480952Y-66752380D01*
X173719047Y-66752380D01*
X173814285Y-66800000D01*
X173861904Y-66847619D01*
X173909523Y-66942857D01*
X173909523Y-67038095D01*
X173861904Y-67180952D01*
X173290476Y-67752380D01*
X173909523Y-67752380D01*
X174290476Y-66847619D02*
X174338095Y-66800000D01*
X174433333Y-66752380D01*
X174671428Y-66752380D01*
X174766666Y-66800000D01*
X174814285Y-66847619D01*
X174861904Y-66942857D01*
X174861904Y-67038095D01*
X174814285Y-67180952D01*
X174242857Y-67752380D01*
X174861904Y-67752380D01*
%TO.C,R23*%
X172757142Y-123352380D02*
X172423809Y-122876190D01*
X172185714Y-123352380D02*
X172185714Y-122352380D01*
X172566666Y-122352380D01*
X172661904Y-122400000D01*
X172709523Y-122447619D01*
X172757142Y-122542857D01*
X172757142Y-122685714D01*
X172709523Y-122780952D01*
X172661904Y-122828571D01*
X172566666Y-122876190D01*
X172185714Y-122876190D01*
X173138095Y-122447619D02*
X173185714Y-122400000D01*
X173280952Y-122352380D01*
X173519047Y-122352380D01*
X173614285Y-122400000D01*
X173661904Y-122447619D01*
X173709523Y-122542857D01*
X173709523Y-122638095D01*
X173661904Y-122780952D01*
X173090476Y-123352380D01*
X173709523Y-123352380D01*
X174042857Y-122352380D02*
X174661904Y-122352380D01*
X174328571Y-122733333D01*
X174471428Y-122733333D01*
X174566666Y-122780952D01*
X174614285Y-122828571D01*
X174661904Y-122923809D01*
X174661904Y-123161904D01*
X174614285Y-123257142D01*
X174566666Y-123304761D01*
X174471428Y-123352380D01*
X174185714Y-123352380D01*
X174090476Y-123304761D01*
X174042857Y-123257142D01*
%TO.C,R24*%
X100847619Y-54257142D02*
X101323809Y-53923809D01*
X100847619Y-53685714D02*
X101847619Y-53685714D01*
X101847619Y-54066666D01*
X101800000Y-54161904D01*
X101752380Y-54209523D01*
X101657142Y-54257142D01*
X101514285Y-54257142D01*
X101419047Y-54209523D01*
X101371428Y-54161904D01*
X101323809Y-54066666D01*
X101323809Y-53685714D01*
X101752380Y-54638095D02*
X101800000Y-54685714D01*
X101847619Y-54780952D01*
X101847619Y-55019047D01*
X101800000Y-55114285D01*
X101752380Y-55161904D01*
X101657142Y-55209523D01*
X101561904Y-55209523D01*
X101419047Y-55161904D01*
X100847619Y-54590476D01*
X100847619Y-55209523D01*
X101514285Y-56066666D02*
X100847619Y-56066666D01*
X101895238Y-55828571D02*
X101180952Y-55590476D01*
X101180952Y-56209523D01*
%TO.C,R25*%
X100847619Y-63207142D02*
X101323809Y-62873809D01*
X100847619Y-62635714D02*
X101847619Y-62635714D01*
X101847619Y-63016666D01*
X101800000Y-63111904D01*
X101752380Y-63159523D01*
X101657142Y-63207142D01*
X101514285Y-63207142D01*
X101419047Y-63159523D01*
X101371428Y-63111904D01*
X101323809Y-63016666D01*
X101323809Y-62635714D01*
X101752380Y-63588095D02*
X101800000Y-63635714D01*
X101847619Y-63730952D01*
X101847619Y-63969047D01*
X101800000Y-64064285D01*
X101752380Y-64111904D01*
X101657142Y-64159523D01*
X101561904Y-64159523D01*
X101419047Y-64111904D01*
X100847619Y-63540476D01*
X100847619Y-64159523D01*
X101847619Y-65064285D02*
X101847619Y-64588095D01*
X101371428Y-64540476D01*
X101419047Y-64588095D01*
X101466666Y-64683333D01*
X101466666Y-64921428D01*
X101419047Y-65016666D01*
X101371428Y-65064285D01*
X101276190Y-65111904D01*
X101038095Y-65111904D01*
X100942857Y-65064285D01*
X100895238Y-65016666D01*
X100847619Y-64921428D01*
X100847619Y-64683333D01*
X100895238Y-64588095D01*
X100942857Y-64540476D01*
%TO.C,R26*%
X100847619Y-71707142D02*
X101323809Y-71373809D01*
X100847619Y-71135714D02*
X101847619Y-71135714D01*
X101847619Y-71516666D01*
X101800000Y-71611904D01*
X101752380Y-71659523D01*
X101657142Y-71707142D01*
X101514285Y-71707142D01*
X101419047Y-71659523D01*
X101371428Y-71611904D01*
X101323809Y-71516666D01*
X101323809Y-71135714D01*
X101752380Y-72088095D02*
X101800000Y-72135714D01*
X101847619Y-72230952D01*
X101847619Y-72469047D01*
X101800000Y-72564285D01*
X101752380Y-72611904D01*
X101657142Y-72659523D01*
X101561904Y-72659523D01*
X101419047Y-72611904D01*
X100847619Y-72040476D01*
X100847619Y-72659523D01*
X101847619Y-73516666D02*
X101847619Y-73326190D01*
X101800000Y-73230952D01*
X101752380Y-73183333D01*
X101609523Y-73088095D01*
X101419047Y-73040476D01*
X101038095Y-73040476D01*
X100942857Y-73088095D01*
X100895238Y-73135714D01*
X100847619Y-73230952D01*
X100847619Y-73421428D01*
X100895238Y-73516666D01*
X100942857Y-73564285D01*
X101038095Y-73611904D01*
X101276190Y-73611904D01*
X101371428Y-73564285D01*
X101419047Y-73516666D01*
X101466666Y-73421428D01*
X101466666Y-73230952D01*
X101419047Y-73135714D01*
X101371428Y-73088095D01*
X101276190Y-73040476D01*
%TO.C,R27*%
X100981119Y-113928142D02*
X101457309Y-113594809D01*
X100981119Y-113356714D02*
X101981119Y-113356714D01*
X101981119Y-113737666D01*
X101933500Y-113832904D01*
X101885880Y-113880523D01*
X101790642Y-113928142D01*
X101647785Y-113928142D01*
X101552547Y-113880523D01*
X101504928Y-113832904D01*
X101457309Y-113737666D01*
X101457309Y-113356714D01*
X101885880Y-114309095D02*
X101933500Y-114356714D01*
X101981119Y-114451952D01*
X101981119Y-114690047D01*
X101933500Y-114785285D01*
X101885880Y-114832904D01*
X101790642Y-114880523D01*
X101695404Y-114880523D01*
X101552547Y-114832904D01*
X100981119Y-114261476D01*
X100981119Y-114880523D01*
X101981119Y-115213857D02*
X101981119Y-115880523D01*
X100981119Y-115451952D01*
%TO.C,R28*%
X100981119Y-123288142D02*
X101457309Y-122954809D01*
X100981119Y-122716714D02*
X101981119Y-122716714D01*
X101981119Y-123097666D01*
X101933500Y-123192904D01*
X101885880Y-123240523D01*
X101790642Y-123288142D01*
X101647785Y-123288142D01*
X101552547Y-123240523D01*
X101504928Y-123192904D01*
X101457309Y-123097666D01*
X101457309Y-122716714D01*
X101885880Y-123669095D02*
X101933500Y-123716714D01*
X101981119Y-123811952D01*
X101981119Y-124050047D01*
X101933500Y-124145285D01*
X101885880Y-124192904D01*
X101790642Y-124240523D01*
X101695404Y-124240523D01*
X101552547Y-124192904D01*
X100981119Y-123621476D01*
X100981119Y-124240523D01*
X101552547Y-124811952D02*
X101600166Y-124716714D01*
X101647785Y-124669095D01*
X101743023Y-124621476D01*
X101790642Y-124621476D01*
X101885880Y-124669095D01*
X101933500Y-124716714D01*
X101981119Y-124811952D01*
X101981119Y-125002428D01*
X101933500Y-125097666D01*
X101885880Y-125145285D01*
X101790642Y-125192904D01*
X101743023Y-125192904D01*
X101647785Y-125145285D01*
X101600166Y-125097666D01*
X101552547Y-125002428D01*
X101552547Y-124811952D01*
X101504928Y-124716714D01*
X101457309Y-124669095D01*
X101362071Y-124621476D01*
X101171595Y-124621476D01*
X101076357Y-124669095D01*
X101028738Y-124716714D01*
X100981119Y-124811952D01*
X100981119Y-125002428D01*
X101028738Y-125097666D01*
X101076357Y-125145285D01*
X101171595Y-125192904D01*
X101362071Y-125192904D01*
X101457309Y-125145285D01*
X101504928Y-125097666D01*
X101552547Y-125002428D01*
%TO.C,R29*%
X156191142Y-81552380D02*
X155857809Y-81076190D01*
X155619714Y-81552380D02*
X155619714Y-80552380D01*
X156000666Y-80552380D01*
X156095904Y-80600000D01*
X156143523Y-80647619D01*
X156191142Y-80742857D01*
X156191142Y-80885714D01*
X156143523Y-80980952D01*
X156095904Y-81028571D01*
X156000666Y-81076190D01*
X155619714Y-81076190D01*
X156572095Y-80647619D02*
X156619714Y-80600000D01*
X156714952Y-80552380D01*
X156953047Y-80552380D01*
X157048285Y-80600000D01*
X157095904Y-80647619D01*
X157143523Y-80742857D01*
X157143523Y-80838095D01*
X157095904Y-80980952D01*
X156524476Y-81552380D01*
X157143523Y-81552380D01*
X157619714Y-81552380D02*
X157810190Y-81552380D01*
X157905428Y-81504761D01*
X157953047Y-81457142D01*
X158048285Y-81314285D01*
X158095904Y-81123809D01*
X158095904Y-80742857D01*
X158048285Y-80647619D01*
X158000666Y-80600000D01*
X157905428Y-80552380D01*
X157714952Y-80552380D01*
X157619714Y-80600000D01*
X157572095Y-80647619D01*
X157524476Y-80742857D01*
X157524476Y-80980952D01*
X157572095Y-81076190D01*
X157619714Y-81123809D01*
X157714952Y-81171428D01*
X157905428Y-81171428D01*
X158000666Y-81123809D01*
X158048285Y-81076190D01*
X158095904Y-80980952D01*
%TO.C,R30*%
X100981119Y-132648142D02*
X101457309Y-132314809D01*
X100981119Y-132076714D02*
X101981119Y-132076714D01*
X101981119Y-132457666D01*
X101933500Y-132552904D01*
X101885880Y-132600523D01*
X101790642Y-132648142D01*
X101647785Y-132648142D01*
X101552547Y-132600523D01*
X101504928Y-132552904D01*
X101457309Y-132457666D01*
X101457309Y-132076714D01*
X101981119Y-132981476D02*
X101981119Y-133600523D01*
X101600166Y-133267190D01*
X101600166Y-133410047D01*
X101552547Y-133505285D01*
X101504928Y-133552904D01*
X101409690Y-133600523D01*
X101171595Y-133600523D01*
X101076357Y-133552904D01*
X101028738Y-133505285D01*
X100981119Y-133410047D01*
X100981119Y-133124333D01*
X101028738Y-133029095D01*
X101076357Y-132981476D01*
X101981119Y-134219571D02*
X101981119Y-134314809D01*
X101933500Y-134410047D01*
X101885880Y-134457666D01*
X101790642Y-134505285D01*
X101600166Y-134552904D01*
X101362071Y-134552904D01*
X101171595Y-134505285D01*
X101076357Y-134457666D01*
X101028738Y-134410047D01*
X100981119Y-134314809D01*
X100981119Y-134219571D01*
X101028738Y-134124333D01*
X101076357Y-134076714D01*
X101171595Y-134029095D01*
X101362071Y-133981476D01*
X101600166Y-133981476D01*
X101790642Y-134029095D01*
X101885880Y-134076714D01*
X101933500Y-134124333D01*
X101981119Y-134219571D01*
%TO.C,R31*%
X107007142Y-55202380D02*
X106673809Y-54726190D01*
X106435714Y-55202380D02*
X106435714Y-54202380D01*
X106816666Y-54202380D01*
X106911904Y-54250000D01*
X106959523Y-54297619D01*
X107007142Y-54392857D01*
X107007142Y-54535714D01*
X106959523Y-54630952D01*
X106911904Y-54678571D01*
X106816666Y-54726190D01*
X106435714Y-54726190D01*
X107340476Y-54202380D02*
X107959523Y-54202380D01*
X107626190Y-54583333D01*
X107769047Y-54583333D01*
X107864285Y-54630952D01*
X107911904Y-54678571D01*
X107959523Y-54773809D01*
X107959523Y-55011904D01*
X107911904Y-55107142D01*
X107864285Y-55154761D01*
X107769047Y-55202380D01*
X107483333Y-55202380D01*
X107388095Y-55154761D01*
X107340476Y-55107142D01*
X108911904Y-55202380D02*
X108340476Y-55202380D01*
X108626190Y-55202380D02*
X108626190Y-54202380D01*
X108530952Y-54345238D01*
X108435714Y-54440476D01*
X108340476Y-54488095D01*
%TO.C,R32*%
X108107142Y-63252380D02*
X107773809Y-62776190D01*
X107535714Y-63252380D02*
X107535714Y-62252380D01*
X107916666Y-62252380D01*
X108011904Y-62300000D01*
X108059523Y-62347619D01*
X108107142Y-62442857D01*
X108107142Y-62585714D01*
X108059523Y-62680952D01*
X108011904Y-62728571D01*
X107916666Y-62776190D01*
X107535714Y-62776190D01*
X108440476Y-62252380D02*
X109059523Y-62252380D01*
X108726190Y-62633333D01*
X108869047Y-62633333D01*
X108964285Y-62680952D01*
X109011904Y-62728571D01*
X109059523Y-62823809D01*
X109059523Y-63061904D01*
X109011904Y-63157142D01*
X108964285Y-63204761D01*
X108869047Y-63252380D01*
X108583333Y-63252380D01*
X108488095Y-63204761D01*
X108440476Y-63157142D01*
X109440476Y-62347619D02*
X109488095Y-62300000D01*
X109583333Y-62252380D01*
X109821428Y-62252380D01*
X109916666Y-62300000D01*
X109964285Y-62347619D01*
X110011904Y-62442857D01*
X110011904Y-62538095D01*
X109964285Y-62680952D01*
X109392857Y-63252380D01*
X110011904Y-63252380D01*
%TO.C,R33*%
X105757142Y-135452380D02*
X105423809Y-134976190D01*
X105185714Y-135452380D02*
X105185714Y-134452380D01*
X105566666Y-134452380D01*
X105661904Y-134500000D01*
X105709523Y-134547619D01*
X105757142Y-134642857D01*
X105757142Y-134785714D01*
X105709523Y-134880952D01*
X105661904Y-134928571D01*
X105566666Y-134976190D01*
X105185714Y-134976190D01*
X106090476Y-134452380D02*
X106709523Y-134452380D01*
X106376190Y-134833333D01*
X106519047Y-134833333D01*
X106614285Y-134880952D01*
X106661904Y-134928571D01*
X106709523Y-135023809D01*
X106709523Y-135261904D01*
X106661904Y-135357142D01*
X106614285Y-135404761D01*
X106519047Y-135452380D01*
X106233333Y-135452380D01*
X106138095Y-135404761D01*
X106090476Y-135357142D01*
X107042857Y-134452380D02*
X107661904Y-134452380D01*
X107328571Y-134833333D01*
X107471428Y-134833333D01*
X107566666Y-134880952D01*
X107614285Y-134928571D01*
X107661904Y-135023809D01*
X107661904Y-135261904D01*
X107614285Y-135357142D01*
X107566666Y-135404761D01*
X107471428Y-135452380D01*
X107185714Y-135452380D01*
X107090476Y-135404761D01*
X107042857Y-135357142D01*
%TO.C,R34*%
X108107142Y-127602380D02*
X107773809Y-127126190D01*
X107535714Y-127602380D02*
X107535714Y-126602380D01*
X107916666Y-126602380D01*
X108011904Y-126650000D01*
X108059523Y-126697619D01*
X108107142Y-126792857D01*
X108107142Y-126935714D01*
X108059523Y-127030952D01*
X108011904Y-127078571D01*
X107916666Y-127126190D01*
X107535714Y-127126190D01*
X108440476Y-126602380D02*
X109059523Y-126602380D01*
X108726190Y-126983333D01*
X108869047Y-126983333D01*
X108964285Y-127030952D01*
X109011904Y-127078571D01*
X109059523Y-127173809D01*
X109059523Y-127411904D01*
X109011904Y-127507142D01*
X108964285Y-127554761D01*
X108869047Y-127602380D01*
X108583333Y-127602380D01*
X108488095Y-127554761D01*
X108440476Y-127507142D01*
X109916666Y-126935714D02*
X109916666Y-127602380D01*
X109678571Y-126554761D02*
X109440476Y-127269047D01*
X110059523Y-127269047D01*
%TO.C,SW1*%
X112023933Y-72277970D02*
X112167600Y-72323088D01*
X112405659Y-72318933D01*
X112500051Y-72269659D01*
X112546832Y-72221216D01*
X112592782Y-72125161D01*
X112591120Y-72029938D01*
X112541846Y-71935545D01*
X112493403Y-71888765D01*
X112397348Y-71842815D01*
X112206070Y-71798527D01*
X112110015Y-71752578D01*
X112061572Y-71705797D01*
X112012298Y-71611405D01*
X112010636Y-71516181D01*
X112056586Y-71420126D01*
X112103367Y-71371683D01*
X112197759Y-71322409D01*
X112435818Y-71318254D01*
X112579485Y-71363373D01*
X112911936Y-71309943D02*
X113167447Y-72305636D01*
X113345429Y-71588135D01*
X113548342Y-72298987D01*
X113768948Y-71294984D01*
X114691025Y-72279042D02*
X114119683Y-72289014D01*
X114405354Y-72284028D02*
X114387902Y-71284180D01*
X114295171Y-71428678D01*
X114201610Y-71525564D01*
X114107217Y-71574838D01*
%TO.C,SW2*%
X102416666Y-58604761D02*
X102559523Y-58652380D01*
X102797619Y-58652380D01*
X102892857Y-58604761D01*
X102940476Y-58557142D01*
X102988095Y-58461904D01*
X102988095Y-58366666D01*
X102940476Y-58271428D01*
X102892857Y-58223809D01*
X102797619Y-58176190D01*
X102607142Y-58128571D01*
X102511904Y-58080952D01*
X102464285Y-58033333D01*
X102416666Y-57938095D01*
X102416666Y-57842857D01*
X102464285Y-57747619D01*
X102511904Y-57700000D01*
X102607142Y-57652380D01*
X102845238Y-57652380D01*
X102988095Y-57700000D01*
X103321428Y-57652380D02*
X103559523Y-58652380D01*
X103750000Y-57938095D01*
X103940476Y-58652380D01*
X104178571Y-57652380D01*
X104511904Y-57747619D02*
X104559523Y-57700000D01*
X104654761Y-57652380D01*
X104892857Y-57652380D01*
X104988095Y-57700000D01*
X105035714Y-57747619D01*
X105083333Y-57842857D01*
X105083333Y-57938095D01*
X105035714Y-58080952D01*
X104464285Y-58652380D01*
X105083333Y-58652380D01*
%TO.C,SW3*%
X102366666Y-127104761D02*
X102509523Y-127152380D01*
X102747619Y-127152380D01*
X102842857Y-127104761D01*
X102890476Y-127057142D01*
X102938095Y-126961904D01*
X102938095Y-126866666D01*
X102890476Y-126771428D01*
X102842857Y-126723809D01*
X102747619Y-126676190D01*
X102557142Y-126628571D01*
X102461904Y-126580952D01*
X102414285Y-126533333D01*
X102366666Y-126438095D01*
X102366666Y-126342857D01*
X102414285Y-126247619D01*
X102461904Y-126200000D01*
X102557142Y-126152380D01*
X102795238Y-126152380D01*
X102938095Y-126200000D01*
X103271428Y-126152380D02*
X103509523Y-127152380D01*
X103700000Y-126438095D01*
X103890476Y-127152380D01*
X104128571Y-126152380D01*
X104414285Y-126152380D02*
X105033333Y-126152380D01*
X104700000Y-126533333D01*
X104842857Y-126533333D01*
X104938095Y-126580952D01*
X104985714Y-126628571D01*
X105033333Y-126723809D01*
X105033333Y-126961904D01*
X104985714Y-127057142D01*
X104938095Y-127104761D01*
X104842857Y-127152380D01*
X104557142Y-127152380D01*
X104461904Y-127104761D01*
X104414285Y-127057142D01*
%TO.C,U1*%
X106088095Y-90252380D02*
X106088095Y-91061904D01*
X106135714Y-91157142D01*
X106183333Y-91204761D01*
X106278571Y-91252380D01*
X106469047Y-91252380D01*
X106564285Y-91204761D01*
X106611904Y-91157142D01*
X106659523Y-91061904D01*
X106659523Y-90252380D01*
X107659523Y-91252380D02*
X107088095Y-91252380D01*
X107373809Y-91252380D02*
X107373809Y-90252380D01*
X107278571Y-90395238D01*
X107183333Y-90490476D01*
X107088095Y-90538095D01*
%TO.C,U2*%
X172838095Y-93502380D02*
X172838095Y-94311904D01*
X172885714Y-94407142D01*
X172933333Y-94454761D01*
X173028571Y-94502380D01*
X173219047Y-94502380D01*
X173314285Y-94454761D01*
X173361904Y-94407142D01*
X173409523Y-94311904D01*
X173409523Y-93502380D01*
X173838095Y-93597619D02*
X173885714Y-93550000D01*
X173980952Y-93502380D01*
X174219047Y-93502380D01*
X174314285Y-93550000D01*
X174361904Y-93597619D01*
X174409523Y-93692857D01*
X174409523Y-93788095D01*
X174361904Y-93930952D01*
X173790476Y-94502380D01*
X174409523Y-94502380D01*
%TO.C,U4*%
X154238095Y-133552380D02*
X154238095Y-134361904D01*
X154285714Y-134457142D01*
X154333333Y-134504761D01*
X154428571Y-134552380D01*
X154619047Y-134552380D01*
X154714285Y-134504761D01*
X154761904Y-134457142D01*
X154809523Y-134361904D01*
X154809523Y-133552380D01*
X155714285Y-133885714D02*
X155714285Y-134552380D01*
X155476190Y-133504761D02*
X155238095Y-134219047D01*
X155857142Y-134219047D01*
%TO.C,U5*%
X176472095Y-72393880D02*
X176472095Y-73203404D01*
X176519714Y-73298642D01*
X176567333Y-73346261D01*
X176662571Y-73393880D01*
X176853047Y-73393880D01*
X176948285Y-73346261D01*
X176995904Y-73298642D01*
X177043523Y-73203404D01*
X177043523Y-72393880D01*
X177995904Y-72393880D02*
X177519714Y-72393880D01*
X177472095Y-72870071D01*
X177519714Y-72822452D01*
X177614952Y-72774833D01*
X177853047Y-72774833D01*
X177948285Y-72822452D01*
X177995904Y-72870071D01*
X178043523Y-72965309D01*
X178043523Y-73203404D01*
X177995904Y-73298642D01*
X177948285Y-73346261D01*
X177853047Y-73393880D01*
X177614952Y-73393880D01*
X177519714Y-73346261D01*
X177472095Y-73298642D01*
%TO.C,U6*%
X176472095Y-116602380D02*
X176472095Y-117411904D01*
X176519714Y-117507142D01*
X176567333Y-117554761D01*
X176662571Y-117602380D01*
X176853047Y-117602380D01*
X176948285Y-117554761D01*
X176995904Y-117507142D01*
X177043523Y-117411904D01*
X177043523Y-116602380D01*
X177948285Y-116602380D02*
X177757809Y-116602380D01*
X177662571Y-116650000D01*
X177614952Y-116697619D01*
X177519714Y-116840476D01*
X177472095Y-117030952D01*
X177472095Y-117411904D01*
X177519714Y-117507142D01*
X177567333Y-117554761D01*
X177662571Y-117602380D01*
X177853047Y-117602380D01*
X177948285Y-117554761D01*
X177995904Y-117507142D01*
X178043523Y-117411904D01*
X178043523Y-117173809D01*
X177995904Y-117078571D01*
X177948285Y-117030952D01*
X177853047Y-116983333D01*
X177662571Y-116983333D01*
X177567333Y-117030952D01*
X177519714Y-117078571D01*
X177472095Y-117173809D01*
%TO.C,J6*%
X183066666Y-93502380D02*
X183066666Y-94216666D01*
X183019047Y-94359523D01*
X182923809Y-94454761D01*
X182780952Y-94502380D01*
X182685714Y-94502380D01*
X183971428Y-93502380D02*
X183780952Y-93502380D01*
X183685714Y-93550000D01*
X183638095Y-93597619D01*
X183542857Y-93740476D01*
X183495238Y-93930952D01*
X183495238Y-94311904D01*
X183542857Y-94407142D01*
X183590476Y-94454761D01*
X183685714Y-94502380D01*
X183876190Y-94502380D01*
X183971428Y-94454761D01*
X184019047Y-94407142D01*
X184066666Y-94311904D01*
X184066666Y-94073809D01*
X184019047Y-93978571D01*
X183971428Y-93930952D01*
X183876190Y-93883333D01*
X183685714Y-93883333D01*
X183590476Y-93930952D01*
X183542857Y-93978571D01*
X183495238Y-94073809D01*
%TO.C,J8*%
X124066666Y-87002380D02*
X124066666Y-87716666D01*
X124019047Y-87859523D01*
X123923809Y-87954761D01*
X123780952Y-88002380D01*
X123685714Y-88002380D01*
X124685714Y-87430952D02*
X124590476Y-87383333D01*
X124542857Y-87335714D01*
X124495238Y-87240476D01*
X124495238Y-87192857D01*
X124542857Y-87097619D01*
X124590476Y-87050000D01*
X124685714Y-87002380D01*
X124876190Y-87002380D01*
X124971428Y-87050000D01*
X125019047Y-87097619D01*
X125066666Y-87192857D01*
X125066666Y-87240476D01*
X125019047Y-87335714D01*
X124971428Y-87383333D01*
X124876190Y-87430952D01*
X124685714Y-87430952D01*
X124590476Y-87478571D01*
X124542857Y-87526190D01*
X124495238Y-87621428D01*
X124495238Y-87811904D01*
X124542857Y-87907142D01*
X124590476Y-87954761D01*
X124685714Y-88002380D01*
X124876190Y-88002380D01*
X124971428Y-87954761D01*
X125019047Y-87907142D01*
X125066666Y-87811904D01*
X125066666Y-87621428D01*
X125019047Y-87526190D01*
X124971428Y-87478571D01*
X124876190Y-87430952D01*
%TO.C,C13*%
X139607142Y-85607142D02*
X139559523Y-85654761D01*
X139416666Y-85702380D01*
X139321428Y-85702380D01*
X139178571Y-85654761D01*
X139083333Y-85559523D01*
X139035714Y-85464285D01*
X138988095Y-85273809D01*
X138988095Y-85130952D01*
X139035714Y-84940476D01*
X139083333Y-84845238D01*
X139178571Y-84750000D01*
X139321428Y-84702380D01*
X139416666Y-84702380D01*
X139559523Y-84750000D01*
X139607142Y-84797619D01*
X140559523Y-85702380D02*
X139988095Y-85702380D01*
X140273809Y-85702380D02*
X140273809Y-84702380D01*
X140178571Y-84845238D01*
X140083333Y-84940476D01*
X139988095Y-84988095D01*
X140892857Y-84702380D02*
X141511904Y-84702380D01*
X141178571Y-85083333D01*
X141321428Y-85083333D01*
X141416666Y-85130952D01*
X141464285Y-85178571D01*
X141511904Y-85273809D01*
X141511904Y-85511904D01*
X141464285Y-85607142D01*
X141416666Y-85654761D01*
X141321428Y-85702380D01*
X141035714Y-85702380D01*
X140940476Y-85654761D01*
X140892857Y-85607142D01*
%TO.C,J7*%
X151470666Y-82289780D02*
X151470666Y-83004066D01*
X151423047Y-83146923D01*
X151327809Y-83242161D01*
X151184952Y-83289780D01*
X151089714Y-83289780D01*
X151851619Y-82289780D02*
X152518285Y-82289780D01*
X152089714Y-83289780D01*
%TO.C,J9*%
X102666666Y-85302380D02*
X102666666Y-86016666D01*
X102619047Y-86159523D01*
X102523809Y-86254761D01*
X102380952Y-86302380D01*
X102285714Y-86302380D01*
X103190476Y-86302380D02*
X103380952Y-86302380D01*
X103476190Y-86254761D01*
X103523809Y-86207142D01*
X103619047Y-86064285D01*
X103666666Y-85873809D01*
X103666666Y-85492857D01*
X103619047Y-85397619D01*
X103571428Y-85350000D01*
X103476190Y-85302380D01*
X103285714Y-85302380D01*
X103190476Y-85350000D01*
X103142857Y-85397619D01*
X103095238Y-85492857D01*
X103095238Y-85730952D01*
X103142857Y-85826190D01*
X103190476Y-85873809D01*
X103285714Y-85921428D01*
X103476190Y-85921428D01*
X103571428Y-85873809D01*
X103619047Y-85826190D01*
X103666666Y-85730952D01*
%TO.C,J12*%
X102390476Y-103052380D02*
X102390476Y-103766666D01*
X102342857Y-103909523D01*
X102247619Y-104004761D01*
X102104761Y-104052380D01*
X102009523Y-104052380D01*
X103390476Y-104052380D02*
X102819047Y-104052380D01*
X103104761Y-104052380D02*
X103104761Y-103052380D01*
X103009523Y-103195238D01*
X102914285Y-103290476D01*
X102819047Y-103338095D01*
X103771428Y-103147619D02*
X103819047Y-103100000D01*
X103914285Y-103052380D01*
X104152380Y-103052380D01*
X104247619Y-103100000D01*
X104295238Y-103147619D01*
X104342857Y-103242857D01*
X104342857Y-103338095D01*
X104295238Y-103480952D01*
X103723809Y-104052380D01*
X104342857Y-104052380D01*
%TO.C,C14*%
X112507142Y-105207142D02*
X112459523Y-105254761D01*
X112316666Y-105302380D01*
X112221428Y-105302380D01*
X112078571Y-105254761D01*
X111983333Y-105159523D01*
X111935714Y-105064285D01*
X111888095Y-104873809D01*
X111888095Y-104730952D01*
X111935714Y-104540476D01*
X111983333Y-104445238D01*
X112078571Y-104350000D01*
X112221428Y-104302380D01*
X112316666Y-104302380D01*
X112459523Y-104350000D01*
X112507142Y-104397619D01*
X113459523Y-105302380D02*
X112888095Y-105302380D01*
X113173809Y-105302380D02*
X113173809Y-104302380D01*
X113078571Y-104445238D01*
X112983333Y-104540476D01*
X112888095Y-104588095D01*
X114316666Y-104635714D02*
X114316666Y-105302380D01*
X114078571Y-104254761D02*
X113840476Y-104969047D01*
X114459523Y-104969047D01*
%TO.C,C15*%
X156107142Y-82657142D02*
X156059523Y-82704761D01*
X155916666Y-82752380D01*
X155821428Y-82752380D01*
X155678571Y-82704761D01*
X155583333Y-82609523D01*
X155535714Y-82514285D01*
X155488095Y-82323809D01*
X155488095Y-82180952D01*
X155535714Y-81990476D01*
X155583333Y-81895238D01*
X155678571Y-81800000D01*
X155821428Y-81752380D01*
X155916666Y-81752380D01*
X156059523Y-81800000D01*
X156107142Y-81847619D01*
X157059523Y-82752380D02*
X156488095Y-82752380D01*
X156773809Y-82752380D02*
X156773809Y-81752380D01*
X156678571Y-81895238D01*
X156583333Y-81990476D01*
X156488095Y-82038095D01*
X157964285Y-81752380D02*
X157488095Y-81752380D01*
X157440476Y-82228571D01*
X157488095Y-82180952D01*
X157583333Y-82133333D01*
X157821428Y-82133333D01*
X157916666Y-82180952D01*
X157964285Y-82228571D01*
X158011904Y-82323809D01*
X158011904Y-82561904D01*
X157964285Y-82657142D01*
X157916666Y-82704761D01*
X157821428Y-82752380D01*
X157583333Y-82752380D01*
X157488095Y-82704761D01*
X157440476Y-82657142D01*
%TO.C,C16*%
X112457142Y-107007142D02*
X112409523Y-107054761D01*
X112266666Y-107102380D01*
X112171428Y-107102380D01*
X112028571Y-107054761D01*
X111933333Y-106959523D01*
X111885714Y-106864285D01*
X111838095Y-106673809D01*
X111838095Y-106530952D01*
X111885714Y-106340476D01*
X111933333Y-106245238D01*
X112028571Y-106150000D01*
X112171428Y-106102380D01*
X112266666Y-106102380D01*
X112409523Y-106150000D01*
X112457142Y-106197619D01*
X113409523Y-107102380D02*
X112838095Y-107102380D01*
X113123809Y-107102380D02*
X113123809Y-106102380D01*
X113028571Y-106245238D01*
X112933333Y-106340476D01*
X112838095Y-106388095D01*
X114266666Y-106102380D02*
X114076190Y-106102380D01*
X113980952Y-106150000D01*
X113933333Y-106197619D01*
X113838095Y-106340476D01*
X113790476Y-106530952D01*
X113790476Y-106911904D01*
X113838095Y-107007142D01*
X113885714Y-107054761D01*
X113980952Y-107102380D01*
X114171428Y-107102380D01*
X114266666Y-107054761D01*
X114314285Y-107007142D01*
X114361904Y-106911904D01*
X114361904Y-106673809D01*
X114314285Y-106578571D01*
X114266666Y-106530952D01*
X114171428Y-106483333D01*
X113980952Y-106483333D01*
X113885714Y-106530952D01*
X113838095Y-106578571D01*
X113790476Y-106673809D01*
%TO.C,C17*%
X156157142Y-80657142D02*
X156109523Y-80704761D01*
X155966666Y-80752380D01*
X155871428Y-80752380D01*
X155728571Y-80704761D01*
X155633333Y-80609523D01*
X155585714Y-80514285D01*
X155538095Y-80323809D01*
X155538095Y-80180952D01*
X155585714Y-79990476D01*
X155633333Y-79895238D01*
X155728571Y-79800000D01*
X155871428Y-79752380D01*
X155966666Y-79752380D01*
X156109523Y-79800000D01*
X156157142Y-79847619D01*
X157109523Y-80752380D02*
X156538095Y-80752380D01*
X156823809Y-80752380D02*
X156823809Y-79752380D01*
X156728571Y-79895238D01*
X156633333Y-79990476D01*
X156538095Y-80038095D01*
X157442857Y-79752380D02*
X158109523Y-79752380D01*
X157680952Y-80752380D01*
%TD*%
M02*
